<?xml version="1.0" encoding="UTF-8"?>
<svg xmlns="http://www.w3.org/2000/svg" xmlns:xlink="http://www.w3.org/1999/xlink" width="20px" height="20px" viewBox="0 0 20 20" version="1.1">
<g id="surface1">
<path style="fill-rule:nonzero;fill:rgb(100%,47.45098%,0%);fill-opacity:1;stroke-width:1;stroke-linecap:butt;stroke-linejoin:miter;stroke:rgb(100%,100%,100%);stroke-opacity:1;stroke-miterlimit:4;" d="M 22.5 2.998047 L 21.000977 2.998047 L 21.000977 2.001953 C 21.000977 1.445312 20.551758 1.000977 20 1.000977 L 18.999023 1.000977 C 18.447266 1.000977 17.998047 1.445312 17.998047 2.001953 L 17.998047 2.998047 L 13.999023 2.998047 L 13.999023 2.001953 C 13.999023 1.445312 13.554688 1.000977 12.998047 1.000977 L 12.001953 1.000977 C 11.445312 1.000977 11.000977 1.445312 11.000977 2.001953 L 11.000977 2.998047 L 7.001953 2.998047 L 7.001953 2.001953 C 7.001953 1.445312 6.552734 1.000977 6.000977 1.000977 L 5 1.000977 C 4.448242 1.000977 3.999023 1.445312 3.999023 2.001953 L 3.999023 2.998047 L 2.5 2.998047 C 1.669922 2.998047 1.000977 3.671875 1.000977 4.501953 L 1.000977 22.5 C 1.000977 23.330078 1.669922 23.999023 2.5 23.999023 L 18.500977 23.999023 C 21.533203 23.994141 23.994141 21.533203 23.999023 18.500977 C 23.999023 18.500977 23.999023 18.417969 23.999023 18.369141 C 23.999023 18.320312 23.999023 18.369141 23.999023 18.369141 L 23.999023 4.501953 C 23.999023 3.671875 23.330078 2.998047 22.5 2.998047 Z M 18.999023 2.001953 L 20 2.001953 L 20 5 L 18.999023 5 Z M 12.001953 2.001953 L 12.998047 2.001953 L 12.998047 3.442383 C 12.998047 3.442383 12.998047 3.442383 12.998047 3.500977 C 12.998047 3.55957 12.998047 3.500977 12.998047 3.569336 L 12.998047 5 L 12.001953 5 Z M 5 2.001953 L 6.000977 2.001953 L 6.000977 5 L 5 5 Z M 2.5 3.999023 L 3.999023 3.999023 L 3.999023 5 C 3.999023 5.551758 4.448242 6.000977 5 6.000977 L 6.000977 6.000977 C 6.552734 6.000977 7.001953 5.551758 7.001953 5 L 7.001953 3.999023 L 11.000977 3.999023 L 11.000977 5 C 11.000977 5.551758 11.445312 6.000977 12.001953 6.000977 L 12.998047 6.000977 C 13.554688 6.000977 13.999023 5.551758 13.999023 5 L 13.999023 3.999023 L 17.998047 3.999023 L 17.998047 5 C 17.998047 5.551758 18.447266 6.000977 18.999023 6.000977 L 20 6.000977 C 20.551758 6.000977 21.000977 5.551758 21.000977 5 L 21.000977 3.999023 L 22.5 3.999023 C 22.77832 3.999023 22.998047 4.223633 22.998047 4.501953 L 22.998047 7.998047 L 2.001953 7.998047 L 2.001953 4.501953 C 2.001953 4.223633 2.22168 3.999023 2.5 3.999023 Z M 18.500977 22.998047 C 16.015625 22.998047 13.999023 20.986328 13.999023 18.500977 C 13.999023 16.015625 16.015625 13.999023 18.500977 13.999023 C 20.986328 13.999023 22.998047 16.015625 22.998047 18.500977 C 22.993164 20.981445 20.981445 22.993164 18.500977 22.998047 Z M 18.500977 12.998047 C 16.09375 12.993164 13.964844 14.545898 13.242188 16.84082 C 12.519531 19.135742 13.374023 21.630859 15.351562 22.998047 L 2.5 22.998047 C 2.22168 22.998047 2.001953 22.77832 2.001953 22.5 L 2.001953 8.999023 L 22.998047 8.999023 L 22.998047 15.351562 C 21.972656 13.876953 20.292969 13.00293 18.500977 12.998047 Z M 18.500977 12.998047 " transform="matrix(0.8,0,0,0.8,0,0)"/>
<path style="fill-rule:nonzero;fill:rgb(100%,47.45098%,0%);fill-opacity:1;stroke-width:1;stroke-linecap:butt;stroke-linejoin:miter;stroke:rgb(100%,100%,100%);stroke-opacity:1;stroke-miterlimit:4;" d="M 20.717773 19.047852 L 18.999023 18.188477 L 18.999023 16.499023 C 18.999023 16.225586 18.774414 16.000977 18.500977 16.000977 C 18.222656 16.000977 17.998047 16.225586 17.998047 16.499023 L 17.998047 18.500977 C 18.00293 18.691406 18.110352 18.862305 18.28125 18.950195 L 20.27832 19.951172 C 20.34668 19.980469 20.424805 20 20.498047 20 C 20.732422 20 20.9375 19.838867 20.991211 19.614258 C 21.040039 19.384766 20.927734 19.150391 20.717773 19.047852 Z M 20.717773 19.047852 " transform="matrix(0.8,0,0,0.8,0,0)"/>
</g>
</svg>
