<?xml version="1.0" encoding="UTF-8"?>
<svg xmlns="http://www.w3.org/2000/svg" xmlns:xlink="http://www.w3.org/1999/xlink" width="24px" height="24px" viewBox="0 0 24 24" version="1.1">
<g id="surface1">
<path style="fill-rule:nonzero;fill:rgb(100%,100%,100%);fill-opacity:1;stroke-width:1;stroke-linecap:butt;stroke-linejoin:miter;stroke:rgb(100%,100%,100%);stroke-opacity:1;stroke-miterlimit:4;" d="M 480.730729 335.996354 L 411.470833 335.996354 L 306.885938 226.096354 L 482.938542 119.467187 C 488.253646 116.278125 491.442708 110.963021 492.505729 104.503125 C 492.505729 98.125 490.379687 91.746875 486.127604 87.494792 L 453.010417 54.377604 C 447.695312 49.0625 440.254167 46.936458 432.73125 49.0625 L 196.004687 108.836979 L 117.014062 24.53125 L 115.951042 23.468229 C 100.005729 8.504167 79.726562 0 59.447396 0 C 43.420313 0 27.393229 6.378125 16.763021 17.090104 C -7.768229 42.684375 -4.579167 86.431771 24.204167 117.341146 L 25.267187 118.404167 L 108.509896 197.313021 C 108.509896 198.376042 107.446875 199.439063 107.446875 199.439063 L 46.609375 436.247396 C 44.483333 443.770312 46.609375 451.211458 52.00625 456.526563 L 85.041667 489.561979 C 89.29375 493.895833 94.608854 496.021875 100.005729 496.021875 C 100.005729 496.021875 101.06875 496.021875 102.131771 494.958854 C 108.509896 494.958854 113.825 490.706771 117.014062 485.309896 L 224.788021 307.213021 L 336.732292 412.779167 L 336.732292 481.057813 C 336.732292 492.832812 346.38125 502.4 358.074479 502.4 C 369.849479 502.4 378.353646 492.832812 379.416667 481.057813 L 379.416667 440.499479 C 383.66875 441.5625 388.002604 441.5625 392.254687 441.5625 C 406.073958 441.5625 417.848958 436.247396 426.353125 425.617188 C 438.128125 413.842188 442.380208 395.770833 439.191146 378.680729 L 480.730729 378.680729 C 492.505729 378.680729 502.072917 370.094792 502.072917 357.338542 C 502.072917 345.563542 492.505729 335.996354 480.730729 335.996354 Z M 431.668229 91.746875 L 438.128125 98.125 L 277.039583 194.123958 L 229.040104 142.935417 Z M 95.671875 441.5625 L 89.29375 435.184375 L 142.608333 229.367188 L 193.796875 277.366667 Z M 397.569792 396.833854 C 396.506771 398.959896 394.380729 398.959896 392.254687 398.959896 C 388.002604 398.959896 382.605729 396.833854 379.416667 393.563021 L 55.195312 88.557812 C 40.23125 73.59375 39.168229 55.440625 46.609375 47.999479 C 50.861458 43.747396 56.258333 42.684375 60.510417 42.684375 C 70.077604 42.684375 80.789583 46.936458 88.230729 55.440625 L 393.317708 377.617708 C 399.695833 385.058854 400.758854 393.563021 397.569792 396.833854 Z M 397.569792 396.833854 " transform="matrix(0.0477707,0,0,0.0477707,0,0)"/>
</g>
</svg>
