<svg width="24" height="24" viewBox="0 0 24 24" fill="none" xmlns="http://www.w3.org/2000/svg">
<mask id="mask0_18953_117294" style="mask-type:alpha" maskUnits="userSpaceOnUse" x="0" y="0" width="24" height="24">
<rect width="24" height="24" fill="#D9D9D9"/>
</mask>
<g mask="url(#mask0_18953_117294)">
<path d="M3 20.5V7H7V3H16.5V11H20.5V20.5H13V16.5H10.5V20.5H3ZM4.5 19H7V16.5H4.5V19ZM4.5 15H7V12.5H4.5V15ZM4.5 11H7V8.5H4.5V11ZM8.5 15H11V12.5H8.5V15ZM8.5 11H11V8.5H8.5V11ZM8.5 7H11V4.5H8.5V7ZM12.5 15H15V12.5H12.5V15ZM12.5 11H15V8.5H12.5V11ZM12.5 7H15V4.5H12.5V7ZM16.5 19H19V16.5H16.5V19ZM16.5 15H19V12.5H16.5V15Z" fill="white"/>
</g>
</svg>
