<svg width="24" height="24" viewBox="0 0 24 24" fill="none" xmlns="http://www.w3.org/2000/svg">
<mask id="mask0_17139_189854" style="mask-type:alpha" maskUnits="userSpaceOnUse" x="0" y="0" width="24" height="24">
<rect width="24" height="24" fill="#D9D9D9"/>
</mask>
<g mask="url(#mask0_17139_189854)">
<path d="M12 19V16.875L17.3 11.575L19.425 13.7L14.125 19H12ZM3 14V12H10V14H3ZM20.125 13L18 10.875L18.725 10.15C18.9083 9.96667 19.1417 9.875 19.425 9.875C19.7083 9.875 19.9417 9.96667 20.125 10.15L20.85 10.875C21.0333 11.0583 21.125 11.2917 21.125 11.575C21.125 11.8583 21.0333 12.0917 20.85 12.275L20.125 13ZM3 10V8H14V10H3ZM3 6V4H14V6H3Z" fill="white"/>
</g>
</svg>
