<svg width="24" height="24" viewBox="0 0 24 24" fill="none" xmlns="http://www.w3.org/2000/svg">
<mask id="mask0_18953_117301" style="mask-type:alpha" maskUnits="userSpaceOnUse" x="0" y="0" width="24" height="24">
<rect width="24" height="24" fill="#D9D9D9"/>
</mask>
<g mask="url(#mask0_18953_117301)">
<path d="M4.8077 22C4.30257 22 3.875 21.825 3.525 21.475C3.175 21.125 3 20.6974 3 20.1922V4.8077C3 4.30257 3.175 3.875 3.525 3.525C3.875 3.175 4.30257 3 4.8077 3H12.75L18 8.24995V11.3788L10.1346 19.2192V22H4.8077ZM12.1346 21.9903V20.2981L16.9768 15.45L18.6845 17.1269L13.8268 21.9903H12.1346ZM19.3133 16.5038L17.6307 14.8116L18.3692 14.0731C18.5499 13.8923 18.7659 13.8003 19.0172 13.7971C19.2685 13.7939 19.4762 13.8795 19.6403 14.0539L20.0711 14.5C20.2352 14.6743 20.3156 14.8862 20.3124 15.1356C20.3092 15.3849 20.2223 15.5948 20.0518 15.7654L19.3133 16.5038ZM12 8.99995H16.5L12 4.49997V8.99995Z" fill="white"/>
</g>
</svg>
