<?xml version="1.0" encoding="UTF-8"?>
<svg xmlns="http://www.w3.org/2000/svg" xmlns:xlink="http://www.w3.org/1999/xlink" width="21px" height="21px" viewBox="0 0 21 21" version="1.1">
<g id="surface1">
<path style="fill-rule:nonzero;fill:rgb(100%,100%,100%);fill-opacity:1;stroke-width:1;stroke-linecap:butt;stroke-linejoin:miter;stroke:rgb(100%,100%,100%);stroke-opacity:1;stroke-miterlimit:4;" d="M 48 33 L 16 33 C 8.833333 33 3 38.452381 3 45.142857 L 3 61 L 61 61 L 61 45.142857 C 61 38.452381 55.166667 33 48 33 Z M 35.904762 35 L 35.369048 41 L 28.630952 41 L 28.095238 35 Z M 36 51.440476 L 32 54.714286 L 28 51.440476 L 28.642857 43 L 35.357143 43 Z M 5 59 L 5 45.142857 C 5 39.547619 9.928571 35 16 35 L 26.095238 35 L 26.714286 42 L 26 52.333333 L 32 57.333333 L 38 52.333333 L 37.285714 42 L 37.904762 35 L 48 35 C 54.071429 35 59 39.547619 59 45.142857 L 59 59 Z M 5 59 " transform="matrix(0.328125,0,0,0.328125,0,0)"/>
<path style="fill-rule:nonzero;fill:rgb(100%,100%,100%);fill-opacity:1;stroke-width:1;stroke-linecap:butt;stroke-linejoin:miter;stroke:rgb(100%,100%,100%);stroke-opacity:1;stroke-miterlimit:4;" d="M 32 31 C 39.72619 31 46 24.72619 46 17 C 46 9.27381 39.72619 3 32 3 C 24.27381 3 18 9.27381 18 17 C 18 24.72619 24.27381 31 32 31 Z M 24.690476 26.5 C 28.988095 23.166667 35.011905 23.166667 39.309524 26.5 C 35.011905 29.833333 28.988095 29.833333 24.690476 26.5 Z M 32 5 C 36.761905 5.011905 41.059524 7.833333 42.964286 12.190476 C 44.880952 16.559524 44.02381 21.630952 40.797619 25.130952 C 35.678571 20.964286 28.321429 20.964286 23.202381 25.130952 C 19.97619 21.630952 19.119048 16.559524 21.035714 12.190476 C 22.940476 7.833333 27.238095 5.011905 32 5 Z M 32 5 " transform="matrix(0.328125,0,0,0.328125,0,0)"/>
</g>
</svg>
