<svg width="24" height="24" viewBox="0 0 24 24" fill="none" xmlns="http://www.w3.org/2000/svg">
<mask id="mask0_18953_117309" style="mask-type:alpha" maskUnits="userSpaceOnUse" x="0" y="0" width="24" height="24">
<rect width="24" height="24" fill="#D9D9D9"/>
</mask>
<g mask="url(#mask0_18953_117309)">
<path d="M8.75 18.25H16.25V16.75H8.75V18.25ZM8.75 14.25H16.25V12.75H8.75V14.25ZM6.8 22C6.3 22 5.875 21.825 5.525 21.475C5.175 21.125 5 20.7 5 20.2V4.8C5 4.3 5.175 3.875 5.525 3.525C5.875 3.175 6.3 3 6.8 3H14.75L20 8.25V20.2C20 20.7 19.825 21.125 19.475 21.475C19.125 21.825 18.7 22 18.2 22H6.8ZM14 9H18.5L14 4.5V9Z" fill="white"/>
</g>
</svg>
