<?xml version="1.0" encoding="UTF-8"?>
<svg xmlns="http://www.w3.org/2000/svg" xmlns:xlink="http://www.w3.org/1999/xlink" width="20px" height="20px" viewBox="0 0 20 20" version="1.1">
<g id="surface1">
<path style="fill-rule:nonzero;fill:rgb(100%,100%,100%);fill-opacity:1;stroke-width:1;stroke-linecap:butt;stroke-linejoin:miter;stroke:rgb(100%,100%,100%);stroke-opacity:1;stroke-miterlimit:4;" d="M 427.835597 65.137262 C 427.347311 64.941947 426.859026 64.746633 426.273084 64.746633 L 422.562115 64.746633 C 420.41366 64.746633 418.655833 66.602118 418.655833 68.750573 C 418.655833 70.996685 420.41366 72.85217 422.562115 72.85217 C 444.241983 72.85217 457.132716 93.262496 457.132716 112.989223 L 457.132716 373.635926 C 457.132716 395.12048 443.265413 409.573726 422.562115 409.573726 L 81.055363 409.573726 C 59.668466 409.573726 42.871451 393.753281 42.871451 373.635926 L 42.871451 112.989223 C 42.871451 91.504669 60.742694 72.85217 81.055363 72.85217 L 108.594655 72.85217 C 110.840767 72.85217 112.598595 70.996685 112.598595 68.750573 C 112.598595 66.602118 110.840767 64.746633 108.594655 64.746633 L 81.055363 64.746633 C 55.957498 64.746633 34.863572 86.81713 34.863572 112.989223 L 34.863572 373.635926 C 34.863572 398.245506 55.176241 417.581605 81.055363 417.581605 L 422.562115 417.581605 C 447.65998 417.581605 465.042938 399.515048 465.042938 373.635926 L 465.042938 112.989223 C 465.042938 90.918726 451.370949 68.066973 427.835597 65.137262 Z M 427.835597 65.137262 " transform="matrix(0.0399997,0,0,0.0399997,0,0)"/>
<path style="fill-rule:nonzero;fill:rgb(100%,100%,100%);fill-opacity:1;stroke-width:1;stroke-linecap:butt;stroke-linejoin:miter;stroke:rgb(100%,100%,100%);stroke-opacity:1;stroke-miterlimit:4;" d="M 371.975756 64.746633 L 127.930754 64.746633 C 125.684641 64.746633 123.926814 66.602118 123.926814 68.750573 C 123.926814 70.996685 125.684641 72.85217 127.930754 72.85217 L 371.975756 72.85217 C 374.221869 72.85217 376.077353 70.996685 376.077353 68.750573 C 376.077353 66.602118 374.221869 64.746633 371.975756 64.746633 Z M 371.975756 64.746633 " transform="matrix(0.0399997,0,0,0.0399997,0,0)"/>
<path style="fill-rule:nonzero;fill:rgb(100%,100%,100%);fill-opacity:1;stroke-width:1;stroke-linecap:butt;stroke-linejoin:miter;stroke:rgb(100%,100%,100%);stroke-opacity:1;stroke-miterlimit:4;" d="M 418.558175 64.746633 L 391.409512 64.746633 C 389.163399 64.746633 387.405572 66.602118 387.405572 68.750573 C 387.405572 70.996685 389.163399 72.85217 391.409512 72.85217 L 418.558175 72.85217 C 420.706631 72.85217 422.562115 70.996685 422.562115 68.750573 C 422.562115 66.602118 420.706631 64.746633 418.558175 64.746633 Z M 418.558175 64.746633 " transform="matrix(0.0399997,0,0,0.0399997,0,0)"/>
<path style="fill-rule:nonzero;fill:rgb(100%,100%,100%);fill-opacity:1;stroke-width:1;stroke-linecap:butt;stroke-linejoin:miter;stroke:rgb(100%,100%,100%);stroke-opacity:1;stroke-miterlimit:4;" d="M 364.260848 122.852586 L 42.676137 122.852586 C 40.527681 122.852586 38.769854 124.70807 38.769854 126.954183 C 38.769854 129.102638 40.527681 130.958123 42.676137 130.958123 L 364.260848 130.958123 C 366.409303 130.958123 368.264788 129.102638 368.264788 126.954183 C 368.264788 124.70807 366.409303 122.852586 364.260848 122.852586 Z M 364.260848 122.852586 " transform="matrix(0.0399997,0,0,0.0399997,0,0)"/>
<path style="fill-rule:nonzero;fill:rgb(100%,100%,100%);fill-opacity:1;stroke-width:1;stroke-linecap:butt;stroke-linejoin:miter;stroke:rgb(100%,100%,100%);stroke-opacity:1;stroke-miterlimit:4;" d="M 461.136655 122.852586 L 406.936985 122.852586 C 404.690872 122.852586 402.933045 124.70807 402.933045 126.954183 C 402.933045 129.102638 404.690872 130.958123 406.936985 130.958123 L 461.136655 130.958123 C 463.285111 130.958123 465.042938 129.102638 465.042938 126.954183 C 465.042938 124.70807 463.285111 122.852586 461.136655 122.852586 Z M 461.136655 122.852586 " transform="matrix(0.0399997,0,0,0.0399997,0,0)"/>
<path style="fill-rule:nonzero;fill:rgb(100%,100%,100%);fill-opacity:1;stroke-width:1;stroke-linecap:butt;stroke-linejoin:miter;stroke:rgb(100%,100%,100%);stroke-opacity:1;stroke-miterlimit:4;" d="M 325.490994 169.435006 L 271.291323 169.435006 C 269.142868 169.435006 267.287384 171.192833 267.287384 173.438945 C 267.287384 175.587401 269.142868 177.442885 271.291323 177.442885 L 325.490994 177.442885 C 327.737106 177.442885 329.494933 175.587401 329.494933 173.438945 C 329.494933 171.192833 327.737106 169.435006 325.490994 169.435006 Z M 325.490994 169.435006 " transform="matrix(0.0399997,0,0,0.0399997,0,0)"/>
<path style="fill-rule:nonzero;fill:rgb(100%,100%,100%);fill-opacity:1;stroke-width:1;stroke-linecap:butt;stroke-linejoin:miter;stroke:rgb(100%,100%,100%);stroke-opacity:1;stroke-miterlimit:4;" d="M 325.490994 231.349584 L 271.291323 231.349584 C 269.142868 231.349584 267.287384 233.107411 267.287384 235.353524 C 267.287384 237.501979 269.142868 239.45512 271.291323 239.45512 L 325.490994 239.45512 C 327.737106 239.45512 329.494933 237.501979 329.494933 235.353524 C 329.494933 233.107411 327.737106 231.349584 325.490994 231.349584 Z M 325.490994 231.349584 " transform="matrix(0.0399997,0,0,0.0399997,0,0)"/>
<path style="fill-rule:nonzero;fill:rgb(100%,100%,100%);fill-opacity:1;stroke-width:1;stroke-linecap:butt;stroke-linejoin:miter;stroke:rgb(100%,100%,100%);stroke-opacity:1;stroke-miterlimit:4;" d="M 325.490994 293.36182 L 271.291323 293.36182 C 269.142868 293.36182 267.287384 295.119647 267.287384 297.365759 C 267.287384 299.514215 269.142868 301.369699 271.291323 301.369699 L 325.490994 301.369699 C 327.737106 301.369699 329.494933 299.514215 329.494933 297.365759 C 329.494933 295.119647 327.737106 293.36182 325.490994 293.36182 Z M 325.490994 293.36182 " transform="matrix(0.0399997,0,0,0.0399997,0,0)"/>
<path style="fill-rule:nonzero;fill:rgb(100%,100%,100%);fill-opacity:1;stroke-width:1;stroke-linecap:butt;stroke-linejoin:miter;stroke:rgb(100%,100%,100%);stroke-opacity:1;stroke-miterlimit:4;" d="M 325.490994 355.374055 L 271.291323 355.374055 C 269.142868 355.374055 267.287384 357.131882 267.287384 359.377995 C 267.287384 361.52645 269.142868 363.381934 271.291323 363.381934 L 325.490994 363.381934 C 327.737106 363.381934 329.494933 361.52645 329.494933 359.377995 C 329.494933 357.131882 327.737106 355.374055 325.490994 355.374055 Z M 325.490994 355.374055 " transform="matrix(0.0399997,0,0,0.0399997,0,0)"/>
<path style="fill-rule:nonzero;fill:rgb(100%,100%,100%);fill-opacity:1;stroke-width:1;stroke-linecap:butt;stroke-linejoin:miter;stroke:rgb(100%,100%,100%);stroke-opacity:1;stroke-miterlimit:4;" d="M 422.366801 169.435006 L 368.167131 169.435006 C 365.921018 169.435006 364.163191 171.192833 364.163191 173.438945 C 364.163191 175.587401 365.921018 177.442885 368.167131 177.442885 L 422.366801 177.442885 C 424.515256 177.442885 426.468398 175.587401 426.468398 173.438945 C 426.468398 171.192833 424.515256 169.435006 422.366801 169.435006 Z M 422.366801 169.435006 " transform="matrix(0.0399997,0,0,0.0399997,0,0)"/>
<path style="fill-rule:nonzero;fill:rgb(100%,100%,100%);fill-opacity:1;stroke-width:1;stroke-linecap:butt;stroke-linejoin:miter;stroke:rgb(100%,100%,100%);stroke-opacity:1;stroke-miterlimit:4;" d="M 422.366801 231.349584 L 368.167131 231.349584 C 365.921018 231.349584 364.163191 233.107411 364.163191 235.353524 C 364.163191 237.501979 365.921018 239.45512 368.167131 239.45512 L 422.366801 239.45512 C 424.515256 239.45512 426.468398 237.501979 426.468398 235.353524 C 426.468398 233.107411 424.515256 231.349584 422.366801 231.349584 Z M 422.366801 231.349584 " transform="matrix(0.0399997,0,0,0.0399997,0,0)"/>
<path style="fill-rule:nonzero;fill:rgb(100%,100%,100%);fill-opacity:1;stroke-width:1;stroke-linecap:butt;stroke-linejoin:miter;stroke:rgb(100%,100%,100%);stroke-opacity:1;stroke-miterlimit:4;" d="M 422.366801 293.36182 L 368.167131 293.36182 C 365.921018 293.36182 364.163191 295.119647 364.163191 297.365759 C 364.163191 299.514215 365.921018 301.369699 368.167131 301.369699 L 422.366801 301.369699 C 424.515256 301.369699 426.468398 299.514215 426.468398 297.365759 C 426.468398 295.119647 424.515256 293.36182 422.366801 293.36182 Z M 422.366801 293.36182 " transform="matrix(0.0399997,0,0,0.0399997,0,0)"/>
<path style="fill-rule:nonzero;fill:rgb(100%,100%,100%);fill-opacity:1;stroke-width:1;stroke-linecap:butt;stroke-linejoin:miter;stroke:rgb(100%,100%,100%);stroke-opacity:1;stroke-miterlimit:4;" d="M 422.366801 355.374055 L 368.167131 355.374055 C 365.921018 355.374055 364.163191 357.131882 364.163191 359.377995 C 364.163191 361.52645 365.921018 363.381934 368.167131 363.381934 L 422.366801 363.381934 C 424.515256 363.381934 426.468398 361.52645 426.468398 359.377995 C 426.468398 357.131882 424.515256 355.374055 422.366801 355.374055 Z M 422.366801 355.374055 " transform="matrix(0.0399997,0,0,0.0399997,0,0)"/>
<path style="fill-rule:nonzero;fill:rgb(100%,100%,100%);fill-opacity:1;stroke-width:1;stroke-linecap:butt;stroke-linejoin:miter;stroke:rgb(100%,100%,100%);stroke-opacity:1;stroke-miterlimit:4;" d="M 131.837036 169.435006 L 81.445991 169.435006 C 79.297536 169.435006 77.442052 171.192833 77.442052 173.438945 C 77.442052 175.587401 79.297536 177.442885 81.445991 177.442885 L 131.837036 177.442885 C 133.985492 177.442885 135.840976 175.587401 135.840976 173.438945 C 135.840976 171.192833 133.985492 169.435006 131.837036 169.435006 Z M 131.837036 169.435006 " transform="matrix(0.0399997,0,0,0.0399997,0,0)"/>
<path style="fill-rule:nonzero;fill:rgb(100%,100%,100%);fill-opacity:1;stroke-width:1;stroke-linecap:butt;stroke-linejoin:miter;stroke:rgb(100%,100%,100%);stroke-opacity:1;stroke-miterlimit:4;" d="M 131.837036 231.349584 L 81.445991 231.349584 C 79.297536 231.349584 77.442052 233.107411 77.442052 235.353524 C 77.442052 237.501979 79.297536 239.45512 81.445991 239.45512 L 131.837036 239.45512 C 133.985492 239.45512 135.840976 237.501979 135.840976 235.353524 C 135.840976 233.107411 133.985492 231.349584 131.837036 231.349584 Z M 131.837036 231.349584 " transform="matrix(0.0399997,0,0,0.0399997,0,0)"/>
<path style="fill-rule:nonzero;fill:rgb(100%,100%,100%);fill-opacity:1;stroke-width:1;stroke-linecap:butt;stroke-linejoin:miter;stroke:rgb(100%,100%,100%);stroke-opacity:1;stroke-miterlimit:4;" d="M 131.837036 293.36182 L 81.445991 293.36182 C 79.297536 293.36182 77.442052 295.119647 77.442052 297.365759 C 77.442052 299.514215 79.297536 301.369699 81.445991 301.369699 L 131.837036 301.369699 C 133.985492 301.369699 135.840976 299.514215 135.840976 297.365759 C 135.840976 295.119647 133.985492 293.36182 131.837036 293.36182 Z M 131.837036 293.36182 " transform="matrix(0.0399997,0,0,0.0399997,0,0)"/>
<path style="fill-rule:nonzero;fill:rgb(100%,100%,100%);fill-opacity:1;stroke-width:1;stroke-linecap:butt;stroke-linejoin:miter;stroke:rgb(100%,100%,100%);stroke-opacity:1;stroke-miterlimit:4;" d="M 131.837036 355.374055 L 81.445991 355.374055 C 79.297536 355.374055 77.442052 357.131882 77.442052 359.377995 C 77.442052 361.52645 79.297536 363.381934 81.445991 363.381934 L 131.837036 363.381934 C 133.985492 363.381934 135.840976 361.52645 135.840976 359.377995 C 135.840976 357.131882 133.985492 355.374055 131.837036 355.374055 Z M 131.837036 355.374055 " transform="matrix(0.0399997,0,0,0.0399997,0,0)"/>
<path style="fill-rule:nonzero;fill:rgb(100%,100%,100%);fill-opacity:1;stroke-width:1;stroke-linecap:butt;stroke-linejoin:miter;stroke:rgb(100%,100%,100%);stroke-opacity:1;stroke-miterlimit:4;" d="M 228.712843 169.435006 L 174.513173 169.435006 C 172.267061 169.435006 170.509233 171.192833 170.509233 173.438945 C 170.509233 175.587401 172.267061 177.442885 174.513173 177.442885 L 228.712843 177.442885 C 230.861299 177.442885 232.619126 175.587401 232.619126 173.438945 C 232.619126 171.192833 230.861299 169.435006 228.712843 169.435006 Z M 228.712843 169.435006 " transform="matrix(0.0399997,0,0,0.0399997,0,0)"/>
<path style="fill-rule:nonzero;fill:rgb(100%,100%,100%);fill-opacity:1;stroke-width:1;stroke-linecap:butt;stroke-linejoin:miter;stroke:rgb(100%,100%,100%);stroke-opacity:1;stroke-miterlimit:4;" d="M 228.712843 231.349584 L 174.513173 231.349584 C 172.267061 231.349584 170.509233 233.107411 170.509233 235.353524 C 170.509233 237.501979 172.267061 239.45512 174.513173 239.45512 L 228.712843 239.45512 C 230.861299 239.45512 232.619126 237.501979 232.619126 235.353524 C 232.619126 233.107411 230.861299 231.349584 228.712843 231.349584 Z M 228.712843 231.349584 " transform="matrix(0.0399997,0,0,0.0399997,0,0)"/>
<path style="fill-rule:nonzero;fill:rgb(100%,100%,100%);fill-opacity:1;stroke-width:1;stroke-linecap:butt;stroke-linejoin:miter;stroke:rgb(100%,100%,100%);stroke-opacity:1;stroke-miterlimit:4;" d="M 228.712843 293.36182 L 174.513173 293.36182 C 172.267061 293.36182 170.509233 295.119647 170.509233 297.365759 C 170.509233 299.514215 172.267061 301.369699 174.513173 301.369699 L 228.712843 301.369699 C 230.861299 301.369699 232.619126 299.514215 232.619126 297.365759 C 232.619126 295.119647 230.861299 293.36182 228.712843 293.36182 Z M 228.712843 293.36182 " transform="matrix(0.0399997,0,0,0.0399997,0,0)"/>
<path style="fill-rule:nonzero;fill:rgb(100%,100%,100%);fill-opacity:1;stroke-width:1;stroke-linecap:butt;stroke-linejoin:miter;stroke:rgb(100%,100%,100%);stroke-opacity:1;stroke-miterlimit:4;" d="M 228.712843 355.374055 L 174.513173 355.374055 C 172.267061 355.374055 170.509233 357.131882 170.509233 359.377995 C 170.509233 361.52645 172.267061 363.381934 174.513173 363.381934 L 228.712843 363.381934 C 230.861299 363.381934 232.619126 361.52645 232.619126 359.377995 C 232.619126 357.131882 230.861299 355.374055 228.712843 355.374055 Z M 228.712843 355.374055 " transform="matrix(0.0399997,0,0,0.0399997,0,0)"/>
<path style="fill-rule:nonzero;fill:rgb(100%,100%,100%);fill-opacity:1;stroke-width:1;stroke-linecap:butt;stroke-linejoin:miter;stroke:rgb(100%,100%,100%);stroke-opacity:1;stroke-miterlimit:4;" d="M 118.262704 39.746425 C 110.74311 39.746425 104.590715 45.996477 104.590715 53.418414 L 104.590715 88.379643 C 104.590715 95.899237 110.74311 102.051632 118.262704 102.051632 C 125.782298 102.051632 132.03235 95.899237 132.03235 88.379643 L 132.03235 53.418414 C 132.03235 45.996477 125.782298 39.746425 118.262704 39.746425 Z M 123.926814 88.379643 C 123.926814 91.504669 121.38773 94.043752 118.262704 94.043752 C 115.137678 94.043752 112.598595 91.504669 112.598595 88.379643 L 112.598595 53.418414 C 112.598595 50.391045 115.137678 47.754304 118.262704 47.754304 C 121.38773 47.754304 123.926814 50.391045 123.926814 53.418414 Z M 123.926814 88.379643 " transform="matrix(0.0399997,0,0,0.0399997,0,0)"/>
<path style="fill-rule:nonzero;fill:rgb(100%,100%,100%);fill-opacity:1;stroke-width:1;stroke-linecap:butt;stroke-linejoin:miter;stroke:rgb(100%,100%,100%);stroke-opacity:1;stroke-miterlimit:4;" d="M 381.643805 39.746425 C 374.221869 39.746425 367.971816 45.996477 367.971816 53.418414 L 367.971816 88.379643 C 367.971816 95.899237 374.221869 102.051632 381.643805 102.051632 C 389.261056 102.051632 395.413451 95.899237 395.413451 88.379643 L 395.413451 53.418414 C 395.413451 45.996477 389.261056 39.746425 381.643805 39.746425 Z M 387.405572 88.379643 C 387.405572 91.504669 384.866488 94.043752 381.643805 94.043752 C 378.616436 94.043752 376.077353 91.504669 376.077353 88.379643 L 376.077353 53.418414 C 376.077353 50.391045 378.616436 47.754304 381.643805 47.754304 C 384.866488 47.754304 387.405572 50.391045 387.405572 53.418414 Z M 387.405572 88.379643 " transform="matrix(0.0399997,0,0,0.0399997,0,0)"/>
<path style="fill-rule:nonzero;fill:rgb(100%,100%,100%);fill-opacity:1;stroke-width:1;stroke-linecap:butt;stroke-linejoin:miter;stroke:rgb(100%,100%,100%);stroke-opacity:1;stroke-miterlimit:4;" d="M 434.280963 64.746633 L 410.843267 64.746633 C 408.499498 64.746633 406.741671 66.602118 406.741671 68.750573 C 406.741671 70.996685 408.499498 72.85217 410.843267 72.85217 L 434.280963 72.85217 C 465.531223 72.85217 491.996287 100.293805 491.996287 132.911264 L 491.996287 395.999394 C 491.996287 427.444968 466.605451 452.249862 434.280963 452.249862 L 69.629486 452.249862 C 36.230771 452.249862 8.007879 426.468398 8.007879 395.999394 L 8.007879 132.911264 C 8.007879 101.465689 37.304998 72.85217 69.629486 72.85217 L 85.352274 72.85217 C 87.598386 72.85217 89.356213 70.996685 89.356213 68.750573 C 89.356213 66.602118 87.598386 64.746633 85.352274 64.746633 L 69.629486 64.746633 C 33.203402 64.746633 0 97.266436 0 132.911264 L 0 395.999394 C 0 430.862966 31.93386 460.160085 69.629486 460.160085 L 434.280963 460.160085 C 471.097676 460.160085 500.004167 431.937193 500.004167 395.999394 L 500.004167 132.911264 C 500.004167 95.996894 469.925791 64.746633 434.280963 64.746633 Z M 434.280963 64.746633 " transform="matrix(0.0399997,0,0,0.0399997,0,0)"/>
</g>
</svg>
