<?xml version="1.0" encoding="UTF-8"?>
<svg xmlns="http://www.w3.org/2000/svg" xmlns:xlink="http://www.w3.org/1999/xlink" width="24px" height="24px" viewBox="0 0 24 24" version="1.1">
<g id="surface1">
<path style="fill-rule:nonzero;fill:rgb(100%,100%,100%);fill-opacity:1;stroke-width:1;stroke-linecap:butt;stroke-linejoin:miter;stroke:rgb(100%,100%,100%);stroke-opacity:1;stroke-miterlimit:4;" d="M 427.819178 65.104687 C 427.330893 64.941926 426.842607 64.779164 426.272941 64.779164 L 422.610803 64.779164 C 420.41352 64.779164 418.623141 66.569543 418.623141 68.766826 C 418.623141 71.04549 420.41352 72.835869 422.610803 72.835869 C 444.258111 72.835869 457.116287 93.262465 457.116287 113.038014 L 457.116287 373.619525 C 457.116287 395.104072 443.281541 409.589865 422.610803 409.589865 L 81.055336 409.589865 C 59.65217 409.589865 42.887713 393.801979 42.887713 373.619525 L 42.887713 113.038014 C 42.887713 91.553467 60.710121 72.835869 81.055336 72.835869 L 108.562066 72.835869 C 110.84073 72.835869 112.631109 71.04549 112.631109 68.766826 C 112.631109 66.569543 110.84073 64.779164 108.562066 64.779164 L 81.055336 64.779164 C 55.990031 64.779164 34.831008 86.833377 34.831008 113.038014 L 34.831008 373.619525 C 34.831008 398.277926 55.176223 417.565189 81.055336 417.565189 L 422.610803 417.565189 C 447.676107 417.565189 465.091611 399.498639 465.091611 373.619525 L 465.091611 113.038014 C 465.091611 90.90242 451.338246 68.115779 427.819178 65.104687 Z M 427.819178 65.104687 " transform="matrix(0.0479996,0,0,0.0479996,0,0)"/>
<path style="fill-rule:nonzero;fill:rgb(100%,100%,100%);fill-opacity:1;stroke-width:1;stroke-linecap:butt;stroke-linejoin:miter;stroke:rgb(100%,100%,100%);stroke-opacity:1;stroke-miterlimit:4;" d="M 371.991908 64.779164 L 127.930711 64.779164 C 125.733428 64.779164 123.943049 66.569543 123.943049 68.766826 C 123.943049 71.04549 125.733428 72.835869 127.930711 72.835869 L 371.991908 72.835869 C 374.270572 72.835869 376.060951 71.04549 376.060951 68.766826 C 376.060951 66.569543 374.270572 64.779164 371.991908 64.779164 Z M 371.991908 64.779164 " transform="matrix(0.0479996,0,0,0.0479996,0,0)"/>
<path style="fill-rule:nonzero;fill:rgb(100%,100%,100%);fill-opacity:1;stroke-width:1;stroke-linecap:butt;stroke-linejoin:miter;stroke:rgb(100%,100%,100%);stroke-opacity:1;stroke-miterlimit:4;" d="M 418.54176 64.779164 L 391.441934 64.779164 C 389.16327 64.779164 387.372891 66.569543 387.372891 68.766826 C 387.372891 71.04549 389.16327 72.835869 391.441934 72.835869 L 418.54176 72.835869 C 420.739043 72.835869 422.529422 71.04549 422.529422 68.766826 C 422.529422 66.569543 420.739043 64.779164 418.54176 64.779164 Z M 418.54176 64.779164 " transform="matrix(0.0479996,0,0,0.0479996,0,0)"/>
<path style="fill-rule:nonzero;fill:rgb(100%,100%,100%);fill-opacity:1;stroke-width:1;stroke-linecap:butt;stroke-linejoin:miter;stroke:rgb(100%,100%,100%);stroke-opacity:1;stroke-miterlimit:4;" d="M 364.260727 122.885098 L 42.724951 122.885098 C 40.527668 122.885098 38.737289 124.675477 38.737289 126.954141 C 38.737289 129.151424 40.527668 130.941803 42.724951 130.941803 L 364.260727 130.941803 C 366.45801 130.941803 368.248389 129.151424 368.248389 126.954141 C 368.248389 124.675477 366.45801 122.885098 364.260727 122.885098 Z M 364.260727 122.885098 " transform="matrix(0.0479996,0,0,0.0479996,0,0)"/>
<path style="fill-rule:nonzero;fill:rgb(100%,100%,100%);fill-opacity:1;stroke-width:1;stroke-linecap:butt;stroke-linejoin:miter;stroke:rgb(100%,100%,100%);stroke-opacity:1;stroke-miterlimit:4;" d="M 461.103949 122.885098 L 406.904297 122.885098 C 404.707014 122.885098 402.916635 124.675477 402.916635 126.954141 C 402.916635 129.151424 404.707014 130.941803 406.904297 130.941803 L 461.103949 130.941803 C 463.301232 130.941803 465.091611 129.151424 465.091611 126.954141 C 465.091611 124.675477 463.301232 122.885098 461.103949 122.885098 Z M 461.103949 122.885098 " transform="matrix(0.0479996,0,0,0.0479996,0,0)"/>
<path style="fill-rule:nonzero;fill:rgb(100%,100%,100%);fill-opacity:1;stroke-width:1;stroke-linecap:butt;stroke-linejoin:miter;stroke:rgb(100%,100%,100%);stroke-opacity:1;stroke-miterlimit:4;" d="M 325.523438 169.434949 L 271.323785 169.434949 C 269.126502 169.434949 267.336123 171.225328 267.336123 173.422611 C 267.336123 175.619895 269.126502 177.410273 271.323785 177.410273 L 325.523438 177.410273 C 327.720721 177.410273 329.5111 175.619895 329.5111 173.422611 C 329.5111 171.225328 327.720721 169.434949 325.523438 169.434949 Z M 325.523438 169.434949 " transform="matrix(0.0479996,0,0,0.0479996,0,0)"/>
<path style="fill-rule:nonzero;fill:rgb(100%,100%,100%);fill-opacity:1;stroke-width:1;stroke-linecap:butt;stroke-linejoin:miter;stroke:rgb(100%,100%,100%);stroke-opacity:1;stroke-miterlimit:4;" d="M 325.523438 231.365783 L 271.323785 231.365783 C 269.126502 231.365783 267.336123 233.156162 267.336123 235.353445 C 267.336123 237.550729 269.126502 239.422488 271.323785 239.422488 L 325.523438 239.422488 C 327.720721 239.422488 329.5111 237.550729 329.5111 235.353445 C 329.5111 233.156162 327.720721 231.365783 325.523438 231.365783 Z M 325.523438 231.365783 " transform="matrix(0.0479996,0,0,0.0479996,0,0)"/>
<path style="fill-rule:nonzero;fill:rgb(100%,100%,100%);fill-opacity:1;stroke-width:1;stroke-linecap:butt;stroke-linejoin:miter;stroke:rgb(100%,100%,100%);stroke-opacity:1;stroke-miterlimit:4;" d="M 325.523438 293.377998 L 271.323785 293.377998 C 269.126502 293.377998 267.336123 295.168377 267.336123 297.36566 C 267.336123 299.562943 269.126502 301.353322 271.323785 301.353322 L 325.523438 301.353322 C 327.720721 301.353322 329.5111 299.562943 329.5111 297.36566 C 329.5111 295.168377 327.720721 293.377998 325.523438 293.377998 Z M 325.523438 293.377998 " transform="matrix(0.0479996,0,0,0.0479996,0,0)"/>
<path style="fill-rule:nonzero;fill:rgb(100%,100%,100%);fill-opacity:1;stroke-width:1;stroke-linecap:butt;stroke-linejoin:miter;stroke:rgb(100%,100%,100%);stroke-opacity:1;stroke-miterlimit:4;" d="M 325.523438 355.390213 L 271.323785 355.390213 C 269.126502 355.390213 267.336123 357.180592 267.336123 359.377875 C 267.336123 361.575158 269.126502 363.365537 271.323785 363.365537 L 325.523438 363.365537 C 327.720721 363.365537 329.5111 361.575158 329.5111 359.377875 C 329.5111 357.180592 327.720721 355.390213 325.523438 355.390213 Z M 325.523438 355.390213 " transform="matrix(0.0479996,0,0,0.0479996,0,0)"/>
<path style="fill-rule:nonzero;fill:rgb(100%,100%,100%);fill-opacity:1;stroke-width:1;stroke-linecap:butt;stroke-linejoin:miter;stroke:rgb(100%,100%,100%);stroke-opacity:1;stroke-miterlimit:4;" d="M 422.36666 169.434949 L 368.167008 169.434949 C 365.969725 169.434949 364.179346 171.225328 364.179346 173.422611 C 364.179346 175.619895 365.969725 177.410273 368.167008 177.410273 L 422.36666 177.410273 C 424.563943 177.410273 426.435703 175.619895 426.435703 173.422611 C 426.435703 171.225328 424.563943 169.434949 422.36666 169.434949 Z M 422.36666 169.434949 " transform="matrix(0.0479996,0,0,0.0479996,0,0)"/>
<path style="fill-rule:nonzero;fill:rgb(100%,100%,100%);fill-opacity:1;stroke-width:1;stroke-linecap:butt;stroke-linejoin:miter;stroke:rgb(100%,100%,100%);stroke-opacity:1;stroke-miterlimit:4;" d="M 422.36666 231.365783 L 368.167008 231.365783 C 365.969725 231.365783 364.179346 233.156162 364.179346 235.353445 C 364.179346 237.550729 365.969725 239.422488 368.167008 239.422488 L 422.36666 239.422488 C 424.563943 239.422488 426.435703 237.550729 426.435703 235.353445 C 426.435703 233.156162 424.563943 231.365783 422.36666 231.365783 Z M 422.36666 231.365783 " transform="matrix(0.0479996,0,0,0.0479996,0,0)"/>
<path style="fill-rule:nonzero;fill:rgb(100%,100%,100%);fill-opacity:1;stroke-width:1;stroke-linecap:butt;stroke-linejoin:miter;stroke:rgb(100%,100%,100%);stroke-opacity:1;stroke-miterlimit:4;" d="M 422.36666 293.377998 L 368.167008 293.377998 C 365.969725 293.377998 364.179346 295.168377 364.179346 297.36566 C 364.179346 299.562943 365.969725 301.353322 368.167008 301.353322 L 422.36666 301.353322 C 424.563943 301.353322 426.435703 299.562943 426.435703 297.36566 C 426.435703 295.168377 424.563943 293.377998 422.36666 293.377998 Z M 422.36666 293.377998 " transform="matrix(0.0479996,0,0,0.0479996,0,0)"/>
<path style="fill-rule:nonzero;fill:rgb(100%,100%,100%);fill-opacity:1;stroke-width:1;stroke-linecap:butt;stroke-linejoin:miter;stroke:rgb(100%,100%,100%);stroke-opacity:1;stroke-miterlimit:4;" d="M 422.36666 355.390213 L 368.167008 355.390213 C 365.969725 355.390213 364.179346 357.180592 364.179346 359.377875 C 364.179346 361.575158 365.969725 363.365537 368.167008 363.365537 L 422.36666 363.365537 C 424.563943 363.365537 426.435703 361.575158 426.435703 359.377875 C 426.435703 357.180592 424.563943 355.390213 422.36666 355.390213 Z M 422.36666 355.390213 " transform="matrix(0.0479996,0,0,0.0479996,0,0)"/>
<path style="fill-rule:nonzero;fill:rgb(100%,100%,100%);fill-opacity:1;stroke-width:1;stroke-linecap:butt;stroke-linejoin:miter;stroke:rgb(100%,100%,100%);stroke-opacity:1;stroke-miterlimit:4;" d="M 131.836992 169.434949 L 81.46224 169.434949 C 79.264957 169.434949 77.474578 171.225328 77.474578 173.422611 C 77.474578 175.619895 79.264957 177.410273 81.46224 177.410273 L 131.836992 177.410273 C 134.034275 177.410273 135.824654 175.619895 135.824654 173.422611 C 135.824654 171.225328 134.034275 169.434949 131.836992 169.434949 Z M 131.836992 169.434949 " transform="matrix(0.0479996,0,0,0.0479996,0,0)"/>
<path style="fill-rule:nonzero;fill:rgb(100%,100%,100%);fill-opacity:1;stroke-width:1;stroke-linecap:butt;stroke-linejoin:miter;stroke:rgb(100%,100%,100%);stroke-opacity:1;stroke-miterlimit:4;" d="M 131.836992 231.365783 L 81.46224 231.365783 C 79.264957 231.365783 77.474578 233.156162 77.474578 235.353445 C 77.474578 237.550729 79.264957 239.422488 81.46224 239.422488 L 131.836992 239.422488 C 134.034275 239.422488 135.824654 237.550729 135.824654 235.353445 C 135.824654 233.156162 134.034275 231.365783 131.836992 231.365783 Z M 131.836992 231.365783 " transform="matrix(0.0479996,0,0,0.0479996,0,0)"/>
<path style="fill-rule:nonzero;fill:rgb(100%,100%,100%);fill-opacity:1;stroke-width:1;stroke-linecap:butt;stroke-linejoin:miter;stroke:rgb(100%,100%,100%);stroke-opacity:1;stroke-miterlimit:4;" d="M 131.836992 293.377998 L 81.46224 293.377998 C 79.264957 293.377998 77.474578 295.168377 77.474578 297.36566 C 77.474578 299.562943 79.264957 301.353322 81.46224 301.353322 L 131.836992 301.353322 C 134.034275 301.353322 135.824654 299.562943 135.824654 297.36566 C 135.824654 295.168377 134.034275 293.377998 131.836992 293.377998 Z M 131.836992 293.377998 " transform="matrix(0.0479996,0,0,0.0479996,0,0)"/>
<path style="fill-rule:nonzero;fill:rgb(100%,100%,100%);fill-opacity:1;stroke-width:1;stroke-linecap:butt;stroke-linejoin:miter;stroke:rgb(100%,100%,100%);stroke-opacity:1;stroke-miterlimit:4;" d="M 131.836992 355.390213 L 81.46224 355.390213 C 79.264957 355.390213 77.474578 357.180592 77.474578 359.377875 C 77.474578 361.575158 79.264957 363.365537 81.46224 363.365537 L 131.836992 363.365537 C 134.034275 363.365537 135.824654 361.575158 135.824654 359.377875 C 135.824654 357.180592 134.034275 355.390213 131.836992 355.390213 Z M 131.836992 355.390213 " transform="matrix(0.0479996,0,0,0.0479996,0,0)"/>
<path style="fill-rule:nonzero;fill:rgb(100%,100%,100%);fill-opacity:1;stroke-width:1;stroke-linecap:butt;stroke-linejoin:miter;stroke:rgb(100%,100%,100%);stroke-opacity:1;stroke-miterlimit:4;" d="M 228.680215 169.434949 L 174.480563 169.434949 C 172.283279 169.434949 170.4929 171.225328 170.4929 173.422611 C 170.4929 175.619895 172.283279 177.410273 174.480563 177.410273 L 228.680215 177.410273 C 230.877498 177.410273 232.667877 175.619895 232.667877 173.422611 C 232.667877 171.225328 230.877498 169.434949 228.680215 169.434949 Z M 228.680215 169.434949 " transform="matrix(0.0479996,0,0,0.0479996,0,0)"/>
<path style="fill-rule:nonzero;fill:rgb(100%,100%,100%);fill-opacity:1;stroke-width:1;stroke-linecap:butt;stroke-linejoin:miter;stroke:rgb(100%,100%,100%);stroke-opacity:1;stroke-miterlimit:4;" d="M 228.680215 231.365783 L 174.480563 231.365783 C 172.283279 231.365783 170.4929 233.156162 170.4929 235.353445 C 170.4929 237.550729 172.283279 239.422488 174.480563 239.422488 L 228.680215 239.422488 C 230.877498 239.422488 232.667877 237.550729 232.667877 235.353445 C 232.667877 233.156162 230.877498 231.365783 228.680215 231.365783 Z M 228.680215 231.365783 " transform="matrix(0.0479996,0,0,0.0479996,0,0)"/>
<path style="fill-rule:nonzero;fill:rgb(100%,100%,100%);fill-opacity:1;stroke-width:1;stroke-linecap:butt;stroke-linejoin:miter;stroke:rgb(100%,100%,100%);stroke-opacity:1;stroke-miterlimit:4;" d="M 228.680215 293.377998 L 174.480563 293.377998 C 172.283279 293.377998 170.4929 295.168377 170.4929 297.36566 C 170.4929 299.562943 172.283279 301.353322 174.480563 301.353322 L 228.680215 301.353322 C 230.877498 301.353322 232.667877 299.562943 232.667877 297.36566 C 232.667877 295.168377 230.877498 293.377998 228.680215 293.377998 Z M 228.680215 293.377998 " transform="matrix(0.0479996,0,0,0.0479996,0,0)"/>
<path style="fill-rule:nonzero;fill:rgb(100%,100%,100%);fill-opacity:1;stroke-width:1;stroke-linecap:butt;stroke-linejoin:miter;stroke:rgb(100%,100%,100%);stroke-opacity:1;stroke-miterlimit:4;" d="M 228.680215 355.390213 L 174.480563 355.390213 C 172.283279 355.390213 170.4929 357.180592 170.4929 359.377875 C 170.4929 361.575158 172.283279 363.365537 174.480563 363.365537 L 228.680215 363.365537 C 230.877498 363.365537 232.667877 361.575158 232.667877 359.377875 C 232.667877 357.180592 230.877498 355.390213 228.680215 355.390213 Z M 228.680215 355.390213 " transform="matrix(0.0479996,0,0,0.0479996,0,0)"/>
<path style="fill-rule:nonzero;fill:rgb(100%,100%,100%);fill-opacity:1;stroke-width:1;stroke-linecap:butt;stroke-linejoin:miter;stroke:rgb(100%,100%,100%);stroke-opacity:1;stroke-miterlimit:4;" d="M 118.246389 39.79524 C 110.75935 39.79524 104.574404 45.980186 104.574404 53.467225 L 104.574404 88.379613 C 104.574404 95.948033 110.75935 102.051598 118.246389 102.051598 C 125.814809 102.051598 131.999754 95.948033 131.999754 88.379613 L 131.999754 53.467225 C 131.999754 45.980186 125.814809 39.79524 118.246389 39.79524 Z M 123.943049 88.379613 C 123.943049 91.553467 121.420242 94.076273 118.246389 94.076273 C 115.153916 94.076273 112.631109 91.553467 112.631109 88.379613 L 112.631109 53.467225 C 112.631109 50.374752 115.153916 47.770564 118.246389 47.770564 C 121.420242 47.770564 123.943049 50.374752 123.943049 53.467225 Z M 123.943049 88.379613 " transform="matrix(0.0479996,0,0,0.0479996,0,0)"/>
<path style="fill-rule:nonzero;fill:rgb(100%,100%,100%);fill-opacity:1;stroke-width:1;stroke-linecap:butt;stroke-linejoin:miter;stroke:rgb(100%,100%,100%);stroke-opacity:1;stroke-miterlimit:4;" d="M 381.67623 39.79524 C 374.189191 39.79524 368.004246 45.980186 368.004246 53.467225 L 368.004246 88.379613 C 368.004246 95.948033 374.189191 102.051598 381.67623 102.051598 C 389.24465 102.051598 395.429596 95.948033 395.429596 88.379613 L 395.429596 53.467225 C 395.429596 45.980186 389.24465 39.79524 381.67623 39.79524 Z M 387.372891 88.379613 C 387.372891 91.553467 384.850084 94.076273 381.67623 94.076273 C 378.583758 94.076273 376.060951 91.553467 376.060951 88.379613 L 376.060951 53.467225 C 376.060951 50.374752 378.583758 47.770564 381.67623 47.770564 C 384.850084 47.770564 387.372891 50.374752 387.372891 53.467225 Z M 387.372891 88.379613 " transform="matrix(0.0479996,0,0,0.0479996,0,0)"/>
<path style="fill-rule:nonzero;fill:rgb(100%,100%,100%);fill-opacity:1;stroke-width:1;stroke-linecap:butt;stroke-linejoin:miter;stroke:rgb(100%,100%,100%);stroke-opacity:1;stroke-miterlimit:4;" d="M 434.329646 64.779164 L 410.810578 64.779164 C 408.531914 64.779164 406.741535 66.569543 406.741535 68.766826 C 406.741535 71.04549 408.531914 72.835869 410.810578 72.835869 L 434.329646 72.835869 C 465.579896 72.835869 492.028676 100.3426 492.028676 132.894943 L 492.028676 395.999262 C 492.028676 427.493654 466.637848 452.233436 434.329646 452.233436 L 69.662016 452.233436 C 36.214482 452.233436 7.975324 426.435703 7.975324 395.999262 L 7.975324 132.894943 C 7.975324 101.481932 37.353814 72.835869 69.662016 72.835869 L 85.368521 72.835869 C 87.565805 72.835869 89.356184 71.04549 89.356184 68.766826 C 89.356184 66.569543 87.565805 64.779164 85.368521 64.779164 L 69.662016 64.779164 C 33.203391 64.779164 0 97.250127 0 132.894943 L 0 395.999262 C 0 430.83027 31.901297 460.20876 69.662016 460.20876 L 434.329646 460.20876 C 471.113795 460.20876 500.004 431.969602 500.004 395.999262 L 500.004 132.894943 C 500.004 96.029414 469.893082 64.779164 434.329646 64.779164 Z M 434.329646 64.779164 " transform="matrix(0.0479996,0,0,0.0479996,0,0)"/>
</g>
</svg>
