<svg width="24" height="24" viewBox="0 0 24 24" fill="none" xmlns="http://www.w3.org/2000/svg">
<g clip-path="url(#clip0_18953_117388)">
<mask id="mask0_18953_117388" style="mask-type:alpha" maskUnits="userSpaceOnUse" x="0" y="-1" width="25" height="25">
<rect x="0.820312" y="-0.519531" width="24" height="24" fill="#D9D9D9"/>
</mask>
<g mask="url(#mask0_18953_117388)">
<path d="M12.8203 17.1055C13.1036 17.1055 13.3413 17.0055 13.5333 16.8055C13.7246 16.6055 13.8203 16.3638 13.8203 16.0805C13.8203 15.7971 13.7246 15.5555 13.5333 15.3555C13.3413 15.1555 13.1036 15.0555 12.8203 15.0555C12.5203 15.0555 12.2746 15.1555 12.0833 15.3555C11.8913 15.5555 11.7953 15.7971 11.7953 16.0805C11.7953 16.3638 11.8913 16.6055 12.0833 16.8055C12.2746 17.0055 12.5203 17.1055 12.8203 17.1055ZM12.0953 13.5055H13.5203C13.5203 13.0221 13.587 12.6345 13.7203 12.3425C13.8536 12.0511 14.1703 11.6555 14.6703 11.1555C15.1203 10.7221 15.462 10.3178 15.6953 9.94247C15.9286 9.5678 16.0453 9.13047 16.0453 8.63047C16.0453 7.7638 15.737 7.0888 15.1203 6.60547C14.5036 6.12214 13.7703 5.88047 12.9203 5.88047C12.087 5.88047 11.3953 6.10547 10.8453 6.55547C10.2953 7.00547 9.90365 7.53047 9.67031 8.13047L10.9703 8.63047C11.087 8.3138 11.2913 7.99714 11.5833 7.68047C11.8746 7.3638 12.312 7.20547 12.8953 7.20547C13.4953 7.20547 13.937 7.3678 14.2203 7.69247C14.5036 8.0178 14.6453 8.37214 14.6453 8.75547C14.6453 9.0888 14.5453 9.39714 14.3453 9.68047C14.1453 9.9638 13.8953 10.2388 13.5953 10.5055C12.9453 11.0888 12.533 11.5598 12.3583 11.9185C12.183 12.2765 12.0953 12.8055 12.0953 13.5055ZM12.8203 20.9805C11.5036 20.9805 10.2663 20.7305 9.10831 20.2305C7.94965 19.7305 6.94531 19.0555 6.09531 18.2055C5.24531 17.3555 4.57031 16.3511 4.07031 15.1925C3.57031 14.0345 3.32031 12.7971 3.32031 11.4805C3.32031 10.1638 3.57031 8.92614 4.07031 7.76747C4.57031 6.60947 5.24531 5.60547 6.09531 4.75547C6.94531 3.90547 7.94965 3.23047 9.10831 2.73047C10.2663 2.23047 11.5036 1.98047 12.8203 1.98047C14.137 1.98047 15.3746 2.23047 16.5333 2.73047C17.6913 3.23047 18.6953 3.90547 19.5453 4.75547C20.3953 5.60547 21.0703 6.60947 21.5703 7.76747C22.0703 8.92614 22.3203 10.1638 22.3203 11.4805C22.3203 12.7971 22.0703 14.0345 21.5703 15.1925C21.0703 16.3511 20.3953 17.3555 19.5453 18.2055C18.6953 19.0555 17.6913 19.7305 16.5333 20.2305C15.3746 20.7305 14.137 20.9805 12.8203 20.9805Z" fill="white"/>
</g>
</g>
<defs>
<clipPath id="clip0_18953_117388">
<rect width="24" height="24" fill="white"/>
</clipPath>
</defs>
</svg>
