<svg width="24" height="24" viewBox="0 0 24 24" fill="none" xmlns="http://www.w3.org/2000/svg">
<mask id="mask0_18953_117403" style="mask-type:alpha" maskUnits="userSpaceOnUse" x="0" y="0" width="24" height="24">
<rect width="24" height="24" fill="#D9D9D9"/>
</mask>
<g mask="url(#mask0_18953_117403)">
<path d="M7.5 5C7.08333 5 6.72917 5.14583 6.4375 5.4375C6.14583 5.72917 6 6.08333 6 6.5C6 6.91667 6.14583 7.27083 6.4375 7.5625C6.72917 7.85417 7.08333 8 7.5 8C7.91667 8 8.27083 7.85417 8.5625 7.5625C8.85417 7.27083 9 6.91667 9 6.5C9 6.08333 8.85417 5.72917 8.5625 5.4375C8.27083 5.14583 7.91667 5 7.5 5ZM7.5 15C7.08333 15 6.72917 15.1458 6.4375 15.4375C6.14583 15.7292 6 16.0833 6 16.5C6 16.9167 6.14583 17.2708 6.4375 17.5625C6.72917 17.8542 7.08333 18 7.5 18C7.91667 18 8.27083 17.8542 8.5625 17.5625C8.85417 17.2708 9 16.9167 9 16.5C9 16.0833 8.85417 15.7292 8.5625 15.4375C8.27083 15.1458 7.91667 15 7.5 15ZM4 2H20C20.2833 2 20.5208 2.09583 20.7125 2.2875C20.9042 2.47917 21 2.71667 21 3V10C21 10.2833 20.9042 10.5208 20.7125 10.7125C20.5208 10.9042 20.2833 11 20 11H4C3.71667 11 3.47917 10.9042 3.2875 10.7125C3.09583 10.5208 3 10.2833 3 10V3C3 2.71667 3.09583 2.47917 3.2875 2.2875C3.47917 2.09583 3.71667 2 4 2ZM5 4V9H19V4H5ZM4 12H20C20.2833 12 20.5208 12.0958 20.7125 12.2875C20.9042 12.4792 21 12.7167 21 13V20C21 20.2833 20.9042 20.5208 20.7125 20.7125C20.5208 20.9042 20.2833 21 20 21H4C3.71667 21 3.47917 20.9042 3.2875 20.7125C3.09583 20.5208 3 20.2833 3 20V13C3 12.7167 3.09583 12.4792 3.2875 12.2875C3.47917 12.0958 3.71667 12 4 12ZM5 14V19H19V14H5Z" fill="white"/>
</g>
</svg>
