<svg width="24" height="24" viewBox="0 0 24 24" fill="none" xmlns="http://www.w3.org/2000/svg">
<mask id="mask0_18953_117353" style="mask-type:alpha" maskUnits="userSpaceOnUse" x="0" y="0" width="24" height="24">
<rect width="24" height="24" fill="#D9D9D9"/>
</mask>
<g mask="url(#mask0_18953_117353)">
<path d="M4.8077 20C4.30257 20 3.875 19.825 3.525 19.475C3.175 19.125 3 18.6974 3 18.1922V6.8077C3 6.30257 3.175 5.875 3.525 5.525C3.875 5.175 4.30257 5 4.8077 5H20.1923C20.6974 5 21.125 5.175 21.475 5.525C21.825 5.875 22 6.30257 22 6.8077V18.1922C22 18.6974 21.825 19.125 21.475 19.475C21.125 19.825 20.6974 20 20.1923 20H4.8077ZM12.5 13.0576L20.5 7.94225L20.3461 6.49997L12.5 11.5L4.65383 6.49997L4.49998 7.94225L12.5 13.0576Z" fill="white"/>
</g>
</svg>
