<?xml version="1.0" encoding="UTF-8"?>
<svg xmlns="http://www.w3.org/2000/svg" xmlns:xlink="http://www.w3.org/1999/xlink" width="22px" height="22px" viewBox="0 0 22 22" version="1.1">
<g id="surface1">
<path style="fill-rule:nonzero;fill:rgb(100%,100%,100%);fill-opacity:1;stroke-width:1;stroke-linecap:butt;stroke-linejoin:miter;stroke:rgb(100%,100%,100%);stroke-opacity:1;stroke-miterlimit:4;" d="M 51.919389 168.81392 L 36.9913 168.81392 L 36.9913 185.917969 L 51.463956 185.917969 C 56.929155 185.917969 62.394354 184.501065 62.394354 177.365945 C 62.394354 170.58505 58.244851 168.81392 51.919389 168.81392 Z M 51.919389 168.81392 " transform="matrix(0.077193,0,0,0.077193,0,0)"/>
<path style="fill-rule:nonzero;fill:rgb(100%,100%,100%);fill-opacity:1;stroke-width:1;stroke-linecap:butt;stroke-linejoin:miter;stroke:rgb(100%,100%,100%);stroke-opacity:1;stroke-miterlimit:4;" d="M 278.219105 117.248757 L 246.895419 117.248757 L 158.642578 40.482955 C 159.098011 38.863636 159.452237 37.193714 159.452237 35.473189 C 159.452237 26.060902 151.861683 18.470348 142.5 18.470348 C 133.138317 18.470348 125.547763 26.060902 125.547763 35.473189 C 125.547763 37.193714 125.901989 38.863636 126.357422 40.482955 L 38.104581 117.248757 L 6.780895 117.248757 C 3.036222 117.248757 0 120.284979 0 124.029652 L 0 259.748757 C 0 263.49343 3.036222 266.529652 6.780895 266.529652 L 278.219105 266.529652 C 281.963778 266.529652 285 263.49343 285 259.748757 L 285 124.029652 C 285 120.284979 281.963778 117.248757 278.219105 117.248757 Z M 135.263672 50.755504 C 137.490234 51.767578 139.919212 52.425426 142.5 52.425426 C 145.080788 52.425426 147.509766 51.767578 149.736328 50.755504 L 226.198509 117.248757 L 58.801491 117.248757 Z M 74.691051 203.629261 C 74.691051 210.966797 76.613991 213.699396 76.613991 216.685014 C 76.613991 220.075462 73.17294 222.352628 69.833097 222.352628 C 61.888317 222.352628 61.230469 214.660866 61.230469 212.130682 C 61.230469 200.997869 59.256925 196.494141 51.312145 196.494141 L 36.9913 196.494141 L 36.9913 215.1163 C 36.9913 219.468217 34.157493 222.352628 29.754972 222.352628 C 25.35245 222.352628 22.518643 219.468217 22.518643 215.1163 L 22.518643 166.182528 C 22.518643 159.705256 25.858487 157.681108 31.020064 157.681108 L 55.107422 157.681108 C 72.262074 157.681108 76.86701 167.143999 76.86701 175.341797 C 76.86701 182.223899 72.818714 189.004794 65.936612 190.624112 L 65.936612 190.775923 C 73.324751 191.838601 74.691051 197.202592 74.691051 203.629261 Z M 131.367188 221.188743 L 96.703658 221.188743 C 91.592685 221.188743 88.252841 219.164595 88.252841 212.737926 L 88.252841 166.182528 C 88.252841 159.705256 91.592685 157.681108 96.703658 157.681108 L 130.658736 157.681108 C 134.909446 157.681108 137.996271 158.9462 137.996271 163.500533 C 137.996271 168.105469 134.909446 169.319957 130.658736 169.319957 L 102.725497 169.319957 L 102.725497 183.084162 L 127.217685 183.084162 C 131.012962 183.084162 134.049183 184.146839 134.049183 188.650568 C 134.049183 193.154297 131.012962 194.216974 127.217685 194.216974 L 102.725497 194.216974 L 102.725497 209.549893 L 131.367188 209.549893 C 135.617898 209.549893 138.704723 210.814986 138.704723 215.369318 C 138.704723 219.974254 135.617898 221.188743 131.367188 221.188743 Z M 203.831676 213.34517 C 203.831676 219.063388 201.352095 222.352628 195.229048 222.352628 C 190.674716 222.352628 189.156605 221.391158 187.334872 218.456143 L 162.184837 178.782848 L 161.982422 178.782848 L 161.982422 215.369318 C 161.982422 220.075462 159.35103 222.352628 155.049716 222.352628 C 150.697798 222.352628 148.066406 220.075462 148.066406 215.369318 L 148.066406 165.018643 C 148.066406 158.996804 150.950817 156.567827 157.124467 156.567827 C 160.160689 156.567827 162.792081 157.681108 164.360795 160.3125 L 189.713246 201.200284 L 189.865057 201.200284 L 189.865057 163.500533 C 189.865057 158.844993 192.496449 156.567827 196.848366 156.567827 C 201.14968 156.567827 203.831676 158.844993 203.831676 163.500533 Z M 260.60902 169.876598 L 246.946023 169.876598 L 246.946023 215.1163 C 246.946023 219.468217 244.112216 222.352628 239.709695 222.352628 C 235.307173 222.352628 232.473366 219.468217 232.473366 215.1163 L 232.473366 169.876598 L 218.810369 169.876598 C 214.660866 169.876598 211.321023 167.751243 211.321023 163.753551 C 211.321023 159.806463 214.660866 157.681108 218.810369 157.681108 L 260.60902 157.681108 C 264.758523 157.681108 268.098366 159.806463 268.098366 163.753551 C 268.098366 167.751243 264.758523 169.876598 260.60902 169.876598 Z M 260.60902 169.876598 " transform="matrix(0.077193,0,0,0.077193,0,0)"/>
</g>
</svg>
