<?xml version="1.0" encoding="UTF-8"?>
<svg xmlns="http://www.w3.org/2000/svg" xmlns:xlink="http://www.w3.org/1999/xlink" width="24px" height="24px" viewBox="0 0 24 24" version="1.1">
<g id="surface1">
<path style="fill-rule:nonzero;fill:rgb(100%,100%,100%);fill-opacity:1;stroke-width:1;stroke-linecap:butt;stroke-linejoin:miter;stroke:rgb(100%,100%,100%);stroke-opacity:1;stroke-miterlimit:4;" d="M 230.920833 62.963542 L 229.857812 62.963542 C 219.227604 62.963542 209.578646 72.530729 209.578646 83.160938 C 209.578646 93.872917 218.164583 103.440104 230.920833 103.440104 C 241.632812 103.440104 251.2 93.872917 251.2 83.160938 C 251.2 72.530729 242.695833 62.963542 230.920833 62.963542 Z M 230.920833 62.963542 " transform="matrix(0.0477707,0,0,0.0477707,0,0)"/>
<path style="fill-rule:nonzero;fill:rgb(100%,100%,100%);fill-opacity:1;stroke-width:1;stroke-linecap:butt;stroke-linejoin:miter;stroke:rgb(100%,100%,100%);stroke-opacity:1;stroke-miterlimit:4;" d="M 480.567187 94.935937 C 422.91875 77.845833 365.352083 81.034896 321.604688 84.305729 C 318.415625 36.30625 278.920313 0 229.857812 0 C 178.669271 0 138.110938 41.621354 138.110938 91.746875 C 138.110938 95.998958 139.173958 100.251042 140.236979 105.566146 C 99.760417 106.629167 66.643229 103.440104 33.607813 94.935937 C 27.229688 92.809896 20.769792 93.872917 15.454688 98.125 C 10.139583 101.314063 6.950521 107.692188 6.950521 114.152083 L 6.950521 470.427604 C 6.950521 478.931771 13.328646 487.435938 21.832812 489.561979 C 54.95 499.210938 89.048438 502.4 122.165625 502.4 C 166.894271 502.4 210.641667 496.021875 253.326042 489.561979 C 327.982813 478.931771 398.3875 468.301562 468.792188 488.498958 C 475.170313 490.706771 481.630208 489.561979 486.945312 485.309896 C 492.260417 482.120833 495.449479 475.742708 495.449479 469.364583 L 495.449479 114.152083 C 495.449479 105.566146 489.071354 97.061979 480.567187 94.935937 Z M 229.857812 41.621354 C 257.578125 41.621354 281.046354 64.026562 281.046354 91.746875 C 281.046354 109.9 254.389062 166.403646 229.857812 214.403125 C 204.263542 167.466667 178.669271 110.963021 178.669271 91.746875 C 178.669271 64.026562 202.1375 41.621354 229.857812 41.621354 Z M 456.035937 444.833333 C 385.63125 430.932292 316.289583 440.499479 249.073958 450.148438 C 179.732292 459.715625 114.642708 469.364583 48.571875 454.400521 L 48.571875 139.746354 C 78.418229 146.124479 111.453646 148.250521 148.822917 146.124479 C 149.885938 146.124479 150.948958 146.124479 152.011979 146.124479 C 171.228125 194.123958 203.200521 252.835417 211.704688 267.717708 C 216.038542 274.095833 222.416667 278.429688 229.857812 278.429688 C 237.298958 278.429688 243.758854 274.095833 248.010938 267.717708 C 257.578125 249.564583 298.136458 177.033854 314.163542 125.845313 C 315.226562 125.845313 316.289583 125.845313 317.352604 125.845313 C 357.829167 121.593229 406.891667 119.467187 456.035937 130.097396 Z M 456.035937 444.833333 " transform="matrix(0.0477707,0,0,0.0477707,0,0)"/>
<path style="fill-rule:nonzero;fill:rgb(100%,100%,100%);fill-opacity:1;stroke-width:1;stroke-linecap:butt;stroke-linejoin:miter;stroke:rgb(100%,100%,100%);stroke-opacity:1;stroke-miterlimit:4;" d="M 164.768229 352.023438 L 147.759896 352.023438 L 147.759896 328.555208 C 147.759896 317.843229 138.110938 308.276042 127.480729 308.276042 C 116.76875 308.276042 107.201562 316.780208 107.201562 328.555208 L 107.201562 372.302604 C 107.201562 382.932813 115.705729 392.5 127.480729 392.5 L 164.768229 392.5 C 175.480208 392.5 185.047396 382.932813 185.047396 372.302604 C 185.047396 361.590625 176.543229 352.023438 164.768229 352.023438 Z M 164.768229 352.023438 " transform="matrix(0.0477707,0,0,0.0477707,0,0)"/>
</g>
</svg>
