<svg width="24" height="24" viewBox="0 0 24 24" fill="none" xmlns="http://www.w3.org/2000/svg">
<mask id="mask0_18953_117346" style="mask-type:alpha" maskUnits="userSpaceOnUse" x="0" y="0" width="24" height="24">
<rect width="24" height="24" fill="#D9D9D9"/>
</mask>
<g mask="url(#mask0_18953_117346)">
<path d="M20.9 12.5L16.925 18.1C16.725 18.3833 16.475 18.604 16.175 18.762C15.875 18.9207 15.55 19 15.2 19H5.825C5.325 19 4.896 18.825 4.538 18.475C4.17933 18.125 4 17.7 4 17.2V7.8C4 7.3 4.17933 6.875 4.538 6.525C4.896 6.175 5.325 6 5.825 6H15.2C15.55 6 15.875 6.08333 16.175 6.25C16.475 6.41667 16.725 6.63333 16.925 6.9L20.9 12.5Z" fill="white"/>
</g>
</svg>
