<?xml version="1.0" encoding="UTF-8"?>
<svg xmlns="http://www.w3.org/2000/svg" xmlns:xlink="http://www.w3.org/1999/xlink" width="24px" height="24px" viewBox="0 0 24 24" version="1.1">
<g id="surface1">
<path style="fill:none;stroke-width:1.5;stroke-linecap:butt;stroke-linejoin:miter;stroke:rgb(100%,100%,100%);stroke-opacity:1;stroke-miterlimit:4;" d="M 16 6 C 16 8.210938 14.210938 10 12 10 C 9.789062 10 8 8.210938 8 6 C 8 3.789062 9.789062 2 12 2 C 14.210938 2 16 3.789062 16 6 Z M 16 6 "/>
<path style="fill:none;stroke-width:1.5;stroke-linecap:round;stroke-linejoin:miter;stroke:rgb(100%,100%,100%);stroke-opacity:1;stroke-miterlimit:4;" d="M 19.996094 18 C 20 17.835938 20 17.667969 20 17.5 C 20 15.015625 16.417969 13 12 13 C 7.582031 13 4 15.015625 4 17.5 C 4 19.984375 4 22 12 22 C 14.230469 22 15.839844 21.84375 17 21.5625 "/>
</g>
</svg>
