<svg width="16" height="16" viewBox="0 0 16 16" fill="none" xmlns="http://www.w3.org/2000/svg">
<mask id="mask0_361_79619" style="mask-type:alpha" maskUnits="userSpaceOnUse" x="0" y="0" width="16" height="16">
<rect width="16" height="16" fill="#D9D9D9"/>
</mask>
<g mask="url(#mask0_361_79619)">
<path d="M4.33594 9.33398C4.05816 9.33398 3.82216 9.23665 3.62794 9.04198C3.43327 8.84776 3.33594 8.61176 3.33594 8.33398C3.33594 8.05621 3.43327 7.82021 3.62794 7.62598C3.82216 7.43132 4.05816 7.33398 4.33594 7.33398C4.61372 7.33398 4.84994 7.43132 5.0446 7.62598C5.23883 7.82021 5.33594 8.05621 5.33594 8.33398C5.33594 8.61176 5.23883 8.84776 5.0446 9.04198C4.84994 9.23665 4.61372 9.33398 4.33594 9.33398ZM8.18594 9.33398C7.90816 9.33398 7.67216 9.23665 7.47794 9.04198C7.28327 8.84776 7.18594 8.61176 7.18594 8.33398C7.18594 8.05621 7.28327 7.82021 7.47794 7.62598C7.67216 7.43132 7.90816 7.33398 8.18594 7.33398C8.46372 7.33398 8.69972 7.43132 8.89394 7.62598C9.0886 7.82021 9.18594 8.05621 9.18594 8.33398C9.18594 8.61176 9.0886 8.84776 8.89394 9.04198C8.69972 9.23665 8.46372 9.33398 8.18594 9.33398ZM12.0359 9.33398C11.7582 9.33398 11.5222 9.23665 11.3279 9.04198C11.1333 8.84776 11.0359 8.61176 11.0359 8.33398C11.0359 8.05621 11.1333 7.82021 11.3279 7.62598C11.5222 7.43132 11.7582 7.33398 12.0359 7.33398C12.3137 7.33398 12.5499 7.43132 12.7446 7.62598C12.9388 7.82021 13.0359 8.05621 13.0359 8.33398C13.0359 8.61176 12.9388 8.84776 12.7446 9.04198C12.5499 9.23665 12.3137 9.33398 12.0359 9.33398Z" fill="#333333"/>
</g>
</svg>
