<svg width="25" height="6" viewBox="0 0 25 6" fill="none" xmlns="http://www.w3.org/2000/svg">
<path d="M2.83203 5.33337C2.13759 5.33337 1.54759 5.09004 1.06203 4.60337C0.575365 4.11782 0.332031 3.52782 0.332031 2.83337C0.332031 2.13893 0.575365 1.54893 1.06203 1.06337C1.54759 0.576707 2.13759 0.333374 2.83203 0.333374C3.52648 0.333374 4.11703 0.576707 4.6037 1.06337C5.08925 1.54893 5.33203 2.13893 5.33203 2.83337C5.33203 3.52782 5.08925 4.11782 4.6037 4.60337C4.11703 5.09004 3.52648 5.33337 2.83203 5.33337ZM12.457 5.33337C11.7626 5.33337 11.1726 5.09004 10.687 4.60337C10.2004 4.11782 9.95703 3.52782 9.95703 2.83337C9.95703 2.13893 10.2004 1.54893 10.687 1.06337C11.1726 0.576707 11.7626 0.333374 12.457 0.333374C13.1515 0.333374 13.7415 0.576707 14.227 1.06337C14.7137 1.54893 14.957 2.13893 14.957 2.83337C14.957 3.52782 14.7137 4.11782 14.227 4.60337C13.7415 5.09004 13.1515 5.33337 12.457 5.33337ZM22.082 5.33337C21.3876 5.33337 20.7976 5.09004 20.312 4.60337C19.8254 4.11782 19.582 3.52782 19.582 2.83337C19.582 2.13893 19.8254 1.54893 20.312 1.06337C20.7976 0.576707 21.3876 0.333374 22.082 0.333374C22.7765 0.333374 23.367 0.576707 23.8537 1.06337C24.3393 1.54893 24.582 2.13893 24.582 2.83337C24.582 3.52782 24.3393 4.11782 23.8537 4.60337C23.367 5.09004 22.7765 5.33337 22.082 5.33337Z" fill="#333333"/>
</svg>
