<svg width="160" height="160" viewBox="0 0 160 160" fill="none" xmlns="http://www.w3.org/2000/svg">
<path d="M28.4 125C36.8 119.133 45.1333 114.633 53.4 111.5C61.6667 108.367 70.5333 106.8 80 106.8C89.4667 106.8 98.3667 108.367 106.7 111.5C115.033 114.633 123.4 119.133 131.8 125C137.667 117.8 141.833 110.533 144.3 103.2C146.767 95.8667 148 88.1333 148 80C148 60.6667 141.5 44.5 128.5 31.5C115.5 18.5 99.3333 12 80 12C60.6667 12 44.5 18.5 31.5 31.5C18.5 44.5 12 60.6667 12 80C12 88.1333 13.2667 95.8667 15.8 103.2C18.3333 110.533 22.5333 117.8 28.4 125ZM80 86C72.2667 86 65.7667 83.3667 60.5 78.1C55.2333 72.8333 52.6 66.3333 52.6 58.6C52.6 50.8667 55.2333 44.3667 60.5 39.1C65.7667 33.8333 72.2667 31.2 80 31.2C87.7333 31.2 94.2333 33.8333 99.5 39.1C104.767 44.3667 107.4 50.8667 107.4 58.6C107.4 66.3333 104.767 72.8333 99.5 78.1C94.2333 83.3667 87.7333 86 80 86ZM80 160C69.0667 160 58.7333 157.9 49 153.7C39.2667 149.5 30.7667 143.767 23.5 136.5C16.2333 129.233 10.5 120.733 6.3 111C2.1 101.267 0 90.9333 0 80C0 68.9333 2.1 58.5667 6.3 48.9C10.5 39.2333 16.2333 30.7667 23.5 23.5C30.7667 16.2333 39.2667 10.5 49 6.3C58.7333 2.1 69.0667 0 80 0C91.0667 0 101.433 2.1 111.1 6.3C120.767 10.5 129.233 16.2333 136.5 23.5C143.767 30.7667 149.5 39.2333 153.7 48.9C157.9 58.5667 160 68.9333 160 80C160 90.9333 157.9 101.267 153.7 111C149.5 120.733 143.767 129.233 136.5 136.5C129.233 143.767 120.767 149.5 111.1 153.7C101.433 157.9 91.0667 160 80 160ZM80 148C87.3333 148 94.5 146.933 101.5 144.8C108.5 142.667 115.4 138.933 122.2 133.6C115.4 128.8 108.467 125.133 101.4 122.6C94.3333 120.067 87.2 118.8 80 118.8C72.8 118.8 65.6667 120.067 58.6 122.6C51.5333 125.133 44.6 128.8 37.8 133.6C44.6 138.933 51.5 142.667 58.5 144.8C65.5 146.933 72.6667 148 80 148ZM80 74C84.5333 74 88.2333 72.5667 91.1 69.7C93.9667 66.8333 95.4 63.1333 95.4 58.6C95.4 54.0667 93.9667 50.3667 91.1 47.5C88.2333 44.6333 84.5333 43.2 80 43.2C75.4667 43.2 71.7667 44.6333 68.9 47.5C66.0333 50.3667 64.6 54.0667 64.6 58.6C64.6 63.1333 66.0333 66.8333 68.9 69.7C71.7667 72.5667 75.4667 74 80 74Z" fill="#DADCDE"/>
</svg>
