<svg width="30" height="31" viewBox="0 0 30 31" fill="none" xmlns="http://www.w3.org/2000/svg">
<path fill-rule="evenodd" clip-rule="evenodd" d="M25.4968 4.44186C24.8442 2.7079 23.3165 1.33399 21.6188 0.607648C19.8936 -0.13119 18.1334 -0.311212 16.1682 0.721412L17.7921 3.80678C19.3435 2.99043 21.6263 4.05931 22.2326 5.6695C22.734 7.00091 23.2565 7.91477 23.8291 8.63236C24.2704 9.18493 24.7442 9.61123 25.0892 9.92001C25.168 9.99127 25.2405 10.0563 25.3043 10.115C26.1944 10.9401 26.4894 12.2028 26.1656 13.1779C25.8956 13.9943 25.4968 14.9669 21.9201 14.9669V18.4535C26.2806 18.4535 28.7034 16.7596 29.5273 14.2743C30.2974 11.949 29.5273 9.27369 27.677 7.55973C27.5445 7.43722 27.4295 7.33345 27.3245 7.23844C27.0132 6.95716 26.8007 6.76588 26.5557 6.45835C26.2581 6.08455 25.8993 5.50948 25.4968 4.44186ZM13.6429 14.9681C10.3262 14.9681 8.79104 15.3444 7.05208 15.8232C5.35938 16.2883 4.02797 16.8833 3.30663 17.4034C1.80395 18.4848 0.822584 19.8775 0.446289 21.4226C0.0712437 22.9653 0.331275 24.5255 1.07636 25.8682C2.56904 28.556 5.88069 30.2487 9.93617 29.9349C11.2988 29.8299 12.2127 29.6024 12.9465 29.4186L12.9915 29.4073C13.6991 29.2311 14.1667 29.1223 14.8555 29.1223C15.4856 29.1223 15.7306 29.2123 16.1132 29.3536L16.1532 29.3686C16.6995 29.5711 17.3983 29.8286 18.6622 29.9349C20.0636 30.0524 21.2288 30.0324 22.3702 29.7861C25.7081 29.0661 28.6634 27.0183 29.6985 23.6942C30.5911 20.8276 29.2172 18.7273 29.2172 18.7273C29.2172 18.7273 28.4134 19.4036 27.8383 19.7274C27.2645 20.0512 26.2756 20.385 26.2756 20.385C26.2756 20.385 26.8782 21.4526 26.1619 23.0528C25.3493 24.8681 24.5604 25.4031 21.6326 26.377C20.2437 26.677 18.661 26.5783 17.3283 26.0869C16.7282 25.8657 16.0532 25.6356 14.853 25.6356C13.6529 25.6356 12.8865 25.8394 12.1439 26.0244L12.1139 26.0319C11.4176 26.2057 10.735 26.3757 9.66364 26.4582C6.68078 26.6883 4.82306 25.4394 4.12173 24.1755C3.77044 23.5416 3.67793 22.8741 3.83044 22.2452C3.98296 21.6189 4.41176 20.8976 5.33937 20.2312C5.5844 20.055 6.46951 19.5962 7.97344 19.1836C9.42986 18.7823 11.0213 18.4535 13.6379 18.4535V14.9669L13.6429 14.9681ZM13.7466 0.680157C10.0687 -1.24507 5.36063 1.42025 4.68305 5.27446C4.44802 6.60962 3.88795 7.05842 3.0666 7.716C2.84158 7.89602 2.5978 8.09104 2.33526 8.32482C-0.195038 10.5788 -0.900122 13.7517 1.3764 17.0659C1.3764 17.0659 2.16399 16.3345 2.78282 15.942C3.30663 15.6082 4.278 15.2169 4.278 15.2169C2.78282 13.1792 3.4729 12.1303 4.68305 10.6488C5.01809 10.2388 5.37063 9.96377 5.71942 9.69123C6.52952 9.05741 7.32211 8.43859 7.83842 6.17706C8.19722 4.60438 10.3487 2.83917 12.1277 3.77053L13.7466 0.682657V0.680157Z" fill="#0A2515"/>
</svg>
