<svg width="16" height="16" viewBox="0 0 16 16" fill="none" xmlns="http://www.w3.org/2000/svg">
<mask id="mask0_3882_53768" style="mask-type:alpha" maskUnits="userSpaceOnUse" x="0" y="0" width="16" height="16">
<rect width="16" height="16" fill="#D9D9D9"/>
</mask>
<g mask="url(#mask0_3882_53768)">
<path d="M3.66406 13.4999V3.53325C3.66406 3.19992 3.78073 2.91659 4.01406 2.68325C4.2474 2.44992 4.53073 2.33325 4.86406 2.33325H11.1307C11.4641 2.33325 11.7474 2.44992 11.9807 2.68325C12.2141 2.91659 12.3307 3.19992 12.3307 3.53325V13.4999L7.9974 11.6333L3.66406 13.4999ZM4.66406 11.9666L7.9974 10.5333L11.3307 11.9666V3.53325C11.3307 3.48881 11.3085 3.44436 11.2641 3.39992C11.2196 3.35547 11.1752 3.33325 11.1307 3.33325H4.86406C4.81962 3.33325 4.77517 3.35547 4.73073 3.39992C4.68628 3.44436 4.66406 3.48881 4.66406 3.53325V11.9666ZM4.66406 3.33325H11.3307H7.9974H4.66406Z" fill="#333333"/>
</g>
</svg>
