<svg width="18" height="18" viewBox="0 0 18 18" fill="none" xmlns="http://www.w3.org/2000/svg">
<g clip-path="url(#clip0_985_81208)">
<path d="M9.00107 0.0390882C5.36051 0.0384341 2.07826 2.23124 0.685124 5.59477C-0.707844 8.9583 0.0627204 12.8298 2.6377 15.4033C6.15217 18.9177 11.8501 18.9177 15.3644 15.4033C18.8789 11.889 18.8789 6.19101 15.3644 2.67654C13.6805 0.982996 11.3893 0.0333646 9.00107 0.0390882ZM9.00107 17.2034C4.50066 17.2034 0.837536 13.5403 0.837536 9.0399C0.837536 4.53949 4.50066 0.876373 9.00107 0.876373C13.5015 0.876373 17.1646 4.53949 17.1646 9.0399C17.1646 13.5403 13.5015 17.2034 9.00107 17.2034Z" fill="#0871E1"/>
<path d="M13.2792 6.27319L7.87466 11.4392L4.92731 8.49609C4.76443 8.33305 4.50017 8.33305 4.33713 8.49609C4.17408 8.65913 4.17408 8.9234 4.33713 9.08644L7.57327 12.3226C7.65176 12.4016 7.75904 12.4454 7.8704 12.4439C7.9785 12.4449 8.08251 12.4027 8.15937 12.3267L13.857 6.88022C14.0222 6.72012 14.0276 6.45684 13.8691 6.2902C13.7105 6.12372 13.4473 6.11604 13.2792 6.27319Z" fill="#0871E1"/>
</g>
<defs>
<clipPath id="clip0_985_81208">
<rect width="18" height="18" fill="white"/>
</clipPath>
</defs>
</svg>
