<svg width="16" height="17" viewBox="0 0 16 17" fill="none" xmlns="http://www.w3.org/2000/svg">
<mask id="mask0_13900_18666" style="mask-type:alpha" maskUnits="userSpaceOnUse" x="0" y="0" width="16" height="17">
<rect y="0.5" width="16" height="16" fill="#D9D9D9"/>
</mask>
<g mask="url(#mask0_13900_18666)">
<path d="M3.66797 13.9987V4.03203C3.66797 3.6987 3.78464 3.41536 4.01797 3.18203C4.2513 2.9487 4.53464 2.83203 4.86797 2.83203H11.1346C11.468 2.83203 11.7513 2.9487 11.9846 3.18203C12.218 3.41536 12.3346 3.6987 12.3346 4.03203V13.9987L8.0013 12.132L3.66797 13.9987ZM4.66797 12.4654L8.0013 11.032L11.3346 12.4654V4.03203C11.3346 3.98759 11.3124 3.94314 11.268 3.8987C11.2235 3.85425 11.1791 3.83203 11.1346 3.83203H4.86797C4.82352 3.83203 4.77908 3.85425 4.73464 3.8987C4.69019 3.94314 4.66797 3.98759 4.66797 4.03203V12.4654ZM4.66797 3.83203H11.3346H8.0013H4.66797Z" fill="#333333"/>
</g>
</svg>
