<svg width="40" height="40" viewBox="0 0 40 40" fill="none" xmlns="http://www.w3.org/2000/svg">
<circle cx="20" cy="20" r="20" fill="white"/>
<mask id="mask0_371_71998" style="mask-type:alpha" maskUnits="userSpaceOnUse" x="0" y="0" width="40" height="40">
<circle cx="20" cy="20" r="20" fill="white"/>
</mask>
<g mask="url(#mask0_371_71998)">
<path d="M18.1618 5.59184C17.2622 5.79635 16.3923 6.11498 15.5734 6.53998C10.0204 9.38443 8.51917 16.1984 3.45607 19.6465C-0.336523 22.235 -5.37751 22.3962 -9.60625 24.0365C-13.835 25.6768 -16.6383 29.4788 -17.5486 33.9162C-19.6376 44.1088 -14.3375 52.3166 -4.52101 55.2242C2.89034 57.4366 11.0318 57.1964 18.2124 54.2539C26.1136 51.0113 30.728 45.1865 32.9055 36.9692C34.6975 30.1899 35.8827 21.5018 33.2879 14.8078C30.9871 8.8503 24.4923 4.17278 18.1618 5.59184Z" fill="#EDF3FF"/>
<path d="M29.4072 28.5624L19.8594 28.5877C19.9832 28.3574 20.169 28.1663 20.3957 28.0362C20.6225 27.906 20.8812 27.842 21.1425 27.8513C21.2843 27.5126 21.501 27.2104 21.7763 26.9674C22.0517 26.7245 22.3785 26.5471 22.7322 26.4485C23.0859 26.35 23.4574 26.3329 23.8187 26.3985C24.18 26.4641 24.5217 26.6107 24.8182 26.8273C24.9419 26.9396 25.0886 27.0238 25.248 27.0738C25.4273 27.0844 25.6068 27.0586 25.7758 26.998C25.9966 26.9489 26.2258 26.9519 26.4452 27.0068C26.6646 27.0616 26.8683 27.1668 27.04 27.314C27.1211 27.4047 27.2231 27.4741 27.3371 27.5163C27.4442 27.5277 27.5525 27.5137 27.6531 27.4752C28.5065 27.2319 29.3029 27.668 29.4072 28.5624Z" fill="white"/>
<path d="M10.6719 23.2312C10.6719 23.2312 16.7147 21.8248 17.2046 21.1706C17.6945 20.5164 17.1509 15.3837 17.6092 14.9602C18.0674 14.5367 20.0491 14.9318 20.1375 15.3584C20.226 15.7851 20.3714 22.7445 19.7836 23.2281C19.1957 23.7116 13.9619 25.3203 13.5037 25.156C13.0454 24.9916 10.6719 23.2312 10.6719 23.2312Z" fill="#8EA5E8"/>
<path d="M17.0306 34.8978C17.0306 34.8978 8.46563 34.4774 8.3803 34.8978C8.34237 35.0937 8.06425 40.5456 7.7482 46.4272C5.53585 49.1453 3.36776 51.8001 0.867807 54.2463C0.70288 54.3707 0.590207 54.5521 0.551758 54.7551C0.561168 54.9303 0.629051 55.0972 0.744548 55.2292C1.33579 56.1013 2.1226 56.8231 3.04223 57.3372C3.49102 57.5522 4.34119 56.6167 4.60351 56.3701C5.51843 55.4921 6.37666 54.5568 7.17299 53.5699C8.08953 52.4669 8.96815 51.326 9.78988 50.144C10.422 49.2559 11.1015 48.3867 11.4839 47.3627C11.5784 47.1094 11.6503 46.8481 11.6988 46.5821C11.8695 45.6687 11.8347 44.6858 11.9137 43.7819C11.9856 42.9761 12.1101 42.1758 12.2867 41.3862C12.3717 40.9158 12.5161 40.4581 12.7165 40.0241C12.7785 39.8714 12.8735 39.7344 12.9946 39.6227C13.3834 39.3477 13.8479 40.5708 14.0186 40.8869C14.3705 41.519 14.715 42.1511 15.0521 42.7832C15.7893 44.118 16.4448 45.4964 17.0148 46.9108C17.176 47.291 17.2824 47.6922 17.3308 48.1023C17.4478 49.7995 15.1374 60.0774 15.4029 60.1122C15.6684 60.1469 19.2808 60.7695 19.3535 60.6305C19.4262 60.4914 21.43 48.6617 21.1771 47.5808C20.9243 46.4999 17.0306 34.8978 17.0306 34.8978Z" fill="#294783"/>
<mask id="mask1_371_71998" style="mask-type:luminance" maskUnits="userSpaceOnUse" x="0" y="34" width="22" height="27">
<path d="M17.0335 34.9002C17.0335 34.9002 8.46856 34.4799 8.38323 34.9002C8.3453 35.0961 8.06718 40.548 7.75113 46.4297C5.53878 49.1477 3.37069 51.8025 0.870737 54.2487C0.705809 54.3732 0.593137 54.5546 0.554688 54.7576C0.564097 54.9327 0.631981 55.0996 0.747478 55.2316C1.33872 56.1037 2.12553 56.8256 3.04516 57.3397C3.49395 57.5546 4.34412 56.6191 4.60644 56.3726C5.52136 55.4945 6.37959 54.5593 7.17592 53.5724C8.09246 52.4694 8.97108 51.3284 9.79281 50.1464C10.4249 49.2583 11.1044 48.3892 11.4868 47.3652C11.5813 47.1118 11.6532 46.8506 11.7017 46.5845C11.8724 45.6712 11.8376 44.6882 11.9167 43.7843C11.9885 42.9785 12.1131 42.1782 12.2896 41.3887C12.3746 40.9183 12.5191 40.4606 12.7194 40.0265C12.7814 39.8739 12.8764 39.7368 12.9975 39.6251C13.3863 39.3502 13.8509 40.5733 14.0215 40.8893C14.3734 41.5214 14.7179 42.1535 15.055 42.7856C15.7923 44.1205 16.4477 45.4989 17.0177 46.9132C17.1789 47.2934 17.2853 47.6946 17.3337 48.1047C17.4507 49.8019 15.1404 60.0798 15.4058 60.1146C15.6713 60.1494 19.2838 60.772 19.3565 60.6329C19.4291 60.4939 21.4329 48.6641 21.1801 47.5833C20.9272 46.5024 17.0335 34.9002 17.0335 34.9002Z" fill="white"/>
</mask>
<g mask="url(#mask1_371_71998)">
<path d="M18.5844 38.0213C18.5844 38.0213 11.3469 38.7798 9.75397 42.3195C8.16108 45.8593 8.17373 46.9433 8.17373 46.9433C8.17373 46.9433 1.60938 55.641 0.904594 55.4767C0.705227 55.4254 0.526829 55.3132 0.394262 55.1557C0.261696 54.9982 0.181566 54.8032 0.165039 54.598L7.24138 46.2765C7.24138 46.2765 7.49106 38.6439 7.71229 38.2583C7.93353 37.8727 17.4593 35.3507 17.6931 35.8247C17.927 36.2988 18.5844 38.0213 18.5844 38.0213Z" fill="#233F6D"/>
</g>
<path d="M9.06292 21.1775C8.89541 20.5454 8.94914 19.9133 9.18934 19.7458C9.68869 19.3886 10.6558 19.2812 10.836 19.809C10.836 19.809 11.8916 22.4164 10.5483 22.5302C10.6463 23.0706 10.7222 23.5889 10.7601 23.6932C10.8391 23.905 9.76139 24.0725 9.4959 23.9903C9.34104 23.9334 9.15773 22.2331 9.06292 21.1775Z" fill="#ED784D"/>
<path d="M10.5487 22.53C10.2352 22.5562 9.9229 22.4675 9.67004 22.2803C9.25601 21.9643 9.85018 23.0231 10.6182 22.9124L10.5487 22.53Z" fill="#D24A0E"/>
<path d="M9.08933 21.4561C9.26756 21.2471 9.4174 21.0154 9.53496 20.7671C9.55708 20.6786 9.24104 20.805 9.31057 20.5301C9.3801 20.2551 9.62661 20.2994 9.6677 20.3942C9.70879 20.489 9.8036 19.9043 9.6677 19.86C9.5318 19.8158 11.3112 20.2361 11.5197 20.0623C11.7283 19.8885 11.2827 19.8569 11.2827 19.8569C11.2827 19.8569 11.7726 19.5156 11.6493 19.3354C11.5261 19.1553 11.0931 19.3354 11.0931 19.3354C11.0931 19.3354 11.1974 18.874 10.856 18.8202C10.5147 18.7665 10.4547 19.0099 10.4547 19.0099C10.4547 19.0099 9.19047 18.7286 8.92182 19.0794C8.65318 19.4302 8.72271 19.5946 8.72271 19.5946C8.61307 19.6565 8.52441 19.7497 8.4681 19.8623C8.41179 19.9749 8.3904 20.1018 8.40666 20.2267C8.57097 20.6685 8.80112 21.083 9.08933 21.4561Z" fill="#122A50"/>
<path d="M9.74287 23.2844C9.74287 23.2844 12.9034 22.6523 14.5405 25.6579C16.1776 28.6636 18.9778 35.6767 17.9412 36.2898C16.6391 37.0673 7.68539 39.6968 7.24292 38.4832C6.80045 37.2696 6.27265 26.7294 6.87631 25.4367C7.7328 23.6099 9.74287 23.2844 9.74287 23.2844Z" fill="#8EA5E8"/>
<path d="M6.8757 25.4375C6.8757 25.4375 3.31383 32.3685 2.81763 32.4791C2.32143 32.5897 -3.77832 34.7894 -3.77832 35.0707C-3.77832 35.352 -3.37694 38.07 -2.7638 38.0226C-2.15067 37.9752 4.40736 35.4942 4.77081 35.1781C5.70316 34.4133 7.72587 29.8495 7.86493 29.426C8.00399 29.0025 6.8757 25.4375 6.8757 25.4375Z" fill="#8EA5E8"/>
<path d="M6.60441 32.2023C6.60441 32.2023 8.30792 28.239 8.39641 28.5899C8.4849 28.9407 7.4293 36.7123 8.39641 37.5562C9.36352 38.4 12.9728 37.9544 12.9728 37.9544C12.9728 37.9544 8.54811 39.1996 7.34713 38.8014C6.14614 38.4032 6.60441 32.2023 6.60441 32.2023Z" fill="#6D89C8"/>
<path d="M14.1826 25.0909C14.1826 25.0909 19.2394 23.4096 19.467 22.67C19.6945 21.9304 20.0991 15.0342 20.1465 15.3629C20.1939 15.6916 20.4119 22.6605 19.7925 23.2326C19.173 23.8046 14.8684 25.0214 14.1826 25.0909Z" fill="#6D89C8"/>
<path d="M8.39551 23.8064C8.39551 23.8064 9.72924 23.936 9.74188 23.8949C9.75452 23.8538 10.099 23.2344 10.099 23.2344C9.49192 23.2778 8.90579 23.4747 8.39551 23.8064Z" fill="white"/>
<path d="M10.3438 23.233L11.077 23.7955L11.5858 23.0181C11.167 23.0585 10.7518 23.1303 10.3438 23.233Z" fill="white"/>
<path d="M10.0986 23.2329C10.0986 23.2329 10.244 22.9674 10.342 29.6392C10.342 29.6392 11.1037 31.2416 11.1511 31.2194C11.451 30.8186 11.7044 30.3849 11.9064 29.9268C11.9064 29.7593 11.8243 25.5969 10.342 23.2266L10.0986 23.2329Z" fill="#294783"/>
<path d="M15.2137 8.56787C15.2137 8.56787 14.8977 15.5589 15.2137 15.344C15.5298 15.1291 35.6621 9.50654 35.3302 9.50654C34.9984 9.50654 15.2137 8.56787 15.2137 8.56787Z" fill="#E9A854"/>
<path d="M15.213 8.56787C15.213 8.56787 4.20186 11.2733 5.66517 11.4818C7.12848 11.6904 35.3296 9.50654 35.3296 9.50654L15.213 8.56787Z" fill="#FEBD69"/>
<path d="M15.2139 8.57052C15.4832 8.41223 15.7823 8.3111 16.0925 8.27344C16.4591 8.27344 35.3304 9.50919 35.3304 9.50919L15.2139 8.57052Z" fill="#E9A854"/>
<path d="M18.0765 14.797C18.0765 14.797 17.7035 13.8141 17.8236 13.7635C17.9437 13.7129 18.1618 13.7035 18.2219 13.8362C18.2819 13.9689 18.3578 14.2945 18.4526 14.3166C18.5474 14.3387 19.5967 13.9816 19.6188 14.0322C19.6409 14.0827 19.6188 14.8476 19.4829 14.955C19.0223 14.8451 18.55 14.7921 18.0765 14.797Z" fill="#ED784D"/>
</g>
</svg>
