<svg width="15" height="10" viewBox="0 0 15 10" fill="none" xmlns="http://www.w3.org/2000/svg">
<path d="M7.3026 7.71536C8.05816 7.71536 8.69972 7.45136 9.22727 6.92336C9.75527 6.39581 10.0193 5.75425 10.0193 4.9987C10.0193 4.24314 9.75527 3.60159 9.22727 3.07403C8.69972 2.54603 8.05816 2.28203 7.3026 2.28203C6.54705 2.28203 5.90549 2.54603 5.37794 3.07403C4.84994 3.60159 4.58594 4.24314 4.58594 4.9987C4.58594 5.75425 4.84994 6.39581 5.37794 6.92336C5.90549 7.45136 6.54705 7.71536 7.3026 7.71536ZM7.3026 6.7987C6.8026 6.7987 6.37772 6.62359 6.02794 6.27336C5.67772 5.92359 5.5026 5.4987 5.5026 4.9987C5.5026 4.4987 5.67772 4.07359 6.02794 3.72336C6.37772 3.37359 6.8026 3.1987 7.3026 3.1987C7.8026 3.1987 8.22772 3.37359 8.57794 3.72336C8.92772 4.07359 9.1026 4.4987 9.1026 4.9987C9.1026 5.4987 8.92772 5.92359 8.57794 6.27336C8.22772 6.62359 7.8026 6.7987 7.3026 6.7987ZM7.3026 9.66537C5.76927 9.66537 4.37216 9.24314 3.11127 8.3987C1.84994 7.55425 0.924826 6.42092 0.335938 4.9987C0.924826 3.57648 1.84994 2.44314 3.11127 1.5987C4.37216 0.754254 5.76927 0.332031 7.3026 0.332031C8.83594 0.332031 10.2333 0.754254 11.4946 1.5987C12.7555 2.44314 13.6804 3.57648 14.2693 4.9987C13.6804 6.42092 12.7555 7.55425 11.4946 8.3987C10.2333 9.24314 8.83594 9.66537 7.3026 9.66537ZM7.3026 8.66537C8.55816 8.66537 9.71105 8.3347 10.7613 7.67336C11.811 7.01248 12.6137 6.12092 13.1693 4.9987C12.6137 3.87648 11.811 2.9847 10.7613 2.32336C9.71105 1.66248 8.55816 1.33203 7.3026 1.33203C6.04705 1.33203 4.89416 1.66248 3.84394 2.32336C2.79416 2.9847 1.99149 3.87648 1.43594 4.9987C1.99149 6.12092 2.79416 7.01248 3.84394 7.67336C4.89416 8.3347 6.04705 8.66537 7.3026 8.66537Z" fill="#333333"/>
</svg>
