<svg width="24" height="24" viewBox="0 0 24 24" fill="none" xmlns="http://www.w3.org/2000/svg">
<mask id="mask0_13656_310360" style="mask-type:alpha" maskUnits="userSpaceOnUse" x="0" y="0" width="24" height="24">
<rect width="24" height="24" fill="#D9D9D9"/>
</mask>
<g mask="url(#mask0_13656_310360)">
<path d="M19.1923 19H8.8077C8.30257 19 7.875 18.825 7.525 18.475C7.175 18.125 7 17.6974 7 17.1923V3.8077C7 3.30257 7.175 2.875 7.525 2.525C7.875 2.175 8.30257 2 8.8077 2H15.75L21 7.24995V17.1923C21 17.6974 20.825 18.125 20.475 18.475C20.125 18.825 19.6974 19 19.1923 19ZM15 7.99995V3.49998H8.8077C8.73077 3.49998 8.66024 3.53203 8.59613 3.59613C8.53203 3.66024 8.49998 3.73077 8.49998 3.8077V17.1923C8.49998 17.2692 8.53203 17.3397 8.59613 17.4038C8.66024 17.4679 8.73077 17.5 8.8077 17.5H19.1923C19.2692 17.5 19.3397 17.4679 19.4038 17.4038C19.4679 17.3397 19.5 17.2692 19.5 17.1923V7.99995H15ZM4.8077 23C4.30257 23 3.875 22.825 3.525 22.475C3.175 22.125 3 21.6974 3 21.1923V8H4.49998V21.1923C4.49998 21.2692 4.53202 21.3397 4.59613 21.4038C4.66024 21.4679 4.73077 21.5 4.8077 21.5H15V22.9999H4.8077V23Z" fill="#A3A8AD"/>
</g>
</svg>
