<svg width="16" height="16" viewBox="0 0 16 16" fill="none" xmlns="http://www.w3.org/2000/svg">
<mask id="mask0_361_92603" style="mask-type:alpha" maskUnits="userSpaceOnUse" x="0" y="0" width="16" height="16">
<rect width="16" height="16" fill="#D9D9D9"/>
</mask>
<g mask="url(#mask0_361_92603)">
<path d="M8.30065 10.7166C9.05621 10.7166 9.69776 10.4526 10.2253 9.92459C10.7533 9.39703 11.0173 8.75547 11.0173 7.99992C11.0173 7.24436 10.7533 6.60281 10.2253 6.07525C9.69776 5.54725 9.05621 5.28325 8.30065 5.28325C7.5451 5.28325 6.90354 5.54725 6.37598 6.07525C5.84798 6.60281 5.58398 7.24436 5.58398 7.99992C5.58398 8.75547 5.84798 9.39703 6.37598 9.92459C6.90354 10.4526 7.5451 10.7166 8.30065 10.7166ZM8.30065 9.79992C7.80065 9.79992 7.37576 9.62481 7.02598 9.27459C6.67576 8.92481 6.50065 8.49992 6.50065 7.99992C6.50065 7.49992 6.67576 7.07481 7.02598 6.72459C7.37576 6.37481 7.80065 6.19992 8.30065 6.19992C8.80065 6.19992 9.22576 6.37481 9.57598 6.72459C9.92576 7.07481 10.1007 7.49992 10.1007 7.99992C10.1007 8.49992 9.92576 8.92481 9.57598 9.27459C9.22576 9.62481 8.80065 9.79992 8.30065 9.79992ZM8.30065 12.6666C6.76732 12.6666 5.37021 12.2444 4.10932 11.3999C2.84798 10.5555 1.92287 9.42214 1.33398 7.99992C1.92287 6.5777 2.84798 5.44436 4.10932 4.59992C5.37021 3.75547 6.76732 3.33325 8.30065 3.33325C9.83398 3.33325 11.2313 3.75547 12.4927 4.59992C13.7535 5.44436 14.6784 6.5777 15.2673 7.99992C14.6784 9.42214 13.7535 10.5555 12.4927 11.3999C11.2313 12.2444 9.83398 12.6666 8.30065 12.6666ZM8.30065 11.6666C9.55621 11.6666 10.7091 11.3359 11.7593 10.6746C12.8091 10.0137 13.6118 9.12214 14.1673 7.99992C13.6118 6.8777 12.8091 5.98592 11.7593 5.32459C10.7091 4.6637 9.55621 4.33325 8.30065 4.33325C7.0451 4.33325 5.89221 4.6637 4.84198 5.32459C3.79221 5.98592 2.98954 6.8777 2.43398 7.99992C2.98954 9.12214 3.79221 10.0137 4.84198 10.6746C5.89221 11.3359 7.0451 11.6666 8.30065 11.6666Z" fill="#333333"/>
</g>
</svg>
