<svg width="24" height="25" viewBox="0 0 24 25" fill="none" xmlns="http://www.w3.org/2000/svg">
<rect width="24" height="24" transform="translate(0 0.924805)" fill="white"/>
<mask id="mask0_13511_394107" style="mask-type:alpha" maskUnits="userSpaceOnUse" x="0" y="0" width="24" height="25">
<rect y="0.924805" width="24" height="24" fill="#D9D9D9"/>
</mask>
<g mask="url(#mask0_13511_394107)">
<path d="M4 22.9248C3.45 22.9248 2.97917 22.729 2.5875 22.3373C2.19583 21.9456 2 21.4748 2 20.9248V9.9248C2 9.3748 2.19583 8.90397 2.5875 8.5123C2.97917 8.12064 3.45 7.9248 4 7.9248H8V5.9248C8 5.3748 8.19583 4.90397 8.5875 4.5123C8.97917 4.12064 9.45 3.9248 10 3.9248H14C14.55 3.9248 15.0208 4.12064 15.4125 4.5123C15.8042 4.90397 16 5.3748 16 5.9248V7.9248H20C20.55 7.9248 21.0208 8.12064 21.4125 8.5123C21.8042 8.90397 22 9.3748 22 9.9248V20.9248C22 21.4748 21.8042 21.9456 21.4125 22.3373C21.0208 22.729 20.55 22.9248 20 22.9248H4ZM10 7.9248H14V5.9248H10V7.9248Z" fill="#0871E1"/>
</g>
</svg>
