<svg width="16" height="17" viewBox="0 0 16 17" fill="none" xmlns="http://www.w3.org/2000/svg">
<g id="Icon">
<mask id="mask0_13542_145348" style="mask-type:alpha" maskUnits="userSpaceOnUse" x="0" y="0" width="16" height="17">
<rect id="Bounding box" y="0.5" width="16" height="16" fill="#D9D9D9"/>
</mask>
<g mask="url(#mask0_13542_145348)">
<path id="Vector" d="M5.83594 12.6667H10.8359V11.6667H5.83594V12.6667ZM5.83594 10H10.8359V9H5.83594V10ZM4.53594 15.1667C4.2026 15.1667 3.91927 15.05 3.68594 14.8167C3.4526 14.5833 3.33594 14.3 3.33594 13.9667V3.7C3.33594 3.36667 3.4526 3.08333 3.68594 2.85C3.91927 2.61667 4.2026 2.5 4.53594 2.5H9.83594L13.3359 6V13.9667C13.3359 14.3 13.2193 14.5833 12.9859 14.8167C12.7526 15.05 12.4693 15.1667 12.1359 15.1667H4.53594ZM9.33594 6.5H12.3359L9.33594 3.5V6.5Z" fill="#333333"/>
</g>
</g>
</svg>
