<svg width="16" height="16" viewBox="0 0 16 16" fill="none" xmlns="http://www.w3.org/2000/svg">
<g clip-path="url(#clip0_1736_34632)">
<mask id="mask0_1736_34632" style="mask-type:alpha" maskUnits="userSpaceOnUse" x="0" y="-1" width="16" height="17">
<rect y="-0.182617" width="16" height="16" fill="#D9D9D9"/>
</mask>
<g mask="url(#mask0_1736_34632)">
<path d="M4.2 14.1504C3.86667 14.1504 3.58333 14.0337 3.35 13.8004C3.11667 13.5671 3 13.2837 3 12.9504V6.68372C3 6.35039 3.11667 6.06706 3.35 5.83372C3.58333 5.60039 3.86667 5.48372 4.2 5.48372H5V4.15039C5 3.31706 5.29156 2.60861 5.87467 2.02506C6.45822 1.44195 7.16667 1.15039 8 1.15039C8.83333 1.15039 9.54178 1.44195 10.1253 2.02506C10.7084 2.60861 11 3.31706 11 4.15039V5.48372H11.8C12.1333 5.48372 12.4167 5.60039 12.65 5.83372C12.8833 6.06706 13 6.35039 13 6.68372V12.9504C13 13.2837 12.8833 13.5671 12.65 13.8004C12.4167 14.0337 12.1333 14.1504 11.8 14.1504H4.2ZM8 10.9837C8.32222 10.9837 8.59733 10.8699 8.82533 10.6424C9.05289 10.4144 9.16667 10.1393 9.16667 9.81706C9.16667 9.49483 9.05289 9.21972 8.82533 8.99172C8.59733 8.76417 8.32222 8.65039 8 8.65039C7.67778 8.65039 7.40267 8.76417 7.17467 8.99172C6.94711 9.21972 6.83333 9.49483 6.83333 9.81706C6.83333 10.1393 6.94711 10.4144 7.17467 10.6424C7.40267 10.8699 7.67778 10.9837 8 10.9837ZM6 5.48372H10V4.15039C10 3.59484 9.80556 3.12261 9.41667 2.73372C9.02778 2.34484 8.55556 2.15039 8 2.15039C7.44444 2.15039 6.97222 2.34484 6.58333 2.73372C6.19444 3.12261 6 3.59484 6 4.15039V5.48372Z" fill="#A3A8AD"/>
</g>
</g>
<defs>
<clipPath id="clip0_1736_34632">
<rect width="16" height="16" fill="white"/>
</clipPath>
</defs>
</svg>
