<svg width="24" height="24" viewBox="0 0 24 24" fill="none" xmlns="http://www.w3.org/2000/svg">
<mask id="mask0_15569_126314" style="mask-type:alpha" maskUnits="userSpaceOnUse" x="0" y="0" width="24" height="24">
<rect width="24" height="24" fill="#D9D9D9"/>
</mask>
<g mask="url(#mask0_15569_126314)">
<path d="M10.1 22L9.7 18.95C9.43333 18.8667 9.16267 18.7417 8.888 18.575C8.61267 18.4083 8.35833 18.2333 8.125 18.05L5.3 19.25L3 15.25L5.45 13.4C5.41667 13.25 5.396 13.1 5.388 12.95C5.37933 12.8 5.375 12.65 5.375 12.5C5.375 12.3667 5.37933 12.225 5.388 12.075C5.396 11.925 5.41667 11.7667 5.45 11.6L3 9.75L5.3 5.775L8.125 6.95C8.35833 6.76667 8.61267 6.596 8.888 6.438C9.16267 6.27933 9.43333 6.15 9.7 6.05L10.1 3H14.7L15.1 6.05C15.4 6.16667 15.6707 6.29567 15.912 6.437C16.154 6.579 16.4 6.75 16.65 6.95L19.5 5.775L21.8 9.75L19.325 11.625C19.3583 11.7917 19.375 11.9417 19.375 12.075V12.5C19.375 12.6333 19.3707 12.7707 19.362 12.912C19.354 13.054 19.3333 13.2167 19.3 13.4L21.75 15.25L19.45 19.25L16.65 18.05C16.4 18.25 16.146 18.425 15.888 18.575C15.6293 18.725 15.3667 18.85 15.1 18.95L14.7 22H10.1ZM12.4 15.5C13.2333 15.5 13.9417 15.2083 14.525 14.625C15.1083 14.0417 15.4 13.3333 15.4 12.5C15.4 11.6667 15.1083 10.9583 14.525 10.375C13.9417 9.79167 13.2333 9.5 12.4 9.5C11.5667 9.5 10.8583 9.79167 10.275 10.375C9.69167 10.9583 9.4 11.6667 9.4 12.5C9.4 13.3333 9.69167 14.0417 10.275 14.625C10.8583 15.2083 11.5667 15.5 12.4 15.5Z" fill="#333333" fill-opacity="0.8"/>
</g>
</svg>
