<svg width="24" height="24" viewBox="0 0 24 24" fill="none" xmlns="http://www.w3.org/2000/svg">
<path d="M22.0646 23.4333L13.6646 15.0667C12.9979 15.6222 12.2313 16.0556 11.3646 16.3667C10.4979 16.6778 9.60903 16.8333 8.69792 16.8333C6.40903 16.8333 4.47569 16.0444 2.89792 14.4667C1.32014 12.8889 0.53125 10.9556 0.53125 8.66667C0.53125 6.4 1.32014 4.472 2.89792 2.88267C4.47569 1.29422 6.40903 0.5 8.69792 0.5C10.9646 0.5 12.8868 1.28889 14.4646 2.86667C16.0424 4.44444 16.8313 6.37778 16.8313 8.66667C16.8313 9.62222 16.6757 10.5333 16.3646 11.4C16.0535 12.2667 15.6312 13.0222 15.0979 13.6667L23.4646 22.0333L22.0646 23.4333ZM8.69792 14.8333C10.409 14.8333 11.8593 14.2333 13.0486 13.0333C14.237 11.8333 14.8313 10.3778 14.8313 8.66667C14.8313 6.95556 14.237 5.5 13.0486 4.3C11.8593 3.1 10.409 2.5 8.69792 2.5C6.96458 2.5 5.50369 3.1 4.31525 4.3C3.12592 5.5 2.53125 6.95556 2.53125 8.66667C2.53125 10.3778 3.12592 11.8333 4.31525 13.0333C5.50369 14.2333 6.96458 14.8333 8.69792 14.8333Z" fill="#333333"/>
</svg>
