<svg width="24" height="24" viewBox="0 0 24 24" fill="none" xmlns="http://www.w3.org/2000/svg">
<mask id="mask0_984_75741" style="mask-type:alpha" maskUnits="userSpaceOnUse" x="0" y="0" width="24" height="24">
<rect width="24" height="24" fill="#D9D9D9"/>
</mask>
<g mask="url(#mask0_984_75741)">
<path d="M18.5 9.5C17.7333 9.5 17.0833 9.23333 16.55 8.7C16.0167 8.16667 15.75 7.51667 15.75 6.75C15.75 6 16.0167 5.35433 16.55 4.813C17.0833 4.271 17.7333 4 18.5 4C19.2667 4 19.9167 4.271 20.45 4.813C20.9833 5.35433 21.25 6 21.25 6.75C21.25 7.51667 20.9833 8.16667 20.45 8.7C19.9167 9.23333 19.2667 9.5 18.5 9.5ZM3.8 20.875C3.3 20.875 2.875 20.7 2.525 20.35C2.175 20 2 19.575 2 19.075V7.675C2 7.175 2.175 6.75 2.525 6.4C2.875 6.05 3.3 5.875 3.8 5.875H13.825C13.775 6.125 13.75 6.375 13.75 6.625C13.75 6.875 13.7667 7.125 13.8 7.375C13.8833 7.89167 14.0377 8.379 14.263 8.837C14.4877 9.29567 14.7667 9.7 15.1 10.05L11.5 12.375L3.65 7.375L3.5 8.825L11.5 13.925L16.3 10.875C16.6167 11.075 16.9583 11.229 17.325 11.337C17.6917 11.4457 18.0833 11.5 18.5 11.5C18.9333 11.5 19.3667 11.4377 19.8 11.313C20.2333 11.1877 20.6333 11 21 10.75V19.075C21 19.575 20.825 20 20.475 20.35C20.125 20.7 19.7 20.875 19.2 20.875H3.8Z" fill="#FE4B28"/>
</g>
</svg>
