<svg width="24" height="24" viewBox="0 0 24 24" fill="none" xmlns="http://www.w3.org/2000/svg">
<mask id="mask0_361_78591" style="mask-type:alpha" maskUnits="userSpaceOnUse" x="0" y="0" width="24" height="24">
<rect width="24" height="24" fill="#D9D9D9"/>
</mask>
<g mask="url(#mask0_361_78591)">
<path d="M11.5 17.225C11.7333 17.225 11.925 17.15 12.075 17C12.225 16.85 12.3 16.6583 12.3 16.425C12.3 16.1917 12.225 16 12.075 15.85C11.925 15.7 11.7333 15.625 11.5 15.625C11.2667 15.625 11.075 15.7 10.925 15.85C10.775 16 10.7 16.1917 10.7 16.425C10.7 16.6583 10.775 16.85 10.925 17C11.075 17.15 11.2667 17.225 11.5 17.225ZM10.75 13.575H12.25V7.575H10.75V13.575ZM11.5 22C10.1833 22 8.946 21.75 7.788 21.25C6.62933 20.75 5.625 20.075 4.775 19.225C3.925 18.375 3.25 17.3707 2.75 16.212C2.25 15.054 2 13.8167 2 12.5C2 11.1833 2.25 9.94567 2.75 8.787C3.25 7.629 3.925 6.625 4.775 5.775C5.625 4.925 6.62933 4.25 7.788 3.75C8.946 3.25 10.1833 3 11.5 3C12.8167 3 14.0543 3.25 15.213 3.75C16.371 4.25 17.375 4.925 18.225 5.775C19.075 6.625 19.75 7.629 20.25 8.787C20.75 9.94567 21 11.1833 21 12.5C21 13.8167 20.75 15.054 20.25 16.212C19.75 17.3707 19.075 18.375 18.225 19.225C17.375 20.075 16.371 20.75 15.213 21.25C14.0543 21.75 12.8167 22 11.5 22Z" fill="#FE4B28"/>
</g>
</svg>
