<svg width="40" height="40" viewBox="0 0 40 40" fill="none" xmlns="http://www.w3.org/2000/svg">
<mask id="mask0_1534_47172" style="mask-type:alpha" maskUnits="userSpaceOnUse" x="0" y="0" width="40" height="40">
<rect width="40" height="40" fill="#D9D9D9"/>
</mask>
<g mask="url(#mask0_1534_47172)">
<path d="M10.832 23.3334C10.1376 23.3334 9.54759 23.09 9.06203 22.6034C8.57536 22.1178 8.33203 21.5278 8.33203 20.8334C8.33203 20.1389 8.57536 19.5489 9.06203 19.0634C9.54759 18.5767 10.1376 18.3334 10.832 18.3334C11.5265 18.3334 12.117 18.5767 12.6037 19.0634C13.0893 19.5489 13.332 20.1389 13.332 20.8334C13.332 21.5278 13.0893 22.1178 12.6037 22.6034C12.117 23.09 11.5265 23.3334 10.832 23.3334ZM20.457 23.3334C19.7626 23.3334 19.1726 23.09 18.687 22.6034C18.2004 22.1178 17.957 21.5278 17.957 20.8334C17.957 20.1389 18.2004 19.5489 18.687 19.0634C19.1726 18.5767 19.7626 18.3334 20.457 18.3334C21.1515 18.3334 21.7415 18.5767 22.227 19.0634C22.7137 19.5489 22.957 20.1389 22.957 20.8334C22.957 21.5278 22.7137 22.1178 22.227 22.6034C21.7415 23.09 21.1515 23.3334 20.457 23.3334ZM30.082 23.3334C29.3876 23.3334 28.7976 23.09 28.312 22.6034C27.8254 22.1178 27.582 21.5278 27.582 20.8334C27.582 20.1389 27.8254 19.5489 28.312 19.0634C28.7976 18.5767 29.3876 18.3334 30.082 18.3334C30.7765 18.3334 31.367 18.5767 31.8537 19.0634C32.3393 19.5489 32.582 20.1389 32.582 20.8334C32.582 21.5278 32.3393 22.1178 31.8537 22.6034C31.367 23.09 30.7765 23.3334 30.082 23.3334Z" fill="#333333"/>
</g>
</svg>
