<svg width="32" height="32" viewBox="0 0 32 32" fill="none" xmlns="http://www.w3.org/2000/svg">
<mask id="mask0_16827_32318" style="mask-type:alpha" maskUnits="userSpaceOnUse" x="0" y="0" width="32" height="32">
<rect width="32" height="32" fill="#D9D9D9"/>
</mask>
<g mask="url(#mask0_16827_32318)">
<path d="M6.41027 26.666C5.73676 26.666 5.16667 26.4326 4.7 25.966C4.23333 25.4993 4 24.9292 4 24.2557V9.07628C4 8.40277 4.23333 7.83268 4.7 7.36602C5.16667 6.89935 5.73676 6.66602 6.41027 6.66602H26.923C27.5965 6.66602 28.1666 6.89935 28.6333 7.36602C29.0999 7.83268 29.3333 8.40277 29.3333 9.07628V24.2557C29.3333 24.9292 29.0999 25.4993 28.6333 25.966C28.1666 26.4326 27.5965 26.666 26.923 26.666H6.41027ZM16.6666 17.4095L27.3333 10.589L27.1282 8.66598L16.6666 15.3326L6.2051 8.66598L5.99997 10.589L16.6666 17.4095Z" fill="#0871E1"/>
</g>
</svg>
