<svg width="16" height="16" viewBox="0 0 16 16" fill="none" xmlns="http://www.w3.org/2000/svg">
<mask id="mask0_1124_74994" style="mask-type:alpha" maskUnits="userSpaceOnUse" x="0" y="0" width="16" height="16">
<rect width="16" height="16" fill="#D9D9D9"/>
</mask>
<g mask="url(#mask0_1124_74994)">
<path d="M8.3026 10.7166C9.05816 10.7166 9.69972 10.4526 10.2273 9.92459C10.7553 9.39703 11.0193 8.75547 11.0193 7.99992C11.0193 7.24436 10.7553 6.60281 10.2273 6.07525C9.69972 5.54725 9.05816 5.28325 8.3026 5.28325C7.54705 5.28325 6.90549 5.54725 6.37794 6.07525C5.84994 6.60281 5.58594 7.24436 5.58594 7.99992C5.58594 8.75547 5.84994 9.39703 6.37794 9.92459C6.90549 10.4526 7.54705 10.7166 8.3026 10.7166ZM8.3026 9.79992C7.8026 9.79992 7.37772 9.62481 7.02794 9.27459C6.67772 8.92481 6.5026 8.49992 6.5026 7.99992C6.5026 7.49992 6.67772 7.07481 7.02794 6.72459C7.37772 6.37481 7.8026 6.19992 8.3026 6.19992C8.8026 6.19992 9.22772 6.37481 9.57794 6.72459C9.92772 7.07481 10.1026 7.49992 10.1026 7.99992C10.1026 8.49992 9.92772 8.92481 9.57794 9.27459C9.22772 9.62481 8.8026 9.79992 8.3026 9.79992ZM8.3026 12.6666C6.76927 12.6666 5.37216 12.2444 4.11127 11.3999C2.84994 10.5555 1.92483 9.42214 1.33594 7.99992C1.92483 6.5777 2.84994 5.44436 4.11127 4.59992C5.37216 3.75547 6.76927 3.33325 8.3026 3.33325C9.83594 3.33325 11.2333 3.75547 12.4946 4.59992C13.7555 5.44436 14.6804 6.5777 15.2693 7.99992C14.6804 9.42214 13.7555 10.5555 12.4946 11.3999C11.2333 12.2444 9.83594 12.6666 8.3026 12.6666ZM8.3026 11.6666C9.55816 11.6666 10.711 11.3359 11.7613 10.6746C12.811 10.0137 13.6137 9.12214 14.1693 7.99992C13.6137 6.8777 12.811 5.98592 11.7613 5.32459C10.711 4.6637 9.55816 4.33325 8.3026 4.33325C7.04705 4.33325 5.89416 4.6637 4.84394 5.32459C3.79416 5.98592 2.99149 6.8777 2.43594 7.99992C2.99149 9.12214 3.79416 10.0137 4.84394 10.6746C5.89416 11.3359 7.04705 11.6666 8.3026 11.6666Z" fill="#333333"/>
</g>
</svg>
