<svg width="60" height="60" viewBox="0 0 60 60" fill="none" xmlns="http://www.w3.org/2000/svg">
<mask id="mask0_841_17962" style="mask-type:alpha" maskUnits="userSpaceOnUse" x="0" y="0" width="60" height="60">
<circle cx="30" cy="30" r="30" fill="white"/>
</mask>
<g mask="url(#mask0_841_17962)">
<path d="M-9.41971 79.3332C-12.3936 71.6011 -11.6749 60.2358 -2.86723 56.682C1.81171 54.7887 6.94663 55.8692 11.8387 55.542C16.0666 55.2546 19.8087 53.6784 23.2981 51.3191C33.8158 44.2065 41.7611 34.5116 55.8474 37.8969C61.4543 39.181 66.6104 41.9551 70.7714 45.9264C80.6398 55.6065 82.1714 73.4399 72.412 83.7842C68.204 88.245 62.3206 90.6935 56.4967 92.6067C43.481 96.8891 28.2447 100.25 14.4607 99.1989C3.85874 98.391 -5.73704 88.8596 -9.41971 79.3332Z" fill="#EDF3FF"/>
<path d="M24.3047 33.8182C24.3047 33.8182 37.4493 32.8567 37.8607 34.1702C38.2721 35.4836 38.852 40.7425 36.8694 41.1539C34.8868 41.5652 29.6379 41.1539 29.6379 41.1539L24.3047 33.8182Z" fill="#E9A854"/>
<path d="M17.2422 60.9702C17.2422 60.9702 20.4441 79.344 21.3908 79.4183L29.3856 80.0726C29.8813 80.1122 28.2753 66.3084 28.7561 66.4372C29.2369 66.5661 35.4821 80.5682 35.4821 80.5682L40.4386 80.9746C41.2756 80.9768 42.1091 80.8668 42.9168 80.6475C42.9168 80.6475 36.751 58.7002 36.29 58.2838C35.829 57.8675 17.2422 60.9702 17.2422 60.9702Z" fill="#446DBF"/>
<mask id="mask1_841_17962" style="mask-type:luminance" maskUnits="userSpaceOnUse" x="17" y="58" width="26" height="23">
<path d="M17.2344 60.9644C17.2344 60.9644 20.4363 79.3381 21.383 79.4124L29.3778 80.0667C29.8734 80.1064 28.2675 66.3025 28.7483 66.4314C29.2291 66.5603 35.4743 80.5624 35.4743 80.5624L40.4308 80.9688C41.2678 80.9709 42.1013 80.8609 42.909 80.6417C42.909 80.6417 36.7431 58.6943 36.2822 58.2779C35.8212 57.8616 17.2344 60.9644 17.2344 60.9644Z" fill="white"/>
</mask>
<g mask="url(#mask1_841_17962)">
<path d="M40.4797 61.1854C40.1576 61.1854 27.3103 64.7788 25.4615 68.3723C23.6128 71.9658 25.4615 81.9779 24.9163 81.7548C24.3711 81.5318 18.9685 80.8478 18.8892 80.595C18.8099 80.3422 15.5139 59.4209 16.3565 59.2821C17.1991 59.1433 37.2332 55.2673 38.2592 56.9228C39.0701 58.3057 39.8112 59.7284 40.4797 61.1854Z" fill="#294783"/>
</g>
<path d="M20.2145 30.1703C19.6495 29.1046 19.476 27.9151 19.8378 27.5086C20.6011 26.6512 22.3161 26.0217 22.8662 26.9287C22.8662 26.9287 25.8897 31.2211 23.4908 31.9992C23.9022 32.941 24.259 33.853 24.373 34.0264C24.606 34.3734 22.7126 35.1416 22.2269 35.097C21.865 35.0623 20.8143 32.0438 20.2145 30.1703Z" fill="#ED784D"/>
<path d="M23.4682 32.0024C22.909 32.1831 22.3032 32.155 21.7632 31.9231C20.876 31.5266 22.4075 33.1969 23.7458 32.6567L23.4682 32.0024Z" fill="#D24A0E"/>
<path d="M20.649 31.5107C20.8126 31.5553 20.7333 30.6334 20.6738 29.8751C20.5466 29.9032 20.4135 29.884 20.2994 29.8211C20.1854 29.7581 20.0982 29.6557 20.0542 29.5331C19.9756 29.4222 19.9434 29.2848 19.9647 29.1505C19.9861 29.0162 20.0591 28.8955 20.1682 28.8144C20.2356 28.7853 20.3097 28.7754 20.3823 28.7859C20.455 28.7964 20.5233 28.8269 20.5796 28.8739C20.535 28.4625 20.4954 28.175 20.4954 28.175C20.4954 28.175 20.6639 27.0945 21.4867 27.0548C21.4867 27.0548 22.3045 26.3956 22.8299 26.926C22.8299 26.926 23.1025 25.3696 21.2041 25.5927C19.3058 25.8157 18.1361 26.9557 18.3542 28.4129C18.5475 29.6372 18.9935 31.0696 20.649 31.5107Z" fill="#122A50"/>
<path d="M22.6477 33.5202C22.6477 33.5202 28.5955 32.633 31.3909 38.3726C34.1864 44.1122 37.3982 57.0189 36.3078 58.947C34.0922 62.8775 17.369 63.963 16.6503 61.6632C15.9316 59.3633 16.12 39.9537 17.2699 37.5449C18.8411 34.2637 22.6477 33.5202 22.6477 33.5202Z" fill="#FEBD69"/>
<path d="M18.15 36.1838C18.15 36.1838 10.1551 45.6111 10.8738 47.1526C11.5925 48.694 15.9691 50.409 16.326 49.5069C16.6828 48.6048 18.15 36.1838 18.15 36.1838Z" fill="#FEBD69"/>
<path d="M25.5975 63.1151L25.5331 63.1498C24.8689 61.7125 16.3289 49.4897 16.3289 49.4897C14.7032 50.1341 11.5211 47.9136 11.5211 47.9136C11.0845 48.4869 10.7934 49.1575 10.6725 49.8678C10.5517 50.5782 10.6048 51.3074 10.8272 51.9928C11.531 54.5404 23.0202 64.2651 23.5059 64.9243C23.5539 64.9879 23.622 65.0333 23.6992 65.0531C23.8407 65.3025 24.0374 65.5161 24.2741 65.6777C24.6112 65.8908 25.2258 66.4657 25.6174 66.436C26.041 66.4123 26.4611 66.3459 26.8713 66.2377C27.0589 66.1985 27.2368 66.1222 27.3945 66.0132C27.5521 65.9042 27.6864 65.7648 27.7894 65.6032C27.8924 65.4415 27.962 65.2609 27.9942 65.072C28.0263 64.883 28.0204 64.6896 27.9766 64.503C27.9233 64.3173 27.8325 64.1445 27.7097 63.9953C27.5869 63.8461 27.4349 63.7237 27.2629 63.6356C27.0285 63.5083 26.7808 63.4069 26.5244 63.3332C26.3559 63.2589 25.7512 63.016 25.5975 63.1151Z" fill="#ED784D"/>
<mask id="mask2_841_17962" style="mask-type:luminance" maskUnits="userSpaceOnUse" x="10" y="47" width="19" height="20">
<path d="M25.6053 63.1142L25.5409 63.1489C24.8767 61.7115 16.3367 49.4888 16.3367 49.4888C14.711 50.1331 11.5289 47.9126 11.5289 47.9126C11.0924 48.4859 10.8012 49.1565 10.6804 49.8669C10.5595 50.5773 10.6126 51.3064 10.835 51.9918C11.5388 54.5394 23.028 64.2641 23.5137 64.9233C23.5617 64.9869 23.6298 65.0323 23.707 65.0522C23.8485 65.3015 24.0452 65.5151 24.282 65.6767C24.619 65.8898 25.2336 66.4648 25.6252 66.435C26.0488 66.4114 26.4689 66.3449 26.8792 66.2368C27.0668 66.1975 27.2446 66.1212 27.4023 66.0122C27.5599 65.9032 27.6942 65.7638 27.7972 65.6022C27.9002 65.4405 27.9698 65.2599 28.002 65.071C28.0341 64.8821 28.0282 64.6886 27.9845 64.502C27.9311 64.3163 27.8403 64.1435 27.7175 63.9943C27.5948 63.8451 27.4427 63.7227 27.2707 63.6346C27.0363 63.5073 26.7886 63.4059 26.5322 63.3323C26.3637 63.2579 25.759 63.015 25.6053 63.1142Z" fill="white"/>
</mask>
<g mask="url(#mask2_841_17962)">
<path d="M14.7683 47.9109C14.7683 47.9109 12.2306 50.3594 12.2901 51.4548C12.3495 52.5502 24.037 64.644 24.037 64.644C24.037 64.644 25.1324 66.3639 25.623 66.4333C25.623 66.4333 24.0072 66.2896 23.3133 65.1744C23.3133 65.1744 9.99025 54.4386 9.7573 51.9901C9.52434 49.5416 12.0621 46.3 12.0621 46.3L14.7683 47.9109Z" fill="#D24A0E"/>
</g>
<path d="M16.3281 49.4868C16.3281 49.4868 18.3107 49.4868 18.509 49.2737C18.7072 49.0605 19.6044 43.8562 19.6044 43.8562L21.4581 56.9166L19.6044 54.4928L16.3281 49.4868Z" fill="#E9A854"/>
<path d="M38.0265 34.8899C38.0265 34.8899 29.9077 20.6499 30.4133 19.7478C30.9189 18.8457 31.7169 18.4046 32.3364 18.5037C32.956 18.6028 44.6682 34.0423 42.9582 37.4028C42.5026 38.4141 41.7495 39.2625 40.7992 39.8346C39.849 40.4067 38.7468 40.6753 37.6399 40.6047C37.6399 40.6047 38.6857 36.7436 38.0265 34.8899Z" fill="#ED784D"/>
<mask id="mask3_841_17962" style="mask-type:luminance" maskUnits="userSpaceOnUse" x="30" y="18" width="14" height="23">
<path d="M38.0265 34.8977C38.0265 34.8977 29.9077 20.6577 30.4133 19.7556C30.9189 18.8535 31.7169 18.4124 32.3364 18.5115C32.956 18.6106 44.6682 34.0501 42.9582 37.4106C42.5026 38.422 41.7495 39.2703 40.7992 39.8424C39.849 40.4145 38.7468 40.6832 37.6399 40.6125C37.6399 40.6125 38.6857 36.7514 38.0265 34.8977Z" fill="white"/>
</mask>
<g mask="url(#mask3_841_17962)">
<path d="M30.9629 20.7788C30.9629 20.7788 39.9243 33.9879 39.835 36.1886C39.7458 38.3892 38.8884 42.062 38.2638 41.3384C37.6393 40.6147 36.8215 40.4264 36.7769 40.2331C36.7323 40.0397 37.223 35.1526 36.7769 34.0721C36.3308 32.9916 30.5069 22.3748 30.9629 20.7788Z" fill="#D24A0E"/>
</g>
<path d="M31.9718 16.9182C31.9718 16.9182 32.7946 21.5823 32.299 21.9937C31.8033 22.4051 30.3857 22.3258 30.3957 22.2018C30.4056 22.0779 29.9496 17.8699 30.0338 17.7013C30.1181 17.5328 31.9718 16.9182 31.9718 16.9182Z" fill="#446DBF"/>
<path d="M28.0254 16.567C28.0254 16.567 35.5097 6.72345 36.9966 7.00597C38.4836 7.28849 42.8254 13.0132 41.8936 14.3911C40.9618 15.7691 29.6957 18.7429 29.5024 18.7231C29.3091 18.7033 27.9659 17.7963 28.0254 16.567Z" fill="#C4D4F6"/>
<mask id="mask4_841_17962" style="mask-type:luminance" maskUnits="userSpaceOnUse" x="28" y="7" width="15" height="12">
<path d="M28.0332 16.567C28.0332 16.567 35.5175 6.72345 37.0044 7.00597C38.4914 7.28849 42.8333 13.0132 41.9014 14.3911C40.9696 15.7691 29.7035 18.7429 29.5102 18.7231C29.3169 18.7033 27.9737 17.7963 28.0332 16.567Z" fill="white"/>
</mask>
<g mask="url(#mask4_841_17962)">
<path d="M37.0669 6.61353C37.0669 6.61353 35.7882 6.9357 37.3346 9.54777C38.881 12.1598 41.845 14.8859 42.192 14.8314C42.5389 14.7769 42.5637 13.0718 42.1374 12.2986C41.7112 11.5254 38.4201 7.09431 37.0669 6.61353Z" fill="#446DBF"/>
</g>
<path d="M37.9219 10.4253C37.9219 10.4253 39.3097 9.71157 39.736 10.1577C40.1622 10.6037 39.0817 11.9271 39.0817 11.9271C39.0817 11.9271 38.1697 10.7921 37.9219 10.4253Z" fill="#122A50"/>
<path d="M30.6907 18.55C30.5811 18.5442 30.4715 18.5615 30.3691 18.6008C30.2666 18.6401 30.1735 18.7004 30.0959 18.778C30.0254 18.883 29.9923 19.0087 30.0017 19.1349C29.9862 19.5261 30.0752 19.9145 30.2595 20.26C30.4707 20.4584 30.7094 20.6253 30.9682 20.7556C31.3251 20.9638 31.8158 20.8151 32.2272 20.83C32.3106 20.8405 32.3953 20.8296 32.4733 20.7984C32.5513 20.7672 32.6201 20.7167 32.6733 20.6515C32.8742 20.4016 32.9828 20.09 32.9806 19.7693C33.0065 19.5437 32.9746 19.3153 32.8879 19.1054C32.8012 18.8956 32.6625 18.7113 32.4849 18.5698C32.0537 18.3319 31.1764 18.5103 30.6907 18.55Z" fill="#ED784D"/>
<path d="M30.4702 20.6378C30.529 20.722 30.5602 20.8225 30.5594 20.9252C30.5596 21.002 30.539 21.0773 30.5 21.1433C30.4802 21.1761 30.4536 21.2041 30.4219 21.2255C30.3903 21.2469 30.3543 21.2612 30.3166 21.2672C30.26 21.2727 30.203 21.2621 30.1521 21.2367C30.1013 21.2113 30.0586 21.1721 30.0291 21.1235C29.972 21.0244 29.9461 20.9104 29.9547 20.7964C29.9499 20.705 29.9705 20.6141 30.0142 20.5337C30.0364 20.4942 30.0688 20.4614 30.1081 20.4387C30.1473 20.416 30.1919 20.4043 30.2373 20.4048C30.2125 20.5138 30.4058 20.5386 30.4702 20.6378Z" fill="#ED784D"/>
</g>
</svg>
