<svg width="24" height="24" viewBox="0 0 24 24" fill="none" xmlns="http://www.w3.org/2000/svg">
<g id="Icon">
<mask id="mask0_15763_877024" style="mask-type:alpha" maskUnits="userSpaceOnUse" x="0" y="0" width="24" height="24">
<rect id="Bounding box" width="24" height="24" fill="#D9D9D9"/>
</mask>
<g mask="url(#mask0_15763_877024)">
<path id="Vector" d="M12.5 13.7C12.25 13.7 12.0417 13.6123 11.875 13.437C11.7083 13.2623 11.625 13.0583 11.625 12.825C11.625 12.575 11.7083 12.3623 11.875 12.187C12.0417 12.0123 12.25 11.925 12.5 11.925C12.75 11.925 12.9583 12.0123 13.125 12.187C13.2917 12.3623 13.375 12.575 13.375 12.825C13.375 13.0583 13.2917 13.2623 13.125 13.437C12.9583 13.6123 12.75 13.7 12.5 13.7ZM8.5 13.7C8.25 13.7 8.04167 13.6123 7.875 13.437C7.70833 13.2623 7.625 13.0583 7.625 12.825C7.625 12.575 7.70833 12.3623 7.875 12.187C8.04167 12.0123 8.25 11.925 8.5 11.925C8.75 11.925 8.95833 12.0123 9.125 12.187C9.29167 12.3623 9.375 12.575 9.375 12.825C9.375 13.0583 9.29167 13.2623 9.125 13.437C8.95833 13.6123 8.75 13.7 8.5 13.7ZM16.5 13.7C16.25 13.7 16.0417 13.6123 15.875 13.437C15.7083 13.2623 15.625 13.0583 15.625 12.825C15.625 12.575 15.7083 12.3623 15.875 12.187C16.0417 12.0123 16.25 11.925 16.5 11.925C16.75 11.925 16.9583 12.0123 17.125 12.187C17.2917 12.3623 17.375 12.575 17.375 12.825C17.375 13.0583 17.2917 13.2623 17.125 13.437C16.9583 13.6123 16.75 13.7 16.5 13.7ZM12.5 17.625C12.25 17.625 12.0417 17.5377 11.875 17.363C11.7083 17.1877 11.625 16.9833 11.625 16.75C11.625 16.5 11.7083 16.2877 11.875 16.113C12.0417 15.9377 12.25 15.85 12.5 15.85C12.75 15.85 12.9583 15.9377 13.125 16.113C13.2917 16.2877 13.375 16.5 13.375 16.75C13.375 16.9833 13.2917 17.1877 13.125 17.363C12.9583 17.5377 12.75 17.625 12.5 17.625ZM8.5 17.625C8.25 17.625 8.04167 17.5377 7.875 17.363C7.70833 17.1877 7.625 16.9833 7.625 16.75C7.625 16.5 7.70833 16.2877 7.875 16.113C8.04167 15.9377 8.25 15.85 8.5 15.85C8.75 15.85 8.95833 15.9377 9.125 16.113C9.29167 16.2877 9.375 16.5 9.375 16.75C9.375 16.9833 9.29167 17.1877 9.125 17.363C8.95833 17.5377 8.75 17.625 8.5 17.625ZM16.5 17.625C16.25 17.625 16.0417 17.5377 15.875 17.363C15.7083 17.1877 15.625 16.9833 15.625 16.75C15.625 16.5 15.7083 16.2877 15.875 16.113C16.0417 15.9377 16.25 15.85 16.5 15.85C16.75 15.85 16.9583 15.9377 17.125 16.113C17.2917 16.2877 17.375 16.5 17.375 16.75C17.375 16.9833 17.2917 17.1877 17.125 17.363C16.9583 17.5377 16.75 17.625 16.5 17.625ZM5.8 21.125C5.3 21.125 4.875 20.95 4.525 20.6C4.175 20.25 4 19.825 4 19.325V5.925C4 5.425 4.175 5 4.525 4.65C4.875 4.3 5.3 4.125 5.8 4.125H7.2V2H8.725V4.125H16.3V2H17.8V4.125H19.2C19.7 4.125 20.125 4.3 20.475 4.65C20.825 5 21 5.425 21 5.925V19.325C21 19.825 20.825 20.25 20.475 20.6C20.125 20.95 19.7 21.125 19.2 21.125H5.8ZM5.8 19.625H19.2C19.2667 19.625 19.3333 19.5917 19.4 19.525C19.4667 19.4583 19.5 19.3917 19.5 19.325V9.925H5.5V19.325C5.5 19.3917 5.53333 19.4583 5.6 19.525C5.66667 19.5917 5.73333 19.625 5.8 19.625Z" fill="#0871E1"/>
</g>
</g>
</svg>
