<svg width="19" height="18" viewBox="0 0 19 18" fill="none" xmlns="http://www.w3.org/2000/svg">
<path d="M9.5 17.8254L8.4 16.8254C6.73333 15.3254 5.35833 14.0337 4.275 12.9504C3.19167 11.8671 2.33333 10.9044 1.7 10.0624C1.06667 9.22106 0.625 8.45439 0.375 7.76239C0.125 7.07106 0 6.36706 0 5.65039C0 4.23372 0.479333 3.04606 1.438 2.08739C2.396 1.12939 3.58333 0.650391 5 0.650391C5.86667 0.650391 6.69167 0.854391 7.475 1.26239C8.25833 1.67106 8.93333 2.25872 9.5 3.02539C10.0667 2.25872 10.7417 1.67106 11.525 1.26239C12.3083 0.854391 13.1333 0.650391 14 0.650391C15.4167 0.650391 16.604 1.12939 17.562 2.08739C18.5207 3.04606 19 4.23372 19 5.65039C19 6.36706 18.875 7.07106 18.625 7.76239C18.375 8.45439 17.9333 9.22106 17.3 10.0624C16.6667 10.9044 15.8083 11.8671 14.725 12.9504C13.6417 14.0337 12.2667 15.3254 10.6 16.8254L9.5 17.8254Z" fill="white"/>
</svg>
