<svg width="16" height="17" viewBox="0 0 16 17" fill="none" xmlns="http://www.w3.org/2000/svg">
<g id="Icon">
<mask id="mask0_13542_145353" style="mask-type:alpha" maskUnits="userSpaceOnUse" x="0" y="0" width="16" height="17">
<rect id="Bounding box" y="0.5" width="16" height="16" fill="#D9D9D9"/>
</mask>
<g mask="url(#mask0_13542_145353)">
<path id="Vector" d="M6.15075 11.8335L11.3359 8.50016L6.15075 5.16683V11.8335ZM2.81742 15.1668C2.41001 15.1668 2.06125 15.0218 1.77112 14.7316C1.481 14.4415 1.33594 14.0928 1.33594 13.6853V3.31498C1.33594 2.90757 1.481 2.5588 1.77112 2.26868C2.06125 1.97856 2.41001 1.8335 2.81742 1.8335H13.1878C13.5952 1.8335 13.944 1.97856 14.2341 2.26868C14.5242 2.5588 14.6693 2.90757 14.6693 3.31498V13.6853C14.6693 14.0928 14.5242 14.4415 14.2341 14.7316C13.944 15.0218 13.5952 15.1668 13.1878 15.1668H2.81742Z" fill="#333333"/>
</g>
</g>
</svg>
