<svg width="24" height="24" viewBox="0 0 24 24" fill="none" xmlns="http://www.w3.org/2000/svg">
<mask id="mask0_19623_211817" style="mask-type:alpha" maskUnits="userSpaceOnUse" x="0" y="0" width="24" height="24">
<rect width="24" height="24" fill="#D9D9D9"/>
</mask>
<g mask="url(#mask0_19623_211817)">
<path d="M19.2307 14.6151C19.2307 15.0593 19.0725 15.4396 18.7562 15.756C18.4399 16.0723 18.0596 16.2305 17.6154 16.2305C17.1711 16.2305 16.7909 16.0723 16.4745 15.756C16.1582 15.4396 16 15.0593 16 14.6151C16 14.1709 16.1582 13.7906 16.4745 13.4743C16.7909 13.1579 17.1711 12.9998 17.6154 12.9998C18.0596 12.9998 18.4399 13.1579 18.7562 13.4743C19.0725 13.7906 19.2307 14.1709 19.2307 14.6151ZM19.2307 8.61512C19.2307 9.05933 19.0725 9.43962 18.7562 9.75597C18.4399 10.0723 18.0596 10.2305 17.6154 10.2305C17.1711 10.2305 16.7909 10.0723 16.4745 9.75597C16.1582 9.43962 16 9.05933 16 8.61512C16 8.1709 16.1582 7.79062 16.4745 7.47427C16.7909 7.15794 17.1711 6.99977 17.6154 6.99977C18.0596 6.99977 18.4399 7.15794 18.7562 7.47427C19.0725 7.79062 19.2307 8.1709 19.2307 8.61512ZM13.2307 14.6151C13.2307 15.0593 13.0725 15.4396 12.7562 15.756C12.4399 16.0723 12.0596 16.2305 11.6154 16.2305C11.1711 16.2305 10.7909 16.0723 10.4745 15.756C10.1582 15.4396 10 15.0593 10 14.6151C10 14.1709 10.1582 13.7906 10.4745 13.4743C10.7909 13.1579 11.1711 12.9998 11.6154 12.9998C12.0596 12.9998 12.4399 13.1579 12.7562 13.4743C13.0725 13.7906 13.2307 14.1709 13.2307 14.6151ZM13.2307 8.61512C13.2307 9.05933 13.0725 9.43962 12.7562 9.75597C12.4399 10.0723 12.0596 10.2305 11.6154 10.2305C11.1711 10.2305 10.7909 10.0723 10.4745 9.75597C10.1582 9.43962 10 9.05933 10 8.61512C10 8.1709 10.1582 7.79062 10.4745 7.47427C10.7909 7.15794 11.1711 6.99977 11.6154 6.99977C12.0596 6.99977 12.4399 7.15794 12.7562 7.47427C13.0725 7.79062 13.2307 8.1709 13.2307 8.61512ZM7.2307 14.6151C7.2307 15.0593 7.07253 15.4396 6.7562 15.756C6.43985 16.0723 6.05957 16.2305 5.61535 16.2305C5.17113 16.2305 4.79085 16.0723 4.4745 15.756C4.15817 15.4396 4 15.0593 4 14.6151C4 14.1709 4.15817 13.7906 4.4745 13.4743C4.79085 13.1579 5.17113 12.9998 5.61535 12.9998C6.05957 12.9998 6.43985 13.1579 6.7562 13.4743C7.07253 13.7906 7.2307 14.1709 7.2307 14.6151ZM7.2307 8.61512C7.2307 9.05933 7.07253 9.43962 6.7562 9.75597C6.43985 10.0723 6.05957 10.2305 5.61535 10.2305C5.17113 10.2305 4.79085 10.0723 4.4745 9.75597C4.15817 9.43962 4 9.05933 4 8.61512C4 8.1709 4.15817 7.79062 4.4745 7.47427C4.79085 7.15794 5.17113 6.99977 5.61535 6.99977C6.05957 6.99977 6.43985 7.15794 6.7562 7.47427C7.07253 7.79062 7.2307 8.1709 7.2307 8.61512Z" fill="#A3A8AD"/>
</g>
</svg>
