<svg width="14" height="14" viewBox="0 0 14 14" fill="none" xmlns="http://www.w3.org/2000/svg">
<path d="M5.15075 10.3335L10.3359 7.00016L5.15075 3.66683V10.3335ZM1.81742 13.6668C1.41001 13.6668 1.06125 13.5218 0.771123 13.2316C0.480999 12.9415 0.335938 12.5928 0.335938 12.1853V1.81498C0.335938 1.40757 0.480999 1.0588 0.771123 0.768681C1.06125 0.478558 1.41001 0.333496 1.81742 0.333496H12.1878C12.5952 0.333496 12.944 0.478558 13.2341 0.768681C13.5242 1.0588 13.6693 1.40757 13.6693 1.81498V12.1853C13.6693 12.5928 13.5242 12.9415 13.2341 13.2316C12.944 13.5218 12.5952 13.6668 12.1878 13.6668H1.81742Z" fill="white"/>
</svg>
