<svg width="20" height="18" viewBox="0 0 20 18" fill="none" xmlns="http://www.w3.org/2000/svg">
<path d="M10 17.3254L8.9 16.3254C7.23333 14.8254 5.85833 13.5337 4.775 12.4504C3.69167 11.3671 2.83333 10.4044 2.2 9.56239C1.56667 8.72106 1.125 7.95439 0.875 7.26239C0.625 6.57106 0.5 5.86706 0.5 5.15039C0.5 3.73372 0.979333 2.54606 1.938 1.58739C2.896 0.62939 4.08333 0.150391 5.5 0.150391C6.36667 0.150391 7.19167 0.354391 7.975 0.762391C8.75833 1.17106 9.43333 1.75872 10 2.52539C10.5667 1.75872 11.2417 1.17106 12.025 0.762391C12.8083 0.354391 13.6333 0.150391 14.5 0.150391C15.9167 0.150391 17.104 0.62939 18.062 1.58739C19.0207 2.54606 19.5 3.73372 19.5 5.15039C19.5 5.86706 19.375 6.57106 19.125 7.26239C18.875 7.95439 18.4333 8.72106 17.8 9.56239C17.1667 10.4044 16.3083 11.3671 15.225 12.4504C14.1417 13.5337 12.7667 14.8254 11.1 16.3254L10 17.3254Z" fill="#0871E1"/>
</svg>
