<svg width="24" height="24" viewBox="0 0 24 24" fill="none" xmlns="http://www.w3.org/2000/svg">
<mask id="mask0_371_76119" style="mask-type:alpha" maskUnits="userSpaceOnUse" x="0" y="0" width="24" height="24">
<rect width="24" height="24" fill="#D9D9D9"/>
</mask>
<g mask="url(#mask0_371_76119)">
<path d="M12.45 16.075C13.5833 16.075 14.5457 15.679 15.337 14.887C16.129 14.0957 16.525 13.1333 16.525 12C16.525 10.8667 16.129 9.90433 15.337 9.113C14.5457 8.321 13.5833 7.925 12.45 7.925C11.3167 7.925 10.3543 8.321 9.563 9.113C8.771 9.90433 8.375 10.8667 8.375 12C8.375 13.1333 8.771 14.0957 9.563 14.887C10.3543 15.679 11.3167 16.075 12.45 16.075ZM12.45 14.7C11.7 14.7 11.0627 14.4373 10.538 13.912C10.0127 13.3873 9.75 12.75 9.75 12C9.75 11.25 10.0127 10.6123 10.538 10.087C11.0627 9.56233 11.7 9.3 12.45 9.3C13.2 9.3 13.8377 9.56233 14.363 10.087C14.8877 10.6123 15.15 11.25 15.15 12C15.15 12.75 14.8877 13.3873 14.363 13.912C13.8377 14.4373 13.2 14.7 12.45 14.7ZM12.45 19C10.15 19 8.05433 18.3667 6.163 17.1C4.271 15.8333 2.88333 14.1333 2 12C2.88333 9.86667 4.271 8.16667 6.163 6.9C8.05433 5.63333 10.15 5 12.45 5C14.75 5 16.846 5.63333 18.738 6.9C20.6293 8.16667 22.0167 9.86667 22.9 12C22.0167 14.1333 20.6293 15.8333 18.738 17.1C16.846 18.3667 14.75 19 12.45 19Z" fill="#333333"/>
</g>
</svg>