<svg width="24" height="25" viewBox="0 0 24 25" fill="none" xmlns="http://www.w3.org/2000/svg">
<mask id="mask0_3238_29448" style="mask-type:alpha" maskUnits="userSpaceOnUse" x="0" y="0" width="24" height="25">
<rect y="0.5" width="24" height="24" fill="#D9D9D9"/>
</mask>
<g mask="url(#mask0_3238_29448)">
<path d="M6.5 14.5C6.08333 14.5 5.72933 14.354 5.438 14.062C5.146 13.7707 5 13.4167 5 13C5 12.5833 5.146 12.2293 5.438 11.938C5.72933 11.646 6.08333 11.5 6.5 11.5C6.91667 11.5 7.271 11.646 7.563 11.938C7.85433 12.2293 8 12.5833 8 13C8 13.4167 7.85433 13.7707 7.563 14.062C7.271 14.354 6.91667 14.5 6.5 14.5ZM12.275 14.5C11.8583 14.5 11.5043 14.354 11.213 14.062C10.921 13.7707 10.775 13.4167 10.775 13C10.775 12.5833 10.921 12.2293 11.213 11.938C11.5043 11.646 11.8583 11.5 12.275 11.5C12.6917 11.5 13.0457 11.646 13.337 11.938C13.629 12.2293 13.775 12.5833 13.775 13C13.775 13.4167 13.629 13.7707 13.337 14.062C13.0457 14.354 12.6917 14.5 12.275 14.5ZM18.05 14.5C17.6333 14.5 17.2793 14.354 16.988 14.062C16.696 13.7707 16.55 13.4167 16.55 13C16.55 12.5833 16.696 12.2293 16.988 11.938C17.2793 11.646 17.6333 11.5 18.05 11.5C18.4667 11.5 18.821 11.646 19.113 11.938C19.4043 12.2293 19.55 12.5833 19.55 13C19.55 13.4167 19.4043 13.7707 19.113 14.062C18.821 14.354 18.4667 14.5 18.05 14.5Z" fill="white"/>
</g>
</svg>
