<svg width="24" height="24" viewBox="0 0 24 24" fill="none" xmlns="http://www.w3.org/2000/svg">
<mask id="mask0_3432_70710" style="mask-type:alpha" maskUnits="userSpaceOnUse" x="0" y="0" width="24" height="24">
<rect width="24" height="24" fill="#D9D9D9"/>
</mask>
<g mask="url(#mask0_3432_70710)">
<path d="M11.5 12C10.5333 12 9.70833 11.654 9.025 10.962C8.34167 10.2707 8 9.45 8 8.5C8 7.53333 8.34167 6.70833 9.025 6.025C9.70833 5.34167 10.5333 5 11.5 5C12.4667 5 13.2917 5.34167 13.975 6.025C14.6583 6.70833 15 7.53333 15 8.5C15 9.45 14.6583 10.2707 13.975 10.962C13.2917 11.654 12.4667 12 11.5 12ZM4 19.6V17.375C4 16.8917 4.13333 16.4417 4.4 16.025C4.66667 15.6083 5.025 15.2833 5.475 15.05C6.45833 14.5667 7.45433 14.204 8.463 13.962C9.471 13.7207 10.4833 13.6 11.5 13.6C12.5167 13.6 13.5293 13.7207 14.538 13.962C15.546 14.204 16.5417 14.5667 17.525 15.05C17.975 15.2833 18.3333 15.6083 18.6 16.025C18.8667 16.4417 19 16.8917 19 17.375V19.6H4Z" fill="white"/>
</g>
</svg>
