<svg width="10" height="12" viewBox="0 0 10 12" fill="none" xmlns="http://www.w3.org/2000/svg">
<path d="M0.664062 11.4999V1.53325C0.664062 1.19992 0.780729 0.916585 1.01406 0.683252C1.2474 0.449919 1.53073 0.333252 1.86406 0.333252H8.13073C8.46406 0.333252 8.7474 0.449919 8.98073 0.683252C9.21406 0.916585 9.33073 1.19992 9.33073 1.53325V11.4999L4.9974 9.63325L0.664062 11.4999ZM1.66406 9.96659L4.9974 8.53325L8.33073 9.96659V1.53325C8.33073 1.48881 8.30851 1.44436 8.26406 1.39992C8.21962 1.35547 8.17517 1.33325 8.13073 1.33325H1.86406C1.81962 1.33325 1.77517 1.35547 1.73073 1.39992C1.68628 1.44436 1.66406 1.48881 1.66406 1.53325V9.96659ZM1.66406 1.33325H8.33073H4.9974H1.66406Z" fill="#333333"/>
</svg>
