<svg width="25" height="24" viewBox="0 0 25 24" fill="none" xmlns="http://www.w3.org/2000/svg">
<g id="Icon">
<mask id="mask0_16233_157938" style="mask-type:alpha" maskUnits="userSpaceOnUse" x="0" y="0" width="25" height="24">
<rect id="Bounding box" x="0.332031" width="24" height="24" fill="#D9D9D9"/>
</mask>
<g mask="url(#mask0_16233_157938)">
<path id="Vector" d="M12.3916 18.7884L15.0205 16.175L12.3916 13.5615L11.5532 14.4L12.782 15.6288C12.1615 15.6391 11.5904 15.5561 11.0686 15.3798C10.5468 15.2035 10.1076 14.9372 9.75123 14.5808C9.39867 14.2282 9.13167 13.8256 8.95026 13.3731C8.76886 12.9205 8.67816 12.4679 8.67816 12.0154C8.67816 11.732 8.71245 11.4487 8.78103 11.1654C8.84962 10.882 8.94737 10.6102 9.07431 10.35L8.18586 9.5C7.94739 9.88462 7.77111 10.2881 7.65701 10.7104C7.54291 11.1327 7.48586 11.5626 7.48586 12C7.48586 12.6137 7.60605 13.2194 7.84643 13.817C8.08681 14.4146 8.44066 14.9487 8.90798 15.4192C9.37528 15.8897 9.94259 16.241 10.6099 16.4731C11.2772 16.7051 11.9628 16.8263 12.6667 16.8365L11.5532 17.95L12.3916 18.7884ZM16.4878 14.5C16.7262 14.1153 16.9025 13.7119 17.0166 13.2896C17.1307 12.8672 17.1878 12.4374 17.1878 12C17.1878 11.3872 17.0701 10.7785 16.8349 10.1738C16.5996 9.56914 16.2467 9.03299 15.7762 8.56538C15.3121 8.09486 14.7432 7.74614 14.0696 7.51923C13.3959 7.29229 12.7083 7.17883 12.007 7.17883L13.1205 6.04998L12.282 5.21153L9.65318 7.82498L12.282 10.4384L13.1205 9.59998L11.8762 8.35573C12.4865 8.35573 13.0602 8.44643 13.5974 8.62785C14.1346 8.80927 14.5772 9.07424 14.9252 9.42278C15.2733 9.77133 15.5387 10.1722 15.7214 10.6253C15.9041 11.0784 15.9955 11.5315 15.9955 11.9846C15.9955 12.2679 15.9612 12.5513 15.8926 12.8346C15.824 13.1179 15.7262 13.3897 15.5993 13.65L16.4878 14.5ZM12.3337 21.5C11.0197 21.5 9.78472 21.2506 8.62858 20.752C7.47243 20.2533 6.46675 19.5765 5.61153 18.7217C4.7563 17.8669 4.07924 16.8616 3.58036 15.706C3.08147 14.5504 2.83203 13.3156 2.83203 12.0017C2.83203 10.6877 3.08136 9.45268 3.58003 8.29655C4.0787 7.1404 4.75545 6.13472 5.61028 5.2795C6.46513 4.42427 7.47037 3.74721 8.62601 3.24833C9.78162 2.74944 11.0164 2.5 12.3303 2.5C13.6443 2.5 14.8793 2.74933 16.0354 3.248C17.1916 3.74667 18.1973 4.42342 19.0525 5.27825C19.9077 6.1331 20.5848 7.13834 21.0837 8.29398C21.5825 9.44959 21.832 10.6844 21.832 11.9983C21.832 13.3122 21.5826 14.5473 21.084 15.7034C20.5853 16.8596 19.9086 17.8652 19.0537 18.7205C18.1989 19.5757 17.1936 20.2527 16.038 20.7516C14.8824 21.2505 13.6476 21.5 12.3337 21.5ZM12.332 20C14.5653 20 16.457 19.225 18.007 17.675C19.557 16.125 20.332 14.2333 20.332 12C20.332 9.76664 19.557 7.87498 18.007 6.32498C16.457 4.77498 14.5653 3.99998 12.332 3.99998C10.0987 3.99998 8.20701 4.77498 6.65701 6.32498C5.10701 7.87498 4.33201 9.76664 4.33201 12C4.33201 14.2333 5.10701 16.125 6.65701 17.675C8.20701 19.225 10.0987 20 12.332 20Z" fill="#C8CBCE"/>
</g>
</g>
</svg>
