<svg width="24" height="24" viewBox="0 0 24 24" fill="none" xmlns="http://www.w3.org/2000/svg">
<mask id="mask0_6164_55283" style="mask-type:alpha" maskUnits="userSpaceOnUse" x="0" y="0" width="24" height="24">
<rect width="24" height="24" fill="#D9D9D9"/>
</mask>
<g mask="url(#mask0_6164_55283)">
<path d="M6.8077 20.8846C6.30898 20.8846 5.88302 20.7079 5.52982 20.3547C5.17661 20.0015 5 19.5756 5 19.0769V6.38458H4V4.8846H8.49997V4H14.5V4.8846H19V6.38458H18V19.0769C18 19.582 17.825 20.0096 17.475 20.3596C17.125 20.7096 16.6974 20.8846 16.1922 20.8846H6.8077ZM16.5 6.38458H6.49997V19.0769C6.49997 19.1666 6.52883 19.2403 6.58652 19.298C6.64423 19.3557 6.71795 19.3846 6.8077 19.3846H16.1922C16.2692 19.3846 16.3397 19.3525 16.4038 19.2884C16.4679 19.2243 16.5 19.1538 16.5 19.0769V6.38458ZM8.90385 17.3846H10.4038V8.38458H8.90385V17.3846ZM12.5961 17.3846H14.0961V8.38458H12.5961V17.3846Z" fill="#A3A8AD"/>
</g>
</svg>
