<svg width="24" height="24" viewBox="0 0 24 24" fill="none" xmlns="http://www.w3.org/2000/svg">
<mask id="mask0_955_72223" style="mask-type:alpha" maskUnits="userSpaceOnUse" x="0" y="0" width="24" height="24">
<rect width="24" height="24" fill="#D9D9D9"/>
</mask>
<g mask="url(#mask0_955_72223)">
<path d="M8.3 16.5H19.7C19.7667 16.5 19.8333 16.4667 19.9 16.4C19.9667 16.3333 20 16.2667 20 16.2V4.8C20 4.73333 19.9667 4.66667 19.9 4.6C19.8333 4.53333 19.7667 4.5 19.7 4.5H18V11.05L15.75 9.7L13.5 11.05V4.5H8.3C8.23333 4.5 8.16667 4.53333 8.1 4.6C8.03333 4.66667 8 4.73333 8 4.8V16.2C8 16.2667 8.03333 16.3333 8.1 16.4C8.16667 16.4667 8.23333 16.5 8.3 16.5ZM8.3 18C7.8 18 7.375 17.825 7.025 17.475C6.675 17.125 6.5 16.7 6.5 16.2V4.8C6.5 4.3 6.675 3.875 7.025 3.525C7.375 3.175 7.8 3 8.3 3H19.7C20.2 3 20.625 3.175 20.975 3.525C21.325 3.875 21.5 4.3 21.5 4.8V16.2C21.5 16.7 21.325 17.125 20.975 17.475C20.625 17.825 20.2 18 19.7 18H8.3ZM4.8 21.5C4.3 21.5 3.875 21.325 3.525 20.975C3.175 20.625 3 20.2 3 19.7V6.8H4.5V19.7C4.5 19.7667 4.53333 19.8333 4.6 19.9C4.66667 19.9667 4.73333 20 4.8 20H17.7V21.5H4.8ZM13.5 4.5H18H13.5ZM8.3 4.5H8H20H19.7H8.3Z" fill="#333333"/>
</g>
</svg>
