<svg width="20" height="20" viewBox="0 0 20 20" fill="none" xmlns="http://www.w3.org/2000/svg">
<path d="M10.4766 15.5312C10.7599 15.5312 10.9976 15.4313 11.1896 15.2313C11.3809 15.0313 11.4766 14.7896 11.4766 14.5063C11.4766 14.2229 11.3809 13.9812 11.1896 13.7812C10.9976 13.5813 10.7599 13.4812 10.4766 13.4812C10.1766 13.4812 9.9309 13.5813 9.73956 13.7812C9.54756 13.9812 9.45156 14.2229 9.45156 14.5063C9.45156 14.7896 9.54756 15.0313 9.73956 15.2313C9.9309 15.4313 10.1766 15.5312 10.4766 15.5312ZM9.75156 11.9312H11.1766C11.1766 11.4479 11.2432 11.0603 11.3766 10.7683C11.5099 10.4769 11.8266 10.0813 12.3266 9.58125C12.7766 9.14792 13.1182 8.74358 13.3516 8.36825C13.5849 7.99358 13.7016 7.55625 13.7016 7.05625C13.7016 6.18958 13.3932 5.51458 12.7766 5.03125C12.1599 4.54792 11.4266 4.30625 10.5766 4.30625C9.74323 4.30625 9.05156 4.53125 8.50156 4.98125C7.95156 5.43125 7.5599 5.95625 7.32656 6.55625L8.62656 7.05625C8.74323 6.73958 8.94756 6.42292 9.23956 6.10625C9.5309 5.78958 9.96823 5.63125 10.5516 5.63125C11.1516 5.63125 11.5932 5.79358 11.8766 6.11825C12.1599 6.44358 12.3016 6.79792 12.3016 7.18125C12.3016 7.51458 12.2016 7.82292 12.0016 8.10625C11.8016 8.38958 11.5516 8.66458 11.2516 8.93125C10.6016 9.51458 10.1892 9.98558 10.0146 10.3442C9.83923 10.7022 9.75156 11.2312 9.75156 11.9312ZM10.4766 19.4062C9.1599 19.4062 7.92256 19.1562 6.76456 18.6562C5.6059 18.1562 4.60156 17.4813 3.75156 16.6313C2.90156 15.7812 2.22656 14.7769 1.72656 13.6182C1.22656 12.4602 0.976562 11.2229 0.976562 9.90625C0.976562 8.58958 1.22656 7.35192 1.72656 6.19325C2.22656 5.03525 2.90156 4.03125 3.75156 3.18125C4.60156 2.33125 5.6059 1.65625 6.76456 1.15625C7.92256 0.65625 9.1599 0.40625 10.4766 0.40625C11.7932 0.40625 13.0309 0.65625 14.1896 1.15625C15.3476 1.65625 16.3516 2.33125 17.2016 3.18125C18.0516 4.03125 18.7266 5.03525 19.2266 6.19325C19.7266 7.35192 19.9766 8.58958 19.9766 9.90625C19.9766 11.2229 19.7266 12.4602 19.2266 13.6182C18.7266 14.7769 18.0516 15.7812 17.2016 16.6313C16.3516 17.4813 15.3476 18.1562 14.1896 18.6562C13.0309 19.1562 11.7932 19.4062 10.4766 19.4062ZM10.4766 17.9062C12.7099 17.9062 14.6016 17.1312 16.1516 15.5812C17.7016 14.0312 18.4766 12.1396 18.4766 9.90625C18.4766 7.67292 17.7016 5.78125 16.1516 4.23125C14.6016 2.68125 12.7099 1.90625 10.4766 1.90625C8.24323 1.90625 6.35156 2.68125 4.80156 4.23125C3.25156 5.78125 2.47656 7.67292 2.47656 9.90625C2.47656 12.1396 3.25156 14.0312 4.80156 15.5812C6.35156 17.1312 8.24323 17.9062 10.4766 17.9062Z" fill="#333333"/>
</svg>
