<svg width="320" height="292" viewBox="0 0 320 292" fill="none" xmlns="http://www.w3.org/2000/svg">
<g clip-path="url(#clip0_1260_73868)">
<path d="M123.974 0.511112C63.7923 -4.79293 0.175736 31.233 0 99.0513C0 127.521 10.5921 155.638 32.9266 173.691C58.6001 194.46 90.648 206.346 123.271 211.363C170.145 218.552 225.518 218.041 269.915 199.253C293.336 189.332 315.127 169.426 319.233 143.337C323.595 115.443 308.897 92.7408 286.466 77.5316C270.171 66.4762 251.127 61.1721 233.026 53.9669C213.472 46.1706 199.477 33.1981 182.526 21.248C165.176 9.29876 144.977 2.14511 123.974 0.511112Z" fill="#EDF3FF"/>
<path d="M150.606 291.371C224.784 291.371 284.917 288.646 284.917 285.284C284.917 281.922 224.784 279.197 150.606 279.197C76.4285 279.197 16.2957 281.922 16.2957 285.284C16.2957 288.646 76.4285 291.371 150.606 291.371Z" fill="#DDE4FE"/>
<path d="M75.7263 75.6936C75.7263 75.6936 92.0059 97.8524 95.6644 95.3122C99.3229 92.772 106.017 52.7201 108.238 51.7136C110.458 50.7071 124.214 56.0751 124.214 56.0751C124.214 56.0751 113.973 114.244 103.141 117.279C92.3094 120.315 78.7298 109.179 78.7298 109.179L75.7263 75.6936Z" fill="#E9A854"/>
<path d="M90.1048 265.458C90.1048 265.458 88.8108 274.947 90.1048 275.459C102.406 280.251 107.966 284.868 105.713 285.268C99.323 286.402 78.7299 284.996 76.9565 283.75C75.1832 282.504 78.7459 268.573 78.7778 265.458C78.7778 262.885 90.1048 265.458 90.1048 265.458Z" fill="#122A50"/>
<path d="M50.724 266.225C50.724 266.225 47.9282 273.83 48.9667 274.789C50.0051 275.747 65.1504 281.514 63.8084 283.943C62.738 285.86 35.8024 284.438 35.9782 282.521C36.1539 280.604 38.6621 267.232 39.5887 264.037C40.3077 261.576 50.724 266.225 50.724 266.225Z" fill="#122A50"/>
<path d="M88.9864 130.221C88.9864 130.221 101.16 270.395 96.4952 271.737C91.8302 273.079 74.4962 274.724 74.7837 272.488C75.0713 270.251 69.0004 168.771 62.3065 155.863C62.3065 155.863 60.7089 275.108 57.5137 274.644C54.3184 274.181 33.5496 275.044 32.5591 271.082C30.9615 264.979 35.4987 133.688 35.946 131.419C36.3933 129.151 88.9864 130.221 88.9864 130.221Z" fill="#294783"/>
<mask id="mask0_1260_73868" style="mask-type:luminance" maskUnits="userSpaceOnUse" x="32" y="129" width="66" height="146">
<path d="M88.9864 130.221C88.9864 130.221 101.16 270.395 96.4952 271.737C91.8302 273.079 74.4962 274.724 74.7837 272.488C75.0713 270.251 69.0004 168.771 62.3065 155.863C62.3065 155.863 60.7089 275.108 57.5137 274.644C54.3184 274.181 33.5496 275.044 32.5591 271.082C30.9615 264.979 35.4987 133.688 35.946 131.419C36.3933 129.151 88.9864 130.221 88.9864 130.221Z" fill="white"/>
</mask>
<g mask="url(#mask0_1260_73868)">
<path d="M84.002 279.197C84.002 279.197 75.9181 150.063 71.2212 149.424C66.5242 148.785 33.8692 149.184 32.2716 145.717C30.674 142.25 35.4668 138.72 35.4668 138.72C35.4668 138.72 89.5297 131.674 91.1752 134.694C92.8208 137.713 101.911 271.736 99.978 274.101C98.0449 276.465 84.002 279.197 84.002 279.197Z" fill="#233F6D"/>
</g>
<path d="M47.5606 50.3714C46.8417 46.9845 47.289 43.5816 48.599 42.7348C51.3789 40.9615 56.5871 40.626 57.4018 43.5017C57.4018 43.5017 62.3864 57.7044 55.1652 57.976C55.5646 60.8836 55.8362 63.6794 56.0279 64.2386C56.3953 65.3888 50.5801 66.0279 49.27 65.5167C48.3594 65.1652 47.8162 56.0269 47.5606 50.3714Z" fill="#ED784D"/>
<path d="M55.1654 57.9766C53.478 58.0258 51.8307 57.4577 50.5323 56.379C48.4075 54.5897 51.3151 60.389 55.437 59.9416L55.1654 57.9766Z" fill="#D24A0E"/>
<path d="M44.4134 43.4712C44.3498 44.1209 44.1186 44.7429 43.7424 45.2765C43.3692 46.345 43.4148 47.5153 43.8703 48.5515C44.2004 49.805 44.7406 50.9934 45.4679 52.0663C45.7075 52.4018 47.2092 54.7822 47.7684 54.4307C48.4903 53.0236 48.9504 51.4971 49.1264 49.9255C48.4873 50.0054 47.8483 49.3823 47.6726 48.5036C47.4968 47.6249 47.8962 46.7463 48.5672 46.6184C48.7721 46.5967 48.979 46.6296 49.167 46.7137C49.3551 46.7979 49.5174 46.9304 49.6376 47.0977C49.8293 45.9475 49.9571 45.1167 49.9571 45.1167C51.5547 45.1167 53.4239 45.3883 55.0854 45.2765L54.0949 44.3019C55.6925 44.3978 57.2901 44.4297 58.8877 44.3978L57.2901 43.4392C59.0065 43.599 60.734 43.599 62.4504 43.4392C60.7129 41.0469 58.4068 39.1252 55.7404 37.8476C53.9347 37.1741 51.9802 37.003 50.0849 37.3523C48.6292 37.4874 47.2105 37.8881 45.8992 38.5346C45.3446 38.9676 44.9158 39.5411 44.6574 40.1956C44.399 40.8501 44.3203 41.5618 44.4294 42.257C44.3975 42.7043 44.3975 43.1357 44.4134 43.4712Z" fill="#122A50"/>
<path d="M50.6761 61.7959C50.6761 61.7959 67.7864 59.2557 75.7265 75.695C83.6666 92.1344 92.9327 129.119 89.8173 134.647C83.4269 145.83 32.719 148.833 30.706 142.251C28.693 135.669 29.0285 80.8872 32.3036 73.9856C36.745 64.5757 50.6761 61.7959 50.6761 61.7959Z" fill="#FEBD69"/>
<path d="M43.4707 64.6861C43.4707 64.6861 51.4587 67.8813 55.293 66.8748C57.6389 66.237 59.6929 64.8094 61.1082 62.8329C58.5092 61.7959 55.7257 61.3011 52.9285 61.3791C49.5248 61.5556 46.2428 62.7032 43.4707 64.6861Z" fill="#ED784D"/>
<path d="M60.3415 94.9766C65.3789 97.4369 69.8883 100.856 73.6176 105.041C78.5825 110.897 82.7461 117.387 85.999 124.341C87.7404 127.807 89.4658 131.274 91.2392 134.693C91.7397 135.62 92.235 136.53 92.7249 137.425L92.9007 137.728L93.1723 138.224L93.8912 139.438C94.8657 141.035 95.9042 142.633 97.0065 144.231C98.9411 146.984 101.077 149.59 103.397 152.027C103.493 152.123 104.244 152.89 103.716 152.362L104.068 152.714L104.947 153.577C105.538 154.152 106.129 154.711 106.736 155.254C108.03 156.404 109.356 157.523 110.714 158.577C112.072 159.632 113.414 160.59 114.82 161.533C115.539 162.012 116.258 162.475 116.993 162.923C117.088 162.923 117.807 163.402 117.168 163.034L117.6 163.29L118.67 163.897C121.677 165.592 124.806 167.061 128.032 168.291C128.716 168.649 129.238 169.254 129.494 169.983C129.749 170.712 129.719 171.511 129.409 172.218C129.099 172.925 128.532 173.489 127.823 173.795C127.114 174.1 126.315 174.126 125.588 173.866C123.99 173.243 122.392 172.572 120.795 171.853C107.741 165.724 96.779 155.89 89.2741 143.576C85.0724 136.658 81.7973 129.197 77.9311 122.12C77.6755 121.625 77.3879 121.129 77.1163 120.634C76.8448 120.139 77.1163 120.474 77.1163 120.634L76.685 119.819C76.2057 119.005 75.7264 118.222 75.2312 117.407C74.2407 115.809 73.2182 114.212 72.036 112.806C70.997 111.384 69.8824 110.019 68.697 108.716L67.6585 107.598L67.1952 107.038C66.5881 106.447 65.9651 105.872 65.326 105.329C63.9892 104.169 62.5747 103.101 61.0924 102.134L60.5652 101.814L60.2457 101.623L59.1273 101.031C58.3285 100.616 57.5297 100.233 56.699 99.8812L58.7599 99.1463L58.5043 96.9256L59.9261 96.7659L60.3415 94.9766Z" fill="#122A50"/>
<path d="M166.854 89.4648L166.63 89.1133C166.691 89.2383 166.766 89.3562 166.854 89.4648Z" fill="#122A50"/>
<path d="M185.322 82.9638C193.31 76.5734 197.863 69.0966 195.595 66.2689C193.326 63.4411 185.034 66.3647 177.094 72.7552C169.474 78.9059 164.921 86.0312 166.598 89.0827L166.822 89.4341C169.138 92.2619 177.414 89.3543 185.322 82.9638Z" fill="#C4D4F6"/>
<path d="M165.336 54.9101C164.969 55.1657 164.617 55.4214 164.282 55.693C155.351 46.6825 142.155 42.7524 129.55 43.5831C114.596 44.5896 101.096 52.3699 89.9931 61.9875C87.2772 64.352 84.6677 66.8389 82.1648 69.4483C79.4968 72.2282 76.9566 75.1198 74.2886 77.8837C72.9466 79.2736 71.5727 80.6156 70.1189 81.8937L69.9112 82.0854L69.4798 82.4368C69.1443 82.7404 68.7769 83.028 68.4254 83.2995C67.6426 83.9226 66.8278 84.5137 65.9971 85.0729L67.9461 86.2072L66.9716 87.8687L68.2177 90.9201C69.8528 89.9234 71.412 88.8074 72.8827 87.5811C78.8258 82.6285 83.6506 76.5736 89.1304 71.1578C90.4085 69.8957 91.7185 68.6495 93.0605 67.4513L94.035 66.5886L94.4184 66.2531C95.1054 65.662 95.7924 65.0869 96.4953 64.5277C99.3398 62.2452 102.328 60.148 105.442 58.2491C106.928 57.3385 108.445 56.4758 109.979 55.677L111.113 55.0859L111.417 54.9421L111.784 54.7823C112.583 54.3989 113.382 54.0314 114.213 53.696C117.504 52.3315 120.909 51.2623 124.389 50.5007H124.533L125.013 50.4209L126.227 50.2132C127.073 50.0854 127.92 49.9895 128.783 49.9096C130.461 49.7524 132.146 49.6831 133.831 49.7019H135.061H135.748C136.643 49.7818 137.538 49.8617 138.432 49.9735C140.136 50.1983 141.826 50.5129 143.497 50.9161C144.28 51.1238 145.094 51.3315 145.845 51.5711L146.325 51.7149H146.532C146.9 51.8268 147.251 51.9546 147.603 52.0983C149.18 52.7338 150.712 53.4757 152.188 54.319C152.907 54.6865 153.594 55.0859 154.281 55.5172L155.159 56.0604L155.287 56.1722L155.974 56.6515C157.323 57.6221 158.599 58.69 159.792 59.8467C159.912 59.9559 160.024 60.0734 160.128 60.1982C153.45 71.3814 164.921 86.4308 166.63 88.9551C165.033 85.9036 169.506 78.7783 177.126 72.6276C185.114 66.2371 193.358 63.3295 195.627 66.1413C195.627 66.2691 180.29 44.7334 165.336 54.9101Z" fill="#122A50"/>
<path d="M186.833 74.0254L195.181 82.9959C195.469 83.306 195.623 83.7182 195.608 84.1416C195.593 84.5651 195.41 84.9651 195.1 85.2538C194.789 85.5424 194.377 85.696 193.954 85.6808C193.53 85.6655 193.13 85.4827 192.842 85.1725L184.494 76.2021L186.833 74.0254Z" fill="#122A50"/>
<path d="M178.618 81.1211L186.966 90.0916C187.255 90.4018 187.408 90.8139 187.393 91.2373C187.378 91.6608 187.195 92.0608 186.885 92.3495C186.575 92.6381 186.162 92.7917 185.739 92.7765C185.316 92.7612 184.916 92.5784 184.627 92.2682L176.279 83.2978L178.618 81.1211Z" fill="#122A50"/>
<path d="M33.6775 71.6358C33.6775 71.6358 2.33254 111.831 17.5737 122.152C32.8148 132.473 67.2432 129.07 68.697 127.808C70.1508 126.545 71.9721 116.097 70.9656 114.484C69.9591 112.87 31.2971 111.688 32.3036 108.461C33.3101 105.233 50.8997 69.3512 33.6775 71.6358Z" fill="#FEBD69"/>
<path d="M29.5078 127.041C29.5078 127.041 53.2642 132.601 68.697 127.808C68.697 127.808 68.8728 129.677 63.3291 131.722C57.7854 133.767 29.7794 131.722 29.7794 131.722L29.5078 127.041Z" fill="#E9A854"/>
<path d="M70.9177 114.516C70.9177 114.516 32.8628 110.729 32.2557 108.493C31.6486 106.256 44.8129 84.0493 44.733 78.873C45.6483 80.2185 46.0767 81.8361 45.9472 83.4582C45.7075 86.1102 33.0226 104.451 36.6491 106.384C40.2757 108.317 70.6781 111.416 70.9177 114.516Z" fill="#E9A854"/>
<path d="M71.0295 117.295C71.0295 117.295 71.7165 112.71 72.723 113.557C73.7295 114.404 73.7135 115.458 74.0171 115.378C74.3206 115.298 77.8992 111.113 79.9282 112.455C81.9571 113.797 84.3056 118.845 83.9541 120.283C83.6027 121.721 77.5637 125.651 75.0555 125.906C73.2421 126.041 71.4211 126.041 69.6077 125.906C70.4337 123.105 70.9113 120.213 71.0295 117.295Z" fill="#ED784D"/>
<path d="M122.025 55.2773C122.025 55.2773 126.578 50.4845 126.195 50.181C125.811 49.8774 117.232 52.0661 115.651 53.0886L122.025 55.2773Z" fill="#ED784D"/>
<path d="M126.211 50.1806C126.211 50.1806 126.594 45.7713 125.651 45.26C124.709 44.7488 120.347 46.5221 119.868 47.8322C119.389 49.1422 118.047 53.0723 118.702 53.1202C121.256 52.2762 123.762 51.2949 126.211 50.1806Z" fill="#ED784D"/>
<path d="M121.098 46.6348C120.666 47.2707 120.407 48.0087 120.348 48.7756C120.011 50.6273 119.391 52.4162 118.51 54.0796L115.651 53.0891C115.651 53.0891 118.095 52.0027 118.622 51.8589C118.871 50.3366 119.306 48.8504 119.916 47.4336C120.248 47.0852 120.651 46.8127 121.098 46.6348Z" fill="#D24A0E"/>
<path d="M115.107 46.6663C115.107 46.6663 115.778 47.6887 116.705 47.4651C117.632 47.2414 118.526 45.8675 117.935 45.4521C117.344 45.0367 115.427 45.5959 115.107 46.6663Z" fill="#ED784D"/>
<path d="M200.515 244.4H162.221V276.672H200.515V244.4Z" fill="#294783"/>
<path d="M276.242 113.686H87.405C82.6139 113.686 78.73 117.569 78.73 122.361V237.819C78.73 242.61 82.6139 246.494 87.405 246.494H276.242C281.033 246.494 284.917 242.61 284.917 237.819V122.361C284.917 117.569 281.033 113.686 276.242 113.686Z" fill="#6D89C8"/>
<path d="M278.862 130.205H84.8008V229.991H278.862V130.205Z" fill="#EDF3FF"/>
<mask id="mask1_1260_73868" style="mask-type:luminance" maskUnits="userSpaceOnUse" x="84" y="130" width="195" height="100">
<path d="M278.862 130.205H84.8008V229.991H278.862V130.205Z" fill="white"/>
</mask>
<g mask="url(#mask1_1260_73868)">
<path opacity="0.68" d="M142.618 123.688L249.865 237.373L84.002 236.51L82.2766 126.004L142.618 123.688Z" fill="#C4D4F6"/>
<path opacity="0.09" d="M85.999 124.342C85.999 124.342 91.3669 221.173 96.1917 222.978C101.016 224.783 278.862 230.055 278.862 230.055C278.862 230.055 82.0529 234.177 81.7494 233.25C81.4458 232.324 81.4778 126.003 81.4778 126.003L85.999 124.342Z" fill="#294783"/>
</g>
<path d="M210.884 276.689H151.836C151.466 276.689 151.165 276.99 151.165 277.36V283.288C151.165 283.658 151.466 283.959 151.836 283.959H210.884C211.254 283.959 211.555 283.658 211.555 283.288V277.36C211.555 276.99 211.254 276.689 210.884 276.689Z" fill="#6D89C8"/>
<path d="M146.133 192.335H128.367C128.071 192.335 127.786 192.217 127.577 192.007C127.367 191.797 127.249 191.513 127.249 191.216V183.724C127.246 183.461 127.337 183.206 127.505 183.005L146.98 159.903C147.088 159.781 147.22 159.682 147.369 159.613C147.517 159.544 147.679 159.507 147.842 159.504H155.83C156.126 159.508 156.408 159.627 156.616 159.836C156.825 160.045 156.944 160.327 156.949 160.622V182.701C156.949 182.998 157.066 183.282 157.276 183.492C157.486 183.702 157.77 183.819 158.067 183.819H160.783C160.929 183.817 161.074 183.844 161.21 183.899C161.345 183.953 161.469 184.034 161.573 184.137C161.677 184.239 161.759 184.361 161.816 184.496C161.872 184.631 161.901 184.776 161.901 184.922V191.216C161.901 191.363 161.872 191.509 161.816 191.644C161.76 191.78 161.677 191.903 161.574 192.007C161.47 192.111 161.346 192.193 161.211 192.25C161.075 192.306 160.93 192.335 160.783 192.335H158.067C157.77 192.335 157.486 192.452 157.276 192.662C157.066 192.872 156.949 193.156 156.949 193.453V198.613C156.944 198.909 156.825 199.191 156.616 199.399C156.408 199.608 156.126 199.727 155.83 199.732H148.481C148.186 199.727 147.904 199.608 147.695 199.399C147.486 199.191 147.367 198.909 147.363 198.613V193.453C147.364 193.296 147.332 193.141 147.268 192.998C147.205 192.854 147.113 192.725 146.997 192.62C146.881 192.514 146.744 192.435 146.595 192.385C146.446 192.336 146.289 192.319 146.133 192.335ZM147.251 182.749V174.457C147.249 174.23 147.177 174.009 147.046 173.824C146.915 173.638 146.73 173.497 146.517 173.419C146.304 173.341 146.072 173.33 145.852 173.387C145.632 173.444 145.434 173.567 145.286 173.739L138.241 182.014C138.106 182.178 138.02 182.377 137.993 182.587C137.965 182.798 137.998 183.012 138.086 183.205C138.174 183.398 138.315 183.562 138.492 183.679C138.669 183.797 138.875 183.862 139.087 183.867H146.133C146.284 183.867 146.433 183.837 146.572 183.778C146.711 183.719 146.836 183.632 146.941 183.523C147.045 183.414 147.127 183.285 147.18 183.144C147.233 183.003 147.258 182.852 147.251 182.701V182.749Z" fill="#6D89C8"/>
<path d="M165.224 179.794C165.224 172.338 166.577 167.077 169.282 164.009C171.987 160.942 176.109 159.44 181.648 159.504C183.873 159.438 186.092 159.774 188.198 160.495C189.749 161.06 191.172 161.929 192.384 163.051C193.395 164.022 194.252 165.143 194.924 166.374C195.591 167.659 196.095 169.022 196.425 170.432C197.169 173.453 197.539 176.554 197.528 179.666C197.528 186.845 196.314 192.095 193.885 195.418C191.457 198.741 187.287 200.403 181.344 200.403C178.592 200.511 175.855 199.963 173.356 198.805C171.284 197.733 169.54 196.121 168.308 194.14C167.206 192.302 166.453 190.277 166.087 188.165C165.505 185.413 165.216 182.607 165.224 179.794ZM176.12 179.794C176.12 184.821 176.562 188.256 177.446 190.098C177.734 190.901 178.26 191.597 178.954 192.093C179.647 192.59 180.475 192.864 181.328 192.878C181.864 192.882 182.396 192.779 182.892 192.576C183.389 192.374 183.84 192.074 184.22 191.696C185.167 190.661 185.795 189.374 186.025 187.989C186.496 185.354 186.694 182.677 186.616 180.001C186.616 174.761 186.169 171.236 185.274 169.425C184.958 168.621 184.406 167.931 183.69 167.446C182.974 166.961 182.129 166.704 181.264 166.709C180.401 166.697 179.556 166.957 178.851 167.453C178.145 167.95 177.614 168.657 177.334 169.473C176.514 171.39 176.109 174.841 176.12 179.826V179.794Z" fill="#6D89C8"/>
<path d="M219.83 192.336H202.049C201.752 192.336 201.468 192.218 201.258 192.009C201.048 191.799 200.931 191.515 200.931 191.218V183.725C200.935 183.464 201.025 183.212 201.186 183.006L220.613 159.921C220.718 159.799 220.848 159.7 220.994 159.631C221.14 159.562 221.299 159.525 221.46 159.521H229.448C229.744 159.521 230.029 159.639 230.239 159.849C230.448 160.059 230.566 160.343 230.566 160.64V182.719C230.566 183.015 230.684 183.3 230.894 183.509C231.103 183.719 231.388 183.837 231.685 183.837H234.416C234.71 183.837 234.992 183.953 235.202 184.159C235.411 184.365 235.531 184.646 235.535 184.939V191.234C235.535 191.531 235.417 191.815 235.207 192.025C234.997 192.234 234.713 192.352 234.416 192.352H231.653C231.356 192.352 231.072 192.47 230.862 192.68C230.652 192.89 230.534 193.174 230.534 193.471V198.631C230.534 198.927 230.416 199.212 230.207 199.422C229.997 199.631 229.713 199.749 229.416 199.749H222.067C221.77 199.749 221.486 199.631 221.276 199.422C221.066 199.212 220.949 198.927 220.949 198.631V193.471C220.951 193.322 220.923 193.175 220.868 193.038C220.813 192.9 220.731 192.775 220.627 192.669C220.523 192.564 220.399 192.48 220.262 192.423C220.125 192.366 219.979 192.336 219.83 192.336ZM220.949 182.751V174.459C220.946 174.232 220.875 174.011 220.744 173.825C220.613 173.64 220.428 173.498 220.215 173.42C220.001 173.342 219.769 173.331 219.549 173.388C219.329 173.445 219.132 173.568 218.984 173.74L211.938 182.016C211.797 182.178 211.705 182.377 211.674 182.59C211.643 182.803 211.675 183.02 211.764 183.215C211.853 183.411 211.997 183.577 212.178 183.693C212.359 183.808 212.57 183.87 212.785 183.869H219.83C219.981 183.867 220.129 183.835 220.267 183.775C220.405 183.715 220.529 183.628 220.634 183.52C220.738 183.411 220.819 183.283 220.873 183.143C220.927 183.003 220.953 182.853 220.949 182.703V182.751Z" fill="#6D89C8"/>
<path d="M255.265 85.8864C267.926 85.8864 278.191 75.6222 278.191 62.9608C278.191 50.2993 267.926 40.0352 255.265 40.0352C242.604 40.0352 232.339 50.2993 232.339 62.9608C232.339 75.6222 242.604 85.8864 255.265 85.8864Z" fill="#C4D4F6"/>
<mask id="mask2_1260_73868" style="mask-type:luminance" maskUnits="userSpaceOnUse" x="232" y="40" width="47" height="46">
<path d="M255.265 85.8864C267.926 85.8864 278.191 75.6222 278.191 62.9608C278.191 50.2993 267.926 40.0352 255.265 40.0352C242.604 40.0352 232.339 50.2993 232.339 62.9608C232.339 75.6222 242.604 85.8864 255.265 85.8864Z" fill="white"/>
</mask>
<g mask="url(#mask2_1260_73868)">
<path opacity="0.38" d="M238.57 44.4121C238.57 44.4121 230.582 72.4501 248.379 80.0387C266.177 87.6273 278.973 71.5075 278.973 71.5075C278.973 71.5075 275.587 90.8065 247.021 85.8859C218.456 80.9653 233.426 49.4286 238.57 44.4121Z" fill="#6D89C8"/>
</g>
<path d="M266.544 57.2747L263.844 54.0156L255.265 61.109L246.686 54.0156L243.986 57.2747L251.942 63.8569L243.986 70.423L246.686 73.6981L255.265 66.6047L263.844 73.6981L266.544 70.423L258.588 63.8569L266.544 57.2747Z" fill="white"/>
</g>
<defs>
<clipPath id="clip0_1260_73868">
<rect width="320" height="291.371" fill="white"/>
</clipPath>
</defs>
</svg>
