<svg width="11" height="11" viewBox="0 0 11 11" fill="none" xmlns="http://www.w3.org/2000/svg">
<path d="M5.66406 4.99992C5.01962 4.99992 4.46962 4.76925 4.01406 4.30792C3.55851 3.84703 3.33073 3.29992 3.33073 2.66659C3.33073 2.02214 3.55851 1.47214 4.01406 1.01659C4.46962 0.56103 5.01962 0.333252 5.66406 0.333252C6.30851 0.333252 6.85851 0.56103 7.31406 1.01659C7.76962 1.47214 7.9974 2.02214 7.9974 2.66659C7.9974 3.29992 7.76962 3.84703 7.31406 4.30792C6.85851 4.76925 6.30851 4.99992 5.66406 4.99992ZM0.664062 10.0666V8.58325C0.664062 8.26103 0.752951 7.96103 0.930729 7.68325C1.10851 7.40547 1.3474 7.18881 1.6474 7.03325C2.30295 6.71103 2.96695 6.46925 3.6394 6.30792C4.3114 6.14703 4.98628 6.06659 5.66406 6.06659C6.34184 6.06659 7.01695 6.14703 7.6894 6.30792C8.3614 6.46925 9.02517 6.71103 9.68073 7.03325C9.98073 7.18881 10.2196 7.40547 10.3974 7.68325C10.5752 7.96103 10.6641 8.26103 10.6641 8.58325V10.0666H0.664062ZM1.66406 9.06659H9.66406V8.58325C9.66406 8.44992 9.62517 8.3277 9.5474 8.21659C9.46962 8.10547 9.36406 8.01103 9.23073 7.93325C8.65295 7.65547 8.06695 7.44147 7.47273 7.29125C6.87806 7.14147 6.27517 7.06659 5.66406 7.06659C5.05295 7.06659 4.45006 7.14147 3.8554 7.29125C3.26117 7.44147 2.67517 7.65547 2.0974 7.93325C1.96406 8.01103 1.85851 8.10547 1.78073 8.21659C1.70295 8.3277 1.66406 8.44992 1.66406 8.58325V9.06659ZM5.66406 3.99992C6.03073 3.99992 6.34473 3.86925 6.60606 3.60792C6.86695 3.34703 6.9974 3.03325 6.9974 2.66659C6.9974 2.29992 6.86695 1.98592 6.60606 1.72459C6.34473 1.4637 6.03073 1.33325 5.66406 1.33325C5.2974 1.33325 4.98362 1.4637 4.72273 1.72459C4.4614 1.98592 4.33073 2.29992 4.33073 2.66659C4.33073 3.03325 4.4614 3.34703 4.72273 3.60792C4.98362 3.86925 5.2974 3.99992 5.66406 3.99992Z" fill="#333333"/>
</svg>
