<svg width="24" height="24" viewBox="0 0 24 24" fill="none" xmlns="http://www.w3.org/2000/svg">
<mask id="mask0_15242_103521" style="mask-type:alpha" maskUnits="userSpaceOnUse" x="0" y="0" width="24" height="24">
<rect width="24" height="24" fill="#D9D9D9"/>
</mask>
<g mask="url(#mask0_15242_103521)">
<path d="M12.0596 18.7884L14.6884 16.175L12.0596 13.5615L11.2212 14.4L12.45 15.6288C11.8295 15.6391 11.2583 15.5561 10.7365 15.3798C10.2147 15.2035 9.77562 14.9372 9.4192 14.5808C9.06663 14.2282 8.79964 13.8256 8.61823 13.3731C8.43683 12.9205 8.34613 12.4679 8.34613 12.0154C8.34613 11.732 8.38042 11.4487 8.449 11.1654C8.51758 10.882 8.61534 10.6102 8.74228 10.35L7.85383 9.5C7.61536 9.88462 7.43908 10.2881 7.32498 10.7104C7.21088 11.1327 7.15382 11.5626 7.15382 12C7.15382 12.6137 7.27402 13.2194 7.5144 13.817C7.75478 14.4146 8.10863 14.9487 8.57595 15.4192C9.04325 15.8897 9.61056 16.241 10.2779 16.4731C10.9452 16.7051 11.6308 16.8263 12.3346 16.8365L11.2212 17.95L12.0596 18.7884ZM16.1558 14.5C16.3942 14.1153 16.5705 13.7119 16.6846 13.2896C16.7987 12.8672 16.8557 12.4374 16.8557 12C16.8557 11.3872 16.7381 10.7785 16.5029 10.1738C16.2676 9.56914 15.9147 9.03299 15.4442 8.56538C14.9801 8.09486 14.4112 7.74614 13.7375 7.51923C13.0638 7.29229 12.3763 7.17883 11.675 7.17883L12.7884 6.04998L11.95 5.21153L9.32115 7.82498L11.95 10.4384L12.7884 9.59998L11.5442 8.35573C12.1544 8.35573 12.7282 8.44643 13.2654 8.62785C13.8025 8.80927 14.2452 9.07424 14.5932 9.42278C14.9413 9.77133 15.2066 10.1722 15.3894 10.6253C15.5721 11.0784 15.6635 11.5315 15.6635 11.9846C15.6635 12.2679 15.6292 12.5513 15.5606 12.8346C15.492 13.1179 15.3942 13.3897 15.2673 13.65L16.1558 14.5ZM12.0016 21.5C10.6877 21.5 9.45268 21.2506 8.29655 20.752C7.1404 20.2533 6.13472 19.5765 5.2795 18.7217C4.42427 17.8669 3.74721 16.8616 3.24833 15.706C2.74944 14.5504 2.5 13.3156 2.5 12.0017C2.5 10.6877 2.74933 9.45268 3.248 8.29655C3.74667 7.1404 4.42342 6.13472 5.27825 5.2795C6.1331 4.42427 7.13834 3.74721 8.29398 3.24833C9.44959 2.74944 10.6844 2.5 11.9983 2.5C13.3122 2.5 14.5473 2.74933 15.7034 3.248C16.8596 3.74667 17.8652 4.42342 18.7205 5.27825C19.5757 6.1331 20.2527 7.13834 20.7516 8.29398C21.2505 9.44959 21.5 10.6844 21.5 11.9983C21.5 13.3122 21.2506 14.5473 20.752 15.7034C20.2533 16.8596 19.5765 17.8652 18.7217 18.7205C17.8669 19.5757 16.8616 20.2527 15.706 20.7516C14.5504 21.2505 13.3156 21.5 12.0016 21.5ZM12 20C14.2333 20 16.125 19.225 17.675 17.675C19.225 16.125 20 14.2333 20 12C20 9.76664 19.225 7.87498 17.675 6.32498C16.125 4.77498 14.2333 3.99998 12 3.99998C9.76664 3.99998 7.87498 4.77498 6.32498 6.32498C4.77498 7.87498 3.99998 9.76664 3.99998 12C3.99998 14.2333 4.77498 16.125 6.32498 17.675C7.87498 19.225 9.76664 20 12 20Z" fill="#0871E1"/>
</g>
</svg>
