<svg width="24" height="25" viewBox="0 0 24 25" fill="none" xmlns="http://www.w3.org/2000/svg"> <mask id="mask0_13900_18675" style="mask-type:alpha" maskUnits="userSpaceOnUse" x="0" y="0" width="24" height="25"> <rect y="0.5" width="24" height="24" fill="#D9D9D9"/> </mask> <g mask="url(#mask0_13900_18675)"> <path d="M12 19.7688C11.5875 19.7688 11.2344 19.622 10.9406 19.3282C10.6469 19.0345 10.5 18.6814 10.5 18.2689C10.5 17.8564 10.6469 17.5033 10.9406 17.2095C11.2344 16.9158 11.5875 16.7689 12 16.7689C12.4125 16.7689 12.7656 16.9158 13.0593 17.2095C13.3531 17.5033 13.5 17.8564 13.5 18.2689C13.5 18.6814 13.3531 19.0345 13.0593 19.3282C12.7656 19.622 12.4125 19.7688 12 19.7688ZM12 13.9996C11.5875 13.9996 11.2344 13.8527 10.9406 13.559C10.6469 13.2652 10.5 12.9121 10.5 12.4996C10.5 12.0872 10.6469 11.734 10.9406 11.4403C11.2344 11.1465 11.5875 10.9997 12 10.9997C12.4125 10.9997 12.7656 11.1465 13.0593 11.4403C13.3531 11.734 13.5 12.0872 13.5 12.4996C13.5 12.9121 13.3531 13.2652 13.0593 13.559C12.7656 13.8527 12.4125 13.9996 12 13.9996ZM12 8.23039C11.5875 8.23039 11.2344 8.08352 10.9406 7.78977C10.6469 7.49604 10.5 7.14292 10.5 6.73042C10.5 6.31794 10.6469 5.96482 10.9406 5.67107C11.2344 5.37734 11.5875 5.23047 12 5.23047C12.4125 5.23047 12.7656 5.37734 13.0593 5.67107C13.3531 5.96482 13.5 6.31794 13.5 6.73042C13.5 7.14292 13.3531 7.49604 13.0593 7.78977C12.7656 8.08352 12.4125 8.23039 12 8.23039Z" fill="black"/> </g> </svg>