<svg width="16" height="17" viewBox="0 0 16 17" fill="none" xmlns="http://www.w3.org/2000/svg">
<mask id="mask0_14479_58106" style="mask-type:alpha" maskUnits="userSpaceOnUse" x="0" y="0" width="16" height="17">
<rect y="0.5" width="16" height="16" fill="#D9D9D9"/>
</mask>
<g mask="url(#mask0_14479_58106)">
<path d="M7.66406 8.4987C7.01962 8.4987 6.46962 8.26803 6.01406 7.8067C5.55851 7.34581 5.33073 6.7987 5.33073 6.16536C5.33073 5.52092 5.55851 4.97092 6.01406 4.51536C6.46962 4.05981 7.01962 3.83203 7.66406 3.83203C8.30851 3.83203 8.85851 4.05981 9.31406 4.51536C9.76962 4.97092 9.9974 5.52092 9.9974 6.16536C9.9974 6.7987 9.76962 7.34581 9.31406 7.8067C8.85851 8.26803 8.30851 8.4987 7.66406 8.4987ZM2.66406 13.5654V12.082C2.66406 11.7598 2.75295 11.4598 2.93073 11.182C3.10851 10.9043 3.3474 10.6876 3.6474 10.532C4.30295 10.2098 4.96695 9.96803 5.6394 9.8067C6.3114 9.64581 6.98628 9.56536 7.66406 9.56536C8.34184 9.56536 9.01695 9.64581 9.6894 9.8067C10.3614 9.96803 11.0252 10.2098 11.6807 10.532C11.9807 10.6876 12.2196 10.9043 12.3974 11.182C12.5752 11.4598 12.6641 11.7598 12.6641 12.082V13.5654H2.66406ZM3.66406 12.5654H11.6641V12.082C11.6641 11.9487 11.6252 11.8265 11.5474 11.7154C11.4696 11.6043 11.3641 11.5098 11.2307 11.432C10.653 11.1543 10.067 10.9403 9.47273 10.79C8.87806 10.6403 8.27517 10.5654 7.66406 10.5654C7.05295 10.5654 6.45006 10.6403 5.8554 10.79C5.26117 10.9403 4.67517 11.1543 4.0974 11.432C3.96406 11.5098 3.85851 11.6043 3.78073 11.7154C3.70295 11.8265 3.66406 11.9487 3.66406 12.082V12.5654ZM7.66406 7.4987C8.03073 7.4987 8.34473 7.36803 8.60606 7.1067C8.86695 6.84581 8.9974 6.53203 8.9974 6.16536C8.9974 5.7987 8.86695 5.4847 8.60606 5.22336C8.34473 4.96248 8.03073 4.83203 7.66406 4.83203C7.2974 4.83203 6.98362 4.96248 6.72273 5.22336C6.4614 5.4847 6.33073 5.7987 6.33073 6.16536C6.33073 6.53203 6.4614 6.84581 6.72273 7.1067C6.98362 7.36803 7.2974 7.4987 7.66406 7.4987Z" fill="#333333"/>
</g>
</svg>
