<svg width="15" height="3" viewBox="0 0 15 3" fill="none" xmlns="http://www.w3.org/2000/svg">
<path d="M1.5 3C1.08333 3 0.729334 2.854 0.438 2.562C0.146 2.27067 0 1.91667 0 1.5C0 1.08333 0.146 0.729333 0.438 0.438C0.729334 0.146 1.08333 0 1.5 0C1.91667 0 2.271 0.146 2.563 0.438C2.85433 0.729333 3 1.08333 3 1.5C3 1.91667 2.85433 2.27067 2.563 2.562C2.271 2.854 1.91667 3 1.5 3ZM7.275 3C6.85833 3 6.50433 2.854 6.213 2.562C5.921 2.27067 5.775 1.91667 5.775 1.5C5.775 1.08333 5.921 0.729333 6.213 0.438C6.50433 0.146 6.85833 0 7.275 0C7.69167 0 8.04567 0.146 8.337 0.438C8.629 0.729333 8.775 1.08333 8.775 1.5C8.775 1.91667 8.629 2.27067 8.337 2.562C8.04567 2.854 7.69167 3 7.275 3ZM13.05 3C12.6333 3 12.2793 2.854 11.988 2.562C11.696 2.27067 11.55 1.91667 11.55 1.5C11.55 1.08333 11.696 0.729333 11.988 0.438C12.2793 0.146 12.6333 0 13.05 0C13.4667 0 13.821 0.146 14.113 0.438C14.4043 0.729333 14.55 1.08333 14.55 1.5C14.55 1.91667 14.4043 2.27067 14.113 2.562C13.821 2.854 13.4667 3 13.05 3Z" fill="white"/>
</svg>
