<svg width="16" height="20" viewBox="0 0 16 20" fill="none" xmlns="http://www.w3.org/2000/svg">
<path d="M0.25 16.8758V15.3758H2.25V8.12578C2.25 6.75911 2.671 5.55478 3.513 4.51278C4.35433 3.47145 5.43333 2.80078 6.75 2.50078V1.80078C6.75 1.45078 6.871 1.15478 7.113 0.912781C7.35433 0.671448 7.65 0.550781 8 0.550781C8.35 0.550781 8.64567 0.671448 8.887 0.912781C9.129 1.15478 9.25 1.45078 9.25 1.80078V2.50078C10.5667 2.80078 11.646 3.47145 12.488 4.51278C13.3293 5.55478 13.75 6.75911 13.75 8.12578V15.3758H15.75V16.8758H0.25ZM8 19.8008C7.5 19.8008 7.075 19.6258 6.725 19.2758C6.375 18.9258 6.2 18.5008 6.2 18.0008H9.8C9.8 18.5008 9.625 18.9258 9.275 19.2758C8.925 19.6258 8.5 19.8008 8 19.8008ZM3.75 15.3758H12.25V8.12578C12.25 6.94245 11.8373 5.93812 11.012 5.11278C10.1873 4.28811 9.18333 3.87578 8 3.87578C6.81667 3.87578 5.81267 4.28811 4.988 5.11278C4.16267 5.93812 3.75 6.94245 3.75 8.12578V15.3758Z" fill="#333333"/>
</svg>
