<svg width="24" height="24" viewBox="0 0 24 24" fill="none" xmlns="http://www.w3.org/2000/svg">
<mask id="mask0_955_72217" style="mask-type:alpha" maskUnits="userSpaceOnUse" x="0" y="0" width="24" height="24">
<rect width="24" height="24" fill="#D9D9D9"/>
</mask>
<g mask="url(#mask0_955_72217)">
<path d="M19.5484 20.575L13.2484 14.3C12.7484 14.7167 12.1734 15.0417 11.5234 15.275C10.8734 15.5083 10.2068 15.625 9.52344 15.625C7.80677 15.625 6.35677 15.0333 5.17344 13.85C3.9901 12.6667 3.39844 11.2167 3.39844 9.5C3.39844 7.8 3.9901 6.354 5.17344 5.162C6.35677 3.97067 7.80677 3.375 9.52344 3.375C11.2234 3.375 12.6651 3.96667 13.8484 5.15C15.0318 6.33333 15.6234 7.78333 15.6234 9.5C15.6234 10.2167 15.5068 10.9 15.2734 11.55C15.0401 12.2 14.7234 12.7667 14.3234 13.25L20.5984 19.525L19.5484 20.575ZM9.52344 14.125C10.8068 14.125 11.8944 13.675 12.7864 12.775C13.6778 11.875 14.1234 10.7833 14.1234 9.5C14.1234 8.21667 13.6778 7.125 12.7864 6.225C11.8944 5.325 10.8068 4.875 9.52344 4.875C8.22344 4.875 7.12777 5.325 6.23644 6.225C5.34444 7.125 4.89844 8.21667 4.89844 9.5C4.89844 10.7833 5.34444 11.875 6.23644 12.775C7.12777 13.675 8.22344 14.125 9.52344 14.125Z" fill="#A3A8AD"/>
</g>
</svg>
