<svg width="16" height="17" viewBox="0 0 16 17" fill="none" xmlns="http://www.w3.org/2000/svg">
<g id="Icon">
<mask id="mask0_13542_106067" style="mask-type:alpha" maskUnits="userSpaceOnUse" x="0" y="0" width="16" height="17">
<rect id="Bounding box" y="0.5" width="16" height="16" fill="#D9D9D9"/>
</mask>
<g mask="url(#mask0_13542_106067)">
<path id="notifications" d="M2.83594 13.084V12.084H4.16927V7.25068C4.16927 6.33957 4.44994 5.53668 5.01127 4.84202C5.57216 4.14779 6.29149 3.70068 7.16927 3.50068V3.03402C7.16927 2.80068 7.24994 2.60335 7.41127 2.44202C7.57216 2.28113 7.76927 2.20068 8.0026 2.20068C8.23594 2.20068 8.43305 2.28113 8.59394 2.44202C8.75527 2.60335 8.83594 2.80068 8.83594 3.03402V3.50068C9.71372 3.70068 10.4333 4.14779 10.9946 4.84202C11.5555 5.53668 11.8359 6.33957 11.8359 7.25068V12.084H13.1693V13.084H2.83594ZM8.0026 15.034C7.66927 15.034 7.38594 14.9174 7.1526 14.684C6.91927 14.4507 6.8026 14.1674 6.8026 13.834H9.2026C9.2026 14.1674 9.08594 14.4507 8.8526 14.684C8.61927 14.9174 8.33594 15.034 8.0026 15.034Z" fill="#333333"/>
</g>
</g>
</svg>
