<svg width="24" height="24" viewBox="0 0 24 24" fill="none" xmlns="http://www.w3.org/2000/svg">
<mask id="mask0_16057_131679" style="mask-type:alpha" maskUnits="userSpaceOnUse" x="0" y="0" width="24" height="24">
<rect width="24" height="24" fill="#D9D9D9"/>
</mask>
<g mask="url(#mask0_16057_131679)">
<path d="M5.8 19.175C5.3 19.175 4.875 19 4.525 18.65C4.175 18.3 4 17.875 4 17.375V14.675H5.5V17.375C5.5 17.4417 5.53333 17.5083 5.6 17.575C5.66667 17.6417 5.73333 17.675 5.8 17.675H17.2C17.2667 17.675 17.3333 17.6417 17.4 17.575C17.4667 17.5083 17.5 17.4417 17.5 17.375V14.675H19V17.375C19 17.875 18.825 18.3 18.475 18.65C18.125 19 17.7 19.175 17.2 19.175H5.8ZM10.75 15.3V6.9L8.275 9.35L7.225 8.275L11.5 4L15.775 8.275L14.725 9.35L12.25 6.9V15.3H10.75Z" fill="#0871E1"/>
</g>
</svg>
