<svg width="80" height="80" viewBox="0 0 80 80" fill="none" xmlns="http://www.w3.org/2000/svg">
<circle cx="40" cy="40" r="40" fill="white"/>
<path fill-rule="evenodd" clip-rule="evenodd" d="M31.6719 25.0013C31.6719 23.1604 33.1643 21.668 35.0052 21.668H45.0052C46.8462 21.668 48.3385 23.1604 48.3385 25.0013V28.3346C48.3385 30.1756 46.8462 31.668 45.0052 31.668H35.0052C33.1643 31.668 31.6719 30.1756 31.6719 28.3346V25.0013ZM45.0052 25.0013H35.0052V28.3346H45.0052V25.0013Z" fill="#333333"/>
<path fill-rule="evenodd" clip-rule="evenodd" d="M39.8417 41.6576C39.601 41.6576 39.3625 41.7051 39.14 41.7972C38.9178 41.8892 38.716 42.0241 38.5458 42.1939C38.5457 42.1942 38.5462 42.1937 38.5458 42.1939L29.8215 50.9344L28.9614 54.3659L32.3977 53.4961L41.1382 44.7876C41.1385 44.7874 41.1378 44.7879 41.1382 44.7876C41.308 44.6176 41.4437 44.4149 41.5357 44.1927C41.6278 43.9704 41.6752 43.7319 41.6752 43.4911C41.6752 43.2504 41.6278 43.0119 41.5357 42.7896C41.4435 42.5671 41.3085 42.3649 41.1382 42.1947C40.968 42.0244 40.7658 41.8894 40.5433 41.7972C40.3208 41.7051 40.0825 41.6576 39.8417 41.6576V41.6576ZM37.8645 38.7176C38.4913 38.4579 39.1632 38.3242 39.8417 38.3242C40.5202 38.3242 41.1922 38.4579 41.819 38.7176C42.4458 38.9772 43.0155 39.3579 43.4952 39.8376C43.975 40.3174 44.3557 40.8871 44.6152 41.5139C44.8748 42.1407 45.0085 42.8126 45.0085 43.4911C45.0085 44.1697 44.8748 44.8416 44.6152 45.4684C44.3557 46.0952 43.975 46.6649 43.4952 47.1447L34.4264 56.1802C34.2143 56.3914 33.9493 56.5417 33.6591 56.6152L27.0757 58.2819C26.5072 58.4257 25.9048 58.2602 25.4896 57.8461C25.0744 57.4319 24.9075 56.8299 25.05 56.2609L26.7 49.6776C26.7733 49.3854 26.9243 49.1186 27.1371 48.9054L36.1871 39.8387C36.6668 39.3589 37.2375 38.9772 37.8645 38.7176V38.7176Z" fill="#0871E1"/>
<path fill-rule="evenodd" clip-rule="evenodd" d="M45.0052 26.6667C45.0052 25.7462 45.7514 25 46.6719 25H50.0052C51.3312 25 52.603 25.5268 53.5407 26.4645C54.4784 27.4022 55.0052 28.6739 55.0052 30V53.3333C55.0052 54.6595 54.4784 55.9312 53.5407 56.8688C52.603 57.8065 51.3314 58.3333 50.0052 58.3333H40.8385C39.918 58.3333 39.1719 57.5872 39.1719 56.6667C39.1719 55.7462 39.918 55 40.8385 55H50.0052C50.4472 55 50.8712 54.8243 51.1837 54.5118C51.4962 54.1993 51.6719 53.7753 51.6719 53.3333V30C51.6719 29.558 51.4962 29.1341 51.1837 28.8215C50.8712 28.5089 50.4472 28.3333 50.0052 28.3333H46.6719C45.7514 28.3333 45.0052 27.5871 45.0052 26.6667Z" fill="#333333"/>
<path fill-rule="evenodd" clip-rule="evenodd" d="M30 28.3333C29.558 28.3333 29.1341 28.5089 28.8215 28.8215C28.5089 29.1341 28.3333 29.558 28.3333 30V42.5C28.3333 43.4205 27.5871 44.1667 26.6667 44.1667C25.7462 44.1667 25 43.4205 25 42.5V30C25 28.6739 25.5268 27.4022 26.4645 26.4645C27.4021 25.5268 28.6739 25 30 25H33.3333C34.2538 25 35 25.7462 35 26.6667C35 27.5871 34.2538 28.3333 33.3333 28.3333H30Z" fill="#333333"/>
</svg>
