<svg width="16" height="17" viewBox="0 0 16 17" fill="none" xmlns="http://www.w3.org/2000/svg">
<mask id="mask0_15578_127709" style="mask-type:alpha" maskUnits="userSpaceOnUse" x="0" y="0" width="16" height="17">
<rect y="0.5" width="16" height="16" fill="#D9D9D9"/>
</mask>
<g mask="url(#mask0_15578_127709)">
<path d="M3.53203 14.1654C3.1987 14.1654 2.91536 14.0487 2.68203 13.8154C2.4487 13.582 2.33203 13.2987 2.33203 12.9654V4.03203C2.33203 3.6987 2.4487 3.41536 2.68203 3.18203C2.91536 2.9487 3.1987 2.83203 3.53203 2.83203H7.7487V3.83203H3.53203C3.48759 3.83203 3.44314 3.85425 3.3987 3.8987C3.35425 3.94314 3.33203 3.98759 3.33203 4.03203V12.9654C3.33203 13.0098 3.35425 13.0543 3.3987 13.0987C3.44314 13.1431 3.48759 13.1654 3.53203 13.1654H12.4654C12.5098 13.1654 12.5543 13.1431 12.5987 13.0987C12.6431 13.0543 12.6654 13.0098 12.6654 12.9654V8.7487H13.6654V12.9654C13.6654 13.2987 13.5487 13.582 13.3154 13.8154C13.082 14.0487 12.7987 14.1654 12.4654 14.1654H3.53203ZM6.48203 10.7154L5.78203 10.0154L11.9654 3.83203H9.33203V2.83203H13.6654V7.16536H12.6654V4.53203L6.48203 10.7154Z" fill="#333333"/>
</g>
</svg>
