<svg width="32" height="32" viewBox="0 0 32 32" fill="none" xmlns="http://www.w3.org/2000/svg">
<circle cx="16" cy="16" r="16" fill="#E6F1FC"/>
<mask id="mask0_955_72209" style="mask-type:alpha" maskUnits="userSpaceOnUse" x="4" y="4" width="24" height="24">
<rect x="4" y="4" width="24" height="24" fill="#D9D9D9"/>
</mask>
<g mask="url(#mask0_955_72209)">
<path d="M9.8 26C9.3 26 8.875 25.825 8.525 25.475C8.175 25.125 8 24.7 8 24.2V8.8C8 8.3 8.175 7.875 8.525 7.525C8.875 7.175 9.3 7 9.8 7H21.2C21.7 7 22.125 7.175 22.475 7.525C22.825 7.875 23 8.3 23 8.8V24.2C23 24.7 22.825 25.125 22.475 25.475C22.125 25.825 21.7 26 21.2 26H9.8ZM9.8 24.5H21.2C21.2667 24.5 21.3333 24.4667 21.4 24.4C21.4667 24.3333 21.5 24.2667 21.5 24.2V8.8C21.5 8.73333 21.4667 8.66667 21.4 8.6C21.3333 8.53333 21.2667 8.5 21.2 8.5H19.5V15.05L17.25 13.7L15 15.05V8.5H9.8C9.73333 8.5 9.66667 8.53333 9.6 8.6C9.53333 8.66667 9.5 8.73333 9.5 8.8V24.2C9.5 24.2667 9.53333 24.3333 9.6 24.4C9.66667 24.4667 9.73333 24.5 9.8 24.5ZM9.5 24.5V8.5V24.5ZM15 15.05L17.25 13.7L19.5 15.05L17.25 13.7L15 15.05V15.05Z" fill="#333333"/>
</g>
</svg>
