<svg width="16" height="16" viewBox="0 0 16 16" fill="none" xmlns="http://www.w3.org/2000/svg">
<mask id="mask0_361_92597" style="mask-type:alpha" maskUnits="userSpaceOnUse" x="0" y="0" width="16" height="16">
<rect width="16" height="16" fill="#D9D9D9"/>
</mask>
<g mask="url(#mask0_361_92597)">
<path d="M7.66602 7.99992C7.02157 7.99992 6.47157 7.76925 6.01602 7.30792C5.56046 6.84703 5.33268 6.29992 5.33268 5.66659C5.33268 5.02214 5.56046 4.47214 6.01602 4.01659C6.47157 3.56103 7.02157 3.33325 7.66602 3.33325C8.31046 3.33325 8.86046 3.56103 9.31602 4.01659C9.77157 4.47214 9.99935 5.02214 9.99935 5.66659C9.99935 6.29992 9.77157 6.84703 9.31602 7.30792C8.86046 7.76925 8.31046 7.99992 7.66602 7.99992ZM2.66602 13.0666V11.5833C2.66602 11.261 2.7549 10.961 2.93268 10.6833C3.11046 10.4055 3.34935 10.1888 3.64935 10.0333C4.3049 9.71103 4.9689 9.46925 5.64135 9.30792C6.31335 9.14703 6.98824 9.06659 7.66602 9.06659C8.34379 9.06659 9.0189 9.14703 9.69135 9.30792C10.3633 9.46925 11.0271 9.71103 11.6827 10.0333C11.9827 10.1888 12.2216 10.4055 12.3993 10.6833C12.5771 10.961 12.666 11.261 12.666 11.5833V13.0666H2.66602ZM3.66602 12.0666H11.666V11.5833C11.666 11.4499 11.6271 11.3277 11.5493 11.2166C11.4716 11.1055 11.366 11.011 11.2327 10.9333C10.6549 10.6555 10.0689 10.4415 9.47468 10.2913C8.88002 10.1415 8.27713 10.0666 7.66602 10.0666C7.0549 10.0666 6.45202 10.1415 5.85735 10.2913C5.26313 10.4415 4.67713 10.6555 4.09935 10.9333C3.96602 11.011 3.86046 11.1055 3.78268 11.2166C3.7049 11.3277 3.66602 11.4499 3.66602 11.5833V12.0666ZM7.66602 6.99992C8.03268 6.99992 8.34668 6.86925 8.60802 6.60792C8.8689 6.34703 8.99935 6.03325 8.99935 5.66659C8.99935 5.29992 8.8689 4.98592 8.60802 4.72459C8.34668 4.4637 8.03268 4.33325 7.66602 4.33325C7.29935 4.33325 6.98557 4.4637 6.72468 4.72459C6.46335 4.98592 6.33268 5.29992 6.33268 5.66659C6.33268 6.03325 6.46335 6.34703 6.72468 6.60792C6.98557 6.86925 7.29935 6.99992 7.66602 6.99992Z" fill="#333333"/>
</g>
</svg>
