<svg width="16" height="16" viewBox="0 0 16 16" fill="none" xmlns="http://www.w3.org/2000/svg">
<mask id="mask0_3882_53928" style="mask-type:alpha" maskUnits="userSpaceOnUse" x="0" y="0" width="16" height="16">
<rect width="16" height="16" fill="#D9D9D9"/>
</mask>
<g mask="url(#mask0_3882_53928)">
<path d="M7.9974 13.5503L7.26406 12.8837C6.15295 11.8837 5.23628 11.0226 4.51406 10.3003C3.79184 9.57812 3.21962 8.93634 2.7974 8.37501C2.37517 7.81412 2.08073 7.30301 1.91406 6.84168C1.7474 6.38079 1.66406 5.91145 1.66406 5.43367C1.66406 4.48923 1.98362 3.69745 2.62273 3.05834C3.2614 2.41967 4.05295 2.10034 4.9974 2.10034C5.57517 2.10034 6.12517 2.23634 6.6474 2.50834C7.16962 2.78079 7.61962 3.17256 7.9974 3.68368C8.37517 3.17256 8.82517 2.78079 9.34739 2.50834C9.86962 2.23634 10.4196 2.10034 10.9974 2.10034C11.9418 2.10034 12.7334 2.41967 13.3721 3.05834C14.0112 3.69745 14.3307 4.48923 14.3307 5.43367C14.3307 5.91145 14.2474 6.38079 14.0807 6.84168C13.9141 7.30301 13.6196 7.81412 13.1974 8.37501C12.7752 8.93634 12.203 9.57812 11.4807 10.3003C10.7585 11.0226 9.84184 11.8837 8.73073 12.8837L7.9974 13.5503ZM7.9974 12.2003C9.06406 11.2448 9.94184 10.4226 10.6307 9.73368C11.3196 9.04479 11.8641 8.44745 12.2641 7.94167C12.6641 7.43634 12.9418 6.98923 13.0974 6.60034C13.253 6.21145 13.3307 5.82256 13.3307 5.43367C13.3307 4.76701 13.1085 4.21145 12.6641 3.76701C12.2196 3.32256 11.6641 3.10034 10.9974 3.10034C10.4752 3.10034 9.98895 3.25034 9.53873 3.55034C9.08895 3.85034 8.73628 4.26701 8.48073 4.80034H7.51406C7.2474 4.2559 6.89184 3.83634 6.4474 3.54167C6.00295 3.24745 5.51962 3.10034 4.9974 3.10034C4.33073 3.10034 3.77517 3.32256 3.33073 3.76701C2.88628 4.21145 2.66406 4.76701 2.66406 5.43367C2.66406 5.82256 2.74184 6.21145 2.8974 6.60034C3.05295 6.98923 3.33073 7.43634 3.73073 7.94167C4.13073 8.44745 4.67517 9.0419 5.36406 9.72501C6.05295 10.4086 6.93073 11.2337 7.9974 12.2003Z" fill="#333333"/>
</g>
</svg>
