<svg width="40" height="40" viewBox="0 0 40 40" fill="none" xmlns="http://www.w3.org/2000/svg">
<circle cx="19.9997" cy="19.9997" r="19.4997" fill="white" stroke="#DADCDE"/>
<path d="M7.09989 31.2495C9.19986 29.7829 11.2832 28.6579 13.3498 27.8746C15.4164 27.0913 17.6331 26.6996 19.9997 26.6996C22.3663 26.6996 24.5913 27.0913 26.6746 27.8746C28.7579 28.6579 30.8495 29.7829 32.9495 31.2495C34.4161 29.4496 35.4578 27.6329 36.0745 25.7996C36.6911 23.9663 36.9994 22.033 36.9994 19.9997C36.9994 15.1664 35.3745 11.1248 32.1245 7.87488C28.8746 4.62493 24.833 2.99995 19.9997 2.99995C15.1664 2.99995 11.1248 4.62493 7.87488 7.87488C4.62493 11.1248 2.99995 15.1664 2.99995 19.9997C2.99995 22.033 3.31662 23.9663 3.94994 25.7996C4.58326 27.6329 5.63325 29.4496 7.09989 31.2495ZM19.9997 21.4997C18.0664 21.4997 16.4414 20.8413 15.1248 19.5247C13.8081 18.2081 13.1498 16.5831 13.1498 14.6498C13.1498 12.7165 13.8081 11.0915 15.1248 9.77485C16.4414 8.4582 18.0664 7.79988 19.9997 7.79988C21.933 7.79988 23.558 8.4582 24.8746 9.77485C26.1913 11.0915 26.8496 12.7165 26.8496 14.6498C26.8496 16.5831 26.1913 18.2081 24.8746 19.5247C23.558 20.8413 21.933 21.4997 19.9997 21.4997ZM19.9997 39.9994C17.2664 39.9994 14.6831 39.4744 12.2498 38.4244C9.81652 37.3744 7.69155 35.9411 5.87491 34.1245C4.05827 32.3078 2.62496 30.1829 1.57498 27.7496C0.524992 25.3163 0 22.733 0 19.9997C0 17.2331 0.524992 14.6414 1.57498 12.2248C2.62496 9.80818 4.05827 7.69155 5.87491 5.87491C7.69155 4.05827 9.81652 2.62496 12.2498 1.57498C14.6831 0.524992 17.2664 0 19.9997 0C22.7663 0 25.3579 0.524992 27.7746 1.57498C30.1912 2.62496 32.3078 4.05827 34.1245 5.87491C35.9411 7.69155 37.3744 9.80818 38.4244 12.2248C39.4744 14.6414 39.9994 17.2331 39.9994 19.9997C39.9994 22.733 39.4744 25.3163 38.4244 27.7496C37.3744 30.1829 35.9411 32.3078 34.1245 34.1245C32.3078 35.9411 30.1912 37.3744 27.7746 38.4244C25.3579 39.4744 22.7663 39.9994 19.9997 39.9994ZM19.9997 36.9994C21.833 36.9994 23.6246 36.7328 25.3746 36.1994C27.1246 35.6661 28.8496 34.7328 30.5495 33.3995C28.8496 32.1995 27.1163 31.2829 25.3496 30.6495C23.583 30.0162 21.7997 29.6995 19.9997 29.6995C18.1997 29.6995 16.4164 30.0162 14.6498 30.6495C12.8831 31.2829 11.1498 32.1995 9.44986 33.3995C11.1498 34.7328 12.8748 35.6661 14.6248 36.1994C16.3748 36.7328 18.1664 36.9994 19.9997 36.9994ZM19.9997 18.4997C21.133 18.4997 22.058 18.1414 22.7747 17.4247C23.4913 16.7081 23.8496 15.7831 23.8496 14.6498C23.8496 13.5165 23.4913 12.5915 22.7747 11.8748C22.058 11.1582 21.133 10.7998 19.9997 10.7998C18.8664 10.7998 17.9414 11.1582 17.2247 11.8748C16.5081 12.5915 16.1498 13.5165 16.1498 14.6498C16.1498 15.7831 16.5081 16.7081 17.2247 17.4247C17.9414 18.1414 18.8664 18.4997 19.9997 18.4997Z" fill="#DADCDE"/>
</svg>
