<svg width="24" height="25" viewBox="0 0 24 25" fill="none" xmlns="http://www.w3.org/2000/svg">
<rect width="24" height="24" transform="translate(0 0.924805)" fill="white"/>
<mask id="mask0_13511_394112" style="mask-type:alpha" maskUnits="userSpaceOnUse" x="0" y="0" width="24" height="25">
<rect y="0.924805" width="24" height="24" fill="#D9D9D9"/>
</mask>
<g mask="url(#mask0_13511_394112)">
<path d="M12 12.9248C12.55 12.9248 13.0208 12.729 13.4125 12.3373C13.8042 11.9456 14 11.4748 14 10.9248C14 10.3748 13.8042 9.90397 13.4125 9.5123C13.0208 9.12064 12.55 8.9248 12 8.9248C11.45 8.9248 10.9792 9.12064 10.5875 9.5123C10.1958 9.90397 10 10.3748 10 10.9248C10 11.4748 10.1958 11.9456 10.5875 12.3373C10.9792 12.729 11.45 12.9248 12 12.9248ZM12 22.9248C9.31667 20.6415 7.3125 18.5206 5.9875 16.5623C4.6625 14.604 4 12.7915 4 11.1248C4 8.6248 4.80417 6.63314 6.4125 5.1498C8.02083 3.66647 9.88333 2.9248 12 2.9248C14.1167 2.9248 15.9792 3.66647 17.5875 5.1498C19.1958 6.63314 20 8.6248 20 11.1248C20 12.7915 19.3375 14.604 18.0125 16.5623C16.6875 18.5206 14.6833 20.6415 12 22.9248Z" fill="#0871E1"/>
</g>
</svg>
