<svg width="16" height="16" viewBox="0 0 16 16" fill="none" xmlns="http://www.w3.org/2000/svg">
<mask id="mask0_15569_164050" style="mask-type:alpha" maskUnits="userSpaceOnUse" x="0" y="0" width="16" height="16">
<rect width="16" height="16" fill="#D9D9D9"/>
</mask>
<g mask="url(#mask0_15569_164050)">
<path d="M3.53398 13.6654C3.20065 13.6654 2.91732 13.5487 2.68398 13.3154C2.45065 13.082 2.33398 12.7987 2.33398 12.4654V3.53203C2.33398 3.1987 2.45065 2.91536 2.68398 2.68203C2.91732 2.4487 3.20065 2.33203 3.53398 2.33203H7.75065V3.33203H3.53398C3.48954 3.33203 3.4451 3.35425 3.40065 3.3987C3.35621 3.44314 3.33398 3.48759 3.33398 3.53203V12.4654C3.33398 12.5098 3.35621 12.5543 3.40065 12.5987C3.4451 12.6431 3.48954 12.6654 3.53398 12.6654H12.4673C12.5118 12.6654 12.5562 12.6431 12.6007 12.5987C12.6451 12.5543 12.6673 12.5098 12.6673 12.4654V8.2487H13.6673V12.4654C13.6673 12.7987 13.5507 13.082 13.3173 13.3154C13.084 13.5487 12.8007 13.6654 12.4673 13.6654H3.53398ZM6.48398 10.2154L5.78398 9.51536L11.9673 3.33203H9.33398V2.33203H13.6673V6.66536H12.6673V4.03203L6.48398 10.2154Z" fill="#0871E1"/>
</g>
</svg>
