<svg width="60" height="60" viewBox="0 0 60 60" fill="none" xmlns="http://www.w3.org/2000/svg">
<circle cx="30" cy="30" r="30" fill="white"/>
<mask id="mask0_1289_3398" style="mask-type:alpha" maskUnits="userSpaceOnUse" x="0" y="0" width="60" height="60">
<circle cx="30" cy="30" r="30" fill="white"/>
</mask>
<g mask="url(#mask0_1289_3398)">
<path d="M-14.0671 3.4089C-24.4532 9.59861 -32.4672 19.7866 -35.0725 31.9678C-37.2576 42.396 -35.5514 53.2633 -30.2757 62.5201C-21.9762 76.9511 -6.06474 85.2857 9.87582 88.2523C19.518 90.0383 29.3535 90.5459 39.1283 89.7618C53.5477 88.6311 67.833 84.4405 70.7472 68.2377C71.8313 62.2112 71.0269 55.9982 69.3251 50.094C62.739 27.3634 41.349 3.23405 17.6217 -2.02896C6.61194 -4.47687 -4.69508 -2.16301 -14.0671 3.4089Z" fill="#EDF3FF"/>
<mask id="mask1_1289_3398" style="mask-type:luminance" maskUnits="userSpaceOnUse" x="-36" y="-3" width="108" height="94">
<path d="M-14.0671 3.4089C-24.4532 9.59861 -32.4672 19.7866 -35.0725 31.9678C-37.2576 42.396 -35.5514 53.2633 -30.2757 62.5201C-21.9762 76.9511 -6.06474 85.2857 9.87582 88.2523C19.518 90.0383 29.3535 90.5459 39.1283 89.7618C53.5477 88.6311 67.833 84.4405 70.7472 68.2377C71.8313 62.2112 71.0269 55.9982 69.3251 50.094C62.739 27.3634 41.349 3.23405 17.6217 -2.02896C6.61194 -4.47687 -4.69508 -2.16301 -14.0671 3.4089Z" fill="white"/>
</mask>
<g mask="url(#mask1_1289_3398)">
<path d="M-18.85 79.254C-24.317 75.2091 -27.4585 68.6231 -28.7057 61.9379C-29.953 55.2528 -29.5159 48.387 -29.0729 41.6028C-21.3419 48.0392 -16.4774 57.2778 -15.5453 67.2942C-16.7984 58.4351 -17.5969 49.8091 -13.214 42.0166C-10.3581 37.01 -5.41563 33.2508 -3.36405 27.8887C-0.834539 34.9526 1.43852 42.0982 2.86647 49.4536C4.29441 56.809 4.4343 64.6073 1.99221 71.6888C4.50288 63.3714 9.95591 56.2526 17.3325 51.6625C16.7496 58.3885 18.3816 65.5399 16.1085 71.8986C15.0815 74.5993 13.535 77.0725 11.5565 79.1782C16.3533 75.3541 22.008 72.7537 28.0333 71.6014C34.1123 70.3424 40.3486 70.0627 46.55 69.7829C39.4161 79.5221 28.9542 86.6269 17.0993 88.9174C5.24444 91.208 -9.13995 86.4287 -18.85 79.254Z" fill="#C4D4F6"/>
<mask id="mask2_1289_3398" style="mask-type:luminance" maskUnits="userSpaceOnUse" x="-30" y="27" width="77" height="63">
<path d="M-18.85 79.2481C-24.317 75.2032 -27.4585 68.6172 -28.7057 61.9321C-29.953 55.2469 -29.5159 48.3811 -29.0729 41.5969C-21.3419 48.0334 -16.4774 57.2719 -15.5453 67.2883C-16.7984 58.4292 -17.5969 49.8033 -13.214 42.0107C-10.3581 37.0042 -5.41563 33.2449 -3.36405 27.8828C-0.834539 34.9468 1.43852 42.0923 2.86647 49.4477C4.29441 56.8031 4.4343 64.6015 1.99221 71.6829C4.50288 63.3655 9.95591 56.2468 17.3325 51.6567C16.7496 58.3826 18.3816 65.534 16.1085 71.8927C15.0815 74.5934 13.535 77.0666 11.5565 79.1724C16.3533 75.3482 22.008 72.7479 28.0333 71.5955C34.1123 70.3366 40.3486 70.0568 46.55 69.777C39.4161 79.5162 28.9542 86.621 17.0993 88.9115C5.24444 91.2021 -9.13995 86.4228 -18.85 79.2481Z" fill="white"/>
</mask>
<g mask="url(#mask2_1289_3398)">
</g>
</g>
<path d="M29.4744 15.2518C29.1903 16.2532 29.0974 17.2992 29.2005 18.335C29.3022 19.3731 29.0868 20.4176 28.5827 21.3308C28.3095 21.7034 27.9969 22.0453 27.6502 22.3507C26.2047 23.7495 24.94 25.4456 24.5553 27.4214C24.1706 29.3972 24.8759 31.6703 26.6069 32.6669C27.2847 33.037 28.0299 33.2669 28.7983 33.343C31.008 33.5606 33.2384 33.29 35.3319 32.5504C36.7042 32.1427 38.0027 31.5191 39.1786 30.7028C40.3504 29.8927 41.2407 28.7376 41.7256 27.3981C41.9388 26.6774 42.066 25.9339 42.1045 25.1833C42.2228 23.6317 42.2326 22.0736 42.1336 20.5206C42.1074 19.4757 41.9106 18.4421 41.5508 17.4607C41.1845 16.4727 40.446 15.6673 39.4934 15.2168C38.7881 14.9196 37.9955 14.8904 37.2903 14.634C36.6564 14.3281 36.0679 13.9358 35.5418 13.4683C35.0054 13.0064 34.3657 12.6806 33.6767 12.5183C32.6625 12.3493 32.1671 12.9787 31.4153 13.4683C30.6634 13.9579 29.8533 14.2493 29.4744 15.2518Z" fill="#122A50"/>
<path d="M63.536 57.3574C63.536 57.3574 65.4011 84.3369 63.536 85.2053C61.6709 86.0737 55.9883 86.371 55.9883 86.371C55.9883 86.371 60.1614 60.6796 63.536 57.3574Z" fill="#102038"/>
<path d="M58.4897 86.9727C58.0642 90.2832 47.1827 87.0368 41.8031 86.6871C37.5076 86.4074 41.2727 47.4623 41.2727 47.4623L59.1308 41.2959C64.3239 44.0993 63.1291 55.2432 63.5371 57.388C63.5371 57.3647 61.6953 62.1031 58.4897 86.9727Z" fill="#122A50"/>
<path d="M38.4921 19.2617C38.4921 19.2617 32.4539 22.1176 33.4214 29.0592C34.3889 36.0008 38.3114 51.0263 40.7768 50.7756C43.8949 50.4609 61.992 43.8166 61.2401 41.2754C60.4883 38.7343 48.5343 22.0418 45.8008 20.9578C43.0673 19.8737 38.4921 19.2617 38.4921 19.2617Z" fill="#446DBF"/>
<mask id="mask3_1289_3398" style="mask-type:luminance" maskUnits="userSpaceOnUse" x="33" y="19" width="29" height="32">
<path d="M38.4921 19.2676C38.4921 19.2676 32.4539 22.1235 33.4214 29.065C34.3889 36.0066 38.3114 51.0321 40.7768 50.7815C43.8949 50.4668 61.992 43.8224 61.2401 41.2813C60.4883 38.7401 48.5343 22.0477 45.8008 20.9636C43.0673 19.8796 38.4921 19.2676 38.4921 19.2676Z" fill="white"/>
</mask>
<g mask="url(#mask3_1289_3398)">
<path d="M41.4003 19.4042C41.4003 19.4042 38.9058 23.3792 37.1398 23.8221C35.3738 24.2651 33.3164 23.1868 33.3164 23.1868C33.3164 23.1868 35.3563 20.1444 36.184 19.4684C37.0116 18.7923 40.765 19.1128 41.4003 19.4042Z" fill="#ED784D"/>
</g>
<path d="M35.7762 15.3777C35.1117 14.2121 34.1092 13.3786 33.5147 13.4835C32.2617 13.6992 30.688 14.9464 31.1834 15.9781C31.1834 15.9781 33.4273 21.3052 35.5605 19.51C36.2016 20.4367 36.8427 21.3052 36.936 21.5092C37.1283 21.9288 38.9526 20.6058 39.1974 20.1162C39.3722 19.784 37.1691 17.0505 35.7762 15.3777Z" fill="#ED784D"/>
<path d="M35.5742 19.507C36.0703 19.0889 36.3976 18.5048 36.4951 17.8634C36.6466 16.8026 37.3111 19.2098 36.0172 20.1423L35.5742 19.507Z" fill="#D24A0E"/>
<path d="M45.8008 20.959C45.8008 20.959 55.8081 26.4551 55.9887 27.953C56.1694 29.4509 51.326 33.0179 50.207 32.8547C49.088 32.6915 43.8424 27.5159 44.2446 24.9747C44.4517 23.5353 44.9839 22.162 45.8008 20.959Z" fill="#446DBF"/>
<path d="M54.2007 30.4769C54.2007 30.4769 50.8902 32.8082 49.7245 32.6217C48.5588 32.4352 44.3741 28.0698 44.6713 28.7692C44.9686 29.4686 49.8586 37.2494 52.3531 37.3485C54.4963 37.3557 56.6378 37.2253 58.7643 36.958C58.7643 36.958 54.9467 31.2346 54.2007 30.4769Z" fill="#294783"/>
<path d="M31.0195 14.9191C31.3605 15.1781 31.7615 15.3465 32.1852 15.4086C32.9633 15.5721 33.7635 15.6016 34.5515 15.4961C34.4824 15.4041 34.4493 15.2901 34.4583 15.1755C34.4513 15.1068 34.4655 15.0377 34.4991 14.9773C34.5302 14.9405 34.5704 14.9124 34.6156 14.8957C34.7181 14.8582 34.8299 14.8544 34.9347 14.8848C35.0395 14.9152 35.1319 14.9782 35.1985 15.0648C35.2489 15.1424 35.2881 15.2268 35.315 15.3154C35.4085 15.555 35.4248 15.8179 35.3617 16.0672C35.6992 16.189 36.0462 16.2825 36.3991 16.347C36.7504 16.4201 37.1141 16.4081 37.4599 16.312C36.745 15.3259 35.8933 14.4467 34.9304 13.7009C34.7451 13.5436 34.5341 13.4194 34.3067 13.3337C34.1174 13.2761 33.9216 13.2428 33.7239 13.2347C33.2247 13.1784 32.7211 13.2934 32.2959 13.561C31.9905 13.7091 31.7013 13.8889 31.4333 14.0973C31.2154 14.323 31.0711 14.6096 31.0195 14.9191Z" fill="#122A50"/>
<path d="M31.2424 17.4859C30.9838 17.1994 30.7643 16.8799 30.5896 16.5358C30.415 16.1863 30.3857 15.782 30.508 15.411C30.5689 15.2538 30.6717 15.1163 30.8053 15.0135C30.9389 14.9108 31.0981 14.8466 31.2657 14.8281C31.5921 14.8281 31.6678 15.2245 31.7203 15.4867C31.796 15.8402 31.796 16.2057 31.7203 16.5591C31.589 16.8817 31.429 17.1919 31.2424 17.4859Z" fill="#122A50"/>
<path d="M27.7289 50.2846C27.7289 50.2846 2.81268 39.3623 11.5552 25.6132C20.2978 11.8641 27.1053 26.6156 27.1053 26.6156C27.1053 26.6156 31.768 13.6126 41.9151 24.1386C54.0614 36.7512 27.7289 50.2846 27.7289 50.2846Z" fill="#FEBD69"/>
<mask id="mask4_1289_3398" style="mask-type:luminance" maskUnits="userSpaceOnUse" x="9" y="19" width="37" height="32">
<path d="M27.7289 50.2885C27.7289 50.2885 2.81268 39.3662 11.5552 25.6171C20.2978 11.868 27.1053 26.6196 27.1053 26.6196C27.1053 26.6196 31.768 13.6165 41.9151 24.1425C54.0614 36.7551 27.7289 50.2885 27.7289 50.2885Z" fill="white"/>
</mask>
<g mask="url(#mask4_1289_3398)">
<path opacity="0.65" d="M10.6921 27.1895C10.6921 27.1895 15.7045 43.2291 28.6551 45.8985C28.6551 45.8985 39.2685 43.5147 43.3658 37.0044C43.3658 37.0044 35.3635 51.3771 27.4078 52.7759C27.4078 52.7759 9.92273 43.9926 9.00768 36.7305C8.09263 29.4683 10.6921 27.1895 10.6921 27.1895Z" fill="#E9A854"/>
</g>
<path d="M58.1132 34.3702C58.291 33.3007 58.1671 32.2029 57.7552 31.2001C57.3434 30.1972 56.66 29.3291 55.7819 28.6934C55.7819 28.6934 53.0426 31.6075 50.6937 32.4701C50.6937 32.4701 41.8929 38.9921 38.6174 41.6789C38.6174 41.6789 34.5375 43.3866 34.8289 43.7363C35.1204 44.0861 36.3443 43.9112 36.3443 43.9112C36.3443 43.9112 32.5442 47.0177 32.9755 47.111C33.4068 47.2042 35.7965 47.3033 36.6241 46.9011C37.69 46.2018 38.7012 45.4224 39.649 44.5698C43.1577 43.1127 57.7752 36.2935 58.1132 34.3702Z" fill="#ED784D"/>
<mask id="mask5_1289_3398" style="mask-type:luminance" maskUnits="userSpaceOnUse" x="32" y="28" width="27" height="20">
<path d="M58.1132 34.3721C58.291 33.3027 58.1671 32.2049 57.7552 31.202C57.3434 30.1992 56.66 29.3311 55.7819 28.6953C55.7819 28.6953 53.0426 31.6095 50.6937 32.4721C50.6937 32.4721 41.8929 38.994 38.6174 41.6809C38.6174 41.6809 34.5375 43.3886 34.8289 43.7383C35.1204 44.088 36.3443 43.9131 36.3443 43.9131C36.3443 43.9131 32.5442 47.0197 32.9755 47.1129C33.4068 47.2062 35.7965 47.3053 36.6241 46.9031C37.69 46.2037 38.7012 45.4244 39.649 44.5718C43.1577 43.1147 57.7752 36.2955 58.1132 34.3721Z" fill="white"/>
</mask>
<g mask="url(#mask5_1289_3398)">
<path d="M53.3604 30.1133C53.3604 30.1133 54.6426 32.159 52.1947 34.3622C49.7468 36.5653 39.7628 41.5777 39.7628 41.5777C39.7628 41.5777 35.1584 43.4369 34.832 43.74C34.8487 43.5597 34.9016 43.3846 34.9878 43.2253C35.0739 43.066 35.1915 42.9259 35.3333 42.8133C36.2908 42.2994 37.2842 41.8553 38.3057 41.4844C38.3057 41.4844 49.3038 31.209 49.9216 30.9176C51.0512 30.5824 52.1994 30.3138 53.3604 30.1133Z" fill="#D24A0E"/>
</g>
<path d="M15.6914 42.5102C16.2705 42.4904 16.847 42.5957 17.3816 42.8191C17.9645 43.1571 20.1559 45.5176 19.3749 45.5176C18.5939 45.5176 16.1752 43.6234 15.6914 42.5102Z" fill="#ED784D"/>
<path d="M14.9912 12.8886C14.8164 12.3524 13.9654 12.5856 14.1461 13.1276C14.6357 14.6469 15.1292 16.1681 15.6265 17.6912C15.8014 18.2332 16.6523 18.0001 16.4775 17.4581L14.9912 12.8886Z" fill="white"/>
<path d="M7.99887 25.2358C7.99446 25.1203 7.9462 25.0108 7.86391 24.9295C7.78162 24.8483 7.67148 24.8015 7.55591 24.7987L2.71838 24.2158C2.60291 24.2173 2.4926 24.2639 2.41095 24.3455C2.3293 24.4272 2.28276 24.5375 2.28125 24.6529C2.28413 24.7685 2.33093 24.8787 2.41214 24.9609C2.49334 25.0432 2.60285 25.0915 2.71838 25.0959L7.55591 25.6787C7.67339 25.6787 7.78606 25.6321 7.86913 25.549C7.9522 25.4659 7.99887 25.3533 7.99887 25.2358Z" fill="white"/>
<path d="M10.2362 39.8121C8.98046 40.5344 7.76982 41.3324 6.61101 42.2018C6.51594 42.261 6.44686 42.3541 6.41766 42.4622C6.38846 42.5704 6.40132 42.6856 6.45364 42.7846C6.51191 42.8807 6.60499 42.9508 6.71353 42.9801C6.82207 43.0094 6.93773 42.9957 7.03648 42.942C8.19621 42.0739 9.40678 41.276 10.6617 40.5523C10.7354 40.4853 10.7839 40.3951 10.7993 40.2967C10.8147 40.1983 10.796 40.0976 10.7464 40.0113C10.6968 39.9249 10.6191 39.8581 10.5264 39.8219C10.4336 39.7857 10.3312 39.7823 10.2362 39.8121Z" fill="white"/>
<path d="M7.84301 33.8697C7.84147 33.7533 7.79413 33.6421 7.71122 33.5603C7.62832 33.4785 7.51653 33.4326 7.40005 33.4326L4.48587 33.7007C4.42383 33.6936 4.36098 33.6996 4.30144 33.7185C4.2419 33.7373 4.18703 33.7685 4.14041 33.8101C4.09379 33.8517 4.05648 33.9026 4.03094 33.9596C4.0054 34.0166 3.99219 34.0783 3.99219 34.1408C3.99219 34.2032 4.0054 34.265 4.03094 34.3219C4.05648 34.3789 4.09379 34.4299 4.14041 34.4714C4.18703 34.513 4.2419 34.5442 4.30144 34.5631C4.36098 34.5819 4.42383 34.588 4.48587 34.5808L7.40005 34.3127C7.51706 34.3112 7.62885 34.264 7.7116 34.1813C7.79434 34.0985 7.8415 33.9868 7.84301 33.8697Z" fill="white"/>
<path d="M11.6462 20.349C11.4364 20.2149 11.2324 20.0692 11.0342 19.9177L10.976 19.8769L10.7953 19.7312C10.702 19.6554 10.6029 19.5738 10.5097 19.4864C10.1319 19.1557 9.77923 18.7972 9.45476 18.414C9.3728 18.3321 9.2617 18.2861 9.14586 18.2861C9.03002 18.2861 8.91892 18.3321 8.83696 18.414C8.75612 18.4976 8.71094 18.6094 8.71094 18.7258C8.71094 18.8421 8.75612 18.9539 8.83696 19.0376C9.5067 19.8395 10.2925 20.5369 11.1683 21.1067C11.267 21.1604 11.3827 21.1741 11.4912 21.1448C11.5998 21.1155 11.6929 21.0455 11.7511 20.9493C11.8124 20.8544 11.8356 20.7399 11.8162 20.6286C11.7968 20.5173 11.7361 20.4175 11.6462 20.349Z" fill="white"/>
<path d="M24.4837 14.1813C24.3844 14.1304 24.2696 14.1183 24.1619 14.1474C24.0541 14.1764 23.961 14.2447 23.9009 14.3387C23.4424 15.345 23.0052 16.3611 22.5895 17.3869C22.5591 17.4997 22.5745 17.62 22.6323 17.7215C22.6902 17.8231 22.7858 17.8976 22.8984 17.9289C23.0103 17.9566 23.1286 17.9407 23.2292 17.8844C23.3299 17.8281 23.4054 17.7357 23.4404 17.6259C23.8251 16.6642 24.2331 15.72 24.6644 14.7816C24.7171 14.6775 24.7277 14.5571 24.6941 14.4454C24.6604 14.3336 24.5851 14.2391 24.4837 14.1813Z" fill="white"/>
<path d="M14.5498 44.7899C14.4502 44.7403 14.3359 44.7289 14.2285 44.7579C14.1211 44.7869 14.028 44.8543 13.967 44.9473L12.37 47.471C12.3326 47.5208 12.3061 47.5778 12.2923 47.6385C12.2785 47.6992 12.2776 47.7622 12.2897 47.8232C12.3019 47.8843 12.3267 47.9421 12.3627 47.9929C12.3986 48.0437 12.4449 48.0863 12.4985 48.1181C12.552 48.1498 12.6117 48.1699 12.6735 48.177C12.7353 48.1841 12.798 48.1781 12.8574 48.1594C12.9167 48.1407 12.9715 48.1097 13.0181 48.0684C13.0646 48.0271 13.102 47.9765 13.1277 47.9198L14.7013 45.3728C14.7528 45.2741 14.7658 45.1599 14.7378 45.0522C14.7098 44.9445 14.6428 44.851 14.5498 44.7899Z" fill="white"/>
</g>
</svg>
