<svg width="24" height="24" viewBox="0 0 24 24" fill="none" xmlns="http://www.w3.org/2000/svg">
<mask id="mask0_371_72045" style="mask-type:alpha" maskUnits="userSpaceOnUse" x="0" y="0" width="24" height="24">
<rect width="24" height="24" fill="#D9D9D9"/>
</mask>
<g mask="url(#mask0_371_72045)">
<path d="M12.275 21.9C10.8083 21.9 9.56267 21.3873 8.538 20.362C7.51267 19.3373 7 18.1 7 16.65V5.825C7 4.775 7.375 3.875 8.125 3.125C8.875 2.375 9.775 2 10.825 2C11.875 2 12.775 2.375 13.525 3.125C14.275 3.875 14.65 4.775 14.65 5.825V15.575C14.65 16.2417 14.421 16.8083 13.963 17.275C13.5043 17.7417 12.9417 17.975 12.275 17.975C11.6083 17.975 11.0457 17.7417 10.587 17.275C10.129 16.8083 9.9 16.2417 9.9 15.575V5.825H11.075V15.575C11.075 15.925 11.1917 16.2127 11.425 16.438C11.6583 16.6627 11.9417 16.775 12.275 16.775C12.6083 16.775 12.8917 16.6627 13.125 16.438C13.3583 16.2127 13.475 15.925 13.475 15.575V5.825C13.475 5.09167 13.221 4.47067 12.713 3.962C12.2043 3.454 11.575 3.2 10.825 3.2C10.0917 3.2 9.471 3.454 8.963 3.962C8.45433 4.47067 8.2 5.09167 8.2 5.825V16.65C8.2 17.7667 8.596 18.725 9.388 19.525C10.1793 20.325 11.1417 20.725 12.275 20.725C13.4083 20.725 14.371 20.325 15.163 19.525C15.9543 18.725 16.35 17.7667 16.35 16.65V5.825H17.55V16.65C17.55 18.1 17.0377 19.3373 16.013 20.362C14.9877 21.3873 13.7417 21.9 12.275 21.9Z" fill="#A3A8AD"/>
</g>
</svg>
