<svg width="15" height="10" viewBox="0 0 15 10" fill="none" xmlns="http://www.w3.org/2000/svg">
<path d="M7.2987 7.71683C8.05425 7.71683 8.69581 7.45283 9.22336 6.92483C9.75136 6.39727 10.0154 5.75572 10.0154 5.00016C10.0154 4.24461 9.75136 3.60305 9.22336 3.0755C8.69581 2.5475 8.05425 2.2835 7.2987 2.2835C6.54314 2.2835 5.90159 2.5475 5.37403 3.0755C4.84603 3.60305 4.58203 4.24461 4.58203 5.00016C4.58203 5.75572 4.84603 6.39727 5.37403 6.92483C5.90159 7.45283 6.54314 7.71683 7.2987 7.71683ZM7.2987 6.80016C6.7987 6.80016 6.37381 6.62505 6.02403 6.27483C5.67381 5.92505 5.4987 5.50016 5.4987 5.00016C5.4987 4.50016 5.67381 4.07505 6.02403 3.72483C6.37381 3.37505 6.7987 3.20016 7.2987 3.20016C7.7987 3.20016 8.22381 3.37505 8.57403 3.72483C8.92381 4.07505 9.0987 4.50016 9.0987 5.00016C9.0987 5.50016 8.92381 5.92505 8.57403 6.27483C8.22381 6.62505 7.7987 6.80016 7.2987 6.80016ZM7.2987 9.66683C5.76536 9.66683 4.36825 9.24461 3.10736 8.40016C1.84603 7.55572 0.92092 6.42239 0.332031 5.00016C0.92092 3.57794 1.84603 2.44461 3.10736 1.60016C4.36825 0.755718 5.76536 0.333496 7.2987 0.333496C8.83203 0.333496 10.2294 0.755718 11.4907 1.60016C12.7516 2.44461 13.6765 3.57794 14.2654 5.00016C13.6765 6.42239 12.7516 7.55572 11.4907 8.40016C10.2294 9.24461 8.83203 9.66683 7.2987 9.66683ZM7.2987 8.66683C8.55425 8.66683 9.70714 8.33616 10.7574 7.67483C11.8071 7.01394 12.6098 6.12239 13.1654 5.00016C12.6098 3.87794 11.8071 2.98616 10.7574 2.32483C9.70714 1.66394 8.55425 1.3335 7.2987 1.3335C6.04314 1.3335 4.89025 1.66394 3.84003 2.32483C2.79025 2.98616 1.98759 3.87794 1.43203 5.00016C1.98759 6.12239 2.79025 7.01394 3.84003 7.67483C4.89025 8.33616 6.04314 8.66683 7.2987 8.66683Z" fill="#333333"/>
</svg>
