<svg width="24" height="24" viewBox="0 0 24 24" fill="none" xmlns="http://www.w3.org/2000/svg">
<mask id="mask0_371_76113" style="mask-type:alpha" maskUnits="userSpaceOnUse" x="0" y="0" width="24" height="24">
<rect width="24" height="24" fill="#D9D9D9"/>
</mask>
<g mask="url(#mask0_371_76113)">
<path d="M20.2 21.7L16.175 17.675C15.6583 17.875 15.0877 18.0333 14.463 18.15C13.8377 18.2667 13.1667 18.325 12.45 18.325C10.1 18.325 7.98733 17.679 6.112 16.387C4.23733 15.0957 2.86667 13.4083 2 11.325C2.36667 10.4417 2.84167 9.61667 3.425 8.85C4.00833 8.08333 4.65 7.425 5.35 6.875L2.575 4.075L3.625 3L21.275 20.65L20.2 21.7ZM12.45 15.4C12.6667 15.4 12.8833 15.3833 13.1 15.35C13.3167 15.3167 13.5083 15.2667 13.675 15.2L8.575 10.1C8.50833 10.2833 8.45833 10.4833 8.425 10.7C8.39167 10.9167 8.375 11.125 8.375 11.325C8.375 12.4583 8.771 13.4207 9.563 14.212C10.3543 15.004 11.3167 15.4 12.45 15.4ZM19.4 15.9L16.275 12.8C16.3417 12.5833 16.4 12.354 16.45 12.112C16.5 11.8707 16.525 11.6083 16.525 11.325C16.525 10.1917 16.129 9.22933 15.337 8.438C14.5457 7.646 13.5833 7.25 12.45 7.25C12.1667 7.25 11.9083 7.275 11.675 7.325C11.4417 7.375 11.2083 7.45 10.975 7.55L8.475 5.05C9.10833 4.8 9.75433 4.61667 10.413 4.5C11.071 4.38333 11.75 4.325 12.45 4.325C14.8 4.325 16.9167 4.971 18.8 6.263C20.6833 7.55433 22.05 9.24167 22.9 11.325C22.5333 12.225 22.0583 13.0623 21.475 13.837C20.8917 14.6123 20.2 15.3 19.4 15.9ZM15.125 11.675L12.125 8.675C12.5583 8.59167 12.971 8.625 13.363 8.775C13.7543 8.925 14.0917 9.14167 14.375 9.425C14.675 9.725 14.8917 10.0707 15.025 10.462C15.1583 10.854 15.1917 11.2583 15.125 11.675Z" fill="#333333"/>
</g>
</svg>