<svg width="53" height="52" viewBox="0 0 53 52" fill="none" xmlns="http://www.w3.org/2000/svg">
<path d="M27.2428 0.383848C25.8932 0.690617 24.5885 1.16856 23.3601 1.80607C15.0306 6.07273 12.7788 16.2938 5.1841 21.4659C-0.504784 25.3486 -8.06626 25.5904 -14.4094 28.0508C-20.7525 30.5112 -24.9575 36.2143 -26.3228 42.8703C-29.4565 58.1592 -21.5063 70.4709 -6.78152 74.8324C4.33551 78.1509 16.5477 77.7906 27.3186 73.377C39.1705 68.513 46.0919 59.7758 49.3583 47.4499C52.0463 37.281 53.8241 24.2487 49.9319 14.2078C46.4807 5.27155 36.7385 -1.74474 27.2428 0.383848Z" fill="#EDF3FF"/>
<path d="M44.1108 34.8416L29.7891 34.8795C29.9747 34.534 30.2534 34.2474 30.5936 34.0522C30.9338 33.857 31.3218 33.7609 31.7138 33.7749C31.9265 33.2668 32.2515 32.8135 32.6645 32.4491C33.0775 32.0847 33.5677 31.8185 34.0983 31.6707C34.6289 31.5229 35.1861 31.4972 35.728 31.5956C36.2699 31.694 36.7825 31.914 37.2273 32.2389C37.4129 32.4074 37.6329 32.5336 37.872 32.6087C38.1409 32.6246 38.4102 32.5859 38.6637 32.4949C38.9949 32.4213 39.3387 32.4258 39.6678 32.5081C39.997 32.5904 40.3024 32.7482 40.56 32.969C40.6816 33.1049 40.8346 33.2091 41.0056 33.2724C41.1663 33.2895 41.3288 33.2684 41.4797 33.2107C42.7597 32.8457 43.9544 33.4999 44.1108 34.8416Z" fill="white"/>
<path d="M16.0078 26.8441C16.0078 26.8441 25.0721 24.7345 25.8069 23.7532C26.5417 22.7719 25.7263 15.0729 26.4137 14.4376C27.1011 13.8024 30.0736 14.395 30.2063 15.035C30.3391 15.675 30.5571 26.1141 29.6754 26.8394C28.7936 27.5647 20.9429 29.9778 20.2555 29.7313C19.5681 29.4847 16.0078 26.8441 16.0078 26.8441Z" fill="#8EA5E8"/>
<path d="M25.5463 44.343C25.5463 44.343 12.6989 43.7125 12.5709 44.343C12.514 44.6369 12.0969 52.8147 11.6228 61.6372C8.30427 65.7142 5.05212 69.6964 1.3022 73.3658C1.05481 73.5524 0.885799 73.8245 0.828125 74.129C0.84224 74.3917 0.944065 74.6421 1.11731 74.8401C2.00418 76.1482 3.18438 77.231 4.56383 78.0022C5.23701 78.3246 6.51227 76.9213 6.90575 76.5515C8.27814 75.2345 9.56547 73.8316 10.76 72.3513C12.1348 70.6967 13.4527 68.9853 14.6853 67.2123C15.6335 65.8801 16.6527 64.5764 17.2263 63.0404C17.3681 62.6604 17.4759 62.2685 17.5487 61.8695C17.8047 60.4994 17.7526 59.025 17.8711 57.6692C17.9788 56.4604 18.1657 55.26 18.4305 54.0757C18.5581 53.3701 18.7747 52.6835 19.0752 52.0325C19.1683 51.8035 19.3107 51.5979 19.4924 51.4304C20.0755 51.0179 20.7724 52.8526 21.0284 53.3267C21.5562 54.2748 22.073 55.223 22.5786 56.1711C23.6845 58.1734 24.6676 60.241 25.5226 62.3625C25.7644 62.9328 25.924 63.5346 25.9967 64.1498C26.1721 66.6956 22.7066 82.1124 23.1049 82.1646C23.5031 82.2167 28.9217 83.1507 29.0308 82.9421C29.1398 82.7335 32.1454 64.9889 31.7662 63.3676C31.3869 61.7462 25.5463 44.343 25.5463 44.343Z" fill="#294783"/>
<mask id="mask0_1684_538" style="mask-type:luminance" maskUnits="userSpaceOnUse" x="0" y="44" width="32" height="39">
<path d="M25.5463 44.3504C25.5463 44.3504 12.6989 43.7199 12.5709 44.3504C12.514 44.6443 12.0969 52.8221 11.6228 61.6446C8.30427 65.7217 5.05212 69.7039 1.3022 73.3732C1.05481 73.5599 0.885799 73.832 0.828125 74.1365C0.84224 74.3992 0.944065 74.6496 1.11731 74.8476C2.00418 76.1557 3.18438 77.2385 4.56383 78.0097C5.23701 78.332 6.51227 76.9288 6.90575 76.559C8.27814 75.2419 9.56547 73.839 10.76 72.3587C12.1348 70.7042 13.4527 68.9928 14.6853 67.2197C15.6335 65.8876 16.6527 64.5839 17.2263 63.0479C17.3681 62.6678 17.4759 62.276 17.5487 61.8769C17.8047 60.5069 17.7526 59.0325 17.8711 57.6766C17.9788 56.4679 18.1657 55.2675 18.4305 54.0832C18.5581 53.3775 18.7747 52.691 19.0752 52.0399C19.1683 51.8109 19.3107 51.6053 19.4924 51.4378C20.0755 51.0254 20.7724 52.86 21.0284 53.3341C21.5562 54.2823 22.073 55.2304 22.5786 56.1786C23.6845 58.1808 24.6676 60.2484 25.5226 62.37C25.7644 62.9403 25.924 63.542 25.9967 64.1572C26.1721 66.703 22.7066 82.1199 23.1049 82.172C23.5031 82.2242 28.9217 83.1581 29.0308 82.9495C29.1398 82.7409 32.1454 64.9963 31.7662 63.375C31.3869 61.7537 25.5463 44.3504 25.5463 44.3504Z" fill="white"/>
</mask>
<g mask="url(#mask0_1684_538)">
<path d="M27.8712 49.0262C27.8712 49.0262 17.0149 50.1639 14.6256 55.4736C12.2363 60.7832 12.2552 62.4093 12.2552 62.4093C12.2552 62.4093 2.4087 75.4558 1.35152 75.2093C1.05247 75.1323 0.784872 74.964 0.586022 74.7278C0.387172 74.4915 0.266977 74.1991 0.242188 73.8913L10.8567 61.409C10.8567 61.409 11.2312 49.9601 11.5631 49.3817C11.8949 48.8033 26.1835 45.0202 26.5343 45.7314C26.8851 46.4425 27.8712 49.0262 27.8712 49.0262Z" fill="#233F6D"/>
</g>
<path d="M13.591 23.7638C13.3397 22.8156 13.4203 21.8675 13.7806 21.6162C14.5296 21.0805 15.9803 20.9193 16.2505 21.711C16.2505 21.711 17.8339 25.6221 15.8191 25.7928C15.9661 26.6035 16.0798 27.3809 16.1367 27.5374C16.2553 27.855 14.6387 28.1063 14.2404 27.983C14.0081 27.8977 13.7332 25.3472 13.591 23.7638Z" fill="#ED784D"/>
<path d="M15.8264 25.7906C15.3562 25.8299 14.8878 25.6968 14.5085 25.4161C13.8874 24.942 14.7787 26.5302 15.9307 26.3643L15.8264 25.7906Z" fill="#D24A0E"/>
<path d="M13.6335 24.1788C13.9009 23.8652 14.1256 23.5177 14.302 23.1453C14.3351 23.0126 13.8611 23.2022 13.9654 22.7897C14.0697 22.3773 14.4394 22.4437 14.5011 22.5859C14.5627 22.7281 14.7049 21.8511 14.5011 21.7847C14.2972 21.7183 16.9662 22.3488 17.2791 22.0881C17.592 21.8274 16.9236 21.78 16.9236 21.78C16.9236 21.78 17.6584 21.268 17.4735 20.9977C17.2886 20.7275 16.6391 20.9977 16.6391 20.9977C16.6391 20.9977 16.7956 20.3056 16.2836 20.225C15.7716 20.1444 15.6815 20.5094 15.6815 20.5094C15.6815 20.5094 13.7852 20.0875 13.3822 20.6137C12.9793 21.14 13.0836 21.3865 13.0836 21.3865C12.9191 21.4793 12.7861 21.6192 12.7017 21.7881C12.6172 21.957 12.5851 22.1473 12.6095 22.3346C12.856 22.9974 13.2012 23.6192 13.6335 24.1788Z" fill="#122A50"/>
<path d="M14.6138 26.9215C14.6138 26.9215 19.3546 25.9733 21.8103 30.4818C24.266 34.9902 28.4663 45.5099 26.9113 46.4296C24.9581 47.5959 11.5276 51.5401 10.8639 49.7197C10.2002 47.8993 9.40849 32.0889 10.314 30.1499C11.5987 27.4098 14.6138 26.9215 14.6138 26.9215Z" fill="#8EA5E8"/>
<path d="M10.3092 30.151C10.3092 30.151 4.96634 40.5474 4.22205 40.7134C3.47775 40.8793 -5.67188 44.1788 -5.67188 44.6008C-5.67188 45.0227 -5.0698 49.0997 -4.1501 49.0286C-3.2304 48.9575 6.60664 45.236 7.15182 44.762C8.55034 43.6147 11.5844 36.7691 11.793 36.1338C12.0016 35.4986 10.3092 30.151 10.3092 30.151Z" fill="#8EA5E8"/>
<path d="M9.91003 40.2975C9.91003 40.2975 12.4653 34.3526 12.598 34.8788C12.7308 35.405 11.1474 47.0625 12.598 48.3283C14.0487 49.5941 19.4626 48.9256 19.4626 48.9256C19.4626 48.9256 12.8256 50.7935 11.0241 50.1961C9.22263 49.5988 9.91003 40.2975 9.91003 40.2975Z" fill="#6D89C8"/>
<path d="M21.2734 29.6313C21.2734 29.6313 28.8586 27.1092 29.2 25.9999C29.5413 24.8905 30.1481 14.5462 30.2192 15.0393C30.2903 15.5323 30.6174 25.9856 29.6882 26.8437C28.7591 27.7018 22.3022 29.527 21.2734 29.6313Z" fill="#6D89C8"/>
<path d="M12.5938 27.7039C12.5938 27.7039 14.5943 27.8983 14.6133 27.8366C14.6323 27.775 15.149 26.8458 15.149 26.8458C14.2384 26.911 13.3592 27.2063 12.5938 27.7039Z" fill="white"/>
<path d="M15.5156 26.8446L16.6155 27.6884L17.3787 26.5222C16.7505 26.5828 16.1277 26.6906 15.5156 26.8446Z" fill="white"/>
<path d="M15.1484 26.8442C15.1484 26.8442 15.3665 26.446 15.5135 36.4537C15.5135 36.4537 16.656 38.8572 16.7271 38.824C17.177 38.2228 17.5572 37.5723 17.8601 36.8851C17.8601 36.6338 17.7369 30.3903 15.5135 26.8347L15.1484 26.8442Z" fill="#294783"/>
<path d="M22.8201 4.84924C22.8201 4.84924 22.346 15.3358 22.8201 15.0134C23.2941 14.691 53.4927 6.25724 52.9949 6.25724C52.4971 6.25724 22.8201 4.84924 22.8201 4.84924Z" fill="#E9A854"/>
<path d="M22.8195 4.84924C22.8195 4.84924 6.30279 8.90732 8.49776 9.2202C10.6927 9.53309 52.9943 6.25724 52.9943 6.25724L22.8195 4.84924Z" fill="#FEBD69"/>
<path d="M22.8203 4.85005C23.2244 4.6126 23.673 4.46091 24.1382 4.40442C24.6882 4.40442 52.9951 6.25805 52.9951 6.25805L22.8203 4.85005Z" fill="#E9A854"/>
<path d="M27.1181 14.1904C27.1181 14.1904 26.5587 12.716 26.7389 12.6401C26.919 12.5643 27.2461 12.5501 27.3362 12.7492C27.4263 12.9483 27.5401 13.4366 27.6823 13.4698C27.8245 13.503 29.3984 12.9673 29.4316 13.0431C29.4648 13.119 29.4316 14.2662 29.2278 14.4274C28.5369 14.2626 27.8284 14.183 27.1181 14.1904Z" fill="#ED784D"/>
</svg>
