<svg width="64" height="60" viewBox="0 0 64 60" fill="none" xmlns="http://www.w3.org/2000/svg">
<path fill-rule="evenodd" clip-rule="evenodd" d="M43.8664 49.4029H5.51142C2.47452 49.4029 0 46.9283 0 43.8914V5.53643C0 2.53702 2.47452 0.0625 5.51142 0.0625H43.8664C46.9033 0.0625 49.3779 2.53702 49.3779 5.53643V39.5798C49.3779 40.0672 49.0029 40.4421 48.5155 40.4421C48.0656 40.4421 47.6532 40.0672 47.6532 39.5798V5.53643C47.6532 3.47433 45.966 1.74967 43.8664 1.74967H5.51142C3.41183 1.74967 1.72466 3.47433 1.72466 5.53643V43.8914C1.72466 45.991 3.41183 47.7157 5.51142 47.7157H43.8664C44.0539 47.7157 44.2414 47.6782 44.4288 47.6782C44.9162 47.6032 45.3286 47.9032 45.4036 48.3906C45.4786 48.8405 45.1787 49.2904 44.7288 49.3654C44.4288 49.4029 44.1664 49.4029 43.8664 49.4029Z" fill="#000002"/>
<path fill-rule="evenodd" clip-rule="evenodd" d="M48.5155 9.99967H0.862332C0.374927 9.99967 0 9.62474 0 9.17483C0 8.68743 0.374927 8.3125 0.862332 8.3125H48.5155C49.0029 8.3125 49.3779 8.68743 49.3779 9.17483C49.3779 9.62474 49.0029 9.99967 48.5155 9.99967Z" fill="#000002"/>
<path fill-rule="evenodd" clip-rule="evenodd" d="M9.82341 5.87467H6.52406C6.07415 5.87467 5.69922 5.49974 5.69922 5.04983C5.69922 4.56243 6.07415 4.1875 6.52406 4.1875H9.82341C10.3108 4.1875 10.6857 4.56243 10.6857 5.04983C10.6857 5.49974 10.3108 5.87467 9.82341 5.87467Z" fill="#000002"/>
<path fill-rule="evenodd" clip-rule="evenodd" d="M16.4601 5.87467H13.1983C12.7109 5.87467 12.3359 5.49974 12.3359 5.04983C12.3359 4.56243 12.7109 4.1875 13.1983 4.1875H16.4601C16.9475 4.1875 17.3225 4.56243 17.3225 5.04983C17.3225 5.49974 16.9475 5.87467 16.4601 5.87467Z" fill="#000002"/>
<path fill-rule="evenodd" clip-rule="evenodd" d="M23.132 5.87467H19.8327C19.3827 5.87467 19.0078 5.49974 19.0078 5.04983C19.0078 4.56243 19.3827 4.1875 19.8327 4.1875H23.132C23.6194 4.1875 23.9943 4.56243 23.9943 5.04983C23.9943 5.49974 23.6194 5.87467 23.132 5.87467Z" fill="#000002"/>
<path fill-rule="evenodd" clip-rule="evenodd" d="M33.4039 21.847H30.4795C29.9921 21.847 29.6172 21.472 29.6172 21.0221V15.1358C29.6172 14.6859 29.9921 14.2734 30.4795 14.2734H33.4039C35.5035 14.2734 37.1907 15.9981 37.1907 18.0602C37.1907 20.1598 35.5035 21.847 33.4039 21.847ZM31.3044 20.1598H33.4039C34.5662 20.1598 35.5035 19.2225 35.5035 18.0602C35.5035 16.9354 34.5662 15.9981 33.4039 15.9981H31.3044V20.1598Z" fill="#0871E1"/>
<path fill-rule="evenodd" clip-rule="evenodd" d="M34.5287 27.7337H30.4795C29.9921 27.7337 29.6172 27.3588 29.6172 26.8713V21.0225C29.6172 20.5351 29.9921 20.1602 30.4795 20.1602H34.5287C36.6283 20.1602 38.3155 21.8473 38.3155 23.9469C38.3155 26.0465 36.6283 27.7337 34.5287 27.7337ZM31.3044 26.0465H34.5287C35.691 26.0465 36.6283 25.1092 36.6283 23.9469C36.6283 22.7846 35.691 21.8473 34.5287 21.8473H31.3044V26.0465Z" fill="#0871E1"/>
<path fill-rule="evenodd" clip-rule="evenodd" d="M22.7569 27.7333H22.2695C19.9449 27.7333 18.0703 25.8587 18.0703 23.5716V18.4726C18.0703 16.1481 19.9449 14.2734 22.2695 14.2734H22.7569C25.044 14.2734 26.9186 16.1481 26.9186 18.4726V23.5716C26.9186 25.8587 25.044 27.7333 22.7569 27.7333ZM22.2695 15.9981C20.8823 15.9981 19.795 17.0854 19.795 18.4726V23.5716C19.795 24.9214 20.8823 26.0461 22.2695 26.0461H22.7569C24.1066 26.0461 25.2314 24.9214 25.2314 23.5716V18.4726C25.2314 17.0854 24.1066 15.9981 22.7569 15.9981H22.2695Z" fill="#0871E1"/>
<path fill-rule="evenodd" clip-rule="evenodd" d="M11.0211 27.7349C8.92155 27.7349 7.23438 26.0102 7.23438 23.9481C7.23438 23.4607 7.6093 23.0858 8.09671 23.0858C8.58411 23.0858 8.95904 23.4607 8.95904 23.9481C8.95904 25.0729 9.89636 26.0102 11.0211 26.0102C12.1834 26.0102 13.0832 25.0729 13.0832 23.9481V15.1748C13.0832 14.6874 13.4582 14.3125 13.9456 14.3125C14.433 14.3125 14.8079 14.6874 14.8079 15.1748V23.9481C14.8079 26.0102 13.1207 27.7349 11.0211 27.7349Z" fill="#0871E1"/>
<path fill-rule="evenodd" clip-rule="evenodd" d="M37.9034 32.9825H8.28421C7.7968 32.9825 7.42188 32.6075 7.42188 32.1201C7.42188 31.6327 7.7968 31.2578 8.28421 31.2578H37.9034C38.3533 31.2578 38.7283 31.6327 38.7283 32.1201C38.7283 32.6075 38.3533 32.9825 37.9034 32.9825Z" fill="#000002"/>
<path fill-rule="evenodd" clip-rule="evenodd" d="M37.9034 38.195H8.28421C7.7968 38.195 7.42188 37.8201 7.42188 37.3701C7.42188 36.8827 7.7968 36.5078 8.28421 36.5078H37.9034C38.3533 36.5078 38.7283 36.8827 38.7283 37.3701C38.7283 37.8201 38.3533 38.195 37.9034 38.195Z" fill="#000002"/>
<path fill-rule="evenodd" clip-rule="evenodd" d="M37.9034 43.4434H8.28421C7.7968 43.4434 7.42188 43.0685 7.42188 42.5811C7.42188 42.1312 7.7968 41.7188 8.28421 41.7188H37.9034C38.3533 41.7188 38.7283 42.1312 38.7283 42.5811C38.7283 43.0685 38.3533 43.4434 37.9034 43.4434Z" fill="#000002"/>
<path fill-rule="evenodd" clip-rule="evenodd" d="M57.514 59.937C57.2891 59.937 57.0641 59.862 56.9141 59.6746L48.4033 51.2012L46.1912 53.4133C45.9663 53.6383 45.6663 53.7132 45.3664 53.6383C45.0664 53.5258 44.8415 53.3008 44.7665 53.0009L41.3172 38.2663C41.2422 38.0038 41.3172 37.7039 41.5421 37.4789C41.7296 37.2914 42.0295 37.179 42.3295 37.254L57.0641 40.7033C57.364 40.7783 57.589 41.0032 57.664 41.3032C57.739 41.6031 57.664 41.9405 57.439 42.1655L55.227 44.3776L63.7378 52.8509C63.8878 53.0009 63.9628 53.2258 63.9628 53.4508C63.9628 53.6757 63.8878 53.9007 63.7378 54.0507L58.1139 59.6746C57.9264 59.862 57.7015 59.937 57.514 59.937ZM48.4033 49.1391C48.6283 49.1391 48.8532 49.2141 49.0032 49.4016L57.514 57.8749L61.9382 53.4508L53.4273 44.9774C53.0899 44.64 53.0899 44.0776 53.4273 43.7777L55.152 42.0155L43.2668 39.2411L46.0788 51.1262L47.8034 49.4016C47.9534 49.2141 48.1783 49.1391 48.4033 49.1391Z" fill="#000002"/>
</svg>
