<svg width="358" height="360" viewBox="0 0 358 360" fill="none" xmlns="http://www.w3.org/2000/svg">
<g clip-path="url(#clip0_16531_205835)">
<path fill-rule="evenodd" clip-rule="evenodd" d="M303.392 52.8571C295.621 32.2234 277.448 15.8778 257.244 7.22691C236.718 -1.56128 215.769 -3.70315 192.392 8.58802L211.714 45.3032C230.181 35.5939 257.333 48.3141 264.549 67.4734C270.516 83.3135 276.733 94.1944 283.549 102.731C288.8 109.308 294.446 114.373 298.544 118.051L298.546 118.053C299.487 118.898 300.347 119.67 301.101 120.369C311.692 130.19 315.198 145.208 311.349 156.822C308.132 166.53 303.392 178.112 260.829 178.112V219.597C312.712 219.597 341.543 199.446 351.345 169.865C360.516 142.188 351.332 110.361 329.332 89.9585C327.762 88.5021 326.385 87.2588 325.14 86.1355C321.435 82.7915 318.911 80.5128 315.988 76.8524C312.441 72.4098 308.178 65.5609 303.392 52.8571ZM162.348 178.112C122.876 178.112 104.616 182.593 83.923 188.286C63.7849 193.827 47.9423 200.908 39.355 207.086C21.4692 219.953 9.79846 236.527 5.32251 254.916C0.85499 273.27 3.95792 291.845 12.8232 307.815C30.581 339.803 69.9845 359.938 118.255 356.211C134.477 354.959 145.337 352.248 154.079 350.066L154.616 349.932C163.028 347.834 168.593 346.534 176.796 346.534C184.298 346.534 187.202 347.607 191.76 349.289H191.761L192.24 349.466C198.745 351.87 207.055 354.942 222.102 356.201C238.786 357.596 252.638 357.357 266.232 354.423C305.955 345.85 341.112 321.495 353.435 281.94C364.063 247.835 347.708 222.843 347.708 222.843C347.708 222.843 338.14 230.891 331.306 234.744C324.473 238.597 312.712 242.573 312.712 242.573C312.712 242.573 319.882 255.273 311.363 274.314C301.699 295.914 292.313 302.281 257.47 313.872C240.946 317.44 222.107 316.272 206.246 310.414C199.104 307.776 191.077 305.049 176.796 305.049C163.16 305.049 153.394 307.48 144.566 309.682L144.209 309.771C135.927 311.837 127.797 313.865 115.058 314.85C79.5602 317.59 57.4614 302.721 49.1155 287.688C44.9289 280.145 43.8297 272.206 45.6511 264.723C47.4641 257.275 52.5734 248.69 63.6004 240.757C66.5179 238.659 77.0492 233.206 94.9396 228.283C112.276 223.512 131.207 219.597 162.348 219.597V178.112ZM163.581 8.10085C119.822 -14.8135 63.799 16.9038 55.7296 62.7769C52.9352 78.6628 46.2655 84.003 36.4922 91.8284C33.8189 93.9689 30.9133 96.2952 27.7913 99.0744C-2.323 125.881 -10.711 163.636 16.3807 203.071C16.3807 203.071 25.7528 194.376 33.1166 189.693C39.355 185.724 50.9147 181.067 50.9147 181.067C33.1166 156.822 41.3299 144.335 55.7296 126.713C59.7173 121.833 63.9089 118.556 68.0604 115.311C77.7054 107.772 87.1331 100.403 93.2806 73.4876C97.5544 54.777 123.149 33.7619 144.32 44.8481L163.581 8.10085ZM3.50616 561.686C1.16872 565.715 0 570.265 0 575.338C0 580.411 1.16872 584.961 3.50616 588.99C5.89332 593.018 9.10108 596.176 13.1294 598.463C17.1577 600.702 21.6089 601.82 26.4826 601.82C32.003 601.82 36.9016 600.477 41.1786 597.792C45.5055 595.107 48.6385 591.278 50.5782 586.303H40.3581C39.0154 589.039 37.1504 591.078 34.7632 592.422C32.3761 593.763 29.6158 594.436 26.4826 594.436C23.0512 594.436 19.9925 593.664 17.3069 592.123C14.6214 590.531 12.5078 588.294 10.966 585.409C9.47407 582.525 8.72808 579.167 8.72808 575.338C8.72808 571.509 9.47407 568.151 10.966 565.267C12.5078 562.382 14.6214 560.169 17.3069 558.628C19.9925 557.087 23.0512 556.315 26.4826 556.315C29.6158 556.315 32.3761 556.987 34.7632 558.329C37.1504 559.672 39.0154 561.712 40.3581 564.446H50.5782C48.6385 559.473 45.5055 555.644 41.1786 552.958C36.9016 550.223 32.003 548.856 26.4826 548.856C21.6586 548.856 17.2076 550 13.1294 552.286C9.10108 554.525 5.89332 557.658 3.50616 561.686ZM70.827 598.539C74.9051 600.776 79.3562 601.895 84.1804 601.895C89.0542 601.895 93.5052 600.776 97.5335 598.539C101.612 596.251 104.819 593.093 107.157 589.064C109.494 584.987 110.663 580.411 110.663 575.338C110.663 570.265 109.494 565.715 107.157 561.686C104.819 557.658 101.612 554.525 97.5335 552.286C93.5052 550 89.0542 548.856 84.1804 548.856C79.3562 548.856 74.9051 550 70.827 552.286C66.7988 554.525 63.591 557.658 61.2039 561.686C58.8664 565.715 57.6977 570.265 57.6977 575.338C57.6977 580.411 58.8664 584.987 61.2039 589.064C63.591 593.093 66.7988 596.251 70.827 598.539ZM93.356 592.197C90.6705 593.738 87.6118 594.51 84.1804 594.51C80.7487 594.51 77.6902 593.738 75.0047 592.197C72.3191 590.605 70.2054 588.368 68.6638 585.483C67.1717 582.548 66.4258 579.167 66.4258 575.338C66.4258 571.509 67.1717 568.151 68.6638 565.267C70.2054 562.382 72.3191 560.169 75.0047 558.628C77.6902 557.087 80.7487 556.315 84.1804 556.315C87.6118 556.315 90.6705 557.087 93.356 558.628C96.0416 560.169 98.1304 562.382 99.6223 565.267C101.164 568.151 101.935 571.509 101.935 575.338C101.935 579.167 101.164 582.548 99.6223 585.483C98.1304 588.368 96.0416 590.605 93.356 592.197ZM161.628 601.373H153.123L127.536 562.656V601.373H119.031V549.452H127.536L153.123 588.094V549.452H161.628V601.373ZM206.887 601.373H215.392V549.452H206.887V588.094L181.3 549.452H172.796V601.373H181.3V562.656L206.887 601.373ZM235.064 556.389V571.607H252.967V578.545H235.064V594.436H255.204V601.373H226.559V549.452H255.204V556.389H235.064ZM266.351 561.686C264.014 565.715 262.845 570.265 262.845 575.338C262.845 580.411 264.014 584.961 266.351 588.99C268.739 593.018 271.946 596.176 275.974 598.463C280.003 600.702 284.454 601.82 289.327 601.82C294.847 601.82 299.746 600.477 304.023 597.792C308.35 595.107 311.483 591.278 313.423 586.303H303.203C301.86 589.039 299.995 591.078 297.608 592.422C295.221 593.763 292.461 594.436 289.327 594.436C285.897 594.436 282.838 593.664 280.151 592.123C277.466 590.531 275.352 588.294 273.811 585.409C272.319 582.525 271.572 579.167 271.572 575.338C271.572 571.509 272.319 568.151 273.811 565.267C275.352 562.382 277.466 560.169 280.151 558.628C282.838 557.087 285.897 556.315 289.327 556.315C292.461 556.315 295.221 556.987 297.608 558.329C299.995 559.672 301.86 561.712 303.203 564.446H313.423C311.483 559.473 308.35 555.644 304.023 552.958C299.746 550.223 294.847 548.856 289.327 548.856C284.504 548.856 280.052 550 275.974 552.286C271.946 554.525 268.739 557.658 266.351 561.686ZM356.872 549.527V556.465H343.071V601.373H334.568V556.465H320.692V549.527H356.872ZM257.684 468.036C255.347 472.064 254.178 476.613 254.178 481.686C254.178 486.759 255.347 491.308 257.684 495.336C260.07 499.363 263.278 502.521 267.306 504.809C271.334 507.047 275.784 508.165 280.657 508.165C286.178 508.165 291.075 506.822 295.352 504.137C299.678 501.452 302.811 497.623 304.75 492.651H294.531C293.189 495.385 291.323 497.425 288.937 498.767C286.55 500.11 283.79 500.781 280.657 500.781C277.227 500.781 274.168 500.01 271.483 498.469C268.798 496.877 266.684 494.64 265.143 491.756C263.651 488.871 262.906 485.515 262.906 481.686C262.906 477.857 263.651 474.501 265.143 471.616C266.684 468.732 268.798 466.52 271.483 464.977C274.168 463.436 277.227 462.665 280.657 462.665C283.79 462.665 286.55 463.336 288.937 464.68C291.323 466.022 293.189 468.061 294.531 470.795H304.75C302.811 465.824 299.678 461.995 295.352 459.309C291.075 456.574 286.178 455.207 280.657 455.207C275.834 455.207 271.383 456.351 267.306 458.637C263.278 460.876 260.07 464.009 257.684 468.036ZM87.9394 478.776C89.1826 476.439 89.8041 473.953 89.8041 471.317C89.8041 468.434 89.108 465.824 87.7156 463.487C86.3731 461.15 84.3095 459.309 81.5247 457.966C78.7897 456.574 75.4332 455.878 71.4552 455.878H53.5537V507.718H62.0569V486.683H71.4552C75.7317 486.683 79.2373 485.963 81.9723 484.52C84.7073 483.028 86.6963 481.115 87.9394 478.776ZM78.6904 477.583C77.0991 479.026 74.6874 479.746 71.4552 479.746H62.0569V462.814H71.4552C77.8698 462.814 81.0772 465.65 81.0772 471.317C81.0772 474.002 80.2816 476.091 78.6904 477.583ZM106.343 488.922V455.878H97.8394V488.771C97.8394 492.999 98.7345 496.578 100.525 499.513C102.315 502.447 104.727 504.635 107.76 506.077C110.843 507.518 114.249 508.24 117.979 508.24C121.708 508.24 125.114 507.518 128.197 506.077C131.28 504.635 133.742 502.447 135.582 499.513C137.422 496.578 138.341 492.999 138.341 488.771V455.878H129.838V488.922C129.838 492.849 128.794 495.808 126.705 497.797C124.667 499.786 121.783 500.781 118.053 500.781C114.373 500.781 111.489 499.786 109.401 497.797C107.362 495.808 106.343 492.849 106.343 488.922ZM177.16 481.089C179.945 481.586 182.307 483.053 184.246 485.49C186.185 487.926 187.155 490.686 187.155 493.77C187.155 496.404 186.459 498.792 185.067 500.93C183.723 503.018 181.76 504.684 179.174 505.928C176.587 507.121 173.58 507.718 170.149 507.718H149.413V455.878H169.179C172.709 455.878 175.742 456.474 178.279 457.669C180.815 458.862 182.73 460.477 184.022 462.517C185.315 464.506 185.961 466.743 185.961 469.229C185.961 472.213 185.166 474.699 183.575 476.689C181.983 478.678 179.845 480.145 177.16 481.089ZM157.917 477.658H168.432C171.217 477.658 173.38 477.036 174.923 475.794C176.513 474.501 177.309 472.661 177.309 470.273C177.309 467.936 176.513 466.121 174.923 464.828C173.38 463.487 171.217 462.814 168.432 462.814H157.917V477.658ZM169.402 500.781C172.287 500.781 174.549 500.085 176.19 498.692C177.831 497.3 178.652 495.36 178.652 492.874C178.652 490.338 177.782 488.324 176.042 486.833C174.301 485.341 171.988 484.594 169.105 484.594H157.917V500.781H169.402ZM227.73 500.855H204.898V455.878H196.395V507.718H227.73V500.855ZM245.849 455.878V507.718H237.346V455.878H245.849Z" fill="white" fill-opacity="0.4"/>
</g>
<defs>
<clipPath id="clip0_16531_205835">
<rect width="357.6" height="360" fill="white"/>
</clipPath>
</defs>
</svg>
