<svg width="60" height="60" viewBox="0 0 60 60" fill="none" xmlns="http://www.w3.org/2000/svg">
<circle cx="30" cy="30" r="29.5" fill="white" stroke="#DADCDE"/>
<path fill-rule="evenodd" clip-rule="evenodd" d="M40.4968 19.4419C39.8442 17.7079 38.3165 16.334 36.6188 15.6076C34.8936 14.8688 33.1334 14.6888 31.1682 15.7214L32.7921 18.8068C34.3435 17.9904 36.6263 19.0593 37.2326 20.6695C37.734 22.0009 38.2565 22.9148 38.8291 23.6324C39.2704 24.1849 39.7442 24.6112 40.0892 24.92C40.168 24.9913 40.2405 25.0563 40.3043 25.115C41.1944 25.9401 41.4894 27.2028 41.1656 28.1779C40.8956 28.9943 40.4968 29.9669 36.9201 29.9669V33.4535C41.2806 33.4535 43.7034 31.7596 44.5273 29.2743C45.2974 26.949 44.5273 24.2737 42.677 22.5597C42.5445 22.4372 42.4295 22.3335 42.3245 22.2384C42.0132 21.9572 41.8007 21.7659 41.5557 21.4583C41.2581 21.0846 40.8993 20.5095 40.4968 19.4419ZM28.6429 29.9681C25.3262 29.9681 23.791 30.3444 22.0521 30.8232C20.3594 31.2883 19.028 31.8833 18.3066 32.4034C16.804 33.4848 15.8226 34.8775 15.4463 36.4226C15.0712 37.9653 15.3313 39.5255 16.0764 40.8682C17.569 43.556 20.8807 45.2487 24.9362 44.9349C26.2988 44.8299 27.2127 44.6024 27.9465 44.4186L27.9915 44.4073C28.6991 44.2311 29.1667 44.1223 29.8555 44.1223C30.4856 44.1223 30.7306 44.2123 31.1132 44.3536L31.1532 44.3686C31.6995 44.5711 32.3983 44.8286 33.6622 44.9349C35.0636 45.0524 36.2288 45.0324 37.3702 44.7861C40.7081 44.0661 43.6634 42.0183 44.6985 38.6942C45.5911 35.8276 44.2172 33.7273 44.2172 33.7273C44.2172 33.7273 43.4134 34.4036 42.8383 34.7274C42.2645 35.0512 41.2756 35.385 41.2756 35.385C41.2756 35.385 41.8782 36.4526 41.1619 38.0528C40.3493 39.8681 39.5604 40.4031 36.6326 41.377C35.2437 41.677 33.661 41.5783 32.3283 41.0869C31.7282 40.8657 31.0532 40.6356 29.853 40.6356C28.6529 40.6356 27.8865 40.8394 27.1439 41.0244L27.1139 41.0319C26.4176 41.2057 25.735 41.3757 24.6636 41.4582C21.6808 41.6883 19.8231 40.4394 19.1217 39.1755C18.7704 38.5416 18.6779 37.8741 18.8304 37.2452C18.983 36.6189 19.4118 35.8976 20.3394 35.2312C20.5844 35.055 21.4695 34.5962 22.9734 34.1836C24.4299 33.7823 26.0213 33.4535 28.6379 33.4535V29.9669L28.6429 29.9681ZM28.7466 15.6802C25.0687 13.7549 20.3606 16.4202 19.683 20.2745C19.448 21.6096 18.888 22.0584 18.0666 22.716C17.8416 22.896 17.5978 23.091 17.3353 23.3248C14.805 25.5788 14.0999 28.7517 16.3764 32.0659C16.3764 32.0659 17.164 31.3345 17.7828 30.942C18.3066 30.6082 19.278 30.2169 19.278 30.2169C17.7828 28.1792 18.4729 27.1303 19.683 25.6488C20.0181 25.2388 20.3706 24.9638 20.7194 24.6912C21.5295 24.0574 22.3221 23.4386 22.8384 21.1771C23.1972 19.6044 25.3487 17.8392 27.1277 18.7705L28.7466 15.6827V15.6802Z" fill="#0A2515"/>
</svg>
