<svg width="182" height="240" viewBox="0 0 182 240" fill="none" xmlns="http://www.w3.org/2000/svg">
<g clip-path="url(#clip0_1758_76387)">
<path fill-rule="evenodd" clip-rule="evenodd" d="M202.262 35.238C197.081 21.4823 184.966 10.5852 171.496 4.81794C157.812 -1.04086 143.846 -2.46877 128.261 5.72535L141.143 30.2021C153.454 23.7293 171.555 32.2094 176.366 44.9822C180.344 55.5423 184.489 62.7963 189.033 68.4871C192.534 72.8717 196.297 76.249 199.029 78.701L199.03 78.702C199.658 79.2653 200.231 79.7797 200.734 80.2463C207.794 86.7931 210.132 96.8054 207.566 104.548C205.421 111.02 202.262 118.741 173.886 118.741V146.398C208.475 146.398 227.696 132.964 234.23 113.243C240.344 94.7922 234.221 73.574 219.554 59.9723C218.508 59.0014 217.59 58.1725 216.76 57.4237C214.29 55.1943 212.607 53.6752 210.659 51.2349C208.294 48.2732 205.452 43.7073 202.262 35.238ZM108.232 118.741C81.9174 118.741 69.7437 121.729 55.9487 125.524C42.5232 129.218 31.9616 133.939 26.2367 138.058C14.3128 146.635 6.5323 157.685 3.54834 169.944C0.569993 182.18 2.63861 194.564 8.54878 205.21C20.3873 226.535 46.6563 239.958 78.8366 237.474C89.6514 236.639 96.8914 234.832 102.719 233.377L103.077 233.288C108.685 231.89 112.395 231.023 117.864 231.023C122.865 231.023 124.801 231.738 127.84 232.86H127.841L128.16 232.978C132.497 234.58 138.037 236.628 148.068 237.467C159.19 238.397 168.425 238.238 177.488 236.282C203.97 230.567 227.408 214.33 235.623 187.96C242.708 165.223 231.805 148.562 231.805 148.562C231.805 148.562 225.426 153.927 220.87 156.496C216.315 159.064 208.475 161.715 208.475 161.715C208.475 161.715 213.255 170.182 207.575 182.876C201.133 197.276 194.875 201.521 171.647 209.248C160.63 211.626 148.071 210.848 137.497 206.942C132.736 205.184 127.384 203.366 117.864 203.366C108.774 203.366 102.263 204.987 96.3777 206.455L96.1392 206.514C90.6179 207.892 85.1978 209.243 76.7054 209.9C53.0401 211.727 38.3076 201.814 32.7436 191.792C29.9526 186.764 29.2198 181.471 30.4341 176.482C31.6427 171.517 35.0489 165.793 42.4003 160.504C44.3453 159.106 51.3661 155.47 63.2931 152.189C74.8503 149.008 87.4711 146.398 108.232 146.398V118.741ZM109.054 5.40057C79.8811 -9.87569 42.5327 11.2692 37.1531 41.8512C35.2901 52.4419 30.8437 56.002 24.3282 61.2189C22.5459 62.6459 20.6089 64.1968 18.5275 66.0496C-1.54866 83.9204 -7.14065 109.091 10.9205 135.381C10.9205 135.381 17.1685 129.584 22.0777 126.462C26.2367 123.816 33.9431 120.711 33.9431 120.711C22.0777 104.548 27.5533 96.223 37.1531 84.4751C39.8115 81.2218 42.606 79.0375 45.3736 76.8742C51.8036 71.8481 58.0887 66.9352 62.1871 48.9917C65.0362 36.518 82.0994 22.5079 96.2134 29.8987L109.054 5.40057ZM2.33744 374.458C0.779147 377.143 0 380.177 0 383.559C0 386.94 0.779147 389.974 2.33744 392.66C3.92888 395.345 6.06739 397.451 8.75295 398.975C11.4385 400.468 14.406 401.214 17.6551 401.214C21.3353 401.214 24.6011 400.318 27.4524 398.528C30.337 396.738 32.4257 394.185 33.7188 390.869H26.9054C26.0102 392.693 24.7669 394.052 23.1755 394.948C21.584 395.842 19.7439 396.291 17.6551 396.291C15.3674 396.291 13.3283 395.776 11.538 394.748C9.7476 393.687 8.3385 392.196 7.3107 390.273C6.31605 388.35 5.81872 386.111 5.81872 383.559C5.81872 381.006 6.31605 378.768 7.3107 376.845C8.3385 374.922 9.7476 373.446 11.538 372.419C13.3283 371.391 15.3674 370.876 17.6551 370.876C19.7439 370.876 21.584 371.325 23.1755 372.219C24.7669 373.115 26.0102 374.474 26.9054 376.297H33.7188C32.4257 372.982 30.337 370.429 27.4524 368.639C24.6011 366.815 21.3353 365.904 17.6551 365.904C14.4391 365.904 11.4717 366.666 8.75295 368.191C6.06739 369.683 3.92888 371.772 2.33744 374.458ZM47.218 399.026C49.9368 400.517 52.9041 401.263 56.1202 401.263C59.3695 401.263 62.3368 400.517 65.0224 399.026C67.7411 397.501 69.8796 395.395 71.4379 392.709C72.9962 389.991 73.7753 386.94 73.7753 383.559C73.7753 380.177 72.9962 377.143 71.4379 374.458C69.8796 371.772 67.7411 369.683 65.0224 368.191C62.3368 366.666 59.3695 365.904 56.1202 365.904C52.9041 365.904 49.9368 366.666 47.218 368.191C44.5325 369.683 42.394 371.772 40.8026 374.458C39.2443 377.143 38.4652 380.177 38.4652 383.559C38.4652 386.94 39.2443 389.991 40.8026 392.709C42.394 395.395 44.5325 397.501 47.218 399.026ZM62.2374 394.798C60.447 395.825 58.4079 396.34 56.1202 396.34C53.8325 396.34 51.7935 395.825 50.0031 394.798C48.2127 393.737 46.8036 392.245 45.7758 390.322C44.7811 388.366 44.2839 386.111 44.2839 383.559C44.2839 381.006 44.7811 378.768 45.7758 376.845C46.8036 374.922 48.2127 373.446 50.0031 372.419C51.7935 371.391 53.8325 370.876 56.1202 370.876C58.4079 370.876 60.447 371.391 62.2374 372.419C64.0277 373.446 65.4202 374.922 66.4148 376.845C67.4427 378.768 67.9566 381.006 67.9566 383.559C67.9566 386.111 67.4427 388.366 66.4148 390.322C65.4202 392.245 64.0277 393.737 62.2374 394.798ZM107.752 400.915H102.082L85.0239 375.104V400.915H79.3543V366.301H85.0239L102.082 392.063V366.301H107.752V400.915ZM137.925 400.915H143.594V366.301H137.925V392.063L120.867 366.301H115.197V400.915H120.867V375.104L137.925 400.915ZM156.709 370.926V381.071H168.645V385.697H156.709V396.291H170.136V400.915H151.039V366.301H170.136V370.926H156.709ZM177.567 374.458C176.009 377.143 175.23 380.177 175.23 383.559C175.23 386.94 176.009 389.974 177.567 392.66C179.159 395.345 181.297 397.451 183.983 398.975C186.668 400.468 189.636 401.214 192.885 401.214C196.565 401.214 199.831 400.318 202.682 398.528C205.567 396.738 207.656 394.185 208.949 390.869H202.136C201.24 392.693 199.996 394.052 198.406 394.948C196.814 395.842 194.974 396.291 192.885 396.291C190.598 396.291 188.559 395.776 186.768 394.748C184.978 393.687 183.568 392.196 182.541 390.273C181.546 388.35 181.048 386.111 181.048 383.559C181.048 381.006 181.546 378.768 182.541 376.845C183.568 374.922 184.978 373.446 186.768 372.419C188.559 371.391 190.598 370.876 192.885 370.876C194.974 370.876 196.814 371.325 198.406 372.219C199.996 373.115 201.24 374.474 202.136 376.297H208.949C207.656 372.982 205.567 370.429 202.682 368.639C199.831 366.815 196.565 365.904 192.885 365.904C189.669 365.904 186.701 366.666 183.983 368.191C181.297 369.683 179.159 371.772 177.567 374.458ZM237.914 366.351V370.977H228.714V400.915H223.045V370.977H213.794V366.351H237.914ZM171.789 312.024C170.231 314.709 169.452 317.742 169.452 321.124C169.452 324.506 170.231 327.539 171.789 330.224C173.38 332.909 175.518 335.014 178.204 336.539C180.89 338.031 183.856 338.777 187.105 338.777C190.785 338.777 194.05 337.881 196.901 336.091C199.785 334.301 201.874 331.748 203.167 328.434H196.354C195.459 330.257 194.216 331.617 192.625 332.511C191.033 333.407 189.193 333.854 187.105 333.854C184.818 333.854 182.779 333.34 180.989 332.313C179.199 331.252 177.789 329.76 176.762 327.837C175.767 325.914 175.27 323.677 175.27 321.124C175.27 318.571 175.767 316.334 176.762 314.411C177.789 312.488 179.199 311.013 180.989 309.985C182.779 308.957 184.818 308.444 187.105 308.444C189.193 308.444 191.033 308.891 192.625 309.786C194.216 310.681 195.459 312.041 196.354 313.863H203.167C201.874 310.549 199.785 307.996 196.901 306.206C194.05 304.382 190.785 303.471 187.105 303.471C183.89 303.471 180.922 304.234 178.204 305.758C175.518 307.251 173.38 309.339 171.789 312.024ZM58.6262 319.184C59.455 317.626 59.8694 315.969 59.8694 314.212C59.8694 312.29 59.4054 310.549 58.4771 308.991C57.5821 307.433 56.2063 306.206 54.3498 305.311C52.5265 304.382 50.2888 303.918 47.6368 303.918H35.7025V338.478H41.3712V324.455H47.6368C50.4878 324.455 52.8249 323.975 54.6482 323.013C56.4715 322.018 57.7976 320.743 58.6262 319.184ZM52.4602 318.389C51.3994 319.351 49.7916 319.831 47.6368 319.831H41.3712V308.543H47.6368C51.9132 308.543 54.0515 310.433 54.0515 314.212C54.0515 316.002 53.5211 317.394 52.4602 318.389ZM70.8951 325.948V303.918H65.2262V325.848C65.2262 328.666 65.823 331.052 67.0164 333.009C68.2099 334.965 69.8177 336.423 71.8398 337.384C73.8952 338.345 76.1661 338.826 78.6524 338.826C81.1386 338.826 83.4095 338.345 85.4649 337.384C87.5202 336.423 89.1612 334.965 90.3878 333.009C91.6143 331.052 92.2276 328.666 92.2276 325.848V303.918H86.5589V325.948C86.5589 328.566 85.8627 330.539 84.4703 331.864C83.1111 333.19 81.1884 333.854 78.7021 333.854C76.2489 333.854 74.3262 333.19 72.9338 331.864C71.5747 330.539 70.8951 328.566 70.8951 325.948ZM118.107 320.726C119.963 321.058 121.538 322.035 122.83 323.66C124.124 325.284 124.77 327.124 124.77 329.18C124.77 330.936 124.306 332.528 123.378 333.953C122.482 335.345 121.173 336.456 119.45 337.285C117.725 338.081 115.72 338.478 113.433 338.478H99.6089V303.918H112.786C115.14 303.918 117.162 304.316 118.853 305.112C120.543 305.908 121.82 306.985 122.682 308.344C123.543 309.67 123.974 311.162 123.974 312.819C123.974 314.809 123.444 316.466 122.383 317.793C121.322 319.119 119.897 320.097 118.107 320.726ZM105.278 318.438H112.288C114.145 318.438 115.587 318.024 116.615 317.196C117.675 316.334 118.206 315.107 118.206 313.515C118.206 311.957 117.675 310.747 116.615 309.886C115.587 308.991 114.145 308.543 112.288 308.543H105.278V318.438ZM112.935 333.854C114.858 333.854 116.366 333.39 117.46 332.461C118.554 331.533 119.101 330.24 119.101 328.583C119.101 326.892 118.521 325.549 117.361 324.555C116.201 323.561 114.659 323.063 112.737 323.063H105.278V333.854H112.935ZM151.82 333.903H136.599V303.918H130.93V338.478H151.82V333.903ZM163.899 303.918V338.478H158.23V303.918H163.899Z" fill="white" fill-opacity="0.16"/>
</g>
<defs>
<clipPath id="clip0_1758_76387">
<rect width="238.4" height="240" fill="white"/>
</clipPath>
</defs>
</svg>
