<svg width="160" height="160" viewBox="0 0 160 160" fill="none" xmlns="http://www.w3.org/2000/svg">
<circle cx="80" cy="80" r="79.5" fill="white" stroke="#DADCDE"/>
<path fill-rule="evenodd" clip-rule="evenodd" d="M107.991 51.845C106.251 47.2211 102.177 43.5573 97.6502 41.6204C93.0496 39.6502 88.3558 39.1701 83.1151 41.9238L87.4456 50.1514C91.5828 47.9745 97.6702 50.8248 99.2871 55.1187C100.624 58.6691 102.017 61.1061 103.544 63.0196C104.721 64.4931 105.985 65.6299 106.905 66.4534C107.115 66.6434 107.308 66.8167 107.478 66.9734C109.852 69.1737 110.638 72.5408 109.775 75.1411C109.055 77.318 107.991 79.9116 98.4536 79.9116V89.2094C110.082 89.2094 116.542 84.6922 118.739 78.0648C120.793 71.864 118.739 64.7298 113.805 60.1593C113.452 59.8326 113.145 59.5559 112.865 59.3025C112.035 58.5524 111.469 58.0424 110.815 57.2223C110.022 56.2255 109.065 54.692 107.991 51.845ZM76.381 79.915C67.5366 79.915 63.4428 80.9184 58.8055 82.1952C54.2917 83.4354 50.7412 85.0223 48.8177 86.4091C44.8105 89.2928 42.1936 93.0065 41.1901 97.127C40.19 101.241 40.8834 105.401 42.8703 108.982C46.8508 116.149 55.6818 120.663 66.4965 119.826C70.1302 119.546 72.5672 118.94 74.5241 118.45L74.6441 118.42C76.531 117.95 77.7778 117.659 79.6147 117.659C81.2949 117.659 81.9483 117.9 82.9684 118.276L83.0751 118.316C84.532 118.856 86.3955 119.543 89.7659 119.826C93.503 120.14 96.6101 120.086 99.6538 119.43C108.555 117.509 116.436 112.049 119.196 103.184C121.576 95.5402 117.913 89.9395 117.913 89.9395C117.913 89.9395 115.769 91.7431 114.236 92.6065C112.705 93.4699 110.068 94.36 110.068 94.36C110.068 94.36 111.675 97.207 109.765 101.474C107.598 106.315 105.494 107.742 97.6869 110.339C93.9831 111.139 89.7626 110.875 86.2088 109.565C84.6086 108.975 82.8084 108.362 79.608 108.362C76.4076 108.362 74.3641 108.905 72.3838 109.399L72.3038 109.419C70.4469 109.882 68.6267 110.335 65.7697 110.555C57.8154 111.169 52.8615 107.838 50.9913 104.468C50.0545 102.778 49.8078 100.998 50.2145 99.3206C50.6212 97.6504 51.7647 95.7269 54.2383 93.95C54.8917 93.4799 57.252 92.2565 61.2625 91.1563C65.1463 90.0862 69.3901 89.2094 76.3676 89.2094V79.9116L76.381 79.915ZM76.6577 41.8138C66.8498 36.6798 54.295 43.7873 52.4881 54.0652C51.8614 57.6256 50.3679 58.8225 48.1776 60.576C47.5775 61.0561 46.9275 61.5761 46.2274 62.1995C39.4799 68.2102 37.5997 76.6713 43.6704 85.509C43.6704 85.509 45.7707 83.5587 47.4208 82.512C48.8177 81.6218 51.408 80.5784 51.408 80.5784C47.4208 75.1444 49.2611 72.3474 52.4881 68.3969C53.3816 67.3035 54.3217 66.57 55.2518 65.8433C57.412 64.1531 59.5256 62.5029 60.9025 56.4722C61.8592 52.2783 67.5966 47.5711 72.3405 50.0547L76.6577 41.8204V41.8138Z" fill="#0A2515"/>
</svg>
