<svg width="298" height="240" viewBox="0 0 298 240" fill="none" xmlns="http://www.w3.org/2000/svg">
<g clip-path="url(#clip0_1758_76385)">
<path fill-rule="evenodd" clip-rule="evenodd" d="M252.827 44.0476C246.351 26.8529 231.207 13.2315 214.37 6.02243C197.265 -1.30107 179.808 -3.08596 160.326 7.15669L176.429 37.7526C191.818 29.6616 214.444 40.2617 220.458 56.2278C225.43 69.4279 230.611 78.4954 236.291 85.6088C240.667 91.0897 245.371 95.3112 248.787 98.3762L248.788 98.3774C249.573 99.0816 250.289 99.7246 250.918 100.308C259.743 108.491 262.665 121.007 259.458 130.685C256.776 138.775 252.827 148.427 217.357 148.427V182.998C260.593 182.998 284.619 166.205 292.788 141.554C300.43 118.49 292.776 91.9675 274.443 74.9654C273.135 73.7518 271.987 72.7157 270.95 71.7796C267.863 68.9929 265.759 67.094 263.323 64.0437C260.368 60.3415 256.815 54.6341 252.827 44.0476ZM135.29 148.427C102.397 148.427 87.1796 152.161 69.9358 156.905C53.1541 161.523 39.9519 167.424 32.7958 172.572C17.891 183.294 8.16538 197.106 4.43543 212.43C0.712491 227.725 3.29826 243.205 10.686 256.512C25.4841 283.169 58.3204 299.948 98.5458 296.843C112.064 295.799 121.114 293.54 128.399 291.721L128.846 291.61C135.857 289.862 140.494 288.779 147.33 288.779C153.581 288.779 156.001 289.672 159.8 291.074H159.801L160.2 291.222C165.621 293.225 172.546 295.785 185.085 296.834C198.988 297.997 210.532 297.797 221.86 295.352C254.963 288.208 284.26 267.912 294.529 234.95C303.386 206.529 289.757 185.702 289.757 185.702C289.757 185.702 281.783 192.409 276.088 195.62C270.394 198.831 260.593 202.144 260.593 202.144C260.593 202.144 266.569 212.727 259.469 228.595C251.416 246.595 243.594 251.901 214.558 261.56C200.788 264.533 185.089 263.56 171.871 258.678C165.92 256.48 159.231 254.208 147.33 254.208C135.967 254.208 127.829 256.233 120.472 258.068L120.174 258.143C113.272 259.864 106.497 261.554 95.8817 262.375C66.3001 264.658 47.8845 252.268 40.9295 239.74C37.4407 233.455 36.5248 226.838 38.0426 220.603C39.5534 214.396 43.8112 207.242 53.0003 200.631C55.4316 198.883 64.2077 194.338 79.1163 190.236C93.5629 186.26 109.339 182.998 135.29 182.998V148.427ZM136.318 6.75071C99.8514 -12.3446 53.1658 14.0865 46.4414 52.3141C44.1126 65.5524 38.5546 70.0025 30.4102 76.5237C28.1824 78.3074 25.7611 80.246 23.1594 82.562C-1.93583 104.9 -8.92582 136.364 13.6506 169.226C13.6506 169.226 21.4607 161.98 27.5971 158.078C32.7958 154.77 42.4289 150.889 42.4289 150.889C27.5972 130.685 34.4416 120.279 46.4414 105.594C49.7644 101.527 53.2574 98.7968 56.717 96.0927C64.7545 89.8101 72.6109 83.669 77.7338 61.2397C81.2953 45.6475 102.624 28.1349 120.267 37.3734L136.318 6.75071ZM2.9218 468.072C0.973934 471.429 0 475.221 0 479.448C0 483.676 0.973934 487.468 2.9218 490.825C4.9111 494.182 7.58424 496.814 10.9412 498.719C14.2981 500.585 18.0074 501.517 22.0688 501.517C26.6691 501.517 30.7514 500.398 34.3155 498.16C37.9212 495.922 40.5321 492.731 42.1485 488.586H33.6317C32.5128 490.866 30.9586 492.565 28.9693 493.685C26.98 494.803 24.6798 495.363 22.0688 495.363C19.2093 495.363 16.6604 494.72 14.4224 493.436C12.1845 492.109 10.4231 490.245 9.13837 487.841C7.89506 485.437 7.2734 482.639 7.2734 479.448C7.2734 476.257 7.89506 473.46 9.13837 471.056C10.4231 468.652 12.1845 466.807 14.4224 465.523C16.6604 464.239 19.2093 463.595 22.0688 463.595C24.6798 463.595 26.98 464.156 28.9693 465.274C30.9586 466.393 32.5128 468.093 33.6317 470.372H42.1485C40.5321 466.227 37.9212 463.036 34.3155 460.799C30.7514 458.519 26.6691 457.38 22.0688 457.38C18.0488 457.38 14.3396 458.333 10.9412 460.238C7.58424 462.104 4.9111 464.715 2.9218 468.072ZM59.0225 498.782C62.421 500.647 66.1302 501.579 70.1503 501.579C74.2118 501.579 77.921 500.647 81.2779 498.782C84.6764 496.876 87.3495 494.244 89.2974 490.887C91.2453 487.489 92.2191 483.676 92.2191 479.448C92.2191 475.221 91.2453 471.429 89.2974 468.072C87.3495 464.715 84.6764 462.104 81.2779 460.238C77.921 458.333 74.2118 457.38 70.1503 457.38C66.1302 457.38 62.421 458.333 59.0225 460.238C55.6656 462.104 52.9925 464.715 51.0032 468.072C49.0553 471.429 48.0814 475.221 48.0814 479.448C48.0814 483.676 49.0553 487.489 51.0032 490.887C52.9925 494.244 55.6656 496.876 59.0225 498.782ZM77.7967 493.498C75.5587 494.782 73.0098 495.425 70.1503 495.425C67.2906 495.425 64.7419 494.782 62.5039 493.498C60.2659 492.171 58.5045 490.307 57.2198 487.903C55.9764 485.457 55.3548 482.639 55.3548 479.448C55.3548 476.257 55.9764 473.46 57.2198 471.056C58.5045 468.652 60.2659 466.807 62.5039 465.523C64.7419 464.239 67.2906 463.595 70.1503 463.595C73.0098 463.595 75.5587 464.239 77.7967 465.523C80.0347 466.807 81.7753 468.652 83.0186 471.056C84.3033 473.46 84.9457 476.257 84.9457 479.448C84.9457 482.639 84.3033 485.457 83.0186 487.903C81.7753 490.307 80.0347 492.171 77.7967 493.498ZM134.69 501.144H127.603L106.28 468.88V501.144H99.1929V457.877H106.28L127.603 490.078V457.877H134.69V501.144ZM172.406 501.144H179.493V457.877H172.406V490.078L151.083 457.877H143.996V501.144H151.083V468.88L172.406 501.144ZM195.886 463.657V476.339H210.806V482.121H195.886V495.363H212.67V501.144H188.799V457.877H212.67V463.657H195.886ZM221.959 468.072C220.012 471.429 219.037 475.221 219.037 479.448C219.037 483.676 220.012 487.468 221.959 490.825C223.949 494.182 226.622 496.814 229.979 498.719C233.336 500.585 237.045 501.517 241.106 501.517C245.706 501.517 249.788 500.398 253.352 498.16C256.959 495.922 259.569 492.731 261.186 488.586H252.669C251.55 490.866 249.995 492.565 248.007 493.685C246.017 494.803 243.718 495.363 241.106 495.363C238.247 495.363 235.698 494.72 233.46 493.436C231.222 492.109 229.46 490.245 228.176 487.841C226.933 485.437 226.31 482.639 226.31 479.448C226.31 476.257 226.933 473.46 228.176 471.056C229.46 468.652 231.222 466.807 233.46 465.523C235.698 464.239 238.247 463.595 241.106 463.595C243.718 463.595 246.017 464.156 248.007 465.274C249.995 466.393 251.55 468.093 252.669 470.372H261.186C259.569 466.227 256.959 463.036 253.352 460.799C249.788 458.519 245.706 457.38 241.106 457.38C237.087 457.38 233.376 458.333 229.979 460.238C226.622 462.104 223.949 464.715 221.959 468.072ZM297.393 457.939V463.721H285.893V501.144H278.807V463.721H267.243V457.939H297.393ZM214.737 390.03C212.789 393.387 211.815 397.178 211.815 401.405C211.815 405.632 212.789 409.423 214.737 412.78C216.725 416.136 219.398 418.768 222.755 420.674C226.112 422.539 229.82 423.471 233.881 423.471C238.481 423.471 242.562 422.352 246.126 420.114C249.731 417.876 252.342 414.686 253.959 410.543H245.442C244.324 412.821 242.769 414.521 240.781 415.639C238.791 416.758 236.492 417.317 233.881 417.317C231.022 417.317 228.474 416.675 226.236 415.391C223.998 414.064 222.237 412.2 220.952 409.796C219.709 407.393 219.088 404.596 219.088 401.405C219.088 398.214 219.709 395.417 220.952 393.014C222.237 390.61 223.998 388.767 226.236 387.481C228.474 386.197 231.022 385.555 233.881 385.555C236.492 385.555 238.791 386.114 240.781 387.233C242.769 388.351 244.324 390.051 245.442 392.329H253.959C252.342 388.186 249.731 384.995 246.126 382.758C242.562 380.478 238.481 379.339 233.881 379.339C229.862 379.339 226.153 380.292 222.755 382.198C219.398 384.063 216.725 386.674 214.737 390.03ZM73.2828 398.98C74.3188 397.033 74.8367 394.961 74.8367 392.764C74.8367 390.362 74.2567 388.186 73.0964 386.239C71.9776 384.291 70.2579 382.758 67.9372 381.638C65.6581 380.478 62.861 379.898 59.546 379.898H44.6281V423.098H51.7141V405.569H59.546C63.1097 405.569 66.0311 404.969 68.3102 403.767C70.5894 402.523 72.2469 400.929 73.2828 398.98ZM65.5753 397.986C64.2492 399.188 62.2395 399.788 59.546 399.788H51.7141V385.679H59.546C64.8915 385.679 67.5643 388.041 67.5643 392.764C67.5643 395.002 66.9014 396.743 65.5753 397.986ZM88.6189 407.435V379.898H81.5328V407.31C81.5328 410.833 82.2787 413.815 83.7705 416.261C85.2624 418.706 87.2721 420.529 89.7998 421.731C92.369 422.932 95.2076 423.533 98.3155 423.533C101.423 423.533 104.262 422.932 106.831 421.731C109.4 420.529 111.451 418.706 112.985 416.261C114.518 413.815 115.285 410.833 115.285 407.31V379.898H108.199V407.435C108.199 410.707 107.328 413.173 105.588 414.831C103.889 416.488 101.486 417.317 98.3776 417.317C95.3111 417.317 92.9078 416.488 91.1673 414.831C89.4683 413.173 88.6189 410.707 88.6189 407.435ZM147.633 400.908C149.954 401.322 151.923 402.544 153.538 404.575C155.155 406.605 155.963 408.905 155.963 411.475C155.963 413.67 155.383 415.66 154.222 417.441C153.103 419.182 151.467 420.57 149.312 421.607C147.156 422.601 144.65 423.098 141.791 423.098H124.511V379.898H140.983C143.924 379.898 146.452 380.395 148.566 381.391C150.679 382.385 152.275 383.731 153.352 385.431C154.429 387.088 154.967 388.952 154.967 391.024C154.967 393.511 154.305 395.582 152.979 397.241C151.652 398.898 149.871 400.121 147.633 400.908ZM131.597 398.048H140.36C142.681 398.048 144.483 397.53 145.769 396.495C147.094 395.417 147.757 393.884 147.757 391.894C147.757 389.947 147.094 388.434 145.769 387.357C144.483 386.239 142.681 385.679 140.36 385.679H131.597V398.048ZM141.169 417.317C143.572 417.317 145.458 416.737 146.825 415.577C148.193 414.417 148.877 412.8 148.877 410.729C148.877 408.615 148.152 406.936 146.701 405.694C145.251 404.451 143.323 403.829 140.921 403.829H131.597V417.317H141.169ZM189.775 417.379H170.748V379.898H163.662V423.098H189.775V417.379ZM204.874 379.898V423.098H197.788V379.898H204.874Z" fill="white" fill-opacity="0.16"/>
</g>
<defs>
<clipPath id="clip0_1758_76385">
<rect width="298" height="300" fill="white"/>
</clipPath>
</defs>
</svg>
