<svg xmlns="http://www.w3.org/2000/svg" width="342" height="345" viewBox="0 0 342 345" fill="none">
<path fill-rule="evenodd" clip-rule="evenodd" d="M290.157 50.5512C282.725 30.8177 265.345 15.1851 246.022 6.91164C226.391 -1.49317 206.357 -3.5416 183.999 8.21338L202.478 43.3269C220.14 34.0411 246.107 46.2064 253.009 64.5299C258.715 79.679 264.661 90.0853 271.18 98.2491C276.202 104.539 281.601 109.384 285.52 112.902L285.522 112.903C286.422 113.711 287.245 114.449 287.966 115.118C298.094 124.51 301.448 138.874 297.767 149.98C294.69 159.265 290.157 170.342 249.451 170.342V210.017C299.07 210.017 326.644 190.745 336.018 162.455C344.789 135.985 336.005 105.547 314.965 86.0341C313.464 84.6413 312.146 83.4522 310.956 82.3779C307.413 79.1798 304.999 77.0005 302.203 73.4998C298.811 69.251 294.734 62.7009 290.157 50.5512ZM155.266 170.342C117.516 170.342 100.052 174.627 80.2619 180.072C61.0023 185.372 45.8509 192.144 37.6382 198.052C20.5327 210.357 9.37101 226.209 5.09032 243.795C0.817692 261.349 3.78526 279.114 12.2638 294.387C29.2469 324.979 66.9314 344.236 113.096 340.672C128.611 339.474 138.997 336.882 147.357 334.794L147.871 334.666C155.916 332.66 161.238 331.417 169.083 331.417C176.258 331.417 179.035 332.443 183.394 334.052H183.396L183.854 334.221C190.075 336.52 198.022 339.458 212.413 340.662C228.369 341.996 241.617 341.767 254.618 338.962C292.608 330.763 326.231 307.47 338.017 269.64C348.181 237.023 332.54 213.122 332.54 213.122C332.54 213.122 323.389 220.818 316.853 224.503C310.318 228.188 299.07 231.991 299.07 231.991C299.07 231.991 305.928 244.137 297.78 262.347C288.538 283.005 279.561 289.094 246.238 300.18C230.435 303.592 212.417 302.475 197.249 296.872C190.418 294.35 182.741 291.742 169.083 291.742C156.043 291.742 146.703 294.067 138.26 296.172L137.918 296.258C129.997 298.234 122.222 300.173 110.039 301.115C76.0894 303.735 54.9547 289.515 46.9728 275.137C42.9689 267.924 41.9177 260.331 43.6596 253.175C45.3935 246.052 50.2799 237.841 60.8259 230.254C63.6161 228.248 73.688 223.032 90.7979 218.324C107.378 213.762 125.483 210.017 155.266 210.017V170.342ZM156.445 7.74746C114.595 -14.1673 61.0158 16.1664 53.2985 60.0383C50.6259 75.2312 44.2472 80.3385 34.9003 87.8225C32.3436 89.8696 29.5647 92.0944 26.5789 94.7523C-2.22166 120.389 -10.2437 156.498 15.6662 194.212C15.6662 194.212 24.6294 185.897 31.6719 181.418C37.6382 177.622 48.6936 173.168 48.6936 173.168C31.6719 149.98 39.527 138.038 53.2985 121.185C57.1122 116.518 61.121 113.384 65.0913 110.281C74.3156 103.071 83.332 96.0228 89.2113 70.2818C93.2986 52.3874 117.777 32.2891 138.024 42.8917L156.445 7.74746ZM3.35321 537.183C1.11774 541.036 0 545.388 0 550.239C0 555.091 1.11774 559.443 3.35321 563.296C5.63623 567.148 8.70406 570.169 12.5567 572.355C16.4092 574.497 20.6663 575.566 25.3273 575.566C30.6069 575.566 35.2918 574.282 39.3823 571.714C43.5204 569.146 46.5167 565.484 48.3718 560.726H38.5975C37.3134 563.343 35.5297 565.293 33.2467 566.578C30.9637 567.861 28.3238 568.504 25.3273 568.504C22.0456 568.504 19.1203 567.766 16.5519 566.292C13.9836 564.77 11.9621 562.63 10.4877 559.871C9.06077 557.112 8.34733 553.901 8.34733 550.239C8.34733 546.577 9.06077 543.366 10.4877 540.608C11.9621 537.849 13.9836 535.732 16.5519 534.258C19.1203 532.784 22.0456 532.046 25.3273 532.046C28.3238 532.046 30.9637 532.689 33.2467 533.972C35.5297 535.257 37.3134 537.207 38.5975 539.822H48.3718C46.5167 535.066 43.5204 531.404 39.3823 528.836C35.2918 526.22 30.6069 524.912 25.3273 524.912C20.7138 524.912 16.4569 526.006 12.5567 528.193C8.70406 530.334 5.63623 533.331 3.35321 537.183ZM67.7373 572.428C71.6375 574.568 75.8944 575.638 80.5081 575.638C85.1693 575.638 89.4262 574.568 93.2787 572.428C97.1789 570.24 100.247 567.219 102.482 563.367C104.718 559.467 105.835 555.091 105.835 550.239C105.835 545.388 104.718 541.036 102.482 537.183C100.247 533.331 97.1789 530.334 93.2787 528.193C89.4262 526.006 85.1693 524.912 80.5081 524.912C75.8944 524.912 71.6375 526.006 67.7373 528.193C63.8847 530.334 60.8169 533.331 58.5339 537.183C56.2984 541.036 55.1807 545.388 55.1807 550.239C55.1807 555.091 56.2984 559.467 58.5339 563.367C60.8169 567.219 63.8847 570.24 67.7373 572.428ZM89.2835 566.363C86.715 567.837 83.7898 568.575 80.5081 568.575C77.2262 568.575 74.3011 567.837 71.7327 566.363C69.1642 564.841 67.1427 562.701 65.6684 559.942C64.2414 557.135 63.528 553.901 63.528 550.239C63.528 546.577 64.2414 543.366 65.6684 540.608C67.1427 537.849 69.1642 535.732 71.7327 534.258C74.3011 532.784 77.2262 532.046 80.5081 532.046C83.7898 532.046 86.715 532.784 89.2835 534.258C91.8519 535.732 93.8495 537.849 95.2763 540.608C96.7508 543.366 97.4881 546.577 97.4881 550.239C97.4881 553.901 96.7508 557.135 95.2763 559.942C93.8495 562.701 91.8519 564.841 89.2835 566.363ZM154.577 575.138H146.444L121.972 538.111V575.138H113.839V525.483H121.972L146.444 562.439V525.483H154.577V575.138ZM197.862 575.138H205.995V525.483H197.862V562.439L173.391 525.483H165.257V575.138H173.391V538.111L197.862 575.138ZM224.809 532.117V546.671H241.932V553.307H224.809V568.504H244.071V575.138H216.676V525.483H244.071V532.117H224.809ZM254.732 537.183C252.497 541.036 251.378 545.388 251.378 550.239C251.378 555.091 252.497 559.443 254.732 563.296C257.015 567.148 260.082 570.169 263.935 572.355C267.788 574.497 272.045 575.566 276.705 575.566C281.985 575.566 286.67 574.282 290.76 571.714C294.899 569.146 297.895 565.484 299.75 560.726H289.976C288.692 563.343 286.908 565.293 284.626 566.578C282.342 567.861 279.703 568.504 276.705 568.504C273.425 568.504 270.499 567.766 267.93 566.292C265.362 564.77 263.34 562.63 261.866 559.871C260.44 557.112 259.725 553.901 259.725 550.239C259.725 546.577 260.44 543.366 261.866 540.608C263.34 537.849 265.362 535.732 267.93 534.258C270.499 532.784 273.425 532.046 276.705 532.046C279.703 532.046 282.342 532.689 284.626 533.972C286.908 535.257 288.692 537.207 289.976 539.822H299.75C297.895 535.066 294.899 531.404 290.76 528.836C286.67 526.22 281.985 524.912 276.705 524.912C272.093 524.912 267.835 526.006 263.935 528.193C260.082 530.334 257.015 533.331 254.732 537.183ZM341.303 525.554V532.19H328.105V575.138H319.973V532.19H306.702V525.554H341.303ZM246.443 447.618C244.208 451.471 243.09 455.821 243.09 460.673C243.09 465.524 244.208 469.875 246.443 473.728C248.725 477.579 251.792 480.599 255.645 482.787C259.498 484.927 263.753 485.997 268.414 485.997C273.693 485.997 278.377 484.712 282.467 482.144C286.605 479.576 289.601 475.914 291.456 471.16H281.682C280.399 473.775 278.615 475.725 276.333 477.008C274.049 478.293 271.41 478.935 268.414 478.935C265.133 478.935 262.208 478.198 259.64 476.724C257.072 475.202 255.05 473.062 253.576 470.303C252.149 467.544 251.437 464.335 251.437 460.673C251.437 457.011 252.149 453.801 253.576 451.043C255.05 448.284 257.072 446.168 259.64 444.693C262.208 443.219 265.133 442.482 268.414 442.482C271.41 442.482 274.049 443.124 276.333 444.408C278.615 445.692 280.399 447.642 281.682 450.257H291.456C289.601 445.503 286.605 441.84 282.467 439.272C278.377 436.656 273.693 435.349 268.414 435.349C263.801 435.349 259.545 436.443 255.645 438.629C251.792 440.771 248.725 443.767 246.443 447.618ZM84.1031 457.89C85.2921 455.655 85.8865 453.278 85.8865 450.757C85.8865 447.999 85.2208 445.503 83.8891 443.267C82.6051 441.032 80.6316 439.272 77.9682 437.988C75.3526 436.656 72.1425 435.99 68.3381 435.99H51.2175V485.569H59.3497V465.452H68.3381C72.4279 465.452 75.7807 464.763 78.3963 463.383C81.012 461.956 82.9143 460.126 84.1031 457.89ZM75.2576 456.749C73.7357 458.129 71.4292 458.818 68.3381 458.818H59.3497V442.624H68.3381C74.4728 442.624 77.5403 445.336 77.5403 450.757C77.5403 453.325 76.7794 455.322 75.2576 456.749ZM101.704 467.593V435.99H93.5712V467.449C93.5712 471.492 94.4273 474.916 96.1394 477.723C97.8514 480.528 100.158 482.621 103.059 484C106.007 485.378 109.265 486.068 112.832 486.068C116.399 486.068 119.656 485.378 122.605 484C125.553 482.621 127.907 480.528 129.667 477.723C131.427 474.916 132.306 471.492 132.306 467.449V435.99H124.174V467.593C124.174 471.349 123.176 474.179 121.178 476.081C119.228 477.983 116.47 478.935 112.903 478.935C109.384 478.935 106.626 477.983 104.628 476.081C102.678 474.179 101.704 471.349 101.704 467.593ZM169.432 460.102C172.095 460.577 174.354 461.98 176.208 464.311C178.063 466.641 178.991 469.28 178.991 472.229C178.991 474.749 178.325 477.033 176.993 479.077C175.709 481.074 173.831 482.668 171.358 483.857C168.884 484.998 166.007 485.569 162.727 485.569H142.895V435.99H161.799C165.175 435.99 168.076 436.561 170.502 437.703C172.927 438.844 174.758 440.389 175.995 442.34C177.231 444.242 177.848 446.382 177.848 448.759C177.848 451.613 177.089 453.99 175.566 455.894C174.044 457.796 172 459.199 169.432 460.102ZM151.028 456.82H161.085C163.748 456.82 165.817 456.225 167.292 455.037C168.813 453.801 169.574 452.041 169.574 449.758C169.574 447.523 168.813 445.787 167.292 444.551C165.817 443.267 163.748 442.624 161.085 442.624H151.028V456.82ZM162.012 478.935C164.771 478.935 166.935 478.269 168.504 476.937C170.073 475.606 170.859 473.75 170.859 471.373C170.859 468.947 170.026 467.021 168.362 465.595C166.697 464.168 164.485 463.454 161.728 463.454H151.028V478.935H162.012ZM217.795 479.006H195.96V435.99H187.827V485.569H217.795V479.006ZM235.124 435.99V485.569H226.992V435.99H235.124Z" fill="#EBF4FD"/>
</svg>