<svg width="40" height="40" viewBox="0 0 40 40" fill="none" xmlns="http://www.w3.org/2000/svg">
<circle cx="20" cy="20" r="20" fill="#333333" fill-opacity="0.8"/>
<mask id="mask0_371_77826" style="mask-type:alpha" maskUnits="userSpaceOnUse" x="8" y="8" width="24" height="24">
<rect x="8" y="8" width="24" height="24" fill="#D9D9D9"/>
</mask>
<g mask="url(#mask0_371_77826)">
<path d="M14.5 22C14.0833 22 13.7293 21.854 13.438 21.562C13.146 21.2707 13 20.9167 13 20.5C13 20.0833 13.146 19.7293 13.438 19.438C13.7293 19.146 14.0833 19 14.5 19C14.9167 19 15.271 19.146 15.563 19.438C15.8543 19.7293 16 20.0833 16 20.5C16 20.9167 15.8543 21.2707 15.563 21.562C15.271 21.854 14.9167 22 14.5 22ZM20.275 22C19.8583 22 19.5043 21.854 19.213 21.562C18.921 21.2707 18.775 20.9167 18.775 20.5C18.775 20.0833 18.921 19.7293 19.213 19.438C19.5043 19.146 19.8583 19 20.275 19C20.6917 19 21.0457 19.146 21.337 19.438C21.629 19.7293 21.775 20.0833 21.775 20.5C21.775 20.9167 21.629 21.2707 21.337 21.562C21.0457 21.854 20.6917 22 20.275 22ZM26.05 22C25.6333 22 25.2793 21.854 24.988 21.562C24.696 21.2707 24.55 20.9167 24.55 20.5C24.55 20.0833 24.696 19.7293 24.988 19.438C25.2793 19.146 25.6333 19 26.05 19C26.4667 19 26.821 19.146 27.113 19.438C27.4043 19.7293 27.55 20.0833 27.55 20.5C27.55 20.9167 27.4043 21.2707 27.113 21.562C26.821 21.854 26.4667 22 26.05 22Z" fill="white"/>
</g>
</svg>
