<svg width="64" height="64" viewBox="0 0 64 64" fill="none" xmlns="http://www.w3.org/2000/svg">
<mask id="mask0_985_81353" style="mask-type:luminance" maskUnits="userSpaceOnUse" x="0" y="0" width="64" height="64">
<path d="M0 3.8147e-06H64V64H0V3.8147e-06Z" fill="white"/>
</mask>
<g mask="url(#mask0_985_81353)">
<path d="M6.29475 60.6758V60.674C3.33613 60.6738 0.9375 58.277 0.9375 55.3185V13.7513C0.9375 12.485 1.964 11.4584 3.23038 11.4584H6.29475H11.6521" stroke="black" stroke-width="2" stroke-miterlimit="10" stroke-linecap="round" stroke-linejoin="round"/>
<path d="M42.9586 60.6758H57.7053C60.6641 60.6758 63.0627 58.2773 63.0627 55.3185V5.61679C63.0627 4.35054 62.0361 3.32391 60.7698 3.32391H13.9452C12.6788 3.32391 11.6523 4.35054 11.6523 5.61679V29.8955" stroke="black" stroke-width="2" stroke-miterlimit="10" stroke-linecap="round" stroke-linejoin="round"/>
<path d="M11.6503 33.3955V55.3185C11.6503 58.2773 9.25184 60.6758 6.29309 60.6758H39.4566" stroke="black" stroke-width="2" stroke-miterlimit="10" stroke-linecap="round" stroke-linejoin="round"/>
<path d="M33.3963 38.8555H20.5387C19.8312 38.8555 19.2578 38.282 19.2578 37.5746V24.717C19.2578 24.0095 19.8312 23.436 20.5387 23.436H33.3963C34.1037 23.436 34.6772 24.0095 34.6772 24.717V37.5746C34.6772 38.282 34.1037 38.8555 33.3963 38.8555Z" stroke="black" stroke-width="2" stroke-miterlimit="10" stroke-linecap="round" stroke-linejoin="round"/>
<path d="M39.0234 23.4375H56.4236" stroke="black" stroke-width="2" stroke-miterlimit="10" stroke-linecap="round" stroke-linejoin="round"/>
<path d="M39.0234 31.1484H56.4236" stroke="black" stroke-width="2" stroke-miterlimit="10" stroke-linecap="round" stroke-linejoin="round"/>
<path d="M39.0234 38.8555H56.4236" stroke="black" stroke-width="2" stroke-miterlimit="10" stroke-linecap="round" stroke-linejoin="round"/>
<path d="M19.2578 46.5664H56.4226" stroke="black" stroke-width="2" stroke-miterlimit="10" stroke-linecap="round" stroke-linejoin="round"/>
<path d="M19.2578 54.2773H56.4226" stroke="black" stroke-width="2" stroke-miterlimit="10" stroke-linecap="round" stroke-linejoin="round"/>
<path d="M18.3477 17.7023V7.79588C18.3477 7.59238 18.4443 7.43713 18.6377 7.33025C18.8309 7.22338 19.065 7.17 19.3398 7.17C19.7062 7.17 19.9859 7.23625 20.1794 7.36838C20.3725 7.50088 20.5863 7.78588 20.8205 8.22325L23.7665 13.9168V7.78063C23.7665 7.57712 23.863 7.4245 24.0564 7.32263C24.2497 7.221 24.4839 7.17 24.7587 7.17C25.0334 7.17 25.2673 7.221 25.4608 7.32263C25.654 7.4245 25.7508 7.57712 25.7508 7.78063V17.7023C25.7508 17.8958 25.6515 18.0484 25.4532 18.1603C25.2547 18.2724 25.0232 18.3281 24.7587 18.3281C24.2192 18.3281 23.8375 18.1196 23.6138 17.7023L20.332 11.566V17.7023C20.332 17.8958 20.2328 18.0484 20.0344 18.1603C19.8359 18.2724 19.6044 18.3281 19.3398 18.3281C19.065 18.3281 18.8309 18.2724 18.6377 18.1603C18.4443 18.0484 18.3477 17.8958 18.3477 17.7023Z" fill="#0871E1"/>
<path d="M27.582 17.7023V7.79588C27.582 7.60263 27.6684 7.45 27.8415 7.33788C28.0144 7.226 28.2179 7.17 28.452 7.17H33.8862C34.0897 7.17 34.2449 7.25663 34.3517 7.4295C34.4585 7.60263 34.5119 7.80113 34.5119 8.02475C34.5119 8.269 34.4559 8.47775 34.344 8.65063C34.232 8.82388 34.0794 8.91013 33.8862 8.91013H29.5664V11.963H31.8865C32.0797 11.963 32.2324 12.0419 32.3445 12.1996C32.4563 12.3574 32.5124 12.543 32.5124 12.7568C32.5124 12.95 32.4589 13.1256 32.3522 13.2833C32.2453 13.4411 32.0899 13.5199 31.8865 13.5199H29.5664V16.588H33.8862C34.0794 16.588 34.232 16.6745 34.344 16.8475C34.4559 17.0206 34.5119 17.2291 34.5119 17.4734C34.5119 17.6973 34.4585 17.8958 34.3517 18.0686C34.2449 18.2418 34.0897 18.3281 33.8862 18.3281H28.452C28.2179 18.3281 28.0144 18.2724 27.8415 18.1603C27.6684 18.0484 27.582 17.8958 27.582 17.7023Z" fill="#0871E1"/>
<path d="M35.5039 7.966C35.5039 7.75225 35.6413 7.56675 35.916 7.40887C36.1908 7.25125 36.4755 7.17225 36.7708 7.17225C37.1372 7.17225 37.3559 7.30462 37.4272 7.56912L39.8389 15.8424L41.1364 10.5304C41.2279 10.164 41.5535 9.98088 42.1133 9.98088C42.6628 9.98088 42.9833 10.164 43.0749 10.5304L44.3724 15.8424L46.7842 7.56912C46.8552 7.30462 47.0742 7.17225 47.4405 7.17225C47.7355 7.17225 48.0205 7.25125 48.2953 7.40887C48.57 7.56675 48.7074 7.75225 48.7074 7.966C48.7074 8.027 48.6972 8.08813 48.6769 8.14925L45.6545 17.7502C45.5019 18.1982 45.0693 18.4219 44.3572 18.4219C44.0518 18.4219 43.7772 18.3634 43.5328 18.2464C43.2887 18.1296 43.141 17.964 43.0902 17.7502L42.1133 13.629L41.1212 17.7502C41.07 17.964 40.9227 18.1296 40.6784 18.2464C40.4342 18.3634 40.1595 18.4219 39.8542 18.4219C39.5387 18.4219 39.2589 18.3634 39.0147 18.2464C38.7704 18.1296 38.6178 17.964 38.5567 17.7502L35.5344 8.14925C35.5139 8.08813 35.5039 8.027 35.5039 7.966Z" fill="#0871E1"/>
<path d="M49.2109 16.5721C49.2109 16.3381 49.2999 16.1015 49.4781 15.8622C49.6561 15.6233 49.8571 15.5036 50.0809 15.5036C50.2132 15.5036 50.3634 15.5671 50.5313 15.694C50.6992 15.8207 50.8619 15.961 51.0198 16.1142C51.1773 16.2675 51.4037 16.4076 51.6989 16.5343C51.9941 16.6613 52.3196 16.7247 52.6759 16.7247C53.1643 16.7247 53.5712 16.6128 53.8971 16.3888C54.2226 16.1652 54.3854 15.8345 54.3854 15.3968C54.3854 15.0915 54.2963 14.8193 54.1183 14.5801C53.9402 14.3411 53.7062 14.1426 53.4162 13.9848C53.1262 13.8272 52.8081 13.6745 52.4622 13.527C52.1162 13.3795 51.7677 13.214 51.4167 13.0308C51.0656 12.8476 50.7449 12.6416 50.4549 12.4126C50.1649 12.1837 49.9307 11.8783 49.7528 11.4967C49.5747 11.1152 49.4857 10.6801 49.4857 10.1917C49.4857 9.64434 49.5949 9.16134 49.8139 8.74297C50.0326 8.32472 50.3253 7.99934 50.6916 7.76709C51.0579 7.53472 51.4496 7.36422 51.8669 7.25572C52.2841 7.14747 52.7267 7.09309 53.1949 7.09309C53.4594 7.09309 53.7392 7.11135 54.0344 7.14785C54.3294 7.1846 54.6423 7.24472 54.9732 7.32822C55.3037 7.41197 55.5734 7.54272 55.7822 7.72009C55.9906 7.89772 56.0951 8.10659 56.0951 8.34709C56.0951 8.57372 56.0237 8.80809 55.8814 9.05022C55.7388 9.29234 55.5456 9.41322 55.3013 9.41322C55.2098 9.41322 54.9603 9.31659 54.5534 9.12309C54.1463 8.92997 53.6933 8.83322 53.1949 8.83322C52.6454 8.83322 52.2204 8.93759 51.9203 9.14609C51.6201 9.35484 51.4701 9.64222 51.4701 10.0085C51.4701 10.3038 51.5922 10.5606 51.8363 10.7793C52.0807 10.9982 52.3832 11.1762 52.7447 11.3136C53.1057 11.451 53.4976 11.6241 53.9199 11.8326C54.3421 12.0412 54.7339 12.2676 55.0953 12.5118C55.4563 12.7561 55.7593 13.1097 56.0034 13.5727C56.2477 14.0358 56.3698 14.5777 56.3698 15.1983C56.3698 16.242 56.0364 17.0475 55.3701 17.6143C54.7034 18.1815 53.8257 18.4648 52.7369 18.4648C51.7701 18.4648 50.9408 18.2665 50.2489 17.8696C49.5568 17.4727 49.2109 17.0402 49.2109 16.5721Z" fill="#0871E1"/>
</g>
</svg>
