<svg width="40" height="40" viewBox="0 0 40 40" fill="none" xmlns="http://www.w3.org/2000/svg">
<path d="M7.10087 31.2495C9.20084 29.7829 11.2841 28.6579 13.3508 27.8746C15.4174 27.0913 17.634 26.6996 20.0007 26.6996C22.3673 26.6996 24.5923 27.0913 26.6756 27.8746C28.7589 28.6579 30.8505 29.7829 32.9505 31.2495C34.4171 29.4496 35.4588 27.6329 36.0754 25.7996C36.6921 23.9663 37.0004 22.033 37.0004 19.9997C37.0004 15.1664 35.3754 11.1248 32.1255 7.87488C28.8755 4.62493 24.8339 2.99995 20.0007 2.99995C15.1674 2.99995 11.1258 4.62493 7.87586 7.87488C4.62591 11.1248 3.00093 15.1664 3.00093 19.9997C3.00093 22.033 3.31759 23.9663 3.95092 25.7996C4.58424 27.6329 5.63422 29.4496 7.10087 31.2495ZM20.0007 21.4997C18.0674 21.4997 16.4424 20.8413 15.1257 19.5247C13.8091 18.2081 13.1508 16.5831 13.1508 14.6498C13.1508 12.7165 13.8091 11.0915 15.1257 9.77485C16.4424 8.4582 18.0674 7.79988 20.0007 7.79988C21.934 7.79988 23.559 8.4582 24.8756 9.77485C26.1922 11.0915 26.8506 12.7165 26.8506 14.6498C26.8506 16.5831 26.1922 18.2081 24.8756 19.5247C23.559 20.8413 21.934 21.4997 20.0007 21.4997ZM20.0007 39.9994C17.2674 39.9994 14.6841 39.4744 12.2508 38.4244C9.81749 37.3744 7.69253 35.9411 5.87589 34.1245C4.05925 32.3078 2.62594 30.1829 1.57595 27.7496C0.525968 25.3163 0.000976562 22.733 0.000976562 19.9997C0.000976562 17.2331 0.525968 14.6414 1.57595 12.2248C2.62594 9.80818 4.05925 7.69155 5.87589 5.87491C7.69253 4.05827 9.81749 2.62496 12.2508 1.57498C14.6841 0.524992 17.2674 0 20.0007 0C22.7673 0 25.3589 0.524992 27.7756 1.57498C30.1922 2.62496 32.3088 4.05827 34.1255 5.87491C35.9421 7.69155 37.3754 9.80818 38.4254 12.2248C39.4754 14.6414 40.0004 17.2331 40.0004 19.9997C40.0004 22.733 39.4754 25.3163 38.4254 27.7496C37.3754 30.1829 35.9421 32.3078 34.1255 34.1245C32.3088 35.9411 30.1922 37.3744 27.7756 38.4244C25.3589 39.4744 22.7673 39.9994 20.0007 39.9994ZM20.0007 36.9994C21.834 36.9994 23.6256 36.7328 25.3756 36.1994C27.1256 35.6661 28.8505 34.7328 30.5505 33.3995C28.8505 32.1995 27.1172 31.2829 25.3506 30.6495C23.584 30.0162 21.8006 29.6995 20.0007 29.6995C18.2007 29.6995 16.4174 30.0162 14.6508 30.6495C12.8841 31.2829 11.1508 32.1995 9.45083 33.3995C11.1508 34.7328 12.8758 35.6661 14.6258 36.1994C16.3757 36.7328 18.1674 36.9994 20.0007 36.9994ZM20.0007 18.4997C21.134 18.4997 22.059 18.1414 22.7756 17.4247C23.4923 16.7081 23.8506 15.7831 23.8506 14.6498C23.8506 13.5165 23.4923 12.5915 22.7756 11.8748C22.059 11.1582 21.134 10.7998 20.0007 10.7998C18.8674 10.7998 17.9424 11.1582 17.2257 11.8748C16.5091 12.5915 16.1507 13.5165 16.1507 14.6498C16.1507 15.7831 16.5091 16.7081 17.2257 17.4247C17.9424 18.1414 18.8674 18.4997 20.0007 18.4997Z" fill="#DADCDE"/>
</svg>
