<svg width="760" height="81" viewBox="0 0 760 81" fill="none" xmlns="http://www.w3.org/2000/svg">
<circle cx="116" cy="40.0527" r="40" fill="#F3F8FE"/>
<path fill-rule="evenodd" clip-rule="evenodd" d="M107.668 25.054C107.668 23.2131 109.16 21.7207 111.001 21.7207H121.001C122.842 21.7207 124.335 23.2131 124.335 25.054V28.3874C124.335 30.2283 122.842 31.7207 121.001 31.7207H111.001C109.16 31.7207 107.668 30.2283 107.668 28.3874V25.054ZM121.001 25.054H111.001V28.3874H121.001V25.054Z" fill="#333333"/>
<path fill-rule="evenodd" clip-rule="evenodd" d="M115.842 41.7103C115.601 41.7103 115.363 41.7578 115.14 41.85C114.918 41.942 114.716 42.0768 114.546 42.2466C114.546 42.247 114.546 42.2465 114.546 42.2466L105.821 50.9871L104.961 54.4186L108.398 53.5488L117.138 44.8403C117.138 44.8406 117.139 44.8401 117.138 44.8403C117.308 44.6703 117.444 44.4676 117.536 44.2455C117.628 44.0231 117.675 43.7846 117.675 43.5438C117.675 43.3031 117.628 43.0646 117.536 42.8423C117.444 42.6198 117.309 42.4176 117.138 42.2475C116.968 42.0771 116.766 41.9421 116.543 41.85C116.321 41.7578 116.083 41.7103 115.842 41.7103ZM113.865 38.7703C114.491 38.5106 115.163 38.377 115.842 38.377C116.52 38.377 117.192 38.5106 117.819 38.7703C118.446 39.03 119.016 39.4106 119.495 39.8903C119.975 40.3701 120.356 40.9398 120.615 41.5666C120.875 42.1935 121.009 42.8653 121.009 43.5438C121.009 44.2225 120.875 44.8943 120.615 45.5211C120.356 46.148 119.975 46.7176 119.495 47.1975L110.426 56.233C110.214 56.4441 109.949 56.5945 109.659 56.668L103.076 58.3346C102.507 58.4785 101.905 58.313 101.49 57.8988C101.074 57.4846 100.907 56.8826 101.05 56.3136L102.7 49.7303C102.773 49.4381 102.924 49.1713 103.137 48.9581L112.187 39.8915C112.667 39.4116 113.238 39.03 113.865 38.7703Z" fill="#0871E1"/>
<path fill-rule="evenodd" clip-rule="evenodd" d="M121.001 26.7194C121.001 25.7989 121.747 25.0527 122.668 25.0527H126.001C127.327 25.0527 128.599 25.5795 129.537 26.5172C130.474 27.4549 131.001 28.7267 131.001 30.0527V53.3861C131.001 54.7122 130.474 55.9839 129.537 56.9216C128.599 57.8592 127.327 58.3861 126.001 58.3861H116.835C115.914 58.3861 115.168 57.6399 115.168 56.7194C115.168 55.7989 115.914 55.0527 116.835 55.0527H126.001C126.443 55.0527 126.867 54.8771 127.18 54.5646C127.492 54.2521 127.668 53.8281 127.668 53.3861V30.0527C127.668 29.6107 127.492 29.1868 127.18 28.8742C126.867 28.5617 126.443 28.3861 126.001 28.3861H122.668C121.747 28.3861 121.001 27.6399 121.001 26.7194Z" fill="#333333"/>
<path fill-rule="evenodd" clip-rule="evenodd" d="M106 28.3861C105.558 28.3861 105.134 28.5617 104.821 28.8742C104.509 29.1868 104.333 29.6107 104.333 30.0527V42.5527C104.333 43.4732 103.587 44.2194 102.667 44.2194C101.746 44.2194 101 43.4732 101 42.5527V30.0527C101 28.7267 101.527 27.4549 102.464 26.5172C103.402 25.5795 104.674 25.0527 106 25.0527H109.333C110.254 25.0527 111 25.7989 111 26.7194C111 27.6399 110.254 28.3861 109.333 28.3861H106Z" fill="#333333"/>
<rect x="156" y="38.0527" width="184" height="4" fill="#DADCDE"/>
<circle cx="380" cy="40.0527" r="40" fill="#F3F8FE"/>
<path d="M371.25 32.5H383.75C384.082 32.5 384.399 32.3683 384.634 32.1339C384.868 31.8995 385 31.5815 385 31.25C385 30.9185 384.868 30.6005 384.634 30.3661C384.399 30.1317 384.082 30 383.75 30H371.25C370.918 30 370.601 30.1317 370.366 30.3661C370.132 30.6005 370 30.9185 370 31.25C370 31.5815 370.132 31.8995 370.366 32.1339C370.601 32.3683 370.918 32.5 371.25 32.5Z" fill="black"/>
<path d="M371.25 38.75H383.75C384.082 38.75 384.399 38.6183 384.634 38.3839C384.868 38.1495 385 37.8315 385 37.5C385 37.1685 384.868 36.8505 384.634 36.6161C384.399 36.3817 384.082 36.25 383.75 36.25H371.25C370.918 36.25 370.601 36.3817 370.366 36.6161C370.132 36.8505 370 37.1685 370 37.5C370 37.8315 370.132 38.1495 370.366 38.3839C370.601 38.6183 370.918 38.75 371.25 38.75Z" fill="black"/>
<path d="M373.75 42.5H371.25C370.918 42.5 370.601 42.6317 370.366 42.8661C370.132 43.1005 370 43.4185 370 43.75C370 44.0815 370.132 44.3995 370.366 44.6339C370.601 44.8683 370.918 45 371.25 45H373.75C374.082 45 374.399 44.8683 374.634 44.6339C374.868 44.3995 375 44.0815 375 43.75C375 43.4185 374.868 43.1005 374.634 42.8661C374.399 42.6317 374.082 42.5 373.75 42.5Z" fill="black"/>
<path d="M391.25 41.09V25C391.25 24.0054 390.855 23.0516 390.152 22.3483C389.448 21.6451 388.495 21.25 387.5 21.25H367.5C366.505 21.25 365.552 21.6451 364.848 22.3483C364.145 23.0516 363.75 24.0054 363.75 25V52.5C363.75 53.4946 364.145 54.4484 364.848 55.1516C365.552 55.8549 366.505 56.25 367.5 56.25H380.522C381.501 57.156 382.661 57.8426 383.927 58.2639C385.192 58.6853 386.532 58.8316 387.858 58.6932C389.185 58.5548 390.466 58.1348 391.617 57.4612C392.768 56.7877 393.762 55.8763 394.532 54.7878C395.302 53.6993 395.831 52.4589 396.083 51.1495C396.336 49.8401 396.305 48.492 395.995 47.1953C395.684 45.8985 395.1 44.6831 394.282 43.6302C393.463 42.5773 392.43 41.7113 391.25 41.09ZM366.25 52.5V25C366.25 24.6685 366.382 24.3505 366.616 24.1161C366.851 23.8817 367.168 23.75 367.5 23.75H387.5C387.832 23.75 388.149 23.8817 388.384 24.1161C388.618 24.3505 388.75 24.6685 388.75 25V40.1887C387.01 39.8319 385.204 39.9771 383.544 40.6074C381.883 41.2376 380.436 42.3271 379.371 43.7486C378.306 45.1701 377.667 46.8651 377.529 48.6359C377.391 50.4068 377.759 52.1804 378.59 53.75H367.5C367.168 53.75 366.851 53.6183 366.616 53.3839C366.382 53.1495 366.25 52.8315 366.25 52.5ZM386.875 56.25C385.515 56.25 384.186 55.8468 383.055 55.0914C381.925 54.3359 381.044 53.2622 380.523 52.0059C380.003 50.7497 379.867 49.3674 380.132 48.0338C380.397 46.7001 381.052 45.4751 382.014 44.5136C382.975 43.5522 384.2 42.8974 385.534 42.6321C386.867 42.3668 388.25 42.503 389.506 43.0233C390.762 43.5437 391.836 44.4249 392.591 45.5555C393.347 46.686 393.75 48.0153 393.75 49.375C393.748 51.1978 393.023 52.9453 391.734 54.2342C390.445 55.523 388.698 56.248 386.875 56.25Z" fill="#333333"/>
<g clip-path="url(#clip0_5066_75373)">
<path d="M386.5 37.7188C380.549 37.7188 375.719 42.5488 375.719 48.5C375.719 54.4513 380.549 59.2812 386.5 59.2812C392.451 59.2812 397.281 54.4513 397.281 48.5C397.281 42.5488 392.451 37.7188 386.5 37.7188ZM391.891 46.5737L386.859 52.3237C386.579 52.6472 386.184 52.8125 385.781 52.8125C385.465 52.8125 385.149 52.7119 384.883 52.4962L381.289 49.6212C380.609 49.0758 380.555 48.0348 381.233 47.4258C381.765 46.9467 382.59 46.9818 383.149 47.4293L385.337 49.1798C385.485 49.298 385.7 49.2791 385.825 49.1367L389.734 44.6763C390.252 44.0797 391.165 44.0222 391.761 44.5469C392.358 45.0644 392.415 45.9772 391.891 46.5737Z" fill="#0871E1"/>
</g>
<rect x="420" y="38.0527" width="184" height="4" fill="#DADCDE"/>
<circle cx="644" cy="40.0527" r="40" fill="#F3F8FE"/>
<g clip-path="url(#clip1_5066_75373)">
<path d="M638.922 56.875C639.785 56.875 640.484 56.1754 640.484 55.3125C640.484 54.4496 639.785 53.75 638.922 53.75C638.059 53.75 637.359 54.4496 637.359 55.3125C637.359 56.1754 638.059 56.875 638.922 56.875Z" fill="#0871E1"/>
<path d="M644.391 56.875C645.254 56.875 645.953 56.1754 645.953 55.3125C645.953 54.4496 645.254 53.75 644.391 53.75C643.528 53.75 642.828 54.4496 642.828 55.3125C642.828 56.1754 643.528 56.875 644.391 56.875Z" fill="#0871E1"/>
<path d="M650.328 29.879C650.319 28.5802 649.581 27.4354 648.405 26.8929L634.358 20.3653C633.801 20.1086 633.213 19.9846 632.608 20.0015C631.601 20.027 630.649 20.4343 629.928 21.1484C629.178 21.8907 628.766 22.8838 628.766 23.9445V50.8938C626.947 51.5388 625.641 53.2756 625.641 55.3126C625.641 57.8973 627.743 60.0001 630.328 60.0001C631.191 60.0001 631.891 59.3006 631.891 58.4376C631.891 57.5746 631.191 56.8751 630.328 56.8751C629.467 56.8751 628.766 56.1742 628.766 55.3126C628.766 54.451 629.467 53.7501 630.328 53.7501C631.19 53.7501 631.891 54.451 631.891 55.3126C631.891 56.1756 632.59 56.8751 633.453 56.8751C634.316 56.8751 635.016 56.1756 635.016 55.3126C635.016 53.2756 633.709 51.5389 631.891 50.8938V23.9445C631.891 23.4511 632.304 23.1352 632.687 23.1254C632.809 23.1218 632.931 23.1486 633.045 23.2013L647.092 29.7288C647.128 29.7453 647.202 29.7796 647.203 29.8997C647.204 30.0286 647.124 30.0622 647.09 30.0769L635.735 34.8364C634.939 35.1701 634.564 36.0855 634.898 36.8815C635.231 37.6773 636.147 38.052 636.943 37.7185L648.301 32.9575C649.542 32.4339 650.337 31.2256 650.328 29.879Z" fill="#333333"/>
<path d="M649.859 56.875C650.722 56.875 651.422 56.1754 651.422 55.3125C651.422 54.4496 650.722 53.75 649.859 53.75C648.996 53.75 648.297 54.4496 648.297 55.3125C648.297 56.1754 648.996 56.875 649.859 56.875Z" fill="#0871E1"/>
<path d="M660.797 56.875C661.66 56.875 662.359 56.1754 662.359 55.3125C662.359 54.4496 661.66 53.75 660.797 53.75C659.934 53.75 659.234 54.4496 659.234 55.3125C659.234 56.1754 659.934 56.875 660.797 56.875Z" fill="#0871E1"/>
<path d="M655.328 56.875C656.191 56.875 656.891 56.1754 656.891 55.3125C656.891 54.4496 656.191 53.75 655.328 53.75C654.465 53.75 653.766 54.4496 653.766 55.3125C653.766 56.1754 654.465 56.875 655.328 56.875Z" fill="#0871E1"/>
</g>
<defs>
<clipPath id="clip0_5066_75373">
<rect width="23" height="23" fill="white" transform="translate(375 37)"/>
</clipPath>
<clipPath id="clip1_5066_75373">
<rect width="40" height="40" fill="white" transform="translate(624 20)"/>
</clipPath>
</defs>
</svg>
