<svg width="40" height="40" viewBox="0 0 40 40" fill="none" xmlns="http://www.w3.org/2000/svg">
<circle cx="20" cy="20" r="20" fill="white"/>
<mask id="mask0_2233_74398" style="mask-type:alpha" maskUnits="userSpaceOnUse" x="0" y="0" width="40" height="40">
<circle cx="20" cy="20" r="20" fill="white"/>
</mask>
<g mask="url(#mask0_2233_74398)">
<path d="M18.1618 5.59184C17.2622 5.79635 16.3923 6.11498 15.5734 6.53998C10.0204 9.38443 8.51917 16.1984 3.45607 19.6465C-0.336523 22.235 -5.37751 22.3962 -9.60625 24.0365C-13.835 25.6768 -16.6383 29.4788 -17.5486 33.9162C-19.6376 44.1088 -14.3375 52.3166 -4.52101 55.2242C2.89034 57.4366 11.0318 57.1964 18.2124 54.2539C26.1136 51.0113 30.728 45.1865 32.9055 36.9692C34.6975 30.1899 35.8827 21.5018 33.2879 14.8078C30.9871 8.8503 24.4923 4.17278 18.1618 5.59184Z" fill="#EDF3FF"/>
<path d="M29.4072 28.5624L19.8594 28.5877C19.9832 28.3574 20.169 28.1663 20.3957 28.0362C20.6225 27.906 20.8812 27.842 21.1425 27.8513C21.2843 27.5126 21.501 27.2104 21.7763 26.9674C22.0517 26.7245 22.3785 26.5471 22.7322 26.4485C23.0859 26.35 23.4574 26.3329 23.8187 26.3985C24.18 26.4641 24.5217 26.6107 24.8182 26.8273C24.9419 26.9396 25.0886 27.0238 25.248 27.0738C25.4273 27.0844 25.6068 27.0586 25.7758 26.998C25.9966 26.9489 26.2258 26.9519 26.4452 27.0068C26.6646 27.0616 26.8683 27.1668 27.04 27.314C27.1211 27.4047 27.2231 27.4741 27.3371 27.5163C27.4442 27.5277 27.5525 27.5137 27.6531 27.4752C28.5065 27.2319 29.3029 27.668 29.4072 28.5624Z" fill="white"/>
<path d="M10.6719 23.2307C10.6719 23.2307 16.7147 21.8243 17.2046 21.1701C17.6945 20.5159 17.1509 15.3832 17.6092 14.9597C18.0674 14.5362 20.0491 14.9313 20.1375 15.3579C20.226 15.7846 20.3714 22.744 19.7836 23.2276C19.1957 23.7111 13.9619 25.3198 13.5037 25.1555C13.0454 24.9911 10.6719 23.2307 10.6719 23.2307Z" fill="#8EA5E8"/>
<path d="M17.0296 34.8978C17.0296 34.8978 8.46465 34.4774 8.37932 34.8978C8.3414 35.0937 8.06327 40.5456 7.74722 46.4272C5.53488 49.1453 3.36678 51.8001 0.86683 54.2463C0.701903 54.3707 0.589231 54.5521 0.550781 54.7551C0.560191 54.9303 0.628075 55.0972 0.743571 55.2292C1.33482 56.1013 2.12162 56.8231 3.04125 57.3372C3.49004 57.5522 4.34021 56.6167 4.60253 56.3701C5.51746 55.4921 6.37568 54.5568 7.17201 53.5699C8.08856 52.4669 8.96717 51.326 9.7889 50.144C10.421 49.2559 11.1005 48.3867 11.4829 47.3627C11.5774 47.1094 11.6493 46.8481 11.6978 46.5821C11.8685 45.6687 11.8337 44.6858 11.9128 43.7819C11.9846 42.9761 12.1092 42.1758 12.2857 41.3862C12.3707 40.9158 12.5152 40.4581 12.7155 40.0241C12.7775 39.8714 12.8725 39.7344 12.9936 39.6227C13.3824 39.3477 13.847 40.5708 14.0176 40.8869C14.3695 41.519 14.714 42.1511 15.0511 42.7832C15.7884 44.118 16.4438 45.4964 17.0138 46.9108C17.175 47.291 17.2814 47.6922 17.3298 48.1023C17.4468 49.7995 15.1365 60.0774 15.4019 60.1122C15.6674 60.1469 19.2799 60.7695 19.3526 60.6305C19.4252 60.4914 21.429 48.6617 21.1762 47.5808C20.9233 46.4999 17.0296 34.8978 17.0296 34.8978Z" fill="#294783"/>
<mask id="mask1_2233_74398" style="mask-type:luminance" maskUnits="userSpaceOnUse" x="0" y="34" width="22" height="27">
<path d="M17.0335 34.9007C17.0335 34.9007 8.46856 34.4803 8.38323 34.9007C8.3453 35.0966 8.06718 40.5485 7.75113 46.4302C5.53878 49.1482 3.37069 51.803 0.870737 54.2492C0.705809 54.3737 0.593137 54.5551 0.554688 54.7581C0.564097 54.9332 0.631981 55.1001 0.747478 55.2321C1.33872 56.1042 2.12553 56.826 3.04516 57.3402C3.49395 57.5551 4.34412 56.6196 4.60644 56.3731C5.52136 55.495 6.37959 54.5597 7.17592 53.5729C8.09246 52.4699 8.97108 51.3289 9.79281 50.1469C10.4249 49.2588 11.1044 48.3897 11.4868 47.3657C11.5813 47.1123 11.6532 46.8511 11.7017 46.585C11.8724 45.6716 11.8376 44.6887 11.9167 43.7848C11.9885 42.979 12.1131 42.1787 12.2896 41.3892C12.3746 40.9188 12.5191 40.461 12.7194 40.027C12.7814 39.8744 12.8764 39.7373 12.9975 39.6256C13.3863 39.3507 13.8509 40.5738 14.0215 40.8898C14.3734 41.5219 14.7179 42.154 15.055 42.7861C15.7923 44.1209 16.4477 45.4994 17.0177 46.9137C17.1789 47.2939 17.2853 47.6951 17.3337 48.1052C17.4507 49.8024 15.1404 60.0803 15.4058 60.1151C15.6713 60.1499 19.2838 60.7725 19.3565 60.6334C19.4291 60.4944 21.4329 48.6646 21.1801 47.5837C20.9272 46.5029 17.0335 34.9007 17.0335 34.9007Z" fill="white"/>
</mask>
<g mask="url(#mask1_2233_74398)">
<path d="M18.5834 38.0213C18.5834 38.0213 11.3459 38.7798 9.75299 42.3195C8.16011 45.8593 8.17275 46.9433 8.17275 46.9433C8.17275 46.9433 1.60841 55.641 0.903618 55.4767C0.704251 55.4254 0.525852 55.3132 0.393286 55.1557C0.260719 54.9982 0.180589 54.8032 0.164062 54.598L7.2404 46.2765C7.2404 46.2765 7.49008 38.6439 7.71132 38.2583C7.93255 37.8727 17.4583 35.3507 17.6922 35.8247C17.926 36.2988 18.5834 38.0213 18.5834 38.0213Z" fill="#233F6D"/>
</g>
<path d="M9.06194 21.1775C8.89443 20.5454 8.94816 19.9133 9.18836 19.7458C9.68772 19.3886 10.6548 19.2812 10.835 19.809C10.835 19.809 11.8906 22.4164 10.5474 22.5302C10.6453 23.0706 10.7212 23.5889 10.7591 23.6932C10.8381 23.905 9.76041 24.0725 9.49493 23.9903C9.34006 23.9334 9.15675 22.2331 9.06194 21.1775Z" fill="#ED784D"/>
<path d="M10.5496 22.5305C10.2362 22.5567 9.92387 22.4679 9.67101 22.2808C9.25699 21.9648 9.85116 23.0235 10.6192 22.9129L10.5496 22.5305Z" fill="#D24A0E"/>
<path d="M9.09031 21.4561C9.26854 21.2471 9.41838 21.0154 9.53594 20.7671C9.55806 20.6786 9.24201 20.805 9.31154 20.5301C9.38107 20.2551 9.62759 20.2994 9.66868 20.3942C9.70976 20.489 9.80458 19.9043 9.66868 19.86C9.53278 19.8158 11.3121 20.2361 11.5207 20.0623C11.7293 19.8885 11.2837 19.8569 11.2837 19.8569C11.2837 19.8569 11.7736 19.5156 11.6503 19.3354C11.527 19.1553 11.0941 19.3354 11.0941 19.3354C11.0941 19.3354 11.1984 18.874 10.857 18.8202C10.5157 18.7665 10.4556 19.0099 10.4556 19.0099C10.4556 19.0099 9.19144 18.7286 8.9228 19.0794C8.65416 19.4302 8.72369 19.5946 8.72369 19.5946C8.61405 19.6565 8.52538 19.7497 8.46908 19.8623C8.41277 19.9749 8.39137 20.1018 8.40764 20.2267C8.57194 20.6685 8.8021 21.083 9.09031 21.4561Z" fill="#122A50"/>
<path d="M9.74385 23.2849C9.74385 23.2849 12.9043 22.6528 14.5415 25.6584C16.1786 28.6641 18.9788 35.6772 17.9422 36.2903C16.64 37.0678 7.68637 39.6973 7.2439 38.4837C6.80143 37.2701 6.27363 26.7298 6.87728 25.4372C7.73378 23.6104 9.74385 23.2849 9.74385 23.2849Z" fill="#8EA5E8"/>
<path d="M6.87668 25.4375C6.87668 25.4375 3.3148 32.3685 2.8186 32.4791C2.32241 32.5897 -3.77734 34.7894 -3.77734 35.0707C-3.77734 35.352 -3.37596 38.07 -2.76283 38.0226C-2.14969 37.9752 4.40833 35.4942 4.77179 35.1781C5.70413 34.4133 7.72685 29.8495 7.86591 29.426C8.00497 29.0025 6.87668 25.4375 6.87668 25.4375Z" fill="#8EA5E8"/>
<path d="M6.60539 32.2018C6.60539 32.2018 8.30889 28.2386 8.39739 28.5894C8.48588 28.9402 7.43027 36.7118 8.39739 37.5557C9.3645 38.3995 12.9738 37.9539 12.9738 37.9539C12.9738 37.9539 8.54909 39.1991 7.3481 38.8009C6.14712 38.4027 6.60539 32.2018 6.60539 32.2018Z" fill="#6D89C8"/>
<path d="M14.1836 25.0909C14.1836 25.0909 19.2404 23.4096 19.4679 22.67C19.6955 21.9304 20.1 15.0342 20.1474 15.3629C20.1948 15.6916 20.4129 22.6605 19.7935 23.2326C19.174 23.8046 14.8694 25.0214 14.1836 25.0909Z" fill="#6D89C8"/>
<path d="M8.39453 23.8064C8.39453 23.8064 9.72826 23.936 9.7409 23.8949C9.75354 23.8538 10.098 23.2344 10.098 23.2344C9.49095 23.2778 8.90482 23.4747 8.39453 23.8064Z" fill="white"/>
<path d="M10.3438 23.2335L11.077 23.796L11.5858 23.0186C11.167 23.059 10.7518 23.1308 10.3438 23.2335Z" fill="white"/>
<path d="M10.0977 23.2329C10.0977 23.2329 10.243 22.9674 10.341 29.6392C10.341 29.6392 11.1027 31.2416 11.1501 31.2194C11.4501 30.8186 11.7035 30.3849 11.9055 29.9268C11.9055 29.7593 11.8233 25.5969 10.341 23.2266L10.0977 23.2329Z" fill="#294783"/>
<path d="M15.2147 8.56738C15.2147 8.56738 14.8986 15.5584 15.2147 15.3435C15.5307 15.1286 35.6631 9.50605 35.3312 9.50605C34.9994 9.50605 15.2147 8.56738 15.2147 8.56738Z" fill="#E9A854"/>
<path d="M15.213 8.56738C15.213 8.56738 4.20186 11.2728 5.66517 11.4814C7.12848 11.6899 35.3296 9.50605 35.3296 9.50605L15.213 8.56738Z" fill="#FEBD69"/>
<path d="M15.2148 8.57052C15.4842 8.41223 15.7833 8.3111 16.0935 8.27344C16.4601 8.27344 35.3314 9.50919 35.3314 9.50919L15.2148 8.57052Z" fill="#E9A854"/>
<path d="M18.0775 14.7975C18.0775 14.7975 17.7045 13.8146 17.8246 13.764C17.9447 13.7134 18.1628 13.704 18.2228 13.8367C18.2829 13.9694 18.3587 14.295 18.4535 14.3171C18.5484 14.3392 19.5976 13.9821 19.6198 14.0326C19.6419 14.0832 19.6198 14.848 19.4839 14.9555C19.0233 14.8456 18.551 14.7925 18.0775 14.7975Z" fill="#ED784D"/>
</g>
</svg>
