<svg width="116" height="116" viewBox="0 0 116 116" fill="none" xmlns="http://www.w3.org/2000/svg">
<circle cx="58" cy="58" r="58" fill="#0871E1"/>
<mask id="mask0_985_81070" style="mask-type:luminance" maskUnits="userSpaceOnUse" x="18" y="18" width="80" height="80">
<path d="M18 18H98V98H18V18Z" fill="white"/>
</mask>
<g mask="url(#mask0_985_81070)">
<path d="M65.9453 83.3164V78.8213C66.0028 76.3745 66.0694 74.0428 66.7028 71.667C67.9737 66.9108 70.5252 63.6059 77.0714 61.8405C78.0191 61.5839 78.2672 61.5486 78.8652 60.5752L82.9355 53.9739C84.0428 52.1733 86.4256 51.6069 88.2283 52.713C90.0355 53.8234 90.6023 56.2037 89.4906 58.0045L82.8956 68.7072" stroke="white" stroke-width="2.2" stroke-miterlimit="10" stroke-linecap="round" stroke-linejoin="round"/>
<path d="M48.4369 93.7031H50.4123C51.7145 93.7031 52.773 92.6413 52.773 91.3448V85.6728C52.773 84.3766 51.71 83.3147 50.4123 83.3147H32.4388C31.1411 83.3147 30.0781 84.3766 30.0781 85.6728V91.3448C30.0781 92.6413 31.1411 93.7031 32.4388 93.7031H34.4009" stroke="white" stroke-width="2.2" stroke-miterlimit="10" stroke-linecap="round" stroke-linejoin="round"/>
<path d="M29.587 52.1511L28.5108 38.2675C28.3513 36.2322 26.8409 34.5508 24.7991 34.5464C22.7528 34.5464 21.2114 36.2189 21.0742 38.2542L19.5772 60.5309C19.3867 65.7295 21.0564 67.2072 24.117 69.9813C26.748 72.3661 32.7981 76.733 32.7981 81.5202V83.3164" stroke="white" stroke-width="2.2" stroke-miterlimit="10" stroke-linecap="round" stroke-linejoin="round"/>
<path d="M50.053 83.3164V78.8213C49.9953 76.3745 49.9289 74.0428 49.2956 71.667C48.0244 66.9108 45.4731 63.6059 38.9269 61.8405C37.9791 61.5839 37.7311 61.5486 37.1331 60.5752L33.0628 53.9739C31.9555 52.1733 29.5727 51.6069 27.77 52.713C25.9673 53.8234 25.4003 56.2037 26.5077 58.0045L33.1027 68.7072" stroke="white" stroke-width="2.2" stroke-miterlimit="10" stroke-linecap="round" stroke-linejoin="round"/>
<path d="M63.2266 91.3448V85.6728C63.2266 84.3764 64.2895 83.3145 65.5872 83.3145H83.5608C84.8584 83.3145 85.9214 84.3764 85.9214 85.6728V91.3448C85.9214 92.6413 84.8584 93.7031 83.5608 93.7031H65.5872C64.2895 93.7031 63.2266 92.6413 63.2266 91.3448Z" stroke="white" stroke-width="2.2" stroke-miterlimit="10" stroke-linecap="round" stroke-linejoin="round"/>
<path d="M86.4142 52.1511L87.4906 38.2675C87.65 36.2322 89.1603 34.5508 91.2022 34.5464C93.2484 34.5464 94.7898 36.2189 94.927 38.2542L96.4241 60.5309C96.6145 65.7295 94.9448 67.2072 91.8842 69.9813C89.2533 72.3661 83.2031 76.733 83.2031 81.5202V83.3164" stroke="white" stroke-width="2.2" stroke-miterlimit="10" stroke-linecap="round" stroke-linejoin="round"/>
<path d="M57.9982 60.4219L40.4366 43.4897C35.6045 38.4945 35.6045 30.3139 40.4366 25.3187C44.6532 20.952 51.6291 21.5359 56.0405 25.6595C58.0559 27.5398 57.9405 27.5398 59.9559 25.6595C64.3674 21.5359 71.3432 20.952 75.5641 25.3187C80.3919 30.3139 80.3919 38.4945 75.5641 43.4897L57.9982 60.4219Z" stroke="white" stroke-width="2.2" stroke-miterlimit="10" stroke-linecap="round" stroke-linejoin="round"/>
<path d="M58.0008 34.1238C61.1322 34.1238 63.6656 36.6544 63.6656 39.7825C63.6656 42.9061 61.1322 45.4414 58.0008 45.4414C54.8737 45.4414 52.3359 42.9061 52.3359 39.7825C52.3359 36.6544 54.8737 34.1238 58.0008 34.1238Z" stroke="white" stroke-width="2.2" stroke-miterlimit="10" stroke-linecap="round" stroke-linejoin="round"/>
<path d="M49.3398 52.0742C49.3398 48.5789 51.4437 45.5527 54.4467 44.19M61.5511 44.19C64.5541 45.5527 66.6577 48.5789 66.6577 52.0742" stroke="white" stroke-width="2.2" stroke-miterlimit="10" stroke-linecap="round" stroke-linejoin="round"/>
<path d="M41.4269 93.7031H41.418" stroke="white" stroke-width="2.2" stroke-miterlimit="10" stroke-linecap="round" stroke-linejoin="round"/>
</g>
</svg>
