<svg width="116" height="116" viewBox="0 0 116 116" fill="none" xmlns="http://www.w3.org/2000/svg">
<circle cx="58" cy="58" r="58" fill="#0871E1"/>
<g clip-path="url(#clip0_985_81063)">
<path d="M40.2748 88.0697V84.0656L33.1733 80.0819V91.8773C33.1733 92.4742 32.6891 92.9584 32.0922 92.9584C31.4953 92.9584 31.0111 92.4742 31.0111 91.8773V78.2358C31.0111 77.8522 31.2145 77.4967 31.5459 77.3033C31.8761 77.1077 32.2856 77.1048 32.6214 77.2927L41.8845 82.4897C42.2259 82.6811 42.437 83.0416 42.437 83.4328V88.0697C42.437 88.6666 41.9528 89.1508 41.3559 89.1508C40.7591 89.1508 40.2748 88.6666 40.2748 88.0697ZM20.3902 77.0575V64.1711C20.3902 60.4967 24.0191 58.8519 27.6156 58.8519H28.5145C27.0789 57.527 26.1411 55.3969 26.1411 52.9914C26.1411 49.3005 28.3581 47.0078 31.9266 47.0078C35.4956 47.0078 37.7128 49.3005 37.7128 52.9914C37.7128 55.3969 36.775 57.527 35.3392 58.8519H43.8236C44.1684 58.8519 44.4422 58.8069 44.7695 58.6964L48.8089 57.332L51.5369 56.3797L57.4398 54.2945C57.9642 54.1094 58.3583 53.837 58.7166 53.4113L60.6106 51.1594C62.7481 48.6164 64.4359 46.6077 67.5856 46.6077L70.4184 46.577C68.7602 45.2633 67.6525 42.9458 67.6525 40.3034C67.6525 36.5433 69.9111 34.2072 73.5464 34.2072C77.1823 34.2072 79.4409 36.5431 79.4409 40.3034C79.4409 42.8986 78.3737 45.183 76.7647 46.5083H83.3397L83.3564 40.1177C83.3564 38.4211 84.4872 37.0428 86.0641 36.6031V24.0811C86.0641 23.4839 86.5483 23 87.1452 23H96.9192C97.2972 23 97.6477 23.1975 97.8433 23.5205C98.0397 23.8436 98.0523 24.2455 97.8778 24.5805L96.7411 26.7634L97.8778 28.9464C98.0523 29.2814 98.0397 29.6833 97.8433 30.0064C97.6477 30.3295 97.2972 30.5269 96.9192 30.5269H88.2262V36.6287C89.7148 37.0989 90.8044 38.4761 90.8044 40.118V50.1472C90.8044 52.1992 89.1362 53.8687 87.0867 53.8687L82.5547 54.0497C81.6813 54.0508 80.895 54.3794 80.2989 54.9766C79.7028 55.5737 79.3741 56.3617 79.3741 57.195V64.3994L88.3345 69.5795C88.6689 69.7731 88.8744 70.13 88.8744 70.5156V79.5556C88.8744 80.1525 88.3902 80.6367 87.7933 80.6367C87.1964 80.6367 86.7122 80.1525 86.7122 79.5556V71.1391L77.7517 65.9589C77.4173 65.7653 77.2119 65.4084 77.2119 65.0228V57.1948C77.2119 55.7847 77.7652 54.4545 78.7688 53.4487C79.7738 52.4423 81.1033 51.8884 82.5117 51.8884L87.0437 51.7075C87.9447 51.7064 88.6422 51.0069 88.6422 50.1472V40.118C88.6422 39.2836 87.963 38.6047 87.1283 38.6047C86.1958 38.6047 85.5186 39.2409 85.5186 40.118L85.5045 46.7216C85.5045 47.8389 84.5952 48.7578 83.4769 48.7697L67.5978 48.7702C65.5342 48.7702 64.4123 49.9973 62.2662 52.5508L60.3708 54.8034C59.7584 55.5312 59.0561 56.0172 58.16 56.3339L54.2002 57.7328C54.5044 58.05 54.7619 58.4209 54.9408 58.8502C55.1875 59.4417 55.2569 60.0719 55.1817 60.6911L60.8375 58.9445C61.3766 58.7781 61.7856 58.517 62.1628 58.0972L65.1619 54.7611C65.4617 54.4275 65.9353 54.3134 66.3528 54.4747C66.7709 54.6348 67.0467 55.0364 67.0467 55.4839V83.7444C67.0467 84.3413 66.5625 84.8255 65.9656 84.8255C65.3688 84.8255 64.8845 84.3413 64.8845 83.7444V58.303L63.7703 59.5423C63.1256 60.2595 62.3964 60.7258 61.4752 61.0098L52.8778 63.6647L52.875 63.6652L46.6967 65.8694C46.1217 66.0742 45.5917 66.1656 44.9788 66.1656H42.0684C41.2653 66.1656 40.5052 66.4837 39.9281 67.0623C39.3509 67.6402 39.0328 68.4025 39.0328 69.2077V74.6997L47.78 79.7567C48.1144 79.9503 48.3198 80.3072 48.3198 80.6928V88.0697C48.3198 88.6666 47.8356 89.1508 47.2388 89.1508C46.6419 89.1508 46.1577 88.6666 46.1577 88.0697V81.3164L37.4105 76.2594C37.0761 76.0658 36.8706 75.7089 36.8706 75.3233V69.2077C36.8706 67.8253 37.4133 66.5211 38.398 65.5344C39.3841 64.5469 40.6875 64.0036 42.0684 64.0036H44.9788C45.3427 64.0036 45.6298 63.9544 45.9705 63.8325L52.1958 61.6133C52.5111 61.4806 52.7969 61.1938 52.9481 60.8253C53.0994 60.4566 53.0988 60.0505 52.9445 59.6816C52.627 58.9197 51.7508 58.5583 50.9922 58.8736C50.9697 58.8831 45.4616 60.7447 45.4616 60.7447C44.9097 60.9308 44.4044 61.0139 43.8237 61.0139H27.6158C27.0978 61.0139 22.5525 61.1027 22.5525 64.1709V77.0573C22.5525 78.4397 23.5056 79.6044 24.8203 80.0309V65.7891C24.8203 65.1922 25.3045 64.708 25.9014 64.708C26.4983 64.708 26.9825 65.1922 26.9825 65.7891V81.2887C26.9825 81.2912 26.9833 81.2934 26.9833 81.2958C26.9833 81.2981 26.9825 81.3003 26.9825 81.3028V91.8772C26.9825 92.4741 26.4983 92.9583 25.9014 92.9583C25.3045 92.9583 24.8203 92.4741 24.8203 91.8772V82.2728C22.2973 81.7861 20.3902 79.6331 20.3902 77.0575ZM88.2259 28.3645H95.1369L94.5633 27.2627C94.4 26.9498 94.4 26.5767 94.5633 26.2639L95.1369 25.162H88.2259V28.3645ZM69.8145 40.3036C69.8145 43.2002 71.4883 45.557 73.5462 45.557C75.6042 45.557 77.2786 43.2003 77.2786 40.3036C77.2786 36.8805 74.9405 36.3695 73.5462 36.3695C72.1527 36.3695 69.8145 36.8806 69.8145 40.3036ZM28.3033 52.9916C28.3033 55.81 29.9284 58.1028 31.9266 58.1028C33.9247 58.1028 35.5506 55.8102 35.5506 52.9916C35.5506 49.6667 33.28 49.1702 31.9266 49.1702C30.5731 49.1702 28.3033 49.6667 28.3033 52.9916ZM81.7753 80.6366C82.3722 80.6366 82.8564 80.1523 82.8564 79.5555V73.3181C82.8564 72.9267 82.6453 72.5664 82.3039 72.375L72.8269 67.0589C72.4933 66.8709 72.083 66.8738 71.7522 67.0695C71.4206 67.2631 71.2173 67.6186 71.2173 68.002V83.7439C71.2173 84.3408 71.7016 84.825 72.2984 84.825C72.8953 84.825 73.3795 84.3408 73.3795 83.7439V69.8483L80.6944 73.9516V79.5555C80.6942 80.1523 81.1784 80.6366 81.7753 80.6366ZM96.9189 84.7145H77.4595C76.8627 84.7145 76.3784 85.1987 76.3784 85.7956V89.0502H58C57.4031 89.0502 56.9189 89.5344 56.9189 90.1313V92.6672H38.5405C37.9436 92.6672 37.4594 93.1514 37.4594 93.7483V96.7522H19.0811C18.4842 96.7522 18 97.2364 18 97.8333V101.919C18 102.516 18.4842 103 19.0811 103C19.678 103 20.1622 102.516 20.1622 101.919V98.9142H37.4595V101.919C37.4595 102.516 37.9438 103 38.5406 103C39.1375 103 39.6217 102.516 39.6217 101.919V94.8292H56.9191V101.919C56.9191 102.516 57.4033 103 58.0002 103C58.597 103 59.0813 102.516 59.0813 101.919V91.2122H76.3786V101.919C76.3786 102.516 76.8628 103 77.4597 103C78.0566 103 78.5408 102.516 78.5408 101.919V86.8767H95.8381V101.919C95.8381 102.516 96.3223 103 96.9192 103C97.5161 103 98.0003 102.516 98.0003 101.919V85.7956C98 85.1987 97.5158 84.7145 96.9189 84.7145Z" fill="white"/>
</g>
<defs>
<clipPath id="clip0_985_81063">
<rect width="80" height="80" fill="white" transform="translate(18 23)"/>
</clipPath>
</defs>
</svg>
