<svg width="116" height="116" viewBox="0 0 116 116" fill="none" xmlns="http://www.w3.org/2000/svg">
<circle cx="58" cy="58" r="58" fill="#0871E1"/>
<path d="M61.5 51.2344H85.25C85.5815 51.2344 85.8995 51.1027 86.1339 50.8683C86.3683 50.6338 86.5 50.3159 86.5 49.9844C86.5 49.6529 86.3683 49.3349 86.1339 49.1005C85.8995 48.8661 85.5815 48.7344 85.25 48.7344H61.5C61.1685 48.7344 60.8505 48.8661 60.6161 49.1005C60.3817 49.3349 60.25 49.6529 60.25 49.9844C60.25 50.3159 60.3817 50.6338 60.6161 50.8683C60.8505 51.1027 61.1685 51.2344 61.5 51.2344Z" fill="white"/>
<path d="M41.0335 43.7363C41.2306 43.7362 41.4248 43.6895 41.6005 43.6C41.7761 43.5106 41.9281 43.3809 42.0441 43.2215C42.1601 43.0622 42.2368 42.8777 42.2679 42.6831C42.299 42.4885 42.2838 42.2892 42.2233 42.1017C41.871 41.0093 41.646 39.8799 41.5525 38.7359H42.75C43.0815 38.7359 43.3995 38.6042 43.6339 38.3698C43.8683 38.1354 44 37.8175 44 37.4859C44 37.1544 43.8683 36.8365 43.6339 36.6021C43.3995 36.3676 43.0815 36.2359 42.75 36.2359H41.5525C41.8105 33.1295 43.0341 30.1816 45.0518 27.8055L45.6161 28.3698C45.7322 28.486 45.87 28.5782 46.0217 28.6411C46.1734 28.704 46.336 28.7364 46.5002 28.7365C46.6644 28.7365 46.827 28.7042 46.9787 28.6414C47.1305 28.5786 47.2683 28.4865 47.3844 28.3704C47.5005 28.2542 47.5926 28.1164 47.6555 27.9647C47.7183 27.8129 47.7506 27.6503 47.7505 27.4861C47.7505 27.3219 47.7181 27.1593 47.6552 27.0076C47.5922 26.8559 47.5001 26.7181 47.3839 26.6021L46.8196 26.0378C49.1956 24.0201 52.1435 22.7965 55.25 22.5385V23.7359C55.25 24.0675 55.3817 24.3854 55.6161 24.6198C55.8505 24.8542 56.1685 24.9859 56.5 24.9859C56.8315 24.9859 57.1495 24.8542 57.3839 24.6198C57.6183 24.3854 57.75 24.0675 57.75 23.7359V22.5385C60.8565 22.7965 63.8044 24.0201 66.1805 26.0378L65.6161 26.6021C65.5 26.7181 65.4078 26.8559 65.3449 27.0076C65.2819 27.1593 65.2495 27.3219 65.2495 27.4861C65.2494 27.6503 65.2817 27.8129 65.3445 27.9647C65.4074 28.1164 65.4995 28.2542 65.6156 28.3704C65.7317 28.4865 65.8696 28.5786 66.0213 28.6414C66.173 28.7042 66.3356 28.7365 66.4998 28.7365C66.6641 28.7364 66.8267 28.704 66.9783 28.6411C67.13 28.5782 67.2678 28.486 67.3839 28.3698L67.9482 27.8055C69.9659 30.1816 71.1895 33.1295 71.4475 36.2359H70.25C69.9185 36.2359 69.6005 36.3676 69.3661 36.6021C69.1317 36.8365 69 37.1544 69 37.4859C69 37.8175 69.1317 38.1354 69.3661 38.3698C69.6005 38.6042 69.9185 38.7359 70.25 38.7359H71.4477C71.3867 39.4812 71.27 40.2208 71.0987 40.9486C71.0228 41.2711 71.0781 41.6106 71.2524 41.8924C71.4267 42.1742 71.7057 42.3752 72.0281 42.4514C72.3506 42.5275 72.6901 42.4726 72.972 42.2985C73.254 42.1245 73.4553 41.8456 73.5317 41.5233C74.1522 38.8963 74.1567 36.1614 73.5447 33.5324C72.9327 30.9034 71.7208 28.4516 70.0039 26.3688C68.2869 24.2859 66.1114 22.6285 63.6476 21.5261C61.1837 20.4237 58.4982 19.9061 55.801 20.014C53.1039 20.1218 50.4683 20.8521 48.1003 22.1477C45.7323 23.4434 43.6961 25.2692 42.1509 27.4825C40.6058 29.6957 39.5935 32.2364 39.1934 34.9059C38.7932 37.5753 39.016 40.3012 39.8443 42.8702C39.9255 43.1217 40.0844 43.341 40.2981 43.4966C40.5117 43.6522 40.7692 43.7361 41.0335 43.7363Z" fill="white"/>
<path d="M56.501 27.4844C56.3368 27.4844 56.1743 27.5167 56.0226 27.5795C55.871 27.6423 55.7332 27.7344 55.6171 27.8505C55.501 27.9666 55.4089 28.1044 55.3461 28.256C55.2833 28.4077 55.251 28.5702 55.251 28.7344V36.4596L50.0059 37.5086C49.8448 37.5407 49.6916 37.6042 49.5551 37.6955C49.4186 37.7868 49.3014 37.9041 49.2102 38.0408C49.1191 38.1774 49.0557 38.3306 49.0238 38.4917C48.9919 38.6528 48.9921 38.8187 49.0243 38.9797C49.0565 39.1408 49.1201 39.2939 49.2115 39.4303C49.3029 39.5668 49.4203 39.6839 49.557 39.7749C49.6937 39.866 49.847 39.9292 50.0081 39.961C50.1693 39.9927 50.3351 39.9924 50.4961 39.9601L56.7461 38.7101C57.0295 38.6534 57.2844 38.5003 57.4677 38.2769C57.6509 38.0534 57.751 37.7733 57.751 37.4844V28.7344C57.751 28.5702 57.7187 28.4077 57.6558 28.256C57.593 28.1044 57.501 27.9666 57.3849 27.8505C57.2688 27.7344 57.131 27.6423 56.9793 27.5795C56.8277 27.5167 56.6651 27.4844 56.501 27.4844Z" fill="white"/>
<path d="M72.75 24.9844H79C79.3315 24.9844 79.6495 24.8527 79.8839 24.6183C80.1183 24.3838 80.25 24.0659 80.25 23.7344C80.25 23.4029 80.1183 23.0849 79.8839 22.8505C79.6495 22.6161 79.3315 22.4844 79 22.4844H72.75C72.4185 22.4844 72.1005 22.6161 71.8661 22.8505C71.6317 23.0849 71.5 23.4029 71.5 23.7344C71.5 24.0659 71.6317 24.3838 71.8661 24.6183C72.1005 24.8527 72.4185 24.9844 72.75 24.9844Z" fill="white"/>
<path d="M75.25 28.7344C75.25 28.8985 75.2823 29.0611 75.3451 29.2127C75.408 29.3644 75.5 29.5022 75.6161 29.6183C75.7322 29.7343 75.87 29.8264 76.0216 29.8892C76.1733 29.9521 76.3358 29.9844 76.5 29.9844H84C84.3315 29.9844 84.6495 29.8527 84.8839 29.6183C85.1183 29.3838 85.25 29.0659 85.25 28.7344C85.25 28.4029 85.1183 28.0849 84.8839 27.8505C84.6495 27.6161 84.3315 27.4844 84 27.4844H76.5C76.3358 27.4844 76.1733 27.5167 76.0216 27.5795C75.87 27.6423 75.7322 27.7344 75.6161 27.8505C75.5 27.9666 75.408 28.1044 75.3451 28.256C75.2823 28.4077 75.25 28.5702 75.25 28.7344Z" fill="white"/>
<path d="M77.75 33.7344C77.75 33.8985 77.7823 34.0611 77.8451 34.2127C77.908 34.3644 78 34.5022 78.1161 34.6183C78.2322 34.7343 78.37 34.8264 78.5216 34.8892C78.6733 34.9521 78.8358 34.9844 79 34.9844H89C89.3315 34.9844 89.6495 34.8527 89.8839 34.6183C90.1183 34.3838 90.25 34.0659 90.25 33.7344C90.25 33.4029 90.1183 33.0849 89.8839 32.8505C89.6495 32.6161 89.3315 32.4844 89 32.4844H79C78.8358 32.4844 78.6733 32.5167 78.5216 32.5795C78.37 32.6423 78.2322 32.7344 78.1161 32.8505C78 32.9666 77.908 33.1044 77.8451 33.256C77.7823 33.4077 77.75 33.5702 77.75 33.7344Z" fill="white"/>
<path d="M92.75 74.9844H76.5C76.3358 74.9844 76.1733 75.0167 76.0216 75.0795C75.8699 75.1424 75.7321 75.2344 75.6161 75.3505C75.5 75.4666 75.4079 75.6044 75.3451 75.756C75.2823 75.9077 75.25 76.0702 75.25 76.2344V77.4844H70.7677L68.8483 75.565C68.2693 74.9828 67.5806 74.5212 66.822 74.207C66.0634 73.8928 65.25 73.7321 64.4289 73.7344H54C53.8358 73.7344 53.6733 73.7667 53.5216 73.8295C53.3699 73.8924 53.2321 73.9844 53.1161 74.1005C53 74.2166 52.9079 74.3544 52.8451 74.506C52.7823 74.6577 52.75 74.8202 52.75 74.9844C52.7519 76.5787 53.3624 78.1122 54.4568 79.2717C55.5511 80.4311 57.0468 81.1291 58.6383 81.2232L54.9073 83.7105L38.6315 82.6933C37.4067 82.6157 36.1862 82.901 35.1226 83.5133C34.0591 84.1256 33.1996 85.0379 32.6516 86.1361L31.632 88.1754C31.5452 88.349 31.5 88.5404 31.5 88.7344C31.5 88.9285 31.5452 89.1198 31.632 89.2934C31.7187 89.467 31.8447 89.618 32 89.7344C32.1552 89.8508 32.3354 89.9295 32.5264 89.9643L58.9655 94.7714C59.8395 94.9315 60.7376 94.9023 61.5993 94.6856L70.4039 92.4844H75.25V93.7344C75.25 93.8986 75.2823 94.0611 75.3451 94.2128C75.4079 94.3644 75.5 94.5022 75.6161 94.6183C75.7321 94.7344 75.8699 94.8264 76.0216 94.8893C76.1733 94.9521 76.3358 94.9844 76.5 94.9844H92.75C92.9141 94.9844 93.0767 94.9521 93.2283 94.8893C93.38 94.8264 93.5178 94.7344 93.6339 94.6183C93.7499 94.5022 93.842 94.3644 93.9048 94.2128C93.9676 94.0611 94 93.8986 94 93.7344V76.2344C94 76.0702 93.9676 75.9077 93.9048 75.756C93.842 75.6044 93.7499 75.4666 93.6339 75.3505C93.5178 75.2344 93.38 75.1424 93.2283 75.0795C93.0767 75.0167 92.9141 74.9844 92.75 74.9844ZM75.25 89.9844H70.25C70.1478 89.9844 70.0459 89.9969 69.9468 90.0217L60.993 92.2602C60.476 92.3901 59.937 92.4077 59.4126 92.3117L34.6134 87.8027L34.8876 87.2541C35.2164 86.5952 35.7321 86.0478 36.3703 85.6804C37.0085 85.313 37.7408 85.1419 38.4757 85.1884L55.172 86.232C55.4449 86.2489 55.7158 86.176 55.9433 86.0244L63.1284 81.2344H65.25C65.5815 81.2344 65.8994 81.1027 66.1339 80.8683C66.3683 80.6339 66.5 80.3159 66.5 79.9844C66.5 79.6529 66.3683 79.3349 66.1339 79.1005C65.8994 78.8661 65.5815 78.7344 65.25 78.7344H62.759C62.7571 78.7344 62.7552 78.7344 62.7533 78.7344H59C58.2247 78.7335 57.4686 78.4927 56.8356 78.0451C56.2026 77.5976 55.7235 76.965 55.4642 76.2344H64.4289C64.9215 76.2331 65.4096 76.3294 65.8647 76.518C66.3199 76.7065 66.7331 76.9834 67.0806 77.3327L69.3661 79.6183C69.4822 79.7343 69.62 79.8264 69.7716 79.8893C69.9233 79.9521 70.0858 79.9844 70.25 79.9844H75.25V89.9844ZM82.75 92.4844H77.75V77.4844H82.75V92.4844Z" fill="white"/>
<path d="M36.5 78.7344C36.8315 78.7344 37.1495 78.6027 37.3839 78.3683C37.6183 78.1338 37.75 77.8159 37.75 77.4844C37.75 77.1529 37.6183 76.8349 37.3839 76.6005C37.1495 76.3661 36.8315 76.2344 36.5 76.2344C34.1802 76.237 31.9561 77.1597 30.3157 78.8001C28.6753 80.4405 27.7526 82.6645 27.75 84.9844C27.75 85.3159 27.8817 85.6338 28.1161 85.8683C28.3505 86.1027 28.6685 86.2344 29 86.2344C29.3315 86.2344 29.6495 86.1027 29.8839 85.8683C30.1183 85.6338 30.25 85.3159 30.25 84.9844C30.2519 83.3273 30.9109 81.7387 32.0826 80.567C33.2543 79.3953 34.843 78.7362 36.5 78.7344Z" fill="white"/>
<path d="M30.25 76.2344C30.5815 76.2344 30.8995 76.1027 31.1339 75.8683C31.3683 75.6338 31.5 75.3159 31.5 74.9844C31.5 74.6529 31.3683 74.3349 31.1339 74.1005C30.8995 73.8661 30.5815 73.7344 30.25 73.7344C28.9244 73.7359 27.6535 74.2631 26.7161 75.2005C25.7788 76.1378 25.2515 77.4087 25.25 78.7344C25.25 79.0659 25.3817 79.3838 25.6161 79.6183C25.8505 79.8527 26.1685 79.9844 26.5 79.9844C26.8315 79.9844 27.1495 79.8527 27.3839 79.6183C27.6183 79.3838 27.75 79.0659 27.75 78.7344C27.7508 78.0716 28.0144 77.4361 28.4831 76.9674C28.9517 76.4988 29.5872 76.2351 30.25 76.2344Z" fill="white"/>
<path d="M92.75 53.7344H91.5V44.9844C91.5 44.8202 91.4677 44.6577 91.4049 44.506C91.342 44.3544 91.25 44.2166 91.1339 44.1005C91.0178 43.9844 90.88 43.8923 90.7284 43.8295C90.5767 43.7667 90.4142 43.7344 90.25 43.7344H44C43.8358 43.7344 43.6733 43.7667 43.5216 43.8295C43.37 43.8923 43.2322 43.9844 43.1161 44.1005C43 44.2166 42.908 44.3544 42.8451 44.506C42.7823 44.6577 42.75 44.8202 42.75 44.9844V49.6893C42.3524 49.9393 41.984 50.233 41.6517 50.565L39.7323 52.4844H35.25V51.2344C35.25 51.0702 35.2177 50.9077 35.1549 50.756C35.092 50.6044 35 50.4666 34.8839 50.3505C34.7678 50.2344 34.63 50.1423 34.4784 50.0795C34.3267 50.0167 34.1642 49.9844 34 49.9844H20.25C20.0858 49.9844 19.9233 50.0167 19.7716 50.0795C19.62 50.1423 19.4822 50.2344 19.3661 50.3505C19.25 50.4666 19.158 50.6044 19.0951 50.756C19.0323 50.9077 19 51.0702 19 51.2344V68.7344C19 68.8985 19.0323 69.0611 19.0951 69.2127C19.158 69.3644 19.25 69.5022 19.3661 69.6183C19.4822 69.7343 19.62 69.8264 19.7716 69.8892C19.9233 69.952 20.0858 69.9844 20.25 69.9844H34C34.1642 69.9844 34.3267 69.952 34.4784 69.8892C34.63 69.8264 34.7678 69.7343 34.8839 69.6183C35 69.5022 35.092 69.3644 35.1549 69.2127C35.2177 69.0611 35.25 68.8985 35.25 68.7344V67.4844H39.8715L42.047 68.9346C43.0731 69.6202 44.2798 69.9855 45.5139 69.9844H67.75C67.9142 69.9844 68.0767 69.952 68.2284 69.8892C68.38 69.8264 68.5178 69.7343 68.6339 69.6183C68.75 69.5022 68.842 69.3644 68.9049 69.2127C68.9677 69.0611 69 68.8985 69 68.7344H92.75C92.9142 68.7344 93.0767 68.702 93.2284 68.6392C93.38 68.5764 93.5178 68.4843 93.6339 68.3683C93.75 68.2522 93.842 68.1144 93.9049 67.9627C93.9677 67.8111 94 67.6485 94 67.4844V54.9844C94 54.8202 93.9677 54.6577 93.9049 54.506C93.842 54.3544 93.75 54.2166 93.6339 54.1005C93.5178 53.9844 93.38 53.8923 93.2284 53.8295C93.0767 53.7667 92.9142 53.7344 92.75 53.7344ZM32.75 67.4844H27.75V52.4844H32.75V67.4844ZM45.5139 67.4844C44.7735 67.4851 44.0495 67.2659 43.4338 66.8546L40.9434 65.1943C40.738 65.0574 40.4968 64.9843 40.25 64.9844H35.25V54.9844H40.25C40.4142 54.9844 40.5767 54.952 40.7284 54.8892C40.88 54.8264 41.0178 54.7343 41.1339 54.6182L43.4194 52.3327C43.7668 51.9834 44.1801 51.7065 44.6352 51.518C45.0904 51.3294 45.5784 51.233 46.0711 51.2344H55.0358C54.7764 51.965 54.2974 52.5975 53.6644 53.0451C53.0313 53.4927 52.2753 53.7335 51.5 53.7344H45.25C44.9185 53.7344 44.6005 53.8661 44.3661 54.1005C44.1317 54.3349 44 54.6529 44 54.9844C44 55.3159 44.1317 55.6338 44.3661 55.8683C44.6005 56.1027 44.9185 56.2344 45.25 56.2344H47.455L64.427 64.7204C64.9615 64.9852 65.4245 65.3745 65.7773 65.8555C66.13 66.3364 66.3622 66.8951 66.4542 67.4844H45.5139ZM87.75 62.4844H70.25C69.9185 62.4844 69.6005 62.3527 69.3661 62.1183C69.1317 61.8838 69 61.5659 69 61.2344C69 60.9029 69.1317 60.5849 69.3661 60.3505C69.6005 60.1161 69.9185 59.9844 70.25 59.9844H87.75C88.0815 59.9844 88.3995 60.1161 88.6339 60.3505C88.8683 60.5849 89 60.9029 89 61.2344C89 61.5659 88.8683 61.8838 88.6339 62.1183C88.3995 62.3527 88.0815 62.4844 87.75 62.4844ZM89 53.7344H56.4966C57.3113 52.6541 57.7514 51.3375 57.75 49.9844C57.75 49.8202 57.7177 49.6577 57.6549 49.506C57.592 49.3544 57.5 49.2166 57.3839 49.1005C57.2678 48.9844 57.13 48.8923 56.9784 48.8295C56.8267 48.7667 56.6642 48.7344 56.5 48.7344H46.0711C45.7965 48.7349 45.5222 48.7532 45.25 48.7892V46.2344H89V53.7344Z" fill="white"/>
</svg>
