<svg width="80" height="679" viewBox="0 0 80 679" fill="none" xmlns="http://www.w3.org/2000/svg">
<circle cx="40" cy="40.6445" r="40" fill="#F3F8FE"/>
<path fill-rule="evenodd" clip-rule="evenodd" d="M31.668 25.6458C31.668 23.8049 33.1604 22.3125 35.0013 22.3125H45.0013C46.8423 22.3125 48.3346 23.8049 48.3346 25.6458V28.9792C48.3346 30.8201 46.8423 32.3125 45.0013 32.3125H35.0013C33.1604 32.3125 31.668 30.8201 31.668 28.9792V25.6458ZM45.0013 25.6458H35.0013V28.9792H45.0013V25.6458Z" fill="#333333"/>
<path fill-rule="evenodd" clip-rule="evenodd" d="M39.8417 42.3021C39.601 42.3021 39.3625 42.3496 39.14 42.4418C38.9178 42.5338 38.716 42.6686 38.5458 42.8384C38.5457 42.8388 38.5462 42.8383 38.5458 42.8384L29.8215 51.5789L28.9614 55.0104L32.3977 54.1406L41.1382 45.4321C41.1385 45.4319 41.1378 45.4324 41.1382 45.4321C41.308 45.2621 41.4437 45.0594 41.5357 44.8373C41.6278 44.6149 41.6752 44.3764 41.6752 44.1356C41.6752 43.8949 41.6278 43.6564 41.5357 43.4341C41.4435 43.2116 41.3085 43.0094 41.1382 42.8393C40.968 42.6689 40.7658 42.5339 40.5433 42.4418C40.3208 42.3496 40.0825 42.3021 39.8417 42.3021V42.3021ZM37.8645 39.3621C38.4913 39.1024 39.1632 38.9688 39.8417 38.9688C40.5202 38.9688 41.1922 39.1024 41.819 39.3621C42.4458 39.6218 43.0155 40.0024 43.4952 40.4821C43.975 40.9619 44.3557 41.5316 44.6152 42.1584C44.8748 42.7853 45.0085 43.4571 45.0085 44.1356C45.0085 44.8143 44.8748 45.4861 44.6152 46.1129C44.3557 46.7398 43.975 47.3094 43.4952 47.7893L34.4264 56.8248C34.2143 57.0359 33.9493 57.1863 33.6591 57.2598L27.0757 58.9264C26.5072 59.0703 25.9048 58.9048 25.4896 58.4906C25.0744 58.0764 24.9075 57.4744 25.05 56.9054L26.7 50.3221C26.7733 50.0299 26.9243 49.7631 27.1371 49.5499L36.1871 40.4833C36.6668 40.0034 37.2375 39.6218 37.8645 39.3621V39.3621Z" fill="#0871E1"/>
<path fill-rule="evenodd" clip-rule="evenodd" d="M45.0013 27.3112C45.0013 26.3907 45.7475 25.6445 46.668 25.6445H50.0013C51.3273 25.6445 52.5991 26.1713 53.5368 27.109C54.4745 28.0467 55.0013 29.3184 55.0013 30.6445V53.9779C55.0013 55.304 54.4745 56.5757 53.5368 57.5134C52.5991 58.451 51.3275 58.9779 50.0013 58.9779H40.8346C39.9141 58.9779 39.168 58.2317 39.168 57.3112C39.168 56.3907 39.9141 55.6445 40.8346 55.6445H50.0013C50.4433 55.6445 50.8673 55.4689 51.1798 55.1564C51.4923 54.8439 51.668 54.4199 51.668 53.9779V30.6445C51.668 30.2025 51.4923 29.7786 51.1798 29.466C50.8673 29.1535 50.4433 28.9779 50.0013 28.9779H46.668C45.7475 28.9779 45.0013 28.2317 45.0013 27.3112Z" fill="#333333"/>
<path fill-rule="evenodd" clip-rule="evenodd" d="M30 28.9779C29.558 28.9779 29.1341 29.1535 28.8215 29.466C28.5089 29.7786 28.3333 30.2025 28.3333 30.6445V43.1445C28.3333 44.065 27.5871 44.8112 26.6667 44.8112C25.7462 44.8112 25 44.065 25 43.1445V30.6445C25 29.3184 25.5268 28.0467 26.4645 27.109C27.4021 26.1713 28.6739 25.6445 30 25.6445H33.3333C34.2538 25.6445 35 26.3907 35 27.3112C35 28.2317 34.2538 28.9779 33.3333 28.9779H30Z" fill="#333333"/>
<rect x="38" y="80.6445" width="4" height="146" fill="#DADCDE"/>
<circle cx="40" cy="266.645" r="40" fill="#F3F8FE"/>
<path d="M31.25 259.5H43.75C44.0815 259.5 44.3995 259.368 44.6339 259.134C44.8683 258.899 45 258.582 45 258.25C45 257.918 44.8683 257.601 44.6339 257.366C44.3995 257.132 44.0815 257 43.75 257H31.25C30.9185 257 30.6005 257.132 30.3661 257.366C30.1317 257.601 30 257.918 30 258.25C30 258.582 30.1317 258.899 30.3661 259.134C30.6005 259.368 30.9185 259.5 31.25 259.5Z" fill="black"/>
<path d="M31.25 265.75H43.75C44.0815 265.75 44.3995 265.618 44.6339 265.384C44.8683 265.149 45 264.832 45 264.5C45 264.168 44.8683 263.851 44.6339 263.616C44.3995 263.382 44.0815 263.25 43.75 263.25H31.25C30.9185 263.25 30.6005 263.382 30.3661 263.616C30.1317 263.851 30 264.168 30 264.5C30 264.832 30.1317 265.149 30.3661 265.384C30.6005 265.618 30.9185 265.75 31.25 265.75Z" fill="black"/>
<path d="M33.75 269.5H31.25C30.9185 269.5 30.6005 269.632 30.3661 269.866C30.1317 270.101 30 270.418 30 270.75C30 271.082 30.1317 271.399 30.3661 271.634C30.6005 271.868 30.9185 272 31.25 272H33.75C34.0815 272 34.3995 271.868 34.6339 271.634C34.8683 271.399 35 271.082 35 270.75C35 270.418 34.8683 270.101 34.6339 269.866C34.3995 269.632 34.0815 269.5 33.75 269.5Z" fill="black"/>
<path d="M51.25 268.09V252C51.25 251.005 50.8549 250.052 50.1517 249.348C49.4484 248.645 48.4946 248.25 47.5 248.25H27.5C26.5054 248.25 25.5516 248.645 24.8483 249.348C24.1451 250.052 23.75 251.005 23.75 252V279.5C23.75 280.495 24.1451 281.448 24.8483 282.152C25.5516 282.855 26.5054 283.25 27.5 283.25H40.5225C41.5009 284.156 42.6615 284.843 43.9266 285.264C45.1917 285.685 46.5322 285.832 47.8585 285.693C49.1847 285.555 50.4661 285.135 51.617 284.461C52.7678 283.788 53.7616 282.876 54.5318 281.788C55.302 280.699 55.831 279.459 56.0833 278.15C56.3355 276.84 56.3053 275.492 55.9946 274.195C55.6839 272.899 55.1 271.683 54.2817 270.63C53.4635 269.577 52.4299 268.711 51.25 268.09ZM26.25 279.5V252C26.25 251.668 26.3817 251.351 26.6161 251.116C26.8505 250.882 27.1685 250.75 27.5 250.75H47.5C47.8315 250.75 48.1495 250.882 48.3839 251.116C48.6183 251.351 48.75 251.668 48.75 252V267.189C47.01 266.832 45.2044 266.977 43.5438 267.607C41.8832 268.238 40.436 269.327 39.371 270.749C38.306 272.17 37.6671 273.865 37.5288 275.636C37.3906 277.407 37.7586 279.18 38.59 280.75H27.5C27.1685 280.75 26.8505 280.618 26.6161 280.384C26.3817 280.149 26.25 279.832 26.25 279.5ZM46.875 283.25C45.5153 283.25 44.186 282.847 43.0555 282.091C41.9249 281.336 41.0437 280.262 40.5233 279.006C40.003 277.75 39.8668 276.367 40.1321 275.034C40.3974 273.7 41.0522 272.475 42.0136 271.514C42.9751 270.552 44.2001 269.897 45.5338 269.632C46.8674 269.367 48.2497 269.503 49.5059 270.023C50.7622 270.544 51.8359 271.425 52.5914 272.555C53.3468 273.686 53.75 275.015 53.75 276.375C53.748 278.198 53.023 279.945 51.7342 281.234C50.4453 282.523 48.6978 283.248 46.875 283.25Z" fill="#333333"/>
<g clip-path="url(#clip0_0_1)">
<path d="M46.5 264.719C40.5488 264.719 35.7188 269.549 35.7188 275.5C35.7188 281.451 40.5488 286.281 46.5 286.281C52.4512 286.281 57.2812 281.451 57.2812 275.5C57.2812 269.549 52.4512 264.719 46.5 264.719ZM51.8906 273.574L46.8594 279.324C46.5791 279.647 46.1838 279.812 45.7812 279.812C45.465 279.812 45.1488 279.712 44.8828 279.496L41.2891 276.621C40.6093 276.076 40.5554 275.035 41.2326 274.426C41.7653 273.947 42.5897 273.982 43.1492 274.429L45.3373 276.18C45.4851 276.298 45.6998 276.279 45.8247 276.137L49.7344 271.676C50.2519 271.08 51.1647 271.022 51.7612 271.547C52.3578 272.064 52.4153 272.977 51.8906 273.574Z" fill="#0871E1"/>
</g>
<rect x="38" y="306.645" width="4" height="146" fill="#DADCDE"/>
<circle cx="40" cy="492.645" r="40" fill="#F3F8FE"/>
<g clip-path="url(#clip1_0_1)">
<path d="M34.9219 509.875C35.7848 509.875 36.4844 509.175 36.4844 508.313C36.4844 507.45 35.7848 506.75 34.9219 506.75C34.0589 506.75 33.3594 507.45 33.3594 508.313C33.3594 509.175 34.0589 509.875 34.9219 509.875Z" fill="#0871E1"/>
<path d="M40.3906 509.875C41.2536 509.875 41.9531 509.175 41.9531 508.313C41.9531 507.45 41.2536 506.75 40.3906 506.75C39.5277 506.75 38.8281 507.45 38.8281 508.313C38.8281 509.175 39.5277 509.875 40.3906 509.875Z" fill="#0871E1"/>
<path d="M46.328 482.879C46.3194 481.58 45.581 480.435 44.405 479.893L30.3581 473.365C29.8012 473.109 29.2127 472.985 28.6081 473.002C27.6008 473.027 26.649 473.434 25.928 474.148C25.1784 474.891 24.7656 475.884 24.7656 476.944V503.894C22.947 504.539 21.6406 506.276 21.6406 508.313C21.6406 510.897 23.7434 513 26.3281 513C27.1911 513 27.8906 512.301 27.8906 511.438C27.8906 510.575 27.1911 509.875 26.3281 509.875C25.4666 509.875 24.7656 509.174 24.7656 508.313C24.7656 507.451 25.4666 506.75 26.3281 506.75C27.1897 506.75 27.8906 507.451 27.8906 508.313C27.8906 509.176 28.5902 509.875 29.4531 509.875C30.3161 509.875 31.0156 509.176 31.0156 508.313C31.0156 506.276 29.7092 504.539 27.8906 503.894V476.944C27.8906 476.451 28.3042 476.135 28.6874 476.125C28.8094 476.122 28.9309 476.149 29.0452 476.201L43.0922 482.729C43.1279 482.745 43.2023 482.78 43.2031 482.9C43.2039 483.029 43.1244 483.062 43.0898 483.077L31.7348 487.836C30.9389 488.17 30.5642 489.086 30.8978 489.881C31.2313 490.677 32.1468 491.052 32.9428 490.719L44.3015 485.957C45.5415 485.434 46.337 484.226 46.328 482.879Z" fill="#333333"/>
<path d="M45.8594 509.875C46.7223 509.875 47.4219 509.175 47.4219 508.313C47.4219 507.45 46.7223 506.75 45.8594 506.75C44.9964 506.75 44.2969 507.45 44.2969 508.313C44.2969 509.175 44.9964 509.875 45.8594 509.875Z" fill="#0871E1"/>
<path d="M56.7969 509.875C57.6598 509.875 58.3594 509.175 58.3594 508.313C58.3594 507.45 57.6598 506.75 56.7969 506.75C55.9339 506.75 55.2344 507.45 55.2344 508.313C55.2344 509.175 55.9339 509.875 56.7969 509.875Z" fill="#0871E1"/>
<path d="M51.3281 509.875C52.1911 509.875 52.8906 509.175 52.8906 508.313C52.8906 507.45 52.1911 506.75 51.3281 506.75C50.4652 506.75 49.7656 507.45 49.7656 508.313C49.7656 509.175 50.4652 509.875 51.3281 509.875Z" fill="#0871E1"/>
</g>
<defs>
<clipPath id="clip0_0_1">
<rect width="23" height="23" fill="white" transform="translate(35 264)"/>
</clipPath>
<clipPath id="clip1_0_1">
<rect width="40" height="40" fill="white" transform="translate(20 473)"/>
</clipPath>
</defs>
</svg>
