<svg width="60" height="60" viewBox="0 0 60 60" fill="none" xmlns="http://www.w3.org/2000/svg">
<circle cx="30" cy="30" r="30" fill="#F1F2F3"/>
<path d="M29.5031 23.0805C31.3213 23.0805 32.7953 21.6065 32.7953 19.7883C32.7953 17.9701 31.3213 16.4961 29.5031 16.4961C27.6849 16.4961 26.2109 17.9701 26.2109 19.7883C26.2109 21.6065 27.6849 23.0805 29.5031 23.0805Z" fill="#333333"/>
<path d="M42.625 22.9375H38.6437C38.6547 22.7187 38.6766 22.5 38.6766 22.2812C38.6766 17.2171 34.5641 13.0938 29.5 13.0938C24.4359 13.0938 20.3234 17.2171 20.3234 22.2812C20.3234 22.5 20.3453 22.7187 20.3563 22.9375H16.375C14.5703 22.9375 13.0938 24.414 13.0938 26.2188V42.625C13.0938 44.4296 14.5703 45.9062 16.375 45.9062H42.625C44.4297 45.9062 45.9062 44.4296 45.9062 42.625V26.2188C45.9062 24.414 44.4297 22.9375 42.625 22.9375ZM29.5 15.2812C33.35 15.2812 36.4891 18.4203 36.4891 22.2812C36.4891 23.7031 36.0625 25.0156 35.3297 26.1312C33.7547 24.6547 31.7094 23.8344 29.5 23.8344C27.2906 23.8344 25.2453 24.6547 23.6703 26.1312C22.9375 25.0156 22.5109 23.7031 22.5109 22.2812C22.5109 18.4203 25.65 15.2812 29.5 15.2812ZM43.7188 42.625C43.7188 43.2266 43.2266 43.7188 42.625 43.7188H16.375C15.7734 43.7188 15.2812 43.2266 15.2812 42.625V26.2188C15.2812 25.6172 15.7734 25.125 16.375 25.125H20.7828C21.9859 28.8 25.4422 31.4578 29.5 31.4578C33.5578 31.4578 37.0141 28.8 38.2172 25.125H42.625C43.2266 25.125 43.7188 25.6172 43.7188 26.2188V42.625Z" fill="#333333"/>
<path d="M36.8734 32.4199H22.1297C20.4781 32.4199 19.1328 33.7652 19.1328 35.4168C19.1328 37.0684 20.4781 38.4137 22.1297 38.4137H36.8734C38.525 38.4137 39.8703 37.0684 39.8703 35.4168C39.8703 33.7652 38.525 32.4199 36.8734 32.4199ZM36.8734 36.2262H22.1297C21.6812 36.2262 21.3203 35.8653 21.3203 35.4168C21.3203 34.9684 21.6812 34.6074 22.1297 34.6074H36.8734C37.3219 34.6074 37.6828 34.9684 37.6828 35.4168C37.6828 35.8653 37.3219 36.2262 36.8734 36.2262Z" fill="#333333"/>
<path d="M33.1953 39.6816H25.8125C25.2085 39.6816 24.7188 40.1708 24.7188 40.7754C24.7188 41.3799 25.2085 41.8691 25.8125 41.8691H33.1953C33.7993 41.8691 34.2891 41.3799 34.2891 40.7754C34.2891 40.1708 33.7993 39.6816 33.1953 39.6816Z" fill="#333333"/>
</svg>
