<svg width="60" height="60" viewBox="0 0 60 60" fill="none" xmlns="http://www.w3.org/2000/svg">
<circle cx="30" cy="30" r="30" fill="#F1F2F3"/>
<g clip-path="url(#clip0_1211_74236)">
<path d="M45.5186 12.0574L12.7772 22.756C11.8526 23.0582 11.7189 24.3159 12.5604 24.8052L24.9337 32C25.324 32.227 25.8119 32.1996 26.1743 31.9304L29.6525 29.3474L27.0695 32.8256C26.8003 33.1881 26.773 33.676 26.9999 34.0663L34.1947 46.4396C34.6846 47.2818 35.942 47.1466 36.244 46.2227L46.9426 13.4814C47.2295 12.6022 46.3934 11.7714 45.5186 12.0574ZM34.8801 43.1262L29.3259 33.5744L36.0232 24.5561C36.3569 24.1066 36.311 23.4805 35.9151 23.0846C35.5194 22.6888 34.8931 22.6428 34.4437 22.9765L25.4254 29.674L15.8736 24.1197L44.1051 14.8948L34.8801 43.1262ZM23.854 36.7425L16.3575 44.2389C15.9166 44.6797 15.2017 44.6799 14.7608 44.2389C14.3199 43.798 14.3199 43.0832 14.7608 42.6423L22.2573 35.1459C22.6984 34.7051 23.4132 34.7049 23.854 35.1459C24.2949 35.5867 24.2949 36.3016 23.854 36.7425ZM13.9505 37.0262C13.5096 36.5852 13.5096 35.8704 13.9505 35.4295L16.9085 32.4714C17.3494 32.0305 18.0643 32.0305 18.5051 32.4714C18.9461 32.9124 18.9461 33.6272 18.5051 34.0681L15.5471 37.0262C15.1063 37.467 14.3914 37.467 13.9505 37.0262ZM26.5284 40.4946C26.9693 40.9355 26.9693 41.6504 26.5284 42.0913L23.5703 45.0493C23.3499 45.2698 23.0609 45.38 22.772 45.38C21.7752 45.38 21.2605 44.1658 21.9738 43.4526L24.9318 40.4946C25.3726 40.0537 26.0875 40.0537 26.5284 40.4946Z" fill="#333333"/>
</g>
<defs>
<clipPath id="clip0_1211_74236">
<rect width="35" height="35" fill="white" transform="translate(12 12)"/>
</clipPath>
</defs>
</svg>
