<svg width="60" height="60" viewBox="0 0 60 60" fill="none" xmlns="http://www.w3.org/2000/svg">
<circle cx="30" cy="30" r="30" fill="#F1F2F3"/>
<path fill-rule="evenodd" clip-rule="evenodd" d="M22.2109 16.3757C22.2109 14.7648 23.5168 13.459 25.1276 13.459H33.8776C35.4885 13.459 36.7943 14.7648 36.7943 16.3757V19.2923C36.7943 20.9031 35.4885 22.209 33.8776 22.209H25.1276C23.5168 22.209 22.2109 20.9031 22.2109 19.2923V16.3757ZM33.8776 16.3757H25.1276V19.2923H33.8776V16.3757Z" fill="#333333"/>
<path fill-rule="evenodd" clip-rule="evenodd" d="M29.3615 30.9499C29.1509 30.9499 28.9422 30.9914 28.7475 31.0721C28.5531 31.1526 28.3765 31.2706 28.2276 31.4192C28.2275 31.4195 28.2279 31.419 28.2276 31.4192L20.5938 39.0671L19.8412 42.0697L22.848 41.3086L30.4959 33.6886C30.4956 33.6889 30.4962 33.6885 30.4959 33.6886C30.6445 33.5399 30.7632 33.3625 30.8437 33.1681C30.9244 32.9736 30.9658 32.7649 30.9658 32.5542C30.9658 32.3436 30.9244 32.1349 30.8437 31.9404C30.7631 31.7457 30.6449 31.5688 30.4959 31.4199C30.347 31.2708 30.1701 31.1527 29.9754 31.0721C29.7807 30.9914 29.5722 30.9499 29.3615 30.9499ZM27.6314 28.3774C28.1799 28.1502 28.7678 28.0332 29.3615 28.0332C29.9552 28.0332 30.5432 28.1502 31.0916 28.3774C31.6401 28.6046 32.1386 28.9377 32.5583 29.3574C32.9781 29.7772 33.3112 30.2757 33.5383 30.8242C33.7655 31.3726 33.8824 31.9605 33.8824 32.5542C33.8824 33.148 33.7655 33.7359 33.5383 34.2843C33.3112 34.8328 32.9781 35.3313 32.5583 35.7511L24.6231 43.6572C24.4375 43.842 24.2056 43.9735 23.9517 44.0378L18.1913 45.4962C17.6938 45.622 17.1667 45.4772 16.8034 45.1148C16.4401 44.7524 16.294 44.2257 16.4188 43.7278L17.8625 37.9674C17.9266 37.7117 18.0588 37.4782 18.245 37.2917L26.1637 29.3584C26.5835 28.9385 27.0828 28.6046 27.6314 28.3774Z" fill="#333333"/>
<path fill-rule="evenodd" clip-rule="evenodd" d="M33.8776 17.8333C33.8776 17.0279 34.5305 16.375 35.3359 16.375H38.2526C39.4129 16.375 40.5257 16.8359 41.3462 17.6564C42.1666 18.4769 42.6276 19.5897 42.6276 20.75V41.1667C42.6276 42.3271 42.1666 43.4398 41.3462 44.2602C40.5257 45.0807 39.413 45.5417 38.2526 45.5417H30.2318C29.4263 45.5417 28.7734 44.8888 28.7734 44.0833C28.7734 43.2779 29.4263 42.625 30.2318 42.625H38.2526C38.6394 42.625 39.0104 42.4713 39.2838 42.1979C39.5572 41.9244 39.7109 41.5534 39.7109 41.1667V20.75C39.7109 20.3632 39.5572 19.9923 39.2838 19.7188C39.0104 19.4453 38.6394 19.2917 38.2526 19.2917H35.3359C34.5305 19.2917 33.8776 18.6387 33.8776 17.8333Z" fill="#333333"/>
<path fill-rule="evenodd" clip-rule="evenodd" d="M20.75 19.2917C20.3632 19.2917 19.9923 19.4453 19.7188 19.7188C19.4453 19.9923 19.2917 20.3632 19.2917 20.75V31.6875C19.2917 32.4929 18.6387 33.1458 17.8333 33.1458C17.0279 33.1458 16.375 32.4929 16.375 31.6875V20.75C16.375 19.5897 16.8359 18.4769 17.6564 17.6564C18.4769 16.8359 19.5897 16.375 20.75 16.375H23.6667C24.4721 16.375 25.125 17.0279 25.125 17.8333C25.125 18.6387 24.4721 19.2917 23.6667 19.2917H20.75Z" fill="#333333"/>
</svg>
