<svg width="60" height="60" viewBox="0 0 60 60" fill="none" xmlns="http://www.w3.org/2000/svg">
<circle cx="30" cy="30" r="30" fill="white"/>
<mask id="mask0_361_80361" style="mask-type:alpha" maskUnits="userSpaceOnUse" x="0" y="0" width="60" height="60">
<circle cx="30" cy="30" r="30" fill="white"/>
</mask>
<g mask="url(#mask0_361_80361)">
<path d="M-6.03025 47.0895C-6.831 44.0115 -6.90979 40.7901 -6.26048 37.6767C-3.88293 25.8731 8.93459 19.4798 16.1824 10.8418C20.5213 5.67052 25.0152 0.450531 30.793 -3.05602C53.2314 -16.6926 74.7312 7.74258 76.8121 28.9324C78.8178 49.2988 64.4152 65.738 45.0627 70.3249C38.2329 71.9625 31.1237 72.0548 24.2536 70.5949C12.1755 67.9739 -2.74064 59.6281 -6.03025 47.0895Z" fill="#EDF3FF"/>
<mask id="mask1_361_80361" style="mask-type:luminance" maskUnits="userSpaceOnUse" x="-7" y="-7" width="84" height="79">
<path d="M-6.03025 47.0895C-6.831 44.0115 -6.90979 40.7901 -6.26048 37.6767C-3.88293 25.8731 8.93459 19.4798 16.1824 10.8418C20.5213 5.67052 25.0152 0.450531 30.793 -3.05602C53.2314 -16.6926 74.7312 7.74258 76.8121 28.9324C78.8178 49.2988 64.4152 65.738 45.0627 70.3249C38.2329 71.9625 31.1237 72.0548 24.2536 70.5949C12.1755 67.9739 -2.74064 59.6281 -6.03025 47.0895Z" fill="white"/>
</mask>
<g mask="url(#mask1_361_80361)">
<path d="M76.0644 18.4102C76.0644 18.4102 33.5341 16.0459 32.5114 18.6094C31.4886 21.1729 31.7808 68.7062 31.7808 72.8636C31.7808 74.2715 74.6564 72.3722 74.7937 70.2603C74.931 68.1484 80.3635 23.9888 76.0644 18.4102Z" fill="#DDE4FE"/>
<mask id="mask2_361_80361" style="mask-type:luminance" maskUnits="userSpaceOnUse" x="31" y="17" width="47" height="57">
<path d="M76.0644 18.4024C76.0644 18.4024 33.5341 16.0381 32.5114 18.6016C31.4886 21.1651 31.7808 68.6984 31.7808 72.8558C31.7808 74.2637 74.6564 72.3643 74.7937 70.2524C74.931 68.1405 80.3635 23.981 76.0644 18.4024Z" fill="white"/>
</mask>
<g mask="url(#mask2_361_80361)">
<path d="M42.3906 24.0488C42.3906 24.0488 70.1376 24.1152 70.3191 25.0406C70.5006 25.9659 70.7619 37.6234 69.6771 37.7164C68.5924 37.8094 42.3242 37.6633 42.3242 36.9992C42.3242 36.3351 42.3906 24.0488 42.3906 24.0488Z" fill="#EDF3FF"/>
<path opacity="0.33" d="M44.6499 8.8457C44.6499 8.8457 41.8474 52.0047 46.8991 59.2879C51.9508 66.5711 58.6717 66.9474 58.6717 66.9474C58.6717 66.9474 35.3877 73.5222 29.2866 73.9251C23.1856 74.328 25.6472 12.764 29.8179 11.8342C33.9886 10.9045 44.6499 8.8457 44.6499 8.8457Z" fill="#6D89C8"/>
<path d="M35.1474 15.3906C35.1474 15.3906 35.7097 73.7889 35.1474 73.7889C34.5851 73.7889 30.658 74.0059 30.7864 73.4392C30.9148 72.8725 29.9496 18.2154 30.7864 17.2103C31.6232 16.2053 35.1474 15.3906 35.1474 15.3906Z" fill="#446DBF"/>
</g>
<path d="M46.86 27.5293C49.4426 27.6119 52.0209 27.6754 54.5947 27.7197C57.1686 27.7639 59.7365 27.7875 62.2985 27.7905C63.7537 27.7905 65.2103 27.7905 66.6685 27.7905C66.7621 27.8013 66.857 27.7922 66.9469 27.7638C67.0368 27.7354 67.1196 27.6883 67.19 27.6255C67.2604 27.5628 67.3167 27.4859 67.3553 27.3999C67.3939 27.3139 67.4138 27.2207 67.4138 27.1264C67.4138 27.0321 67.3939 26.9389 67.3553 26.8529C67.3167 26.7668 67.2604 26.6899 67.19 26.6272C67.1196 26.5645 67.0368 26.5174 66.9469 26.489C66.857 26.4605 66.7621 26.4514 66.6685 26.4623C64.0917 26.4829 61.5134 26.4829 58.9337 26.4623C56.3539 26.4416 53.786 26.4018 51.2299 26.3427C49.7747 26.3073 48.3181 26.266 46.86 26.2188C46.683 26.2199 46.5136 26.2907 46.3885 26.4158C46.2634 26.541 46.1926 26.7103 46.1914 26.8873C46.2024 27.0585 46.2772 27.2194 46.4009 27.3382C46.5247 27.457 46.6884 27.5252 46.86 27.5293Z" fill="#DDE4FE"/>
<path d="M46.8704 31.4118C49.5091 31.5535 52.1494 31.6568 54.7911 31.7218C57.4328 31.7867 60.0746 31.8103 62.7163 31.7926C64.1921 31.7926 65.6797 31.7719 67.1792 31.7306C67.3367 31.7048 67.4799 31.6238 67.5833 31.5022C67.6866 31.3805 67.7433 31.2261 67.7433 31.0665C67.7433 30.9069 67.6866 30.7524 67.5833 30.6308C67.4799 30.5091 67.3367 30.4282 67.1792 30.4024C64.5227 30.4644 61.8795 30.4865 59.2496 30.4688C56.6197 30.4511 53.9794 30.3876 51.3288 30.2784C49.8412 30.2253 48.3536 30.1544 46.8704 30.0747C46.7767 30.0639 46.6818 30.073 46.5919 30.1014C46.502 30.1299 46.4192 30.177 46.3488 30.2397C46.2784 30.3024 46.2221 30.3793 46.1835 30.4653C46.1449 30.5514 46.125 30.6446 46.125 30.7389C46.125 30.8331 46.1449 30.9263 46.1835 31.0124C46.2221 31.0984 46.2784 31.1753 46.3488 31.238C46.4192 31.3007 46.502 31.3479 46.5919 31.3763C46.6818 31.4047 46.7767 31.4138 46.8704 31.403V31.4118Z" fill="#DDE4FE"/>
<path d="M46.6063 34.9133C48.6031 35.0417 50.591 35.0062 52.6011 35.0948C53.3538 35.1302 54.102 35.1789 54.8503 35.2409C55.0276 35.2398 55.1975 35.1691 55.3233 35.0441C55.4491 34.9191 55.5209 34.7497 55.5232 34.5724C55.519 34.3994 55.4496 34.2344 55.3289 34.1105C55.2082 33.9865 55.0452 33.9127 54.8724 33.9038C53.6903 33.8064 52.5081 33.7356 51.3304 33.7134C50.4449 33.7134 49.5594 33.7134 48.6518 33.6736C47.9788 33.6736 47.3236 33.6204 46.6373 33.5762C46.4603 33.5773 46.291 33.6481 46.1658 33.7733C46.0407 33.8984 45.9699 34.0678 45.9688 34.2447C45.971 34.4213 46.0422 34.59 46.1671 34.7149C46.292 34.8398 46.4607 34.911 46.6373 34.9133H46.6063Z" fill="#DDE4FE"/>
</g>
<path d="M30.9651 33.2902C30.9651 33.2902 33.688 74.4657 32.3243 74.8641C30.9607 75.2626 26.7324 75.5194 26.8166 74.8641C26.9007 74.2089 25.8514 40.6221 23.1595 40.8169C20.4676 41.0117 21.6409 75.4131 20.7244 75.2759C19.8079 75.1386 14.3887 76.3208 14.4772 74.4657C14.5658 72.6106 14.3444 34.3794 14.4772 33.7329C14.61 33.0865 30.9651 33.2902 30.9651 33.2902Z" fill="#122A50"/>
<path d="M18.851 9.9735C18.6385 8.98617 18.7713 7.98999 19.1565 7.75976C19.9667 7.24175 21.4809 7.14434 21.7244 7.98114C21.7244 7.98114 23.1855 12.1341 21.0736 12.2138C21.1887 13.0639 21.2684 13.8785 21.3215 14.0423C21.4322 14.3788 19.732 14.5648 19.3513 14.4187C19.0856 14.2947 18.9262 11.6249 18.851 9.9735Z" fill="#ED784D"/>
<path d="M21.0718 12.1915C20.5902 12.2082 20.1187 12.0511 19.7435 11.7487C19.1148 11.2263 19.9693 12.922 21.1692 12.7892L21.0718 12.1915Z" fill="#D24A0E"/>
<path d="M19.5473 8.43022C19.5473 8.43022 19.5119 8.6693 19.4544 9.01022C19.4203 8.95972 19.3729 8.91971 19.3173 8.89468C19.2618 8.86965 19.2004 8.8606 19.14 8.86854C18.9452 8.90396 18.8301 9.1519 18.8832 9.41754C18.9364 9.68319 19.1179 9.86029 19.326 9.83373C19.2774 10.2969 19.1438 10.7472 18.9319 11.162C18.7415 11.2815 16.7182 9.21831 18.011 7.96091C18.011 7.96091 17.8206 6.60167 19.0825 6.52198C20.3443 6.44228 21.9825 6.48656 22.0312 5.33984C22.0312 5.33984 23.4789 7.55358 21.7434 7.96976C20.5967 8.22655 19.5473 8.43022 19.5473 8.43022Z" fill="#122A50"/>
<path d="M19.7624 13.3068C19.7624 13.3068 24.7654 12.5674 27.081 17.3535C29.3966 22.1396 32.8898 34.1115 31.9778 35.732C30.1227 39.0171 15.3393 38.8002 14.7372 36.8742C14.1351 34.9483 14.2945 18.6906 15.2596 16.6761C16.5746 13.9267 19.7624 13.3068 19.7624 13.3068Z" fill="white"/>
<path d="M19.4492 13.3653C19.633 13.5388 19.7991 13.7301 19.9451 13.9365C20.0115 14.087 21.0652 21.534 21.0652 21.534C21.0652 21.534 21.6275 22.3265 22.15 22.1494C22.6724 21.9723 22.7654 21.2639 22.8141 21.0735C22.8628 20.8832 20.6446 14.056 20.6446 13.9719C20.6446 13.8878 20.742 13.2635 20.742 13.2635C20.3084 13.2281 19.8719 13.2625 19.4492 13.3653Z" fill="#122A50"/>
<path d="M17.194 14.4469C17.194 14.4469 20.705 22.7175 22.1439 22.1684C23.5828 21.6194 23.2552 13.7031 23.2552 13.7031C23.2552 13.7031 26.7972 14.5886 28.2184 17.6524C29.6396 20.7162 33.2081 34.5344 32.6459 36.0751C32.0836 37.6159 26.775 38.984 23.2331 38.9176C19.6911 38.8512 14.4224 37.8417 13.9974 37.1466C13.5723 36.4515 13.3554 19.5651 14.4711 17.3514C15.0483 16.1193 16.0017 15.1023 17.194 14.4469Z" fill="#FEBD69"/>
<path d="M13.2973 19.3516C13.2973 19.3516 8.68388 27.2059 9.23288 28.5873C9.78189 29.9686 13.6604 30.6549 13.6604 30.6549C13.6604 30.6549 14.4706 19.6305 13.2973 19.3516Z" fill="#FEBD69"/>
<path d="M38.1874 39.1699L35.9737 41.3837L35.6239 41.7334L33.4102 43.9472C33.4102 43.9472 36.4341 44.8327 37.8996 46.9401L39.3651 49.0697C39.3651 49.0697 45.8292 51.8192 46.0462 51.7926C46.0727 51.5757 43.3321 45.1072 43.3321 45.1072L41.2069 43.6417C39.0463 42.1983 38.1874 39.1699 38.1874 39.1699Z" fill="#122A50"/>
<path d="M-5.71839 6.303C-5.67271 6.64573 -5.50442 6.96031 -5.24465 7.1885C-3.7216 8.70269 -2.05687 10.0575 -0.516112 11.554L1.7419 13.7102L8.09532 19.8821C13.2223 24.8408 18.3582 29.7922 23.5029 34.7362C26.6553 37.7513 29.7014 41.0764 33.1238 43.8037C33.1902 43.8568 33.2788 43.9631 33.3673 43.9852C34.3192 44.2243 38.6803 39.9119 38.1888 39.1681C37.2192 37.7115 35.5545 36.4629 34.3236 35.2321C31.3513 32.2804 28.3672 29.3288 25.3713 26.3772C21.7408 22.8145 18.0955 19.2725 14.4355 15.7512C11.1945 12.6254 7.94478 9.51292 4.63304 6.45354C3.63686 5.53262 2.64953 4.59843 1.64007 3.6908C0.993656 3.11965 -0.352295 1.47706 -1.3042 1.57447C-1.53764 1.61405 -1.75795 1.70978 -1.94618 1.8534C-2.8345 2.47161 -3.6267 3.21756 -4.29717 4.06713C-4.73992 4.62056 -5.74053 5.49278 -5.71839 6.28087V6.303Z" fill="#6D89C8"/>
<mask id="mask3_361_80361" style="mask-type:luminance" maskUnits="userSpaceOnUse" x="-6" y="1" width="45" height="43">
<path d="M-5.71839 6.2991C-5.67271 6.64183 -5.50442 6.9564 -5.24465 7.18459C-3.7216 8.69879 -2.05687 10.0536 -0.516112 11.5501L1.7419 13.7063L8.09532 19.8781C13.2223 24.8369 18.3582 29.7883 23.5029 34.7323C26.6553 37.7474 29.7014 41.0724 33.1238 43.7998C33.1902 43.8529 33.2788 43.9592 33.3673 43.9813C34.3192 44.2204 38.6803 39.908 38.1888 39.1642C37.2192 37.7076 35.5545 36.459 34.3236 35.2282C31.3513 32.2765 28.3672 29.3249 25.3713 26.3732C21.7408 22.8106 18.0955 19.2686 14.4355 15.7473C11.1945 12.6215 7.94478 9.50901 4.63304 6.44963C3.63686 5.52872 2.64953 4.59452 1.64007 3.68689C0.993656 3.11575 -0.352295 1.47316 -1.3042 1.57056C-1.53764 1.61015 -1.75795 1.70587 -1.94618 1.84949C-2.8345 2.4677 -3.6267 3.21366 -4.29717 4.06322C-4.73992 4.61666 -5.74053 5.48887 -5.71839 6.27696V6.2991Z" fill="white"/>
</mask>
<g mask="url(#mask3_361_80361)">
<path d="M-6.6396 1.98242C-6.6396 1.98242 36.0102 42.3609 37.4226 43.2287C38.8349 44.0965 33.9913 46.4652 33.9913 46.4652C33.9913 46.4652 -10.4561 5.17463 -9.22082 4.51051C-7.98555 3.84639 -6.6396 1.98242 -6.6396 1.98242Z" fill="#5D7BAF"/>
</g>
<path d="M-0.695312 1.69501C-0.695312 1.69501 3.92254 0.233948 4.1749 1.08845C4.42727 1.94295 12.3657 12.7991 14.4555 14.1052L14.1588 14.4019C14.1588 14.4019 10.0856 11.5594 3.56391 2.36356L0.854302 2.90371L-0.695312 1.69501Z" fill="#122A50"/>
<path d="M40.9188 45.9471C40.8773 45.8625 40.8163 45.789 40.7407 45.7327C40.6651 45.6764 40.5772 45.639 40.4843 45.6234C40.3913 45.6078 40.296 45.6146 40.2062 45.6432C40.1164 45.6718 40.0347 45.7214 39.9679 45.7878C39.9011 45.8543 39.8511 45.9357 39.822 46.0253C39.7929 46.115 39.7855 46.2102 39.8006 46.3033C39.8156 46.3963 39.8526 46.4844 39.9085 46.5603C39.9644 46.6362 40.0375 46.6977 40.1219 46.7396C40.2211 46.8565 40.3525 46.9415 40.4998 46.9841C40.6471 47.0266 40.8036 47.0247 40.9498 46.9787L45.8997 51.9242C45.9133 51.938 45.9295 51.949 45.9474 51.9564C45.9653 51.9639 45.9844 51.9677 46.0038 51.9677C46.0232 51.9677 46.0423 51.9639 46.0602 51.9564C46.0781 51.949 46.0942 51.938 46.1078 51.9242C46.1216 51.9106 46.1326 51.8944 46.1401 51.8766C46.1475 51.8587 46.1514 51.8395 46.1514 51.8202C46.1514 51.8008 46.1475 51.7816 46.1401 51.7638C46.1326 51.7459 46.1216 51.7297 46.1078 51.7161L41.1446 46.7706C41.1896 46.6261 41.1922 46.4718 41.1521 46.3259C41.1121 46.1799 41.0312 46.0485 40.9188 45.9471Z" fill="#6D89C8"/>
<path d="M9.22108 27.9512C9.22108 27.9512 24.5224 30.404 25.3813 31.6835C26.2403 32.9631 25.8241 36.204 24.881 36.0756C23.938 35.9472 11.4835 34.9908 10.1553 33.4988C8.82704 32.0067 8.82704 29.9125 9.22108 27.9512Z" fill="#FEBD69"/>
<path d="M18.1226 29.563L12.6016 28.5181C12.6016 28.5181 14.7577 27.9956 14.1822 25.7598L18.1226 29.563Z" fill="#E9A854"/>
<path d="M13.7812 34.6992C13.7812 34.6992 23.7962 36.2798 24.8809 36.0762L27.3382 38.5157C27.3382 38.5157 17.5977 38.312 13.7812 35.5714V34.6992Z" fill="#E9A854"/>
<path d="M26.7188 15.623C26.7188 15.623 35.5338 24.8765 36.2157 26.311C36.8975 27.7455 36.3086 41.05 35.9544 41.4042C35.6003 41.7584 31.8856 41.3157 31.2038 40.5497C30.5219 39.7837 31.1019 27.7322 30.9824 27.2673C30.8629 26.8024 29.5612 24.8942 29.4416 24.6108C29.3221 24.3275 26.7188 15.623 26.7188 15.623Z" fill="#FEBD69"/>
<path d="M30.9162 31.845C30.9162 31.845 30.6462 27.94 31.359 27.2847C31.7177 26.907 32.2108 26.6858 32.7315 26.6693C32.7315 26.6693 30.6285 26.9306 30.4469 26.6693C30.2654 26.4081 27.4185 19.7758 27.3344 19.5632C27.2503 19.3507 29.4198 26.4967 29.3755 27.2892C29.3312 28.0817 29.0169 29.9722 29.0169 29.9722L30.9162 31.845Z" fill="#E9A854"/>
<path d="M31.8477 40.9414C31.8477 40.9414 30.7807 41.8269 31.1659 42.4467C31.5511 43.0666 32.6712 44.5099 33.3796 44.5099C34.088 44.5099 35.5446 43.6864 35.5668 43.4518C35.5889 43.2171 35.4871 41.5303 35.4871 41.5303C35.4871 41.5303 32.2904 41.1539 31.8477 40.9414Z" fill="#ED784D"/>
<mask id="mask4_361_80361" style="mask-type:luminance" maskUnits="userSpaceOnUse" x="31" y="40" width="5" height="5">
<path d="M31.8477 40.9355C31.8477 40.9355 30.7807 41.821 31.1659 42.4409C31.5511 43.0607 32.6712 44.5041 33.3796 44.5041C34.088 44.5041 35.5446 43.6806 35.5668 43.4459C35.5889 43.2113 35.4871 41.5244 35.4871 41.5244C35.4871 41.5244 32.2904 41.1481 31.8477 40.9355Z" fill="white"/>
</mask>
<g mask="url(#mask4_361_80361)">
<path d="M34.7346 41.1882C34.7346 41.1882 32.481 41.3432 32.0117 41.9143C31.5424 42.4855 31.8567 43.7252 31.8567 43.7252C31.8567 43.7252 30.648 43.0832 30.6967 42.273C30.7454 41.4627 31.7593 40.3691 31.7593 40.3691L34.7346 41.1882Z" fill="#D24A0E"/>
</g>
<path d="M25.6505 32.198C25.6505 32.198 28.2273 31.1885 28.462 31.2859C28.6966 31.3833 29.0331 31.7287 28.4044 32.1714C28.1786 32.3219 27.1824 32.7647 27.3595 32.8488C27.5366 32.9329 30.534 34.5313 30.5872 35.1201C30.6403 35.709 29.6264 37.108 28.918 37.0062C28.2096 36.9044 25.4336 35.7355 25.4336 35.7355C25.6459 35.1079 25.7696 34.4537 25.8011 33.7919C25.7302 33.1056 25.6505 32.198 25.6505 32.198Z" fill="#ED784D"/>
<mask id="mask5_361_80361" style="mask-type:luminance" maskUnits="userSpaceOnUse" x="25" y="31" width="6" height="7">
<path d="M25.6505 32.196C25.6505 32.196 28.2273 31.1866 28.462 31.284C28.6966 31.3814 29.0331 31.7267 28.4044 32.1695C28.1786 32.32 27.1824 32.7627 27.3595 32.8469C27.5366 32.931 30.534 34.5293 30.5872 35.1182C30.6403 35.707 29.6264 37.1061 28.918 37.0043C28.2096 36.9024 25.4336 35.7336 25.4336 35.7336C25.6459 35.1059 25.7696 34.4517 25.8011 33.7899C25.7302 33.1037 25.6505 32.196 25.6505 32.196Z" fill="white"/>
</mask>
<g mask="url(#mask5_361_80361)">
<path d="M25.099 32.5625C25.099 32.5625 26.1306 34.701 27.4677 35.5909C28.28 36.1319 29.136 36.6043 30.0268 37.0033C29.6891 37.2071 29.2949 37.2971 28.9022 37.26C28.2691 37.1892 25.1477 36.3214 24.9573 35.8034C24.767 35.2854 25.099 32.5625 25.099 32.5625Z" fill="#D24A0E"/>
</g>
</g>
</svg>
