<svg width="60" height="60" viewBox="0 0 60 60" fill="none" xmlns="http://www.w3.org/2000/svg">
<circle cx="30" cy="30" r="30" fill="white"/>
<mask id="mask0_2496_6136" style="mask-type:alpha" maskUnits="userSpaceOnUse" x="0" y="0" width="60" height="60">
<circle cx="30" cy="30" r="30" fill="white"/>
</mask>
<g mask="url(#mask0_2496_6136)">
<path d="M-6.03025 47.0895C-6.831 44.0115 -6.90979 40.7901 -6.26048 37.6767C-3.88293 25.8731 8.93459 19.4798 16.1824 10.8418C20.5213 5.67052 25.0152 0.450531 30.793 -3.05602C53.2314 -16.6926 74.7312 7.74258 76.8121 28.9324C78.8178 49.2988 64.4152 65.738 45.0627 70.3249C38.2329 71.9625 31.1237 72.0548 24.2536 70.5949C12.1755 67.9739 -2.74064 59.6281 -6.03025 47.0895Z" fill="#EDF3FF"/>
<mask id="mask1_2496_6136" style="mask-type:luminance" maskUnits="userSpaceOnUse" x="-7" y="-7" width="84" height="79">
<path d="M-6.03025 47.0895C-6.831 44.0115 -6.90979 40.7901 -6.26048 37.6767C-3.88293 25.8731 8.93459 19.4798 16.1824 10.8418C20.5213 5.67052 25.0152 0.450531 30.793 -3.05602C53.2314 -16.6926 74.7312 7.74258 76.8121 28.9324C78.8178 49.2988 64.4152 65.738 45.0627 70.3249C38.2329 71.9625 31.1237 72.0548 24.2536 70.5949C12.1755 67.9739 -2.74064 59.6281 -6.03025 47.0895Z" fill="white"/>
</mask>
<g mask="url(#mask1_2496_6136)">
<path d="M76.0644 18.4092C76.0644 18.4092 33.5341 16.0449 32.5114 18.6084C31.4886 21.1719 31.7808 68.7052 31.7808 72.8626C31.7808 74.2706 74.6564 72.3712 74.7937 70.2593C74.931 68.1474 80.3635 23.9878 76.0644 18.4092Z" fill="#DDE4FE"/>
<mask id="mask2_2496_6136" style="mask-type:luminance" maskUnits="userSpaceOnUse" x="31" y="17" width="47" height="57">
<path d="M76.0644 18.4024C76.0644 18.4024 33.5341 16.0381 32.5114 18.6016C31.4886 21.1651 31.7808 68.6984 31.7808 72.8558C31.7808 74.2637 74.6564 72.3643 74.7937 70.2524C74.931 68.1405 80.3635 23.981 76.0644 18.4024Z" fill="white"/>
</mask>
<g mask="url(#mask2_2496_6136)">
<path d="M42.3945 24.0488C42.3945 24.0488 70.1415 24.1152 70.323 25.0406C70.5045 25.9659 70.7658 37.6234 69.681 37.7164C68.5963 37.8094 42.3281 37.6633 42.3281 36.9992C42.3281 36.3351 42.3945 24.0488 42.3945 24.0488Z" fill="#EDF3FF"/>
<path opacity="0.33" d="M44.6539 8.8457C44.6539 8.8457 41.8513 52.0047 46.903 59.2879C51.9548 66.5711 58.6756 66.9474 58.6756 66.9474C58.6756 66.9474 35.3916 73.5222 29.2905 73.9251C23.1895 74.328 25.6512 12.764 29.8218 11.8342C33.9925 10.9045 44.6539 8.8457 44.6539 8.8457Z" fill="#6D89C8"/>
<path d="M35.1513 15.3906C35.1513 15.3906 35.7136 73.7889 35.1513 73.7889C34.5891 73.7889 30.6619 74.0059 30.7903 73.4392C30.9187 72.8725 29.9535 18.2154 30.7903 17.2103C31.6271 16.2053 35.1513 15.3906 35.1513 15.3906Z" fill="#446DBF"/>
</g>
<path d="M46.8639 27.5283C49.4466 27.611 52.0248 27.6744 54.5987 27.7187C57.1725 27.763 59.7404 27.7866 62.3024 27.7895C63.7576 27.7895 65.2142 27.7895 66.6724 27.7895C66.766 27.8004 66.8609 27.7913 66.9508 27.7628C67.0407 27.7344 67.1235 27.6873 67.1939 27.6246C67.2643 27.5618 67.3206 27.4849 67.3592 27.3989C67.3978 27.3129 67.4177 27.2197 67.4177 27.1254C67.4177 27.0311 67.3978 26.9379 67.3592 26.8519C67.3206 26.7659 67.2643 26.689 67.1939 26.6263C67.1235 26.5635 67.0407 26.5164 66.9508 26.488C66.8609 26.4596 66.766 26.4505 66.6724 26.4613C64.0956 26.4819 61.5173 26.4819 58.9376 26.4613C56.3578 26.4406 53.7899 26.4008 51.2338 26.3417C49.7786 26.3063 48.322 26.265 46.8639 26.2178C46.6869 26.2189 46.5175 26.2897 46.3924 26.4149C46.2673 26.54 46.1965 26.7094 46.1953 26.8863C46.2063 27.0575 46.2811 27.2184 46.4048 27.3372C46.5286 27.4561 46.6923 27.5242 46.8639 27.5283Z" fill="#DDE4FE"/>
<path d="M46.8704 31.4109C49.5091 31.5525 52.1494 31.6558 54.7911 31.7208C57.4328 31.7857 60.0746 31.8093 62.7163 31.7916C64.1921 31.7916 65.6797 31.771 67.1792 31.7296C67.3367 31.7038 67.4799 31.6229 67.5833 31.5012C67.6866 31.3796 67.7433 31.2251 67.7433 31.0655C67.7433 30.9059 67.6866 30.7515 67.5833 30.6298C67.4799 30.5082 67.3367 30.4272 67.1792 30.4014C64.5227 30.4634 61.8795 30.4855 59.2496 30.4678C56.6197 30.4501 53.9794 30.3866 51.3288 30.2774C49.8412 30.2243 48.3536 30.1535 46.8704 30.0738C46.7767 30.0629 46.6818 30.072 46.5919 30.1005C46.502 30.1289 46.4192 30.176 46.3488 30.2387C46.2784 30.3014 46.2221 30.3783 46.1835 30.4644C46.1449 30.5504 46.125 30.6436 46.125 30.7379C46.125 30.8322 46.1449 30.9254 46.1835 31.0114C46.2221 31.0974 46.2784 31.1743 46.3488 31.237C46.4192 31.2998 46.502 31.3469 46.5919 31.3753C46.6818 31.4037 46.7767 31.4128 46.8704 31.402V31.4109Z" fill="#DDE4FE"/>
<path d="M46.6063 34.9142C48.6031 35.0426 50.591 35.0072 52.6011 35.0958C53.3538 35.1312 54.102 35.1799 54.8503 35.2419C55.0276 35.2407 55.1975 35.1701 55.3233 35.0451C55.4491 34.9201 55.5209 34.7507 55.5232 34.5733C55.519 34.4004 55.4496 34.2354 55.3289 34.1114C55.2082 33.9875 55.0452 33.9137 54.8724 33.9048C53.6903 33.8074 52.5081 33.7365 51.3304 33.7144C50.4449 33.7144 49.5594 33.7144 48.6518 33.6745C47.9788 33.6745 47.3236 33.6214 46.6373 33.5771C46.4603 33.5783 46.291 33.6491 46.1658 33.7742C46.0407 33.8994 45.9699 34.0687 45.9688 34.2457C45.971 34.4223 46.0422 34.591 46.1671 34.7159C46.292 34.8408 46.4607 34.9119 46.6373 34.9142H46.6063Z" fill="#DDE4FE"/>
</g>
<path d="M30.9612 33.2892C30.9612 33.2892 33.6841 74.4647 32.3204 74.8632C30.9568 75.2616 26.7285 75.5184 26.8127 74.8632C26.8968 74.2079 25.8475 40.6211 23.1556 40.8159C20.4637 41.0107 21.6369 75.4122 20.7205 75.2749C19.804 75.1377 14.3848 76.3198 14.4733 74.4647C14.5619 72.6096 14.3405 34.3784 14.4733 33.732C14.6061 33.0856 30.9612 33.2892 30.9612 33.2892Z" fill="#122A50"/>
<path d="M18.851 9.97252C18.6385 8.9852 18.7713 7.98902 19.1565 7.75879C19.9667 7.24077 21.4809 7.14337 21.7244 7.98016C21.7244 7.98016 23.1855 12.1331 21.0736 12.2128C21.1887 13.0629 21.2684 13.8775 21.3215 14.0414C21.4322 14.3779 19.732 14.5638 19.3513 14.4177C19.0856 14.2937 18.9262 11.624 18.851 9.97252Z" fill="#ED784D"/>
<path d="M21.0718 12.1905C20.5902 12.2072 20.1187 12.0501 19.7435 11.7477C19.1148 11.2253 19.9693 12.921 21.1692 12.7882L21.0718 12.1905Z" fill="#D24A0E"/>
<path d="M19.5512 8.42924C19.5512 8.42924 19.5158 8.66832 19.4583 9.00924C19.4242 8.95874 19.3768 8.91873 19.3212 8.8937C19.2657 8.86868 19.2043 8.85962 19.1439 8.86756C18.9491 8.90298 18.834 9.15092 18.8871 9.41657C18.9403 9.68222 19.1218 9.85931 19.3299 9.83275C19.2813 10.2959 19.1477 10.7462 18.9358 11.161C18.7455 11.2805 16.7221 9.21733 18.0149 7.95993C18.0149 7.95993 17.8245 6.6007 19.0864 6.521C20.3482 6.44131 21.9864 6.48558 22.0351 5.33887C22.0351 5.33887 23.4828 7.5526 21.7473 7.96878C20.6006 8.22558 19.5512 8.42924 19.5512 8.42924Z" fill="#122A50"/>
<path d="M19.7624 13.3078C19.7624 13.3078 24.7654 12.5684 27.081 17.3545C29.3966 22.1406 32.8898 34.1125 31.9778 35.7329C30.1227 39.0181 15.3393 38.8012 14.7372 36.8752C14.1351 34.9493 14.2945 18.6916 15.2596 16.6771C16.5746 13.9276 19.7624 13.3078 19.7624 13.3078Z" fill="white"/>
<path d="M19.4531 13.3653C19.6369 13.5388 19.803 13.7301 19.949 13.9365C20.0154 14.087 21.0692 21.534 21.0692 21.534C21.0692 21.534 21.6314 22.3265 22.1539 22.1494C22.6763 21.9723 22.7693 21.2639 22.818 21.0735C22.8667 20.8832 20.6485 14.056 20.6485 13.9719C20.6485 13.8878 20.7459 13.2635 20.7459 13.2635C20.3123 13.2281 19.8759 13.2625 19.4531 13.3653Z" fill="#122A50"/>
<path d="M17.1901 14.446C17.1901 14.446 20.7011 22.7165 22.14 22.1675C23.5789 21.6185 23.2513 13.7021 23.2513 13.7021C23.2513 13.7021 26.7933 14.5876 28.2145 17.6515C29.6357 20.7153 33.2042 34.5334 32.642 36.0742C32.0797 37.6149 26.7711 38.983 23.2292 38.9166C19.6872 38.8502 14.4185 37.8407 13.9935 37.1456C13.5684 36.4505 13.3515 19.5641 14.4672 17.3504C15.0444 16.1183 15.9978 15.1013 17.1901 14.446Z" fill="#FEBD69"/>
<path d="M13.2973 19.3506C13.2973 19.3506 8.68388 27.2049 9.23288 28.5863C9.78189 29.9677 13.6604 30.6539 13.6604 30.6539C13.6604 30.6539 14.4706 19.6295 13.2973 19.3506Z" fill="#FEBD69"/>
<path d="M38.1913 39.1689L35.9776 41.3827L35.6278 41.7325L33.4141 43.9462C33.4141 43.9462 36.438 44.8317 37.9035 46.9392L39.369 49.0688C39.369 49.0688 45.8331 51.8182 46.0501 51.7917C46.0766 51.5747 43.336 45.1062 43.336 45.1062L41.2108 43.6407C39.0502 42.1973 38.1913 39.1689 38.1913 39.1689Z" fill="#122A50"/>
<path d="M-5.71839 6.303C-5.67271 6.64573 -5.50442 6.96031 -5.24465 7.1885C-3.7216 8.70269 -2.05687 10.0575 -0.516112 11.554L1.7419 13.7102L8.09532 19.8821C13.2223 24.8408 18.3582 29.7922 23.5029 34.7362C26.6553 37.7513 29.7014 41.0764 33.1238 43.8037C33.1902 43.8568 33.2788 43.9631 33.3673 43.9852C34.3192 44.2243 38.6803 39.9119 38.1888 39.1681C37.2192 37.7115 35.5545 36.4629 34.3236 35.2321C31.3513 32.2804 28.3672 29.3288 25.3713 26.3772C21.7408 22.8145 18.0955 19.2725 14.4355 15.7512C11.1945 12.6254 7.94478 9.51292 4.63304 6.45354C3.63686 5.53262 2.64953 4.59843 1.64007 3.6908C0.993656 3.11965 -0.352295 1.47706 -1.3042 1.57447C-1.53764 1.61405 -1.75795 1.70978 -1.94618 1.8534C-2.8345 2.47161 -3.6267 3.21756 -4.29717 4.06713C-4.73992 4.62056 -5.74053 5.49278 -5.71839 6.28087V6.303Z" fill="#6D89C8"/>
<mask id="mask3_2496_6136" style="mask-type:luminance" maskUnits="userSpaceOnUse" x="-6" y="1" width="45" height="43">
<path d="M-5.71839 6.2991C-5.67271 6.64183 -5.50442 6.9564 -5.24465 7.18459C-3.7216 8.69879 -2.05687 10.0536 -0.516112 11.5501L1.7419 13.7063L8.09532 19.8781C13.2223 24.8369 18.3582 29.7883 23.5029 34.7323C26.6553 37.7474 29.7014 41.0724 33.1238 43.7998C33.1902 43.8529 33.2788 43.9592 33.3673 43.9813C34.3192 44.2204 38.6803 39.908 38.1888 39.1642C37.2192 37.7076 35.5545 36.459 34.3236 35.2282C31.3513 32.2765 28.3672 29.3249 25.3713 26.3732C21.7408 22.8106 18.0955 19.2686 14.4355 15.7473C11.1945 12.6215 7.94478 9.50901 4.63304 6.44963C3.63686 5.52872 2.64953 4.59452 1.64007 3.68689C0.993656 3.11575 -0.352295 1.47316 -1.3042 1.57056C-1.53764 1.61015 -1.75795 1.70587 -1.94618 1.84949C-2.8345 2.4677 -3.6267 3.21366 -4.29717 4.06322C-4.73992 4.61666 -5.74053 5.48887 -5.71839 6.27696V6.2991Z" fill="white"/>
</mask>
<g mask="url(#mask3_2496_6136)">
<path d="M-6.63569 1.98242C-6.63569 1.98242 36.0141 42.3609 37.4265 43.2287C38.8388 44.0965 33.9952 46.4652 33.9952 46.4652C33.9952 46.4652 -10.4522 5.17463 -9.21691 4.51051C-7.98164 3.84639 -6.63569 1.98242 -6.63569 1.98242Z" fill="#5D7BAF"/>
</g>
<path d="M-0.695312 1.69404C-0.695312 1.69404 3.92254 0.232971 4.1749 1.08747C4.42727 1.94197 12.3657 12.7981 14.4555 14.1042L14.1588 14.4009C14.1588 14.4009 10.0856 11.5584 3.56391 2.36258L0.854302 2.90274L-0.695312 1.69404Z" fill="#122A50"/>
<path d="M40.9228 45.9462C40.8812 45.8616 40.8202 45.7881 40.7446 45.7318C40.669 45.6755 40.5811 45.638 40.4882 45.6224C40.3952 45.6068 40.2999 45.6136 40.2101 45.6422C40.1203 45.6708 40.0386 45.7204 39.9718 45.7869C39.905 45.8533 39.855 45.9347 39.8259 46.0244C39.7968 46.114 39.7894 46.2093 39.8045 46.3023C39.8195 46.3953 39.8565 46.4834 39.9124 46.5593C39.9683 46.6352 40.0414 46.6967 40.1258 46.7387C40.225 46.8555 40.3565 46.9406 40.5037 46.9831C40.651 47.0256 40.8075 47.0238 40.9537 46.9778L45.9037 51.9232C45.9172 51.937 45.9334 51.948 45.9513 51.9555C45.9692 51.9629 45.9883 51.9668 46.0077 51.9668C46.0271 51.9668 46.0462 51.9629 46.0641 51.9555C46.082 51.948 46.0982 51.937 46.1117 51.9232C46.1255 51.9096 46.1365 51.8935 46.144 51.8756C46.1514 51.8577 46.1553 51.8386 46.1553 51.8192C46.1553 51.7998 46.1514 51.7807 46.144 51.7628C46.1365 51.7449 46.1255 51.7287 46.1117 51.7151L41.1486 46.7697C41.1935 46.6252 41.1961 46.4708 41.156 46.3249C41.116 46.179 41.0351 46.0475 40.9228 45.9462Z" fill="#6D89C8"/>
<path d="M9.22108 27.9502C9.22108 27.9502 24.5224 30.403 25.3813 31.6826C26.2403 32.9621 25.8241 36.203 24.881 36.0746C23.938 35.9462 11.4835 34.9899 10.1553 33.4978C8.82704 32.0058 8.82704 29.9116 9.22108 27.9502Z" fill="#FEBD69"/>
<path d="M18.1226 29.562L12.6016 28.5171C12.6016 28.5171 14.7577 27.9947 14.1822 25.7588L18.1226 29.562Z" fill="#E9A854"/>
<path d="M13.7812 34.6992C13.7812 34.6992 23.7962 36.2798 24.8809 36.0762L27.3382 38.5157C27.3382 38.5157 17.5977 38.312 13.7812 35.5714V34.6992Z" fill="#E9A854"/>
<path d="M26.7188 15.624C26.7188 15.624 35.5338 24.8774 36.2157 26.3119C36.8975 27.7464 36.3086 41.051 35.9544 41.4052C35.6003 41.7594 31.8856 41.3166 31.2038 40.5507C30.5219 39.7847 31.1019 27.7332 30.9824 27.2683C30.8629 26.8034 29.5612 24.8951 29.4416 24.6118C29.3221 24.3284 26.7188 15.624 26.7188 15.624Z" fill="#FEBD69"/>
<path d="M30.9201 31.845C30.9201 31.845 30.6501 27.94 31.3629 27.2847C31.7216 26.907 32.2147 26.6858 32.7354 26.6693C32.7354 26.6693 30.6324 26.9306 30.4508 26.6693C30.2693 26.4081 27.4224 19.7758 27.3383 19.5632C27.2542 19.3507 29.4237 26.4967 29.3794 27.2892C29.3351 28.0817 29.0208 29.9722 29.0208 29.9722L30.9201 31.845Z" fill="#E9A854"/>
<path d="M31.8516 40.9414C31.8516 40.9414 30.7846 41.8269 31.1698 42.4467C31.555 43.0666 32.6751 44.5099 33.3835 44.5099C34.0919 44.5099 35.5485 43.6864 35.5707 43.4518C35.5928 43.2171 35.491 41.5303 35.491 41.5303C35.491 41.5303 32.2944 41.1539 31.8516 40.9414Z" fill="#ED784D"/>
<mask id="mask4_2496_6136" style="mask-type:luminance" maskUnits="userSpaceOnUse" x="31" y="40" width="5" height="5">
<path d="M31.8516 40.9365C31.8516 40.9365 30.7846 41.822 31.1698 42.4419C31.555 43.0617 32.6751 44.5051 33.3835 44.5051C34.0919 44.5051 35.5485 43.6816 35.5707 43.4469C35.5928 43.2122 35.491 41.5254 35.491 41.5254C35.491 41.5254 32.2944 41.149 31.8516 40.9365Z" fill="white"/>
</mask>
<g mask="url(#mask4_2496_6136)">
<path d="M34.7424 41.1882C34.7424 41.1882 32.4888 41.3432 32.0195 41.9143C31.5502 42.4855 31.8646 43.7252 31.8646 43.7252C31.8646 43.7252 30.6559 43.0832 30.7046 42.273C30.7533 41.4627 31.7672 40.3691 31.7672 40.3691L34.7424 41.1882Z" fill="#D24A0E"/>
</g>
<path d="M25.6466 32.198C25.6466 32.198 28.2234 31.1885 28.4581 31.2859C28.6927 31.3833 29.0292 31.7287 28.4005 32.1714C28.1747 32.3219 27.1785 32.7647 27.3556 32.8488C27.5327 32.9329 30.5301 34.5313 30.5833 35.1201C30.6364 35.709 29.6225 37.108 28.9141 37.0062C28.2057 36.9044 25.4297 35.7355 25.4297 35.7355C25.642 35.1079 25.7657 34.4537 25.7972 33.7919C25.7263 33.1056 25.6466 32.198 25.6466 32.198Z" fill="#ED784D"/>
<mask id="mask5_2496_6136" style="mask-type:luminance" maskUnits="userSpaceOnUse" x="25" y="31" width="6" height="7">
<path d="M25.6466 32.197C25.6466 32.197 28.2234 31.1875 28.4581 31.2849C28.6927 31.3823 29.0292 31.7277 28.4005 32.1704C28.1747 32.321 27.1785 32.7637 27.3556 32.8478C27.5327 32.932 30.5301 34.5303 30.5833 35.1191C30.6364 35.708 29.6225 37.1071 28.9141 37.0052C28.2057 36.9034 25.4297 35.7345 25.4297 35.7345C25.642 35.1069 25.7657 34.4527 25.7972 33.7909C25.7263 33.1046 25.6466 32.197 25.6466 32.197Z" fill="white"/>
</mask>
<g mask="url(#mask5_2496_6136)">
<path d="M25.099 32.5625C25.099 32.5625 26.1306 34.701 27.4677 35.5909C28.28 36.1319 29.136 36.6043 30.0268 37.0033C29.6891 37.2071 29.2949 37.2971 28.9022 37.26C28.2691 37.1892 25.1477 36.3214 24.9573 35.8034C24.767 35.2854 25.099 32.5625 25.099 32.5625Z" fill="#D24A0E"/>
</g>
</g>
</svg>
