<svg width="11" height="11" viewBox="0 0 11 11" fill="none" xmlns="http://www.w3.org/2000/svg">
<path d="M5.66406 4.9987C5.01962 4.9987 4.46962 4.76803 4.01406 4.3067C3.55851 3.84581 3.33073 3.2987 3.33073 2.66536C3.33073 2.02092 3.55851 1.47092 4.01406 1.01536C4.46962 0.559809 5.01962 0.332031 5.66406 0.332031C6.30851 0.332031 6.85851 0.559809 7.31406 1.01536C7.76962 1.47092 7.9974 2.02092 7.9974 2.66536C7.9974 3.2987 7.76962 3.84581 7.31406 4.3067C6.85851 4.76803 6.30851 4.9987 5.66406 4.9987ZM0.664062 10.0654V8.58203C0.664062 8.25981 0.752951 7.95981 0.930729 7.68203C1.10851 7.40425 1.3474 7.18759 1.6474 7.03203C2.30295 6.70981 2.96695 6.46803 3.6394 6.3067C4.3114 6.14581 4.98628 6.06536 5.66406 6.06536C6.34184 6.06536 7.01695 6.14581 7.6894 6.3067C8.3614 6.46803 9.02517 6.70981 9.68073 7.03203C9.98073 7.18759 10.2196 7.40425 10.3974 7.68203C10.5752 7.95981 10.6641 8.25981 10.6641 8.58203V10.0654H0.664062ZM1.66406 9.06536H9.66406V8.58203C9.66406 8.4487 9.62517 8.32648 9.5474 8.21536C9.46962 8.10425 9.36406 8.00981 9.23073 7.93203C8.65295 7.65425 8.06695 7.44025 7.47273 7.29003C6.87806 7.14025 6.27517 7.06536 5.66406 7.06536C5.05295 7.06536 4.45006 7.14025 3.8554 7.29003C3.26117 7.44025 2.67517 7.65425 2.0974 7.93203C1.96406 8.00981 1.85851 8.10425 1.78073 8.21536C1.70295 8.32648 1.66406 8.4487 1.66406 8.58203V9.06536ZM5.66406 3.9987C6.03073 3.9987 6.34473 3.86803 6.60606 3.6067C6.86695 3.34581 6.9974 3.03203 6.9974 2.66536C6.9974 2.2987 6.86695 1.9847 6.60606 1.72336C6.34473 1.46248 6.03073 1.33203 5.66406 1.33203C5.2974 1.33203 4.98362 1.46248 4.72273 1.72336C4.4614 1.9847 4.33073 2.2987 4.33073 2.66536C4.33073 3.03203 4.4614 3.34581 4.72273 3.6067C4.98362 3.86803 5.2974 3.9987 5.66406 3.9987Z" fill="#333333"/>
</svg>
