<svg width="32" height="32" viewBox="0 0 32 32" fill="none" xmlns="http://www.w3.org/2000/svg">
<g id="zoom_in_FILL0_wght300_GRAD0_opsz24 1" opacity="0.8">
<path id="Vector" d="M26.057 27.4357L17.6826 19.0613C17.0159 19.6118 16.2493 20.0425 15.3826 20.3536C14.5159 20.6647 13.6194 20.8203 12.6929 20.8203C10.414 20.8203 8.48528 20.0313 6.9068 18.4532C5.32831 16.8751 4.53906 14.9469 4.53906 12.6686C4.53906 10.3903 5.32811 8.46138 6.9062 6.8819C8.48429 5.30243 10.4125 4.5127 12.6908 4.5127C14.9691 4.5127 16.898 5.30194 18.4775 6.88043C20.057 8.45892 20.8467 10.3876 20.8467 12.6665C20.8467 13.6186 20.6869 14.528 20.3672 15.3947C20.0475 16.2614 19.621 17.0152 19.0877 17.6562L27.4621 26.0306L26.057 27.4357ZM12.6929 18.8204C14.4108 18.8204 15.866 18.2242 17.0583 17.0319C18.2506 15.8396 18.8467 14.3845 18.8467 12.6665C18.8467 10.9485 18.2506 9.49341 17.0583 8.3011C15.866 7.10879 14.4108 6.51263 12.6929 6.51263C10.9749 6.51263 9.51977 7.10879 8.32746 8.3011C7.13517 9.49341 6.53903 10.9485 6.53903 12.6665C6.53903 14.3845 7.13517 15.8396 8.32746 17.0319C9.51977 18.2242 10.9749 18.8204 12.6929 18.8204ZM11.6929 16.2562V13.6665H9.10316V11.6665H11.6929V9.0768H13.6929V11.6665H16.2826V13.6665H13.6929V16.2562H11.6929Z" fill="white"/>
</g>
</svg>
