<svg width="15" height="16" viewBox="0 0 15 16" fill="none" xmlns="http://www.w3.org/2000/svg">
<path d="M1.8 15.175C1.3 15.175 0.875 15 0.525 14.65C0.175 14.3 0 13.875 0 13.375V10.675H1.5V13.375C1.5 13.4417 1.53333 13.5083 1.6 13.575C1.66667 13.6417 1.73333 13.675 1.8 13.675H13.2C13.2667 13.675 13.3333 13.6417 13.4 13.575C13.4667 13.5083 13.5 13.4417 13.5 13.375V10.675H15V13.375C15 13.875 14.825 14.3 14.475 14.65C14.125 15 13.7 15.175 13.2 15.175H1.8ZM6.75 11.3V2.9L4.275 5.35L3.225 4.275L7.5 0L11.775 4.275L10.725 5.35L8.25 2.9V11.3H6.75Z" fill="white"/>
</svg>
