<svg xmlns="http://www.w3.org/2000/svg" shape-rendering="geometricPrecision" text-rendering="geometricPrecision" image-rendering="optimizeQuality" fill-rule="evenodd" clip-rule="evenodd" viewBox="0 0 351 511.68"><path fill-rule="nonzero" d="M331.51 385.31c0-31.25-11.42-56.2-34.27-74.85-9.44-7.71-21.77-15.16-36.97-22.34h38.18c3.41 2.24 6.66 4.52 9.75 6.84 28.09 20.98 42.2 50.94 42.2 89.65 0 39.4-16.09 70.41-48.15 93.03-32.18 22.62-72.4 34.04-120.66 34.04-49.78 0-92.8-11.77-128.71-35.09C16.86 453.27-.51 416.55.65 366.42l.59-1.98h15.39c0 45.12 16.66 77.76 49.89 98.16 33.22 20.4 71.58 30.54 115.07 30.54 43.72 0 79.62-10.02 107.84-30.07 28.09-19.94 42.08-45.94 42.08-77.76zM0 253.04h351v20.76H0v-20.76zm114.34-14.33c-25.25-9.8-45.46-20.32-60.64-31.54-26.24-19.47-39.41-47.92-39.41-85.22 0-37.19 15.51-66.81 46.4-88.84C91.7 11.07 131.22 0 179.26 0c48.5 0 88.13 13.52 118.79 40.57 30.78 27.16 45.7 62.02 44.77 104.58l-.7 2.09H326.5c0-37.19-13.76-67.85-41.04-92.21-27.28-24.37-62.72-36.61-106.2-36.61-45.12 0-80.79 10.03-107.14 30.2-26.23 20.16-39.41 44.41-39.41 72.63 0 28.21 10.84 51.64 32.65 70.3 20.33 17.6 56.26 33.26 107.59 47.16h-58.61z"/></svg>